#Desert_Rock_04_(2)_599_168.obj

v -0.453878 -0.2619555 1.435928
v -0.4538775 -0.2619555 -1.435915
v -0.5451785 -0.1706564 -1.435915
v -0.5451789 -0.1706564 1.435928
v -0.4538783 -0.1706564 1.527225
v 0.4538824 -0.1706564 1.527225
v 0.4538827 -0.2619555 1.435928
v -0.453878 -0.2619555 1.435928
v -0.5451789 -0.1706564 1.435928
v -0.5451789 0.1706579 1.435928
v -0.4538783 0.1706579 1.527225
v -0.4538783 -0.1706564 1.527225
v 0.545176 -0.1706564 1.435929
v 0.5451765 -0.1706564 -1.435915
v 0.4538831 -0.2619555 -1.435915
v 0.4538827 -0.2619555 1.435928
v 0.4538824 -0.1706564 1.527225
v 0.4538824 0.1706579 1.527225
v 0.545176 0.1706579 1.435929
v 0.545176 -0.1706564 1.435929
v -0.5451789 0.1706579 1.435928
v -0.5451785 0.1706579 -1.435915
v -0.4538775 0.261957 -1.435915
v -0.453878 0.261957 1.435929
v -0.453878 0.261957 1.435929
v 0.4538827 0.261957 1.435929
v 0.4538824 0.1706579 1.527225
v -0.4538783 0.1706579 1.527225
v 0.4538827 0.261957 1.435929
v 0.4538831 0.261957 -1.435915
v 0.5451765 0.1706579 -1.435915
v 0.545176 0.1706579 1.435929
v -0.5451785 0.1706579 -1.435915
v -0.5451785 -0.1706564 -1.435915
v -0.4538773 -0.1706564 -1.527227
v -0.4538773 0.1706579 -1.527227
v -0.4538773 0.1706579 -1.527227
v 0.4538834 0.1706579 -1.527225
v 0.4538831 0.261957 -1.435915
v -0.4538775 0.261957 -1.435915
v 0.4538834 0.1706579 -1.527225
v 0.4538834 -0.1706564 -1.527225
v 0.5451765 -0.1706564 -1.435915
v 0.5451765 0.1706579 -1.435915
v -0.4538775 -0.2619555 -1.435915
v 0.4538831 -0.2619555 -1.435915
v 0.4538834 -0.1706564 -1.527225
v -0.4538773 -0.1706564 -1.527227
v -0.4538783 -0.1706564 1.527225
v -0.4538783 0.1706579 1.527225
v 0.4538824 0.1706579 1.527225
v 0.4538824 -0.1706564 1.527225
v -0.453878 0.261957 1.435929
v -0.4538775 0.261957 -1.435915
v 0.4538831 0.261957 -1.435915
v 0.4538827 0.261957 1.435929
v -0.4538773 0.1706579 -1.527227
v -0.4538773 -0.1706564 -1.527227
v 0.4538834 -0.1706564 -1.527225
v 0.4538834 0.1706579 -1.527225
v -0.4538775 -0.2619555 -1.435915
v -0.453878 -0.2619555 1.435928
v 0.4538827 -0.2619555 1.435928
v 0.4538831 -0.2619555 -1.435915
v 0.545176 -0.1706564 1.435929
v 0.545176 0.1706579 1.435929
v 0.5451765 0.1706579 -1.435915
v 0.5451765 -0.1706564 -1.435915
v -0.5451785 -0.1706564 -1.435915
v -0.5451785 0.1706579 -1.435915
v -0.5451789 0.1706579 1.435928
v -0.5451789 -0.1706564 1.435928
v -0.453878 -0.2619555 1.435928
v -0.5451789 -0.1706564 1.435928
v -0.4538783 -0.1706564 1.527225
v 0.545176 -0.1706564 1.435929
v 0.4538827 -0.2619555 1.435928
v 0.4538824 -0.1706564 1.527225
v -0.5451789 0.1706579 1.435928
v -0.453878 0.261957 1.435929
v -0.4538783 0.1706579 1.527225
v 0.4538827 0.261957 1.435929
v 0.545176 0.1706579 1.435929
v 0.4538824 0.1706579 1.527225
v -0.5451785 0.1706579 -1.435915
v -0.4538773 0.1706579 -1.527227
v -0.4538775 0.261957 -1.435915
v 0.4538834 0.1706579 -1.527225
v 0.5451765 0.1706579 -1.435915
v 0.4538831 0.261957 -1.435915
v -0.5451785 -0.1706564 -1.435915
v -0.4538775 -0.2619555 -1.435915
v -0.4538773 -0.1706564 -1.527227
v 0.4538831 -0.2619555 -1.435915
v 0.5451765 -0.1706564 -1.435915
v 0.4538834 -0.1706564 -1.527225

vn -1.430511E-06 -0.7070313 -0.7070313
vn -1.430511E-06 -0.7070313 -0.7070313
vn -1.430511E-06 -0.7070313 -0.7070313
vn -1.430511E-06 -0.7070313 -0.7070313
vn -0.6025391 -0.7973633 1.251698E-06
vn -0.6025391 -0.7973633 1.251698E-06
vn -0.6025391 -0.7973633 1.251698E-06
vn -0.6025391 -0.7973633 1.251698E-06
vn -0.6025391 0 -0.7973633
vn -0.6025391 0 -0.7973633
vn -0.6025391 0 -0.7973633
vn -0.6025391 0 -0.7973633
vn 1.430511E-06 -0.7070313 0.7070313
vn 1.430511E-06 -0.7070313 0.7070313
vn 1.430511E-06 -0.7070313 0.7070313
vn 1.430511E-06 -0.7070313 0.7070313
vn -0.6025391 0 0.7973633
vn -0.6025391 0 0.7973633
vn -0.6025391 0 0.7973633
vn -0.6025391 0 0.7973633
vn -1.430511E-06 0.7070313 -0.7070313
vn -1.430511E-06 0.7070313 -0.7070313
vn -1.430511E-06 0.7070313 -0.7070313
vn -1.430511E-06 0.7070313 -0.7070313
vn -0.6025391 0.7973633 1.251698E-06
vn -0.6025391 0.7973633 1.251698E-06
vn -0.6025391 0.7973633 1.251698E-06
vn -0.6025391 0.7973633 1.251698E-06
vn 1.430511E-06 0.7070313 0.7070313
vn 1.430511E-06 0.7070313 0.7070313
vn 1.430511E-06 0.7070313 0.7070313
vn 1.430511E-06 0.7070313 0.7070313
vn 0.6025391 0 -0.7973633
vn 0.6025391 0 -0.7973633
vn 0.6025391 0 -0.7973633
vn 0.6025391 0 -0.7973633
vn 0.6025391 0.7973633 -1.251698E-06
vn 0.6025391 0.7973633 -1.251698E-06
vn 0.6025391 0.7973633 -1.251698E-06
vn 0.6025391 0.7973633 -1.251698E-06
vn 0.6025391 0 0.7973633
vn 0.6025391 0 0.7973633
vn 0.6025391 0 0.7973633
vn 0.6025391 0 0.7973633
vn 0.6025391 -0.7973633 -1.251698E-06
vn 0.6025391 -0.7973633 -1.251698E-06
vn 0.6025391 -0.7973633 -1.251698E-06
vn 0.6025391 -0.7973633 -1.251698E-06
vn -1 0 2.026558E-06
vn -1 0 2.026558E-06
vn -1 0 2.026558E-06
vn -1 0 2.026558E-06
vn 0 1 0
vn 0 1 0
vn 0 1 0
vn 0 1 0
vn 1 0 -2.026558E-06
vn 1 0 -2.026558E-06
vn 1 0 -2.026558E-06
vn 1 0 -2.026558E-06
vn 0 -1 0
vn 0 -1 0
vn 0 -1 0
vn 0 -1 0
vn 2.026558E-06 0 1
vn 2.026558E-06 0 1
vn 2.026558E-06 0 1
vn 2.026558E-06 0 1
vn -2.026558E-06 0 -1
vn -2.026558E-06 0 -1
vn -2.026558E-06 0 -1
vn -2.026558E-06 0 -1
vn -0.4711914 -0.6235352 -0.6235352
vn -0.4711914 -0.6235352 -0.6235352
vn -0.4711914 -0.6235352 -0.6235352
vn -0.4711914 -0.6235352 0.6235352
vn -0.4711914 -0.6235352 0.6235352
vn -0.4711914 -0.6235352 0.6235352
vn -0.4711914 0.6235352 -0.6235352
vn -0.4711914 0.6235352 -0.6235352
vn -0.4711914 0.6235352 -0.6235352
vn -0.4711914 0.6235352 0.6235352
vn -0.4711914 0.6235352 0.6235352
vn -0.4711914 0.6235352 0.6235352
vn 0.4711914 0.6235352 -0.6235352
vn 0.4711914 0.6235352 -0.6235352
vn 0.4711914 0.6235352 -0.6235352
vn 0.4711914 0.6235352 0.6235352
vn 0.4711914 0.6235352 0.6235352
vn 0.4711914 0.6235352 0.6235352
vn 0.4711914 -0.6235352 -0.6235352
vn 0.4711914 -0.6235352 -0.6235352
vn 0.4711914 -0.6235352 -0.6235352
vn 0.4711914 -0.6235352 0.6235352
vn 0.4711914 -0.6235352 0.6235352
vn 0.4711914 -0.6235352 0.6235352

vt 0.7583008 0.9956055
vt 0.7583008 0.7509766
vt 0.7470703 0.7509766
vt 0.7470703 0.9956055
vt 0.5922852 0.7211914
vt 0.6689453 0.7211914
vt 0.6699219 0.7104492
vt 0.5908203 0.7104492
vt 0.5820313 0.7197266
vt 0.5820313 0.7504883
vt 0.5922852 0.7490234
vt 0.5922852 0.7211914
vt 0.8466797 0.9956055
vt 0.8466797 0.7509766
vt 0.8354492 0.7509766
vt 0.8354492 0.9956055
vt 0.6689453 0.7211914
vt 0.6689453 0.7490234
vt 0.6791992 0.7504883
vt 0.6791992 0.7197266
vt 0.7070313 0.00289917
vt 0.7070313 0.2474365
vt 0.7182617 0.2474365
vt 0.7182617 0.00289917
vt 0.5908203 0.7597656
vt 0.6699219 0.7597656
vt 0.6689453 0.7490234
vt 0.5922852 0.7490234
vt 0.7954102 0.00289917
vt 0.7954102 0.2474365
vt 0.8061523 0.2474365
vt 0.8061523 0.00289917
vt 0.260498 0.5883789
vt 0.260498 0.5571289
vt 0.25 0.5585938
vt 0.25 0.5869141
vt 0.25 0.5869141
vt 0.173584 0.5869141
vt 0.1722412 0.597168
vt 0.2514648 0.597168
vt 0.173584 0.5869141
vt 0.173584 0.5585938
vt 0.163208 0.5571289
vt 0.163208 0.5883789
vt 0.2514648 0.5483398
vt 0.1722412 0.5483398
vt 0.173584 0.5585938
vt 0.25 0.5585938
vt 0.5922852 0.7211914
vt 0.5922852 0.7490234
vt 0.6689453 0.7490234
vt 0.6689453 0.7211914
vt 0.7182617 0.00289917
vt 0.7182617 0.2474365
vt 0.7954102 0.2474365
vt 0.7954102 0.00289917
vt 0.25 0.5869141
vt 0.25 0.5585938
vt 0.173584 0.5585938
vt 0.173584 0.5869141
vt 0.7583008 0.7509766
vt 0.7583008 0.9956055
vt 0.8354492 0.9956055
vt 0.8354492 0.7509766
vt 0.8354492 0.00289917
vt 0.8061523 0.00289917
vt 0.8061523 0.2474365
vt 0.8354492 0.2474365
vt 0.6777344 0.2474365
vt 0.7070313 0.2474365
vt 0.7070313 0.00289917
vt 0.6777344 0.00289917
vt 0.5908203 0.7104492
vt 0.5820313 0.7197266
vt 0.5922852 0.7211914
vt 0.6791992 0.7197266
vt 0.6699219 0.7104492
vt 0.6689453 0.7211914
vt 0.5820313 0.7504883
vt 0.5908203 0.7597656
vt 0.5922852 0.7490234
vt 0.6699219 0.7597656
vt 0.6791992 0.7504883
vt 0.6689453 0.7490234
vt 0.260498 0.5883789
vt 0.25 0.5869141
vt 0.2514648 0.597168
vt 0.173584 0.5869141
vt 0.163208 0.5883789
vt 0.1722412 0.597168
vt 0.260498 0.5571289
vt 0.2514648 0.5483398
vt 0.25 0.5585938
vt 0.1722412 0.5483398
vt 0.163208 0.5571289
vt 0.173584 0.5585938

g Desert_Rock_04_(2)_599_168
usemtl Desert_Rock_04_(2)_599_168
usemap Desert_Rock_04_(2)_599_168
f 1/1/1 3/3/3 2/2/2
f 1/1/1 4/4/4 3/3/3
f 5/5/5 7/7/7 6/6/6
f 5/5/5 8/8/8 7/7/7
f 9/9/9 11/11/11 10/10/10
f 9/9/9 12/12/12 11/11/11
f 13/13/13 15/15/15 14/14/14
f 13/13/13 16/16/16 15/15/15
f 17/17/17 19/19/19 18/18/18
f 17/17/17 20/20/20 19/19/19
f 21/21/21 23/23/23 22/22/22
f 21/21/21 24/24/24 23/23/23
f 25/25/25 27/27/27 26/26/26
f 25/25/25 28/28/28 27/27/27
f 29/29/29 31/31/31 30/30/30
f 29/29/29 32/32/32 31/31/31
f 33/33/33 35/35/35 34/34/34
f 33/33/33 36/36/36 35/35/35
f 37/37/37 39/39/39 38/38/38
f 37/37/37 40/40/40 39/39/39
f 41/41/41 43/43/43 42/42/42
f 41/41/41 44/44/44 43/43/43
f 45/45/45 47/47/47 46/46/46
f 45/45/45 48/48/48 47/47/47
f 49/49/49 51/51/51 50/50/50
f 49/49/49 52/52/52 51/51/51
f 53/53/53 55/55/55 54/54/54
f 53/53/53 56/56/56 55/55/55
f 57/57/57 59/59/59 58/58/58
f 57/57/57 60/60/60 59/59/59
f 61/61/61 63/63/63 62/62/62
f 61/61/61 64/64/64 63/63/63
f 65/65/65 67/67/67 66/66/66
f 65/65/65 68/68/68 67/67/67
f 69/69/69 71/71/71 70/70/70
f 69/69/69 72/72/72 71/71/71
f 73/73/73 75/75/75 74/74/74
f 76/76/76 78/78/78 77/77/77
f 79/79/79 81/81/81 80/80/80
f 82/82/82 84/84/84 83/83/83
f 85/85/85 87/87/87 86/86/86
f 88/88/88 90/90/90 89/89/89
f 91/91/91 93/93/93 92/92/92
f 94/94/94 96/96/96 95/95/95
