#Desert_Sand_dune_01_(19)_629_85.obj

v 4.22059 5.638387E-07 0.2385796
v 2.995597 0.2895657 -0.3930814
v 3.035364 0.2955918 -0.5010679
v 4.332743 -4.783122E-08 0.09001468
v 3.07396 0.2831765 -0.6633389
v 4.381543 -4.783122E-08 -0.08605166
v 3.259319 -1.989063E-07 0.4855301
v 2.517462 -4.783122E-08 0.4279653
v 3.127604 -1.989063E-07 -1.498859
v 4.090988 -3.536662E-07 -0.6724951
v 2.51735 -4.783122E-08 -1.912598
v 2.257202 0.5063466 -0.9938761
v 1.623729 1.032439E-07 -2.232381
v 1.338231 0.6450294 -1.140659
v 2.217644 0.5276183 -0.8151585
v 1.316599 0.6672151 -0.9590015
v 2.168956 0.513756 -0.6381823
v 1.289695 0.6420644 -0.7783833
v 2.07984 1.032439E-07 0.3880983
v 1.289966 -4.783122E-08 0.292661
v 0.3739208 -4.783122E-08 -2.336046
v 0.1028679 0.7119356 -1.159854
v -0.804633 -1.098363E-08 -2.215534
v -0.918698 0.6614512 -1.144194
v 0.104425 0.7331527 -0.9777265
v -0.9005687 0.6827145 -0.9622002
v 0.1068084 0.6969621 -0.7968516
v -0.8771376 0.6502035 -0.7818057
v 0.2650468 -2.940743E-08 0.1705173
v -0.7804611 -8.467881E-08 0.08905224
v -2.059545 1.032439E-07 -1.779627
v -2.015676 0.4912398 -0.9616029
v -2.774588 -4.783122E-08 -1.428693
v -3.038432 0.2394905 -0.599344
v -1.979391 0.5115988 -0.7825803
v -3.020574 0.2496155 -0.4350261
v -1.933481 0.4907012 -0.6060736
v -2.966403 0.2401334 -0.2799456
v -1.92713 -4.783122E-08 0.1313319
v -2.605788 1.032439E-07 0.2521234
v -4.303951 -3.536662E-07 -0.1024388
v -3.6882 2.580038E-07 -0.9180186
v -4.295414 -3.536662E-07 0.08735935
v -4.215518 2.580038E-07 0.2507717
v -3.487272 -4.783122E-08 0.4651506

vn -0.00144577 0.9956055 -0.08929443
vn 0.02294922 0.9726563 -0.2301025
vn -0.1556396 0.9814453 -0.1096191
vn -0.08441162 0.9941406 -0.06671143
vn -0.2871094 0.9560547 0.05212402
vn -0.119751 0.9926758 -0.0008907318
vn 0.03820801 0.9887695 -0.1413574
vn 0.04614258 0.9775391 -0.2033691
vn -0.2161865 0.9741211 0.06518555
vn -0.1621094 0.9858398 0.03674316
vn -0.2252197 0.9633789 0.1433105
vn -0.2983398 0.9399414 0.1639404
vn -0.1699219 0.9604492 0.2185059
vn -0.2094727 0.9399414 0.2685547
vn -0.151123 0.9848633 -0.08398438
vn -0.06958008 0.996582 -0.04229736
vn 0.07879639 0.9526367 -0.2929688
vn 0.1324463 0.9365234 -0.3239746
vn 0.08660889 0.9624023 -0.2556152
vn 0.1278076 0.9492188 -0.2866211
vn -0.1184082 0.956543 0.2648926
vn -0.1340332 0.9360352 0.324707
vn -0.04449463 0.9555664 0.2910156
vn -0.03201294 0.9272461 0.3728027
vn 0.003137589 0.9995117 -0.02125549
vn 0.08905029 0.9956055 0.01320648
vn 0.1715088 0.9194336 -0.3530273
vn 0.1824951 0.9165039 -0.3557129
vn 0.152832 0.9365234 -0.3149414
vn 0.1567383 0.9311523 -0.328125
vn 0.03543091 0.9526367 0.3017578
vn 0.07562256 0.925293 0.3708496
vn 0.08740234 0.9633789 0.251709
vn 0.1289063 0.9589844 0.251709
vn 0.1600342 0.9863281 0.03701782
vn 0.1678467 0.9848633 0.03713989
vn 0.1674805 0.9311523 -0.3232422
vn 0.1276855 0.9707031 -0.2019043
vn 0.1291504 0.9433594 -0.3054199
vn 0.09332275 0.9697266 -0.223877
vn 0.06121826 0.9951172 0.0723877
vn 0.0670166 0.9858398 0.1505127
vn 0.09820557 0.9946289 0.01861572
vn 0.05914307 0.996582 -0.05728149
vn 0.05563354 0.9897461 -0.1309814

vt 0.887207 0.6738281
vt 0.7246094 0.6831055
vt 0.7207031 0.6987305
vt 0.887207 0.6982422
vt 0.7128906 0.7207031
vt 0.8793945 0.7226563
vt 0.8120117 0.5898438
vt 0.7363281 0.5556641
vt 0.6586914 0.8256836
vt 0.8100586 0.7783203
vt 0.5708008 0.8427734
vt 0.6108398 0.7158203
vt 0.4624023 0.8320313
vt 0.512207 0.6826172
vt 0.6196289 0.6914063
vt 0.5229492 0.6591797
vt 0.6274414 0.6669922
vt 0.5332031 0.6352539
vt 0.6914063 0.5366211
vt 0.6088867 0.5043945
vt 0.3347168 0.7753906
vt 0.3918457 0.6162109
vt 0.2299805 0.6953125
vt 0.2946777 0.5576172
vt 0.4050293 0.5942383
vt 0.3093262 0.5361328
vt 0.4179688 0.5717773
vt 0.3242188 0.515625
vt 0.5014648 0.4624023
vt 0.3952637 0.4143066
vt 0.1400146 0.5722656
vt 0.2021484 0.4743652
vt 0.0960083 0.489502
vt 0.1292725 0.3730469
vt 0.2182617 0.4543457
vt 0.1425781 0.3540039
vt 0.2351074 0.4353027
vt 0.1588135 0.3378906
vt 0.2878418 0.345459
vt 0.2312012 0.2927246
vt 0.04269409 0.2419434
vt 0.04425049 0.3759766
vt 0.0569458 0.2192383
vt 0.07617188 0.2036133
vt 0.161377 0.2177734

g Desert_Sand_dune_01_(19)_629_85
usemtl Desert_Sand_dune_01_(19)_629_85
usemap Desert_Sand_dune_01_(19)_629_85
f 1/1/1 3/3/3 2/2/2
f 1/1/1 4/4/4 3/3/3
f 4/4/4 5/5/5 3/3/3
f 4/4/4 6/6/6 5/5/5
f 2/2/2 7/7/7 1/1/1
f 2/2/2 8/8/8 7/7/7
f 9/9/9 5/5/5 6/6/6
f 9/9/9 6/6/6 10/10/10
f 11/11/11 5/5/5 9/9/9
f 11/11/11 12/12/12 5/5/5
f 3/3/3 5/5/5 12/12/12
f 13/13/13 12/12/12 11/11/11
f 13/13/13 14/14/14 12/12/12
f 15/15/15 12/12/12 14/14/14
f 3/3/3 12/12/12 15/15/15
f 2/2/2 3/3/3 15/15/15
f 15/15/15 14/14/14 16/16/16
f 17/17/17 15/15/15 16/16/16
f 2/2/2 15/15/15 17/17/17
f 17/17/17 8/8/8 2/2/2
f 17/17/17 16/16/16 18/18/18
f 18/18/18 19/19/19 17/17/17
f 17/17/17 19/19/19 8/8/8
f 18/18/18 20/20/20 19/19/19
f 21/21/21 14/14/14 13/13/13
f 21/21/21 22/22/22 14/14/14
f 16/16/16 14/14/14 22/22/22
f 23/23/23 22/22/22 21/21/21
f 23/23/23 24/24/24 22/22/22
f 24/24/24 25/25/25 22/22/22
f 16/16/16 22/22/22 25/25/25
f 18/18/18 16/16/16 25/25/25
f 24/24/24 26/26/26 25/25/25
f 26/26/26 27/27/27 25/25/25
f 18/18/18 25/25/25 27/27/27
f 27/27/27 20/20/20 18/18/18
f 26/26/26 28/28/28 27/27/27
f 28/28/28 29/29/29 27/27/27
f 27/27/27 29/29/29 20/20/20
f 28/28/28 30/30/30 29/29/29
f 31/31/31 24/24/24 23/23/23
f 31/31/31 32/32/32 24/24/24
f 32/32/32 26/26/26 24/24/24
f 33/33/33 32/32/32 31/31/31
f 33/33/33 34/34/34 32/32/32
f 34/34/34 35/35/35 32/32/32
f 32/32/32 35/35/35 26/26/26
f 35/35/35 28/28/28 26/26/26
f 34/34/34 36/36/36 35/35/35
f 36/36/36 37/37/37 35/35/35
f 35/35/35 37/37/37 28/28/28
f 37/37/37 30/30/30 28/28/28
f 36/36/36 38/38/38 37/37/37
f 38/38/38 39/39/39 37/37/37
f 37/37/37 39/39/39 30/30/30
f 38/38/38 40/40/40 39/39/39
f 41/41/41 34/34/34 33/33/33
f 41/41/41 36/36/36 34/34/34
f 41/41/41 33/33/33 42/42/42
f 41/41/41 43/43/43 36/36/36
f 43/43/43 38/38/38 36/36/36
f 43/43/43 44/44/44 38/38/38
f 45/45/45 38/38/38 44/44/44
f 45/45/45 40/40/40 38/38/38
