#Desert_Sand_dune_01_(7)_538_76.obj

v -1.927131 -5.770397E-09 0.1313324
v -1.912091 -5.770397E-09 0.3579941
v -2.66537 -5.770397E-09 0.548684
v -2.605789 1.469255E-07 0.2521252
v -0.7848746 -5.770397E-09 0.357178
v -0.7804611 -4.394436E-08 0.08905255
v 0.2650463 1.331659E-08 0.1705178
v 0.2421351 -4.394436E-08 0.4750122
v 1.230568 7.057753E-08 0.6037491
v 1.289965 -5.770397E-09 0.2926613
v 2.079839 1.469255E-07 0.3880994
v 1.992906 1.469255E-07 0.6984285
v 2.530036 1.469255E-07 0.798052
v 2.517461 -5.770397E-09 0.4279664
v 3.259318 -1.584663E-07 0.4855306
v 3.381992 -5.770397E-09 0.8339171
v 4.220588 6.047194E-07 0.2385807
v 4.523258 -3.108685E-07 0.4893465
v 4.332743 -5.770397E-09 0.09001478
v 4.807482 -5.770397E-09 0.2538258
v 4.381542 -5.770397E-09 -0.08605035
v 4.861457 2.993277E-07 0.03638417
v 4.090987 -3.108685E-07 -0.6724944
v 4.406576 -3.108685E-07 -0.8635393
v 3.435778 2.993277E-07 -1.786305
v 3.127602 -1.584663E-07 -1.498858
v 2.517349 -5.770397E-09 -1.912597
v 2.689325 -1.584663E-07 -2.202722
v 1.713097 -5.770397E-09 -2.569235
v 1.623729 1.469255E-07 -2.23238
v 0.3739203 -5.770397E-09 -2.336046
v 0.3494304 -4.394436E-08 -2.701835
v -0.9194441 -4.394436E-08 -2.561152
v -0.8046337 3.240357E-08 -2.215533
v -2.059546 1.469255E-07 -1.779625
v -2.262606 1.469255E-07 -2.055179
v -3.053089 1.469255E-07 -1.702573
v -2.774588 -5.770397E-09 -1.428691
v -3.688201 2.993277E-07 -0.9180171
v -3.910361 2.993277E-07 -1.099206
v -4.303951 -3.108685E-07 -0.1024383
v -4.744996 2.993277E-07 0.01614545
v -4.295414 -3.108685E-07 0.08736005
v -4.735556 -3.108685E-07 0.2505475
v -4.215519 2.993277E-07 0.2507727
v -4.647187 -3.108685E-07 0.4523605
v -3.487273 -5.770397E-09 0.4651516
v -3.591499 2.993277E-07 0.7072017

vn 0.2875977 0.9023438 0.3200684
vn 0 1 0
vn 0 1 0
vn 0.2158203 0.9467773 0.237793
vn 0 1 0
vn 0.2966309 0.8833008 0.3620605
vn 0.2844238 0.8916016 0.3515625
vn 0 1 0
vn 0 1 0
vn 0.2675781 0.9121094 0.3098145
vn 0.2563477 0.9345703 0.2463379
vn -5.960464E-08 1 -1.192093E-07
vn 0 1 -4.172325E-07
vn 0.2192383 0.9604492 0.1707764
vn 0.1502686 0.9799805 0.1273193
vn 4.768372E-07 1 2.980232E-07
vn 0.1101685 0.9921875 0.04953003
vn 8.940697E-07 1 2.384186E-07
vn 0.1300049 0.9892578 -0.06488037
vn 4.172325E-07 1 1.788139E-07
vn 0.06970215 0.9868164 -0.145752
vn -3.576279E-07 1 2.980232E-07
vn 0.04779053 0.9746094 -0.2178955
vn -5.960464E-08 1 3.576279E-07
vn 5.960464E-08 1 5.364418E-07
vn 0.04354858 0.9536133 -0.296875
vn -0.04483032 0.9355469 -0.348877
vn 0 1 0
vn -5.960464E-08 1 -2.980232E-07
vn -0.1651611 0.9311523 -0.3244629
vn -0.2486572 0.9243164 -0.2880859
vn -1.192093E-07 1 -1.192093E-07
vn -5.960464E-08 1 -5.960464E-08
vn -0.3203125 0.9223633 -0.2147217
vn -0.3769531 0.9174805 -0.1256104
vn 0 1 0
vn 1.788139E-07 1 -5.960464E-08
vn -0.3493652 0.9360352 -0.03662109
vn -0.2209473 0.9750977 -0.004364014
vn 7.748604E-07 1 -5.960464E-08
vn -0.1237793 0.9916992 0.03335571
vn 1.549721E-06 1 0
vn -0.0791626 0.9907227 0.109436
vn -5.960464E-08 1 5.960464E-08
vn 0.03616333 0.9936523 0.1053467
vn -7.748604E-07 1 2.980232E-07
vn 0.1278076 0.9814453 0.1425781
vn 0 1 2.384186E-07

vt 0.2878418 0.345459
vt 0.3054199 0.3183594
vt 0.24646 0.2531738
vt 0.2312012 0.2927246
vt 0.4138184 0.3811035
vt 0.3952637 0.4143066
vt 0.5014648 0.4624023
vt 0.5209961 0.4238281
vt 0.625 0.4628906
vt 0.6088867 0.5043945
vt 0.6914063 0.5366211
vt 0.7050781 0.4936523
vt 0.7636719 0.5112305
vt 0.7363281 0.5556641
vt 0.8120117 0.5898438
vt 0.8486328 0.5541992
vt 0.887207 0.6738281
vt 0.934082 0.659668
vt 0.887207 0.6982422
vt 0.9448242 0.7045898
vt 0.8793945 0.7226563
vt 0.9345703 0.7338867
vt 0.8100586 0.7783203
vt 0.8271484 0.8193359
vt 0.668457 0.878418
vt 0.6586914 0.8256836
vt 0.5708008 0.8427734
vt 0.5668945 0.8876953
vt 0.4472656 0.878418
vt 0.4624023 0.8320313
vt 0.3347168 0.7753906
vt 0.3066406 0.8188477
vt 0.194458 0.730957
vt 0.2299805 0.6953125
vt 0.1400146 0.5722656
vt 0.1009521 0.5947266
vt 0.04986572 0.5073242
vt 0.0960083 0.489502
vt 0.04425049 0.3759766
vt 0.01006317 0.3859863
vt 0.04269409 0.2419434
vt 0.008651733 0.2028809
vt 0.0569458 0.2192383
vt 0.02613831 0.1746826
vt 0.07617188 0.2036133
vt 0.04891968 0.1549072
vt 0.161377 0.2177734
vt 0.168457 0.182373

g Desert_Sand_dune_01_(7)_538_76
usemtl Desert_Sand_dune_01_(7)_538_76
usemap Desert_Sand_dune_01_(7)_538_76
f 1/1/1 3/3/3 2/2/2
f 1/1/1 4/4/4 3/3/3
f 5/5/5 1/1/1 2/2/2
f 5/5/5 6/6/6 1/1/1
f 7/7/7 6/6/6 5/5/5
f 7/7/7 5/5/5 8/8/8
f 9/9/9 7/7/7 8/8/8
f 9/9/9 10/10/10 7/7/7
f 11/11/11 10/10/10 9/9/9
f 11/11/11 9/9/9 12/12/12
f 13/13/13 11/11/11 12/12/12
f 13/13/13 14/14/14 11/11/11
f 15/15/15 14/14/14 13/13/13
f 15/15/15 13/13/13 16/16/16
f 17/17/17 15/15/15 16/16/16
f 17/17/17 16/16/16 18/18/18
f 19/19/19 17/17/17 18/18/18
f 19/19/19 18/18/18 20/20/20
f 21/21/21 19/19/19 20/20/20
f 21/21/21 20/20/20 22/22/22
f 23/23/23 21/21/21 22/22/22
f 23/23/23 22/22/22 24/24/24
f 25/25/25 23/23/23 24/24/24
f 25/25/25 26/26/26 23/23/23
f 27/27/27 26/26/26 25/25/25
f 27/27/27 25/25/25 28/28/28
f 29/29/29 27/27/27 28/28/28
f 29/29/29 30/30/30 27/27/27
f 31/31/31 30/30/30 29/29/29
f 31/31/31 29/29/29 32/32/32
f 33/33/33 31/31/31 32/32/32
f 33/33/33 34/34/34 31/31/31
f 35/35/35 34/34/34 33/33/33
f 35/35/35 33/33/33 36/36/36
f 37/37/37 35/35/35 36/36/36
f 37/37/37 38/38/38 35/35/35
f 39/39/39 38/38/38 37/37/37
f 39/39/39 37/37/37 40/40/40
f 41/41/41 39/39/39 40/40/40
f 41/41/41 40/40/40 42/42/42
f 43/43/43 41/41/41 42/42/42
f 43/43/43 42/42/42 44/44/44
f 45/45/45 43/43/43 44/44/44
f 45/45/45 44/44/44 46/46/46
f 47/47/47 45/45/45 46/46/46
f 47/47/47 46/46/46 48/48/48
f 3/3/3 47/47/47 48/48/48
f 3/3/3 4/4/4 47/47/47
