#Desert_Sand_dune_01_(12)_763_100.obj

v -1.927136 -9.793914E-08 0.1313318
v -1.912097 -9.793914E-08 0.3579915
v -2.665375 -9.793914E-08 0.5486822
v -2.605796 5.149239E-08 0.2521223
v -0.7848806 -9.793914E-08 0.3571772
v -0.7804664 -1.35297E-07 0.08905206
v 0.2650402 -7.552441E-08 0.1705168
v 0.2421287 -1.35297E-07 0.4750105
v 1.230562 -2.322338E-08 0.6037478
v 1.28996 -9.793914E-08 0.2926607
v 2.079832 5.149239E-08 0.3880973
v 1.9929 5.149239E-08 0.698428
v 2.53003 5.149239E-08 0.7980506
v 2.517453 -9.793914E-08 0.4279641
v 3.259311 -2.473707E-07 0.4855288
v 3.381986 -9.793914E-08 0.8339149
v 4.220584 5.147301E-07 0.2385796
v 4.52325 -4.042738E-07 0.4893445
v 4.332735 -9.793914E-08 0.09001376
v 4.807476 -9.793914E-08 0.2538248
v 4.381537 -9.793914E-08 -0.08605178
v 4.86145 2.083955E-07 0.03638329
v 4.09098 -4.042738E-07 -0.6724961
v 4.406569 -4.042738E-07 -0.8635408
v 3.435771 2.083955E-07 -1.786307
v 3.127598 -2.473707E-07 -1.498859
v 2.517343 -9.793914E-08 -1.912598
v 2.689317 -2.473707E-07 -2.202723
v 1.713089 -9.793914E-08 -2.569237
v 1.623721 5.149239E-08 -2.232381
v 0.3739136 -9.793914E-08 -2.336046
v 0.3494248 -1.35297E-07 -2.701835
v -0.9194494 -1.35297E-07 -2.561153
v -0.8046412 -6.058126E-08 -2.215535
v -2.05955 5.149239E-08 -1.779627
v -2.262614 5.149239E-08 -2.05518
v -3.053095 5.149239E-08 -1.702575
v -2.774593 -9.793914E-08 -1.428692
v -3.688206 2.083955E-07 -0.9180186
v -3.910366 2.083955E-07 -1.099208
v -4.303959 -4.042738E-07 -0.10244
v -4.745004 2.083955E-07 0.01614459
v -4.29542 -4.042738E-07 0.08735882
v -4.735561 -4.042738E-07 0.2505455
v -4.215523 2.083955E-07 0.2507713
v -4.647193 -4.042738E-07 0.4523595
v -3.48728 -9.793914E-08 0.4651496
v -3.591506 2.083955E-07 0.7072006

vn 0.3571777 0.9257813 -0.1199341
vn 0 1 0
vn 0 1 0
vn 0.2629395 0.9604492 -0.08972168
vn 0 1 0
vn 0.3959961 0.9111328 -0.1130371
vn 0.3823242 0.9174805 -0.1066284
vn 0 1 0
vn 0 1 0
vn 0.3408203 0.9335938 -0.1070557
vn 0.2844238 0.9506836 -0.1193848
vn -1.192093E-07 1 0
vn -2.980232E-07 1 -5.960464E-08
vn 0.210083 0.9707031 -0.1150513
vn 0.1512451 0.9853516 -0.07495117
vn 3.576279E-07 1 -2.980232E-07
vn 0.07617188 0.9946289 -0.06958008
vn 4.768372E-07 1 -5.960464E-07
vn -0.006816864 0.9921875 -0.1240845
vn 2.980232E-07 1 -2.384186E-07
vn -0.09075928 0.9902344 -0.104248
vn 1.192093E-07 1 4.172325E-07
vn -0.1553955 0.9814453 -0.1119385
vn 2.384186E-07 1 1.788139E-07
vn 4.768372E-07 1 5.960464E-08
vn -0.2203369 0.9658203 -0.1362305
vn -0.2932129 0.9521484 -0.08441162
vn 0 1 0
vn -2.384186E-07 1 0
vn -0.3156738 0.9482422 0.0198822
vn -0.315918 0.9433594 0.09906006
vn -1.192093E-07 1 0
vn -1.192093E-07 1 0
vn -0.2822266 0.9418945 0.1818848
vn -0.230957 0.9379883 0.2580566
vn 0 1 0
vn 0 1 -1.788139E-07
vn -0.1494141 0.9521484 0.2653809
vn -0.07873535 0.9814453 0.1726074
vn 1.788139E-07 1 -6.556511E-07
vn -0.01580811 0.9936523 0.1083984
vn 5.364418E-07 1 -1.192093E-06
vn 0.059021 0.9931641 0.09924316
vn 0 1 1.192093E-07
vn 0.09484863 0.9951172 0.007362366
vn 0 1 7.152557E-07
vn 0.1556396 0.9863281 -0.05200195
vn 1.192093E-07 1 1.192093E-07

vt 0.2878418 0.345459
vt 0.3054199 0.3183594
vt 0.24646 0.2531738
vt 0.2312012 0.2927246
vt 0.4138184 0.3811035
vt 0.3952637 0.4143066
vt 0.5014648 0.4624023
vt 0.5209961 0.4238281
vt 0.625 0.4628906
vt 0.6088867 0.5043945
vt 0.6914063 0.5366211
vt 0.7050781 0.4936523
vt 0.7636719 0.5112305
vt 0.7363281 0.5556641
vt 0.8120117 0.5898438
vt 0.8486328 0.5541992
vt 0.887207 0.6738281
vt 0.934082 0.659668
vt 0.887207 0.6982422
vt 0.9448242 0.7045898
vt 0.8793945 0.7226563
vt 0.9345703 0.7338867
vt 0.8100586 0.7783203
vt 0.8271484 0.8193359
vt 0.668457 0.878418
vt 0.6586914 0.8256836
vt 0.5708008 0.8427734
vt 0.5668945 0.8876953
vt 0.4472656 0.878418
vt 0.4624023 0.8320313
vt 0.3347168 0.7753906
vt 0.3066406 0.8188477
vt 0.194458 0.730957
vt 0.2299805 0.6953125
vt 0.1400146 0.5722656
vt 0.1009521 0.5947266
vt 0.04986572 0.5073242
vt 0.0960083 0.489502
vt 0.04425049 0.3759766
vt 0.01006317 0.3859863
vt 0.04269409 0.2419434
vt 0.008651733 0.2028809
vt 0.0569458 0.2192383
vt 0.02613831 0.1746826
vt 0.07617188 0.2036133
vt 0.04891968 0.1549072
vt 0.161377 0.2177734
vt 0.168457 0.182373

g Desert_Sand_dune_01_(12)_763_100
usemtl Desert_Sand_dune_01_(12)_763_100
usemap Desert_Sand_dune_01_(12)_763_100
f 1/1/1 3/3/3 2/2/2
f 1/1/1 4/4/4 3/3/3
f 5/5/5 1/1/1 2/2/2
f 5/5/5 6/6/6 1/1/1
f 7/7/7 6/6/6 5/5/5
f 7/7/7 5/5/5 8/8/8
f 9/9/9 7/7/7 8/8/8
f 9/9/9 10/10/10 7/7/7
f 11/11/11 10/10/10 9/9/9
f 11/11/11 9/9/9 12/12/12
f 13/13/13 11/11/11 12/12/12
f 13/13/13 14/14/14 11/11/11
f 15/15/15 14/14/14 13/13/13
f 15/15/15 13/13/13 16/16/16
f 17/17/17 15/15/15 16/16/16
f 17/17/17 16/16/16 18/18/18
f 19/19/19 17/17/17 18/18/18
f 19/19/19 18/18/18 20/20/20
f 21/21/21 19/19/19 20/20/20
f 21/21/21 20/20/20 22/22/22
f 23/23/23 21/21/21 22/22/22
f 23/23/23 22/22/22 24/24/24
f 25/25/25 23/23/23 24/24/24
f 25/25/25 26/26/26 23/23/23
f 27/27/27 26/26/26 25/25/25
f 27/27/27 25/25/25 28/28/28
f 29/29/29 27/27/27 28/28/28
f 29/29/29 30/30/30 27/27/27
f 31/31/31 30/30/30 29/29/29
f 31/31/31 29/29/29 32/32/32
f 33/33/33 31/31/31 32/32/32
f 33/33/33 34/34/34 31/31/31
f 35/35/35 34/34/34 33/33/33
f 35/35/35 33/33/33 36/36/36
f 37/37/37 35/35/35 36/36/36
f 37/37/37 38/38/38 35/35/35
f 39/39/39 38/38/38 37/37/37
f 39/39/39 37/37/37 40/40/40
f 41/41/41 39/39/39 40/40/40
f 41/41/41 40/40/40 42/42/42
f 43/43/43 41/41/41 42/42/42
f 43/43/43 42/42/42 44/44/44
f 45/45/45 43/43/43 44/44/44
f 45/45/45 44/44/44 46/46/46
f 47/47/47 45/45/45 46/46/46
f 47/47/47 46/46/46 48/48/48
f 3/3/3 47/47/47 48/48/48
f 3/3/3 4/4/4 47/47/47
