#Desert_Sand_dune_01_(14)_682_83.obj

v 4.220589 6.060991E-07 0.2385801
v 2.995597 0.2895657 -0.3930815
v 3.035363 0.2955918 -0.5010675
v 4.332743 -4.65112E-09 0.09001449
v 3.07396 0.2831765 -0.6633393
v 4.381542 -4.65112E-09 -0.08605121
v 3.259319 -1.576024E-07 0.48553
v 2.517461 -4.65112E-09 0.4279658
v 3.127603 -1.576024E-07 -1.498859
v 4.090988 -3.094988E-07 -0.6724954
v 2.517349 -4.65112E-09 -1.912598
v 2.257201 0.5063467 -0.9938752
v 1.623729 1.483001E-07 -2.232381
v 1.338231 0.6450294 -1.140658
v 2.217644 0.5276183 -0.8151588
v 1.316599 0.6672151 -0.9590018
v 2.168957 0.513756 -0.6381829
v 1.289695 0.6420645 -0.7783831
v 2.07984 1.483001E-07 0.3880984
v 1.289966 -4.65112E-09 0.292661
v 0.3739197 -4.65112E-09 -2.336045
v 0.1028678 0.7119356 -1.159854
v -0.8046334 3.332299E-08 -2.215534
v -0.9186984 0.6614512 -1.144194
v 0.1044248 0.7331527 -0.9777263
v -0.9005681 0.6827145 -0.9622002
v 0.1068079 0.6969621 -0.7968513
v -0.8771381 0.6502035 -0.7818055
v 0.2650463 1.433593E-08 0.1705176
v -0.7804614 -4.262523E-08 0.08905274
v -2.059545 1.483001E-07 -1.779626
v -2.015676 0.4912399 -0.9616035
v -2.774587 -4.65112E-09 -1.428693
v -3.038431 0.2394905 -0.5993442
v -1.979391 0.5115988 -0.7825798
v -3.020574 0.2496156 -0.4350263
v -1.933481 0.4907013 -0.6060733
v -2.966402 0.2401334 -0.2799459
v -1.92713 -4.65112E-09 0.1313316
v -2.605788 1.483001E-07 0.2521236
v -4.30395 -3.094988E-07 -0.1024399
v -3.688199 3.001966E-07 -0.9180185
v -4.295413 -3.094988E-07 0.0873597
v -4.215518 3.001966E-07 0.2507715
v -3.487272 -4.65112E-09 0.4651512

vn 0.09741211 0.9946289 0.03405762
vn 0.2385254 0.9638672 0.1157837
vn 0.1800537 0.9755859 -0.1244507
vn 0.105957 0.9921875 -0.06488037
vn 0.05731201 0.9428711 -0.328125
vn 0.04867554 0.9902344 -0.1293945
vn 0.1376953 0.9853516 0.09765625
vn 0.2009277 0.9707031 0.1303711
vn 0.01538086 0.9658203 -0.2585449
vn 0.02476501 0.9814453 -0.1899414
vn -0.06481934 0.9521484 -0.2983398
vn -0.05773926 0.921875 -0.3818359
vn -0.1672363 0.9482422 -0.2683105
vn -0.2041016 0.921875 -0.3283691
vn 0.1508789 0.9794922 -0.1298828
vn 0.07366943 0.9951172 -0.05859375
vn 0.2824707 0.9379883 0.199585
vn 0.2929688 0.9174805 0.2678223
vn 0.2401123 0.9506836 0.1938477
vn 0.2558594 0.9335938 0.2492676
vn -0.2371826 0.9433594 -0.2312012
vn -0.2932129 0.9169922 -0.2697754
vn -0.2939453 0.9418945 -0.1622314
vn -0.3830566 0.9057617 -0.1794434
vn 0.02182007 0.9995117 0.01189423
vn -0.04983521 0.9941406 0.09130859
vn 0.3068848 0.8964844 0.3190918
vn 0.3051758 0.8925781 0.331543
vn 0.2751465 0.9174805 0.2858887
vn 0.2873535 0.9111328 0.2949219
vn -0.3366699 0.9379883 -0.08081055
vn -0.4226074 0.9038086 -0.06439209
vn -0.3046875 0.9521484 -0.005527496
vn -0.3205566 0.9462891 0.03894043
vn -0.1036987 0.9814453 0.1583252
vn -0.1068726 0.9799805 0.166626
vn 0.277832 0.9106445 0.3041992
vn 0.166626 0.9614258 0.2171631
vn 0.2749023 0.9257813 0.2575684
vn 0.2037354 0.9604492 0.1888428
vn -0.1029053 0.9936523 0.0375061
vn -0.1893311 0.9814453 0.01261902
vn -0.05935669 0.9931641 0.09906006
vn 0.0385437 0.9951172 0.0869751
vn 0.1196289 0.9863281 0.1123657

vt 0.887207 0.6738281
vt 0.7246094 0.6831055
vt 0.7207031 0.6987305
vt 0.887207 0.6982422
vt 0.7128906 0.7207031
vt 0.8793945 0.7226563
vt 0.8120117 0.5898438
vt 0.7363281 0.5556641
vt 0.6586914 0.8256836
vt 0.8100586 0.7783203
vt 0.5708008 0.8427734
vt 0.6108398 0.7158203
vt 0.4624023 0.8320313
vt 0.512207 0.6826172
vt 0.6196289 0.6914063
vt 0.5229492 0.6591797
vt 0.6274414 0.6669922
vt 0.5332031 0.6352539
vt 0.6914063 0.5366211
vt 0.6088867 0.5043945
vt 0.3347168 0.7753906
vt 0.3918457 0.6162109
vt 0.2299805 0.6953125
vt 0.2946777 0.5576172
vt 0.4050293 0.5942383
vt 0.3093262 0.5361328
vt 0.4179688 0.5717773
vt 0.3242188 0.515625
vt 0.5014648 0.4624023
vt 0.3952637 0.4143066
vt 0.1400146 0.5722656
vt 0.2021484 0.4743652
vt 0.0960083 0.489502
vt 0.1292725 0.3730469
vt 0.2182617 0.4543457
vt 0.1425781 0.3540039
vt 0.2351074 0.4353027
vt 0.1588135 0.3378906
vt 0.2878418 0.345459
vt 0.2312012 0.2927246
vt 0.04269409 0.2419434
vt 0.04425049 0.3759766
vt 0.0569458 0.2192383
vt 0.07617188 0.2036133
vt 0.161377 0.2177734

g Desert_Sand_dune_01_(14)_682_83
usemtl Desert_Sand_dune_01_(14)_682_83
usemap Desert_Sand_dune_01_(14)_682_83
f 1/1/1 3/3/3 2/2/2
f 1/1/1 4/4/4 3/3/3
f 4/4/4 5/5/5 3/3/3
f 4/4/4 6/6/6 5/5/5
f 2/2/2 7/7/7 1/1/1
f 2/2/2 8/8/8 7/7/7
f 9/9/9 5/5/5 6/6/6
f 9/9/9 6/6/6 10/10/10
f 11/11/11 5/5/5 9/9/9
f 11/11/11 12/12/12 5/5/5
f 3/3/3 5/5/5 12/12/12
f 13/13/13 12/12/12 11/11/11
f 13/13/13 14/14/14 12/12/12
f 15/15/15 12/12/12 14/14/14
f 3/3/3 12/12/12 15/15/15
f 2/2/2 3/3/3 15/15/15
f 15/15/15 14/14/14 16/16/16
f 17/17/17 15/15/15 16/16/16
f 2/2/2 15/15/15 17/17/17
f 17/17/17 8/8/8 2/2/2
f 17/17/17 16/16/16 18/18/18
f 18/18/18 19/19/19 17/17/17
f 17/17/17 19/19/19 8/8/8
f 18/18/18 20/20/20 19/19/19
f 21/21/21 14/14/14 13/13/13
f 21/21/21 22/22/22 14/14/14
f 16/16/16 14/14/14 22/22/22
f 23/23/23 22/22/22 21/21/21
f 23/23/23 24/24/24 22/22/22
f 24/24/24 25/25/25 22/22/22
f 16/16/16 22/22/22 25/25/25
f 18/18/18 16/16/16 25/25/25
f 24/24/24 26/26/26 25/25/25
f 26/26/26 27/27/27 25/25/25
f 18/18/18 25/25/25 27/27/27
f 27/27/27 20/20/20 18/18/18
f 26/26/26 28/28/28 27/27/27
f 28/28/28 29/29/29 27/27/27
f 27/27/27 29/29/29 20/20/20
f 28/28/28 30/30/30 29/29/29
f 31/31/31 24/24/24 23/23/23
f 31/31/31 32/32/32 24/24/24
f 32/32/32 26/26/26 24/24/24
f 33/33/33 32/32/32 31/31/31
f 33/33/33 34/34/34 32/32/32
f 34/34/34 35/35/35 32/32/32
f 32/32/32 35/35/35 26/26/26
f 35/35/35 28/28/28 26/26/26
f 34/34/34 36/36/36 35/35/35
f 36/36/36 37/37/37 35/35/35
f 35/35/35 37/37/37 28/28/28
f 37/37/37 30/30/30 28/28/28
f 36/36/36 38/38/38 37/37/37
f 38/38/38 39/39/39 37/37/37
f 37/37/37 39/39/39 30/30/30
f 38/38/38 40/40/40 39/39/39
f 41/41/41 34/34/34 33/33/33
f 41/41/41 36/36/36 34/34/34
f 41/41/41 33/33/33 42/42/42
f 41/41/41 43/43/43 36/36/36
f 43/43/43 38/38/38 36/36/36
f 43/43/43 44/44/44 38/38/38
f 45/45/45 38/38/38 44/44/44
f 45/45/45 40/40/40 38/38/38
