#Desert_Sand_dune_01_(9)_607_107.obj

v -1.92713 -3.061949E-07 0.1313326
v -1.912089 -3.061949E-07 0.3579924
v -2.665368 -3.061949E-07 0.5486823
v -2.605787 -1.57875E-07 0.2521235
v -0.7848741 -3.061949E-07 0.3571781
v -0.780461 -3.48572E-07 0.08905134
v 0.2650469 -2.850063E-07 0.1705168
v 0.242136 -3.48572E-07 0.4750101
v 1.230569 -2.214407E-07 0.6037487
v 1.289966 -3.061949E-07 0.2926607
v 2.07984 -1.57875E-07 0.3880989
v 1.992907 -1.57875E-07 0.6984281
v 2.530036 -1.57875E-07 0.7980515
v 2.517462 -3.061949E-07 0.4279655
v 3.259319 -4.545148E-07 0.4855286
v 3.381993 -3.061949E-07 0.8339162
v 4.22059 3.082733E-07 0.2385795
v 4.523259 -6.028347E-07 0.4893458
v 4.332743 -3.061949E-07 0.0900147
v 4.807483 -3.061949E-07 0.2538247
v 4.381543 -3.061949E-07 -0.08605172
v 4.861457 -9.555096E-09 0.03638322
v 4.090988 -6.028347E-07 -0.6724954
v 4.406577 -6.028347E-07 -0.8635409
v 3.435778 -9.555096E-09 -1.786306
v 3.127604 -4.545148E-07 -1.498859
v 2.517349 -3.061949E-07 -1.912599
v 2.689325 -4.545148E-07 -2.202722
v 1.713098 -3.061949E-07 -2.569236
v 1.623729 -1.57875E-07 -2.232381
v 0.3739208 -3.061949E-07 -2.336046
v 0.3494304 -3.48572E-07 -2.701835
v -0.9194428 -3.48572E-07 -2.561152
v -0.8046327 -2.638178E-07 -2.215534
v -2.059544 -1.57875E-07 -1.779626
v -2.262605 -1.57875E-07 -2.055179
v -3.053087 -1.57875E-07 -1.702574
v -2.774588 -3.061949E-07 -1.428692
v -3.688199 -9.555096E-09 -0.9180183
v -3.910359 -9.555096E-09 -1.099208
v -4.30395 -6.028347E-07 -0.1024394
v -4.744996 -9.555096E-09 0.01614492
v -4.295413 -6.028347E-07 0.08735855
v -4.735554 -6.028347E-07 0.2505452
v -4.215518 -9.555096E-09 0.250771
v -4.647186 -6.028347E-07 0.4523598
v -3.487271 -3.061949E-07 0.4651504
v -3.591499 -9.555096E-09 0.7072016

vn -0.100647 0.8149414 0.5698242
vn 0 1 0
vn 0 1 0
vn -0.07617188 0.8925781 0.4443359
vn 0 1 0
vn -0.135498 0.784668 0.6040039
vn -0.135376 0.7978516 0.5869141
vn 0 1 0
vn 0 1 0
vn -0.1072998 0.8310547 0.5449219
vn -0.04995728 0.8696289 0.4902344
vn 0 1 -2.384186E-07
vn 4.172325E-07 1 -4.172325E-07
vn 0.0008368492 0.9179688 0.3955078
vn -0.01113129 0.9580078 0.286377
vn 5.960464E-08 1 8.34465E-07
vn 0.04260254 0.9838867 0.1730957
vn 5.364418E-07 1 1.311302E-06
vn 0.1928711 0.9765625 0.09173584
vn 1.192093E-07 1 7.152557E-07
vn 0.2312012 0.9711914 -0.05114746
vn -7.748604E-07 1 -1.192093E-07
vn 0.2905273 0.9462891 -0.1396484
vn -5.364418E-07 1 1.788139E-07
vn -5.364418E-07 1 6.556511E-07
vn 0.3684082 0.9052734 -0.210083
vn 0.3430176 0.8725586 -0.3474121
vn 0 1 0
vn 2.384186E-07 1 -3.576279E-07
vn 0.2122803 0.8637695 -0.4560547
vn 0.1011963 0.8525391 -0.512207
vn 0 1 -2.980232E-07
vn 0 1 -1.788139E-07
vn -0.03881836 0.8486328 -0.5268555
vn -0.1816406 0.840332 -0.5102539
vn 0 1 0
vn 2.384186E-07 1 1.788139E-07
vn -0.2587891 0.8725586 -0.4130859
vn -0.1920166 0.9472656 -0.2556152
vn 8.34465E-07 1 8.940697E-07
vn -0.151123 0.9819336 -0.1133423
vn 1.311302E-06 1 1.847744E-06
vn -0.1987305 0.9799805 0.007507324
vn -1.788139E-07 1 0
vn -0.08966064 0.9863281 0.1380615
vn -1.072884E-06 1 -5.960464E-07
vn -0.04891968 0.9599609 0.2746582
vn -2.980232E-07 1 1.192093E-07

vt 0.2878418 0.345459
vt 0.3054199 0.3183594
vt 0.24646 0.2531738
vt 0.2312012 0.2927246
vt 0.4138184 0.3811035
vt 0.3952637 0.4143066
vt 0.5014648 0.4624023
vt 0.5209961 0.4238281
vt 0.625 0.4628906
vt 0.6088867 0.5043945
vt 0.6914063 0.5366211
vt 0.7050781 0.4936523
vt 0.7636719 0.5112305
vt 0.7363281 0.5556641
vt 0.8120117 0.5898438
vt 0.8486328 0.5541992
vt 0.887207 0.6738281
vt 0.934082 0.659668
vt 0.887207 0.6982422
vt 0.9448242 0.7045898
vt 0.8793945 0.7226563
vt 0.9345703 0.7338867
vt 0.8100586 0.7783203
vt 0.8271484 0.8193359
vt 0.668457 0.878418
vt 0.6586914 0.8256836
vt 0.5708008 0.8427734
vt 0.5668945 0.8876953
vt 0.4472656 0.878418
vt 0.4624023 0.8320313
vt 0.3347168 0.7753906
vt 0.3066406 0.8188477
vt 0.194458 0.730957
vt 0.2299805 0.6953125
vt 0.1400146 0.5722656
vt 0.1009521 0.5947266
vt 0.04986572 0.5073242
vt 0.0960083 0.489502
vt 0.04425049 0.3759766
vt 0.01006317 0.3859863
vt 0.04269409 0.2419434
vt 0.008651733 0.2028809
vt 0.0569458 0.2192383
vt 0.02613831 0.1746826
vt 0.07617188 0.2036133
vt 0.04891968 0.1549072
vt 0.161377 0.2177734
vt 0.168457 0.182373

g Desert_Sand_dune_01_(9)_607_107
usemtl Desert_Sand_dune_01_(9)_607_107
usemap Desert_Sand_dune_01_(9)_607_107
f 1/1/1 3/3/3 2/2/2
f 1/1/1 4/4/4 3/3/3
f 5/5/5 1/1/1 2/2/2
f 5/5/5 6/6/6 1/1/1
f 7/7/7 6/6/6 5/5/5
f 7/7/7 5/5/5 8/8/8
f 9/9/9 7/7/7 8/8/8
f 9/9/9 10/10/10 7/7/7
f 11/11/11 10/10/10 9/9/9
f 11/11/11 9/9/9 12/12/12
f 13/13/13 11/11/11 12/12/12
f 13/13/13 14/14/14 11/11/11
f 15/15/15 14/14/14 13/13/13
f 15/15/15 13/13/13 16/16/16
f 17/17/17 15/15/15 16/16/16
f 17/17/17 16/16/16 18/18/18
f 19/19/19 17/17/17 18/18/18
f 19/19/19 18/18/18 20/20/20
f 21/21/21 19/19/19 20/20/20
f 21/21/21 20/20/20 22/22/22
f 23/23/23 21/21/21 22/22/22
f 23/23/23 22/22/22 24/24/24
f 25/25/25 23/23/23 24/24/24
f 25/25/25 26/26/26 23/23/23
f 27/27/27 26/26/26 25/25/25
f 27/27/27 25/25/25 28/28/28
f 29/29/29 27/27/27 28/28/28
f 29/29/29 30/30/30 27/27/27
f 31/31/31 30/30/30 29/29/29
f 31/31/31 29/29/29 32/32/32
f 33/33/33 31/31/31 32/32/32
f 33/33/33 34/34/34 31/31/31
f 35/35/35 34/34/34 33/33/33
f 35/35/35 33/33/33 36/36/36
f 37/37/37 35/35/35 36/36/36
f 37/37/37 38/38/38 35/35/35
f 39/39/39 38/38/38 37/37/37
f 39/39/39 37/37/37 40/40/40
f 41/41/41 39/39/39 40/40/40
f 41/41/41 40/40/40 42/42/42
f 43/43/43 41/41/41 42/42/42
f 43/43/43 42/42/42 44/44/44
f 45/45/45 43/43/43 44/44/44
f 45/45/45 44/44/44 46/46/46
f 47/47/47 45/45/45 46/46/46
f 47/47/47 46/46/46 48/48/48
f 3/3/3 47/47/47 48/48/48
f 3/3/3 4/4/4 47/47/47
