#Desert_Rock_06_656_162.obj

v -0.8067262 -0.2163075 0.9949687
v -0.8067262 0.1250072 0.9949687
v -0.7154253 0.1250072 1.086262
v -0.7154253 -0.2163075 1.086262
v 0.7154285 -0.2163075 1.086262
v 0.7154285 0.1250072 1.086262
v 0.8067285 0.1250072 0.9949687
v 0.8067285 -0.2163075 0.9949687
v -0.8067262 0.1250072 0.9949687
v -0.8067262 0.1250072 -0.994953
v -0.7154253 0.2163073 -0.9949568
v -0.7154253 0.2163073 0.9949687
v -0.7154253 0.2163073 0.9949687
v 0.7154285 0.2163073 0.9949687
v 0.7154285 0.1250072 1.086262
v -0.7154253 0.1250072 1.086262
v 0.7154285 0.2163073 0.9949687
v 0.7154285 0.2163073 -0.9949568
v 0.8067285 0.1250072 -0.994953
v 0.8067285 0.1250072 0.9949687
v -0.8067262 0.1250072 -0.994953
v -0.8067262 -0.2163075 -0.9949568
v -0.7154253 -0.2163075 -1.086262
v -0.7154253 0.1250072 -1.086258
v -0.7154253 0.1250072 -1.086258
v 0.7154285 0.1250072 -1.086258
v 0.7154285 0.2163073 -0.9949568
v -0.7154253 0.2163073 -0.9949568
v 0.7154285 0.1250072 -1.086258
v 0.7154285 -0.2163075 -1.086262
v 0.8067285 -0.2163075 -0.9949568
v 0.8067285 0.1250072 -0.994953
v -0.7154253 -0.2163075 1.086262
v -0.7154253 0.1250072 1.086262
v 0.7154285 0.1250072 1.086262
v 0.7154285 -0.2163075 1.086262
v -0.7154253 0.2163073 0.9949687
v -0.7154253 0.2163073 -0.9949568
v 0.7154285 0.2163073 -0.9949568
v 0.7154285 0.2163073 0.9949687
v -0.7154253 0.1250072 -1.086258
v -0.7154253 -0.2163075 -1.086262
v 0.7154285 -0.2163075 -1.086262
v 0.7154285 0.1250072 -1.086258
v 0.8067285 -0.2163075 0.9949687
v 0.8067285 0.1250072 0.9949687
v 0.8067285 0.1250072 -0.994953
v 0.8067285 -0.2163075 -0.9949568
v -0.8067262 -0.2163075 -0.9949568
v -0.8067262 0.1250072 -0.994953
v -0.8067262 0.1250072 0.9949687
v -0.8067262 -0.2163075 0.9949687
v -0.8067262 0.1250072 0.9949687
v -0.7154253 0.2163073 0.9949687
v -0.7154253 0.1250072 1.086262
v 0.7154285 0.2163073 0.9949687
v 0.8067285 0.1250072 0.9949687
v 0.7154285 0.1250072 1.086262
v -0.8067262 0.1250072 -0.994953
v -0.7154253 0.1250072 -1.086258
v -0.7154253 0.2163073 -0.9949568
v 0.7154285 0.1250072 -1.086258
v 0.8067285 0.1250072 -0.994953
v 0.7154285 0.2163073 -0.9949568
v -0.8067262 -0.2163075 0.9949687
v -0.5280273 -0.2163075 0.1618922
v -0.8067262 -0.2163075 -0.9949568
v -0.7154253 -0.2163075 1.086262
v 0.7154285 -0.2163075 1.086262
v 0.8067285 -0.2163075 0.9949687
v 0.8067285 -0.2163075 -0.9949568
v -0.7154253 -0.2163075 -1.086262
v 0.7154285 -0.2163075 -1.086262

vn -0.7070313 0 0.7070313
vn -0.7070313 0 0.7070313
vn -0.7070313 0 0.7070313
vn -0.7070313 0 0.7070313
vn 0.7070313 0 0.7070313
vn 0.7070313 0 0.7070313
vn 0.7070313 0 0.7070313
vn 0.7070313 0 0.7070313
vn -0.7070313 0.7070313 0
vn -0.7070313 0.7070313 0
vn -0.7070313 0.7070313 0
vn -0.7070313 0.7070313 0
vn 0 0.7070313 0.7070313
vn 0 0.7070313 0.7070313
vn 0 0.7070313 0.7070313
vn 0 0.7070313 0.7070313
vn 0.7070313 0.7070313 0
vn 0.7070313 0.7070313 0
vn 0.7070313 0.7070313 0
vn 0.7070313 0.7070313 0
vn -0.7070313 0 -0.7070313
vn -0.7070313 0 -0.7070313
vn -0.7070313 0 -0.7070313
vn -0.7070313 0 -0.7070313
vn 0 0.7070313 -0.7070313
vn 0 0.7070313 -0.7070313
vn 0 0.7070313 -0.7070313
vn 0 0.7070313 -0.7070313
vn 0.7070313 0 -0.7070313
vn 0.7070313 0 -0.7070313
vn 0.7070313 0 -0.7070313
vn 0.7070313 0 -0.7070313
vn 0 0 0.9995117
vn 0 0 0.9995117
vn 0 0 0.9995117
vn 0 0 0.9995117
vn 0 0.9995117 0
vn 0 0.9995117 0
vn 0 0.9995117 0
vn 0 0.9995117 0
vn 0 0 -0.9995117
vn 0 0 -0.9995117
vn 0 0 -0.9995117
vn 0 0 -0.9995117
vn 1 0 0
vn 1 0 0
vn 1 0 0
vn 1 0 0
vn -1 0 0
vn -1 0 0
vn -1 0 0
vn -1 0 0
vn -0.5771484 0.5771484 0.5771484
vn -0.5771484 0.5771484 0.5771484
vn -0.5771484 0.5771484 0.5771484
vn 0.5771484 0.5771484 0.5771484
vn 0.5771484 0.5771484 0.5771484
vn 0.5771484 0.5771484 0.5771484
vn -0.5771484 0.5771484 -0.5771484
vn -0.5771484 0.5771484 -0.5771484
vn -0.5771484 0.5771484 -0.5771484
vn 0.5771484 0.5771484 -0.5771484
vn 0.5771484 0.5771484 -0.5771484
vn 0.5771484 0.5771484 -0.5771484
vn 0 -0.9995117 0
vn 0 -0.9995117 0
vn 0 -0.9995117 0
vn 0 -0.9995117 0
vn 0 -0.9995117 0
vn 0 -0.9995117 0
vn 0 -0.9995117 0
vn 0 -0.9995117 0
vn 0 -0.9995117 0

vt 0.1325684 0.4589844
vt 0.1343994 0.4887695
vt 0.1445313 0.4868164
vt 0.1437988 0.4580078
vt 0.2661133 0.4580078
vt 0.2653809 0.4868164
vt 0.2756348 0.4887695
vt 0.2775879 0.4589844
vt 0.3220215 0.1894531
vt 0.1525879 0.1894531
vt 0.1525879 0.2004395
vt 0.3220215 0.2004395
vt 0.1433105 0.4973145
vt 0.2666016 0.4973145
vt 0.2653809 0.4868164
vt 0.1445313 0.4868164
vt 0.3220215 0.3222656
vt 0.1525879 0.3222656
vt 0.1525879 0.333252
vt 0.3220215 0.333252
vt 0.7397461 0.7958984
vt 0.7412109 0.7661133
vt 0.7299805 0.7651367
vt 0.7294922 0.7939453
vt 0.7294922 0.7939453
vt 0.6083984 0.7939453
vt 0.6069336 0.8046875
vt 0.7304688 0.8046875
vt 0.6083984 0.7939453
vt 0.6074219 0.7651367
vt 0.5961914 0.7661133
vt 0.5981445 0.7958984
vt 0.1437988 0.4580078
vt 0.1445313 0.4868164
vt 0.2653809 0.4868164
vt 0.2661133 0.4580078
vt 0.3220215 0.2004395
vt 0.1525879 0.2004395
vt 0.1525879 0.3222656
vt 0.3220215 0.3222656
vt 0.7294922 0.7939453
vt 0.7299805 0.7651367
vt 0.6074219 0.7651367
vt 0.6083984 0.7939453
vt 0.3220215 0.3623047
vt 0.3220215 0.333252
vt 0.1525879 0.333252
vt 0.1525879 0.3623047
vt 0.1525879 0.1602783
vt 0.1525879 0.1894531
vt 0.3220215 0.1894531
vt 0.3220215 0.1602783
vt 0.1343994 0.4887695
vt 0.1433105 0.4973145
vt 0.1445313 0.4868164
vt 0.2666016 0.4973145
vt 0.2756348 0.4887695
vt 0.2653809 0.4868164
vt 0.7397461 0.7958984
vt 0.7294922 0.7939453
vt 0.7304688 0.8046875
vt 0.6083984 0.7939453
vt 0.5981445 0.7958984
vt 0.6069336 0.8046875
vt 0.3283691 0.3376465
vt 0.3522949 0.2666016
vt 0.3283691 0.1680908
vt 0.3361816 0.345459
vt 0.4580078 0.345459
vt 0.4658203 0.3376465
vt 0.4658203 0.1680908
vt 0.3361816 0.1604004
vt 0.4580078 0.1602783

g Desert_Rock_06_656_162
usemtl Desert_Rock_06_656_162
usemap Desert_Rock_06_656_162
f 1/1/1 3/3/3 2/2/2
f 1/1/1 4/4/4 3/3/3
f 5/5/5 7/7/7 6/6/6
f 5/5/5 8/8/8 7/7/7
f 9/9/9 11/11/11 10/10/10
f 9/9/9 12/12/12 11/11/11
f 13/13/13 15/15/15 14/14/14
f 13/13/13 16/16/16 15/15/15
f 17/17/17 19/19/19 18/18/18
f 17/17/17 20/20/20 19/19/19
f 21/21/21 23/23/23 22/22/22
f 21/21/21 24/24/24 23/23/23
f 25/25/25 27/27/27 26/26/26
f 25/25/25 28/28/28 27/27/27
f 29/29/29 31/31/31 30/30/30
f 29/29/29 32/32/32 31/31/31
f 33/33/33 35/35/35 34/34/34
f 33/33/33 36/36/36 35/35/35
f 37/37/37 39/39/39 38/38/38
f 37/37/37 40/40/40 39/39/39
f 41/41/41 43/43/43 42/42/42
f 41/41/41 44/44/44 43/43/43
f 45/45/45 47/47/47 46/46/46
f 45/45/45 48/48/48 47/47/47
f 49/49/49 51/51/51 50/50/50
f 49/49/49 52/52/52 51/51/51
f 53/53/53 55/55/55 54/54/54
f 56/56/56 58/58/58 57/57/57
f 59/59/59 61/61/61 60/60/60
f 62/62/62 64/64/64 63/63/63
f 65/65/65 67/67/67 66/66/66
f 68/68/68 65/65/65 66/66/66
f 69/69/69 68/68/68 66/66/66
f 70/70/70 69/69/69 66/66/66
f 71/71/71 70/70/70 66/66/66
f 67/67/67 72/72/72 66/66/66
f 73/73/73 71/71/71 66/66/66
f 72/72/72 73/73/73 66/66/66
