#Desert_Sand_dune_01_(17)_410_60.obj

v -1.927129 -8.23231E-09 0.1313311
v -1.912087 -8.23231E-09 0.3579917
v -2.665367 -8.23231E-09 0.548682
v -2.605787 1.448634E-07 0.2521233
v -0.7848728 -8.23231E-09 0.3571764
v -0.7804595 -4.557273E-08 0.08905151
v 0.2650474 1.04379E-08 0.1705169
v 0.2421375 -4.557273E-08 0.4750106
v 1.23057 6.831555E-08 0.6037478
v 1.289966 -8.23231E-09 0.2926603
v 2.07984 1.448634E-07 0.3880978
v 1.992908 1.448634E-07 0.6984275
v 2.530038 1.448634E-07 0.7980494
v 2.517463 -8.23231E-09 0.4279647
v 3.25932 -1.61328E-07 0.4855281
v 3.381995 -8.23231E-09 0.8339145
v 4.22059 6.022835E-07 0.2385794
v 4.523261 -3.125567E-07 0.4893444
v 4.332743 -8.23231E-09 0.09001363
v 4.807484 -8.23231E-09 0.2538247
v 4.381544 -8.23231E-09 -0.08605218
v 4.861459 2.960921E-07 0.03638295
v 4.090989 -3.125567E-07 -0.672496
v 4.406578 -3.125567E-07 -0.8635408
v 3.43578 2.960921E-07 -1.786307
v 3.127605 -1.61328E-07 -1.49886
v 2.517351 -8.23231E-09 -1.9126
v 2.689325 -1.61328E-07 -2.202723
v 1.713099 -8.23231E-09 -2.569237
v 1.623729 1.448634E-07 -2.232381
v 0.3739209 -8.23231E-09 -2.336046
v 0.3494309 -4.557273E-08 -2.701836
v -0.9194428 -4.557273E-08 -2.561153
v -0.8046325 2.910811E-08 -2.215534
v -2.059543 1.448634E-07 -1.779627
v -2.262605 1.448634E-07 -2.055179
v -3.053087 1.448634E-07 -1.702575
v -2.774587 -8.23231E-09 -1.428692
v -3.688198 2.960921E-07 -0.9180189
v -3.910359 2.960921E-07 -1.099208
v -4.30395 -3.125567E-07 -0.1024388
v -4.744995 2.960921E-07 0.01614463
v -4.295412 -3.125567E-07 0.08735865
v -4.735553 -3.125567E-07 0.2505459
v -4.215517 2.960921E-07 0.2507712
v -4.647185 -3.125567E-07 0.4523591
v -3.487271 -8.23231E-09 0.4651506
v -3.591498 2.960921E-07 0.7072011

vn 0.2814941 0.9257813 0.2504883
vn 0 1 0
vn 0 1 0
vn 0.208374 0.9604492 0.1837158
vn 0 1 0
vn 0.2946777 0.9111328 0.2875977
vn 0.2822266 0.9174805 0.2790527
vn 0 1 0
vn 0 1 0
vn 0.2619629 0.9335938 0.2427979
vn 0.244873 0.9506836 0.1877441
vn -5.960464E-08 1 -5.960464E-08
vn -5.960464E-08 1 -3.576279E-07
vn 0.2041016 0.9707031 0.1252441
vn 0.1401367 0.9853516 0.09417725
vn 4.172325E-07 1 1.788139E-07
vn 0.0982666 0.9946289 0.03161621
vn 7.748604E-07 1 1.192093E-07
vn 0.1043091 0.9921875 -0.06750488
vn 3.576279E-07 1 1.192093E-07
vn 0.04544067 0.9902344 -0.1304932
vn -2.980232E-07 1 2.980232E-07
vn 0.02000427 0.9814453 -0.1904297
vn -5.960464E-08 1 2.980232E-07
vn 1.192093E-07 1 4.768372E-07
vn 0.008903503 0.9658203 -0.2587891
vn -0.07226563 0.9521484 -0.2966309
vn 0 1 0
vn -1.192093E-07 1 -2.384186E-07
vn -0.1739502 0.9482422 -0.2641602
vn -0.2429199 0.9433594 -0.2250977
vn -1.192093E-07 1 -5.960464E-08
vn -5.960464E-08 1 -5.960464E-08
vn -0.2978516 0.9418945 -0.1547852
vn -0.338623 0.9379883 -0.0723877
vn 0 1 0
vn 1.788139E-07 1 -5.960464E-08
vn -0.3046875 0.9521484 0.002094269
vn -0.1889648 0.9814453 0.01734924
vn 6.556511E-07 1 -1.192093E-07
vn -0.1019287 0.9936523 0.04006958
vn 1.311302E-06 1 -5.960464E-08
vn -0.05685425 0.9931641 0.1004639
vn -5.960464E-08 1 5.960464E-08
vn 0.04071045 0.9951172 0.08599854
vn -5.960464E-07 1 2.980232E-07
vn 0.1224365 0.9863281 0.109314
vn 0 1 1.788139E-07

vt 0.2878418 0.345459
vt 0.3054199 0.3183594
vt 0.24646 0.2531738
vt 0.2312012 0.2927246
vt 0.4138184 0.3811035
vt 0.3952637 0.4143066
vt 0.5014648 0.4624023
vt 0.5209961 0.4238281
vt 0.625 0.4628906
vt 0.6088867 0.5043945
vt 0.6914063 0.5366211
vt 0.7050781 0.4936523
vt 0.7636719 0.5112305
vt 0.7363281 0.5556641
vt 0.8120117 0.5898438
vt 0.8486328 0.5541992
vt 0.887207 0.6738281
vt 0.934082 0.659668
vt 0.887207 0.6982422
vt 0.9448242 0.7045898
vt 0.8793945 0.7226563
vt 0.9345703 0.7338867
vt 0.8100586 0.7783203
vt 0.8271484 0.8193359
vt 0.668457 0.878418
vt 0.6586914 0.8256836
vt 0.5708008 0.8427734
vt 0.5668945 0.8876953
vt 0.4472656 0.878418
vt 0.4624023 0.8320313
vt 0.3347168 0.7753906
vt 0.3066406 0.8188477
vt 0.194458 0.730957
vt 0.2299805 0.6953125
vt 0.1400146 0.5722656
vt 0.1009521 0.5947266
vt 0.04986572 0.5073242
vt 0.0960083 0.489502
vt 0.04425049 0.3759766
vt 0.01006317 0.3859863
vt 0.04269409 0.2419434
vt 0.008651733 0.2028809
vt 0.0569458 0.2192383
vt 0.02613831 0.1746826
vt 0.07617188 0.2036133
vt 0.04891968 0.1549072
vt 0.161377 0.2177734
vt 0.168457 0.182373

g Desert_Sand_dune_01_(17)_410_60
usemtl Desert_Sand_dune_01_(17)_410_60
usemap Desert_Sand_dune_01_(17)_410_60
f 1/1/1 3/3/3 2/2/2
f 1/1/1 4/4/4 3/3/3
f 5/5/5 1/1/1 2/2/2
f 5/5/5 6/6/6 1/1/1
f 7/7/7 6/6/6 5/5/5
f 7/7/7 5/5/5 8/8/8
f 9/9/9 7/7/7 8/8/8
f 9/9/9 10/10/10 7/7/7
f 11/11/11 10/10/10 9/9/9
f 11/11/11 9/9/9 12/12/12
f 13/13/13 11/11/11 12/12/12
f 13/13/13 14/14/14 11/11/11
f 15/15/15 14/14/14 13/13/13
f 15/15/15 13/13/13 16/16/16
f 17/17/17 15/15/15 16/16/16
f 17/17/17 16/16/16 18/18/18
f 19/19/19 17/17/17 18/18/18
f 19/19/19 18/18/18 20/20/20
f 21/21/21 19/19/19 20/20/20
f 21/21/21 20/20/20 22/22/22
f 23/23/23 21/21/21 22/22/22
f 23/23/23 22/22/22 24/24/24
f 25/25/25 23/23/23 24/24/24
f 25/25/25 26/26/26 23/23/23
f 27/27/27 26/26/26 25/25/25
f 27/27/27 25/25/25 28/28/28
f 29/29/29 27/27/27 28/28/28
f 29/29/29 30/30/30 27/27/27
f 31/31/31 30/30/30 29/29/29
f 31/31/31 29/29/29 32/32/32
f 33/33/33 31/31/31 32/32/32
f 33/33/33 34/34/34 31/31/31
f 35/35/35 34/34/34 33/33/33
f 35/35/35 33/33/33 36/36/36
f 37/37/37 35/35/35 36/36/36
f 37/37/37 38/38/38 35/35/35
f 39/39/39 38/38/38 37/37/37
f 39/39/39 37/37/37 40/40/40
f 41/41/41 39/39/39 40/40/40
f 41/41/41 40/40/40 42/42/42
f 43/43/43 41/41/41 42/42/42
f 43/43/43 42/42/42 44/44/44
f 45/45/45 43/43/43 44/44/44
f 45/45/45 44/44/44 46/46/46
f 47/47/47 45/45/45 46/46/46
f 47/47/47 46/46/46 48/48/48
f 3/3/3 47/47/47 48/48/48
f 3/3/3 4/4/4 47/47/47
