#Desert_Rock_05_(24)_730_193.obj

v -0.4538786 -0.2619552 0.3198994
v -0.4538777 -0.2619554 -0.3198811
v -0.5451788 -0.1706566 -0.3198808
v -0.5451784 -0.1706567 0.3198994
v -0.4538779 -0.1706565 0.4111912
v 0.4538824 -0.1706564 0.4111909
v 0.4538818 -0.2619555 0.3198998
v -0.4538786 -0.2619552 0.3198994
v -0.5451784 -0.1706567 0.3198994
v -0.5451789 0.170658 0.3198995
v -0.4538785 0.1706582 0.4111913
v -0.4538779 -0.1706565 0.4111912
v 0.5451787 -0.1706566 0.3198995
v 0.5451796 -0.1706565 -0.319881
v 0.4538813 -0.2619554 -0.3198804
v 0.4538818 -0.2619555 0.3198998
v 0.4538824 -0.1706564 0.4111909
v 0.4538818 0.1706582 0.411191
v 0.5451795 0.170658 0.3198993
v 0.5451787 -0.1706566 0.3198995
v -0.5451789 0.170658 0.3198995
v -0.545178 0.1706581 -0.319881
v -0.453878 0.261957 -0.3198804
v -0.453879 0.2619569 0.3199001
v -0.453879 0.2619569 0.3199001
v 0.4538815 0.2619569 0.3199005
v 0.4538818 0.1706582 0.411191
v -0.4538785 0.1706582 0.4111913
v 0.4538815 0.2619569 0.3199005
v 0.4538824 0.2619571 -0.31988
v 0.545179 0.1706581 -0.3198809
v 0.5451795 0.170658 0.3198993
v -0.545178 0.1706581 -0.319881
v -0.5451788 -0.1706566 -0.3198808
v -0.4538778 -0.1706565 -0.4111873
v -0.4538783 0.1706582 -0.4111865
v -0.4538783 0.1706582 -0.4111865
v 0.453882 0.1706582 -0.4111868
v 0.4538824 0.2619571 -0.31988
v -0.453878 0.261957 -0.3198804
v 0.453882 0.1706582 -0.4111868
v 0.4538811 -0.1706565 -0.4111866
v 0.5451796 -0.1706565 -0.319881
v 0.545179 0.1706581 -0.3198809
v -0.4538777 -0.2619554 -0.3198811
v 0.4538813 -0.2619554 -0.3198804
v 0.4538811 -0.1706565 -0.4111866
v -0.4538778 -0.1706565 -0.4111873
v -0.4538779 -0.1706565 0.4111912
v -0.4538785 0.1706582 0.4111913
v 0.4538818 0.1706582 0.411191
v 0.4538824 -0.1706564 0.4111909
v -0.453879 0.2619569 0.3199001
v -0.453878 0.261957 -0.3198804
v 0.4538824 0.2619571 -0.31988
v 0.4538815 0.2619569 0.3199005
v -0.4538783 0.1706582 -0.4111865
v -0.4538778 -0.1706565 -0.4111873
v 0.4538811 -0.1706565 -0.4111866
v 0.453882 0.1706582 -0.4111868
v -0.4538777 -0.2619554 -0.3198811
v -0.4538786 -0.2619552 0.3198994
v 0.4538818 -0.2619555 0.3198998
v 0.4538813 -0.2619554 -0.3198804
v 0.5451787 -0.1706566 0.3198995
v 0.5451795 0.170658 0.3198993
v 0.545179 0.1706581 -0.3198809
v 0.5451796 -0.1706565 -0.319881
v -0.5451788 -0.1706566 -0.3198808
v -0.545178 0.1706581 -0.319881
v -0.5451789 0.170658 0.3198995
v -0.5451784 -0.1706567 0.3198994
v -0.4538786 -0.2619552 0.3198994
v -0.5451784 -0.1706567 0.3198994
v -0.4538779 -0.1706565 0.4111912
v 0.5451787 -0.1706566 0.3198995
v 0.4538818 -0.2619555 0.3198998
v 0.4538824 -0.1706564 0.4111909
v -0.5451789 0.170658 0.3198995
v -0.453879 0.2619569 0.3199001
v -0.4538785 0.1706582 0.4111913
v 0.4538815 0.2619569 0.3199005
v 0.5451795 0.170658 0.3198993
v 0.4538818 0.1706582 0.411191
v -0.545178 0.1706581 -0.319881
v -0.4538783 0.1706582 -0.4111865
v -0.453878 0.261957 -0.3198804
v 0.453882 0.1706582 -0.4111868
v 0.545179 0.1706581 -0.3198809
v 0.4538824 0.2619571 -0.31988
v -0.5451788 -0.1706566 -0.3198808
v -0.4538777 -0.2619554 -0.3198811
v -0.4538778 -0.1706565 -0.4111873
v 0.4538813 -0.2619554 -0.3198804
v 0.5451796 -0.1706565 -0.319881
v 0.4538811 -0.1706565 -0.4111866

vn -0.1237793 -0.6850586 0.7172852
vn -0.1237793 -0.6850586 0.7172852
vn -0.1237793 -0.6850586 0.7172852
vn -0.1237793 -0.6850586 0.7172852
vn 0.6987305 -0.6992188 0.1495361
vn 0.6987305 -0.6992188 0.1495361
vn 0.6987305 -0.6992188 0.1495361
vn 0.6987305 -0.6992188 0.1495361
vn 0.5678711 0.02897644 0.8222656
vn 0.5678711 0.02897644 0.8222656
vn 0.5678711 0.02897644 0.8222656
vn 0.5678711 0.02897644 0.8222656
vn 0.1307373 -0.7280273 -0.6723633
vn 0.1307373 -0.7280273 -0.6723633
vn 0.1307373 -0.7280273 -0.6723633
vn 0.1307373 -0.7280273 -0.6723633
vn 0.8227539 -0.0139389 -0.5678711
vn 0.8227539 -0.0139389 -0.5678711
vn 0.8227539 -0.0139389 -0.5678711
vn 0.8227539 -0.0139389 -0.5678711
vn -0.1307373 0.7280273 0.6723633
vn -0.1307373 0.7280273 0.6723633
vn -0.1307373 0.7280273 0.6723633
vn -0.1307373 0.7280273 0.6723633
vn 0.6918945 0.7138672 0.1046753
vn 0.6918945 0.7138672 0.1046753
vn 0.6918945 0.7138672 0.1046753
vn 0.6918945 0.7138672 0.1046753
vn 0.1237793 0.6850586 -0.7172852
vn 0.1237793 0.6850586 -0.7172852
vn 0.1237793 0.6850586 -0.7172852
vn 0.1237793 0.6850586 -0.7172852
vn -0.8227539 0.0139389 0.5678711
vn -0.8227539 0.0139389 0.5678711
vn -0.8227539 0.0139389 0.5678711
vn -0.8227539 0.0139389 0.5678711
vn -0.6987305 0.6992188 -0.1495361
vn -0.6987305 0.6992188 -0.1495361
vn -0.6987305 0.6992188 -0.1495361
vn -0.6987305 0.6992188 -0.1495361
vn -0.5678711 -0.02897644 -0.8222656
vn -0.5678711 -0.02897644 -0.8222656
vn -0.5678711 -0.02897644 -0.8222656
vn -0.5678711 -0.02897644 -0.8222656
vn -0.6918945 -0.7138672 -0.1046753
vn -0.6918945 -0.7138672 -0.1046753
vn -0.6918945 -0.7138672 -0.1046753
vn -0.6918945 -0.7138672 -0.1046753
vn 0.9833984 0.01063538 0.1796875
vn 0.9833984 0.01063538 0.1796875
vn 0.9833984 0.01063538 0.1796875
vn 0.9833984 0.01063538 0.1796875
vn -0.004997253 0.9990234 -0.0317688
vn -0.004997253 0.9990234 -0.0317688
vn -0.004997253 0.9990234 -0.0317688
vn -0.004997253 0.9990234 -0.0317688
vn -0.9833984 -0.01063538 -0.1796875
vn -0.9833984 -0.01063538 -0.1796875
vn -0.9833984 -0.01063538 -0.1796875
vn -0.9833984 -0.01063538 -0.1796875
vn 0.004997253 -0.9990234 0.0317688
vn 0.004997253 -0.9990234 0.0317688
vn 0.004997253 -0.9990234 0.0317688
vn 0.004997253 -0.9990234 0.0317688
vn 0.1799316 -0.03034973 -0.9829102
vn 0.1799316 -0.03034973 -0.9829102
vn 0.1799316 -0.03034973 -0.9829102
vn 0.1799316 -0.03034973 -0.9829102
vn -0.1799316 0.03034973 0.9829102
vn -0.1799316 0.03034973 0.9829102
vn -0.1799316 0.03034973 0.9829102
vn -0.1799316 0.03034973 0.9829102
vn 0.4667969 -0.5532227 0.6894531
vn 0.4667969 -0.5532227 0.6894531
vn 0.4667969 -0.5532227 0.6894531
vn 0.6748047 -0.5883789 -0.4453125
vn 0.6748047 -0.5883789 -0.4453125
vn 0.6748047 -0.5883789 -0.4453125
vn 0.4609375 0.6005859 0.652832
vn 0.4609375 0.6005859 0.652832
vn 0.4609375 0.6005859 0.652832
vn 0.6689453 0.5654297 -0.4819336
vn 0.6689453 0.5654297 -0.4819336
vn 0.6689453 0.5654297 -0.4819336
vn -0.6743164 0.5883789 0.4455566
vn -0.6743164 0.5883789 0.4455566
vn -0.6743164 0.5883789 0.4455566
vn -0.4665527 0.5532227 -0.6894531
vn -0.4665527 0.5532227 -0.6894531
vn -0.4665527 0.5532227 -0.6894531
vn -0.6689453 -0.5654297 0.4821777
vn -0.6689453 -0.5654297 0.4821777
vn -0.6689453 -0.5654297 0.4821777
vn -0.4609375 -0.6005859 -0.652832
vn -0.4609375 -0.6005859 -0.652832
vn -0.4609375 -0.6005859 -0.652832

vt 0.7514648 0.6845703
vt 0.7514648 0.6298828
vt 0.7402344 0.6298828
vt 0.7402344 0.6845703
vt 0.4829102 0.244751
vt 0.559082 0.244751
vt 0.5605469 0.234375
vt 0.4816895 0.234375
vt 0.4724121 0.2432861
vt 0.4724121 0.2741699
vt 0.4829102 0.2727051
vt 0.4829102 0.244751
vt 0.8398438 0.6845703
vt 0.8398438 0.6298828
vt 0.8286133 0.6298828
vt 0.8286133 0.6845703
vt 0.559082 0.244751
vt 0.559082 0.2727051
vt 0.5698242 0.2741699
vt 0.5698242 0.2432861
vt 0.7148438 0.6904297
vt 0.7148438 0.7451172
vt 0.7255859 0.7451172
vt 0.7255859 0.6904297
vt 0.4816895 0.2832031
vt 0.5605469 0.2832031
vt 0.559082 0.2727051
vt 0.4829102 0.2727051
vt 0.8032227 0.6904297
vt 0.8032227 0.7451172
vt 0.8139648 0.7451172
vt 0.8139648 0.6904297
vt 0.7128906 0.293457
vt 0.7128906 0.2624512
vt 0.7021484 0.263916
vt 0.7021484 0.2919922
vt 0.7021484 0.2919922
vt 0.6259766 0.2919922
vt 0.6245117 0.3024902
vt 0.7036133 0.3024902
vt 0.6259766 0.2919922
vt 0.6259766 0.263916
vt 0.6157227 0.2624512
vt 0.6157227 0.293457
vt 0.7036133 0.253418
vt 0.6245117 0.253418
vt 0.6259766 0.263916
vt 0.7021484 0.263916
vt 0.4829102 0.244751
vt 0.4829102 0.2727051
vt 0.559082 0.2727051
vt 0.559082 0.244751
vt 0.7255859 0.6904297
vt 0.7255859 0.7451172
vt 0.8032227 0.7451172
vt 0.8032227 0.6904297
vt 0.7021484 0.2919922
vt 0.7021484 0.263916
vt 0.6259766 0.263916
vt 0.6259766 0.2919922
vt 0.7514648 0.6298828
vt 0.7514648 0.6845703
vt 0.8286133 0.6845703
vt 0.8286133 0.6298828
vt 0.8432617 0.6904297
vt 0.8139648 0.6904297
vt 0.8139648 0.7451172
vt 0.8432617 0.7451172
vt 0.6855469 0.7451172
vt 0.7148438 0.7451172
vt 0.7148438 0.6904297
vt 0.6855469 0.6904297
vt 0.4816895 0.234375
vt 0.4724121 0.2432861
vt 0.4829102 0.244751
vt 0.5698242 0.2432861
vt 0.5605469 0.234375
vt 0.559082 0.244751
vt 0.4724121 0.2741699
vt 0.4816895 0.2832031
vt 0.4829102 0.2727051
vt 0.5605469 0.2832031
vt 0.5698242 0.2741699
vt 0.559082 0.2727051
vt 0.7128906 0.293457
vt 0.7021484 0.2919922
vt 0.7036133 0.3024902
vt 0.6259766 0.2919922
vt 0.6157227 0.293457
vt 0.6245117 0.3024902
vt 0.7128906 0.2624512
vt 0.7036133 0.253418
vt 0.7021484 0.263916
vt 0.6245117 0.253418
vt 0.6157227 0.2624512
vt 0.6259766 0.263916

g Desert_Rock_05_(24)_730_193
usemtl Desert_Rock_05_(24)_730_193
usemap Desert_Rock_05_(24)_730_193
f 1/1/1 3/3/3 2/2/2
f 1/1/1 4/4/4 3/3/3
f 5/5/5 7/7/7 6/6/6
f 5/5/5 8/8/8 7/7/7
f 9/9/9 11/11/11 10/10/10
f 9/9/9 12/12/12 11/11/11
f 13/13/13 15/15/15 14/14/14
f 13/13/13 16/16/16 15/15/15
f 17/17/17 19/19/19 18/18/18
f 17/17/17 20/20/20 19/19/19
f 21/21/21 23/23/23 22/22/22
f 21/21/21 24/24/24 23/23/23
f 25/25/25 27/27/27 26/26/26
f 25/25/25 28/28/28 27/27/27
f 29/29/29 31/31/31 30/30/30
f 29/29/29 32/32/32 31/31/31
f 33/33/33 35/35/35 34/34/34
f 33/33/33 36/36/36 35/35/35
f 37/37/37 39/39/39 38/38/38
f 37/37/37 40/40/40 39/39/39
f 41/41/41 43/43/43 42/42/42
f 41/41/41 44/44/44 43/43/43
f 45/45/45 47/47/47 46/46/46
f 45/45/45 48/48/48 47/47/47
f 49/49/49 51/51/51 50/50/50
f 49/49/49 52/52/52 51/51/51
f 53/53/53 55/55/55 54/54/54
f 53/53/53 56/56/56 55/55/55
f 57/57/57 59/59/59 58/58/58
f 57/57/57 60/60/60 59/59/59
f 61/61/61 63/63/63 62/62/62
f 61/61/61 64/64/64 63/63/63
f 65/65/65 67/67/67 66/66/66
f 65/65/65 68/68/68 67/67/67
f 69/69/69 71/71/71 70/70/70
f 69/69/69 72/72/72 71/71/71
f 73/73/73 75/75/75 74/74/74
f 76/76/76 78/78/78 77/77/77
f 79/79/79 81/81/81 80/80/80
f 82/82/82 84/84/84 83/83/83
f 85/85/85 87/87/87 86/86/86
f 88/88/88 90/90/90 89/89/89
f 91/91/91 93/93/93 92/92/92
f 94/94/94 96/96/96 95/95/95
