#Desert_Rock_05_(34)_791_146.obj

v -0.4538738 -0.2619572 0.3198977
v -0.4538721 -0.2619572 -0.3198821
v -0.5451745 -0.1706584 -0.3198826
v -0.5451725 -0.1706584 0.3198978
v -0.4538721 -0.1706584 0.4111893
v 0.4538852 -0.1706584 0.411189
v 0.4538872 -0.2619572 0.3198979
v -0.4538738 -0.2619572 0.3198977
v -0.5451725 -0.1706584 0.3198978
v -0.5451728 0.1706563 0.319898
v -0.4538724 0.1706563 0.4111895
v -0.4538721 -0.1706584 0.4111893
v 0.5451826 -0.1706584 0.3198974
v 0.5451843 -0.1706584 -0.3198824
v 0.4538852 -0.2619572 -0.3198829
v 0.4538872 -0.2619572 0.3198979
v 0.4538852 -0.1706584 0.411189
v 0.4538849 0.1706563 0.4111887
v 0.5451823 0.1706563 0.3198971
v 0.5451826 -0.1706584 0.3198974
v -0.5451728 0.1706563 0.319898
v -0.5451748 0.1706563 -0.3198829
v -0.4538719 0.2619551 -0.3198816
v -0.4538737 0.2619551 0.3198981
v -0.4538737 0.2619551 0.3198981
v 0.4538874 0.2619551 0.3198984
v 0.4538849 0.1706563 0.4111887
v -0.4538724 0.1706563 0.4111895
v 0.4538874 0.2619551 0.3198984
v 0.4538853 0.2619551 -0.319882
v 0.5451841 0.1706563 -0.3198827
v 0.5451823 0.1706563 0.3198971
v -0.5451748 0.1706563 -0.3198829
v -0.5451745 -0.1706584 -0.3198826
v -0.4538745 -0.1706584 -0.4111888
v -0.4538747 0.1706563 -0.411189
v -0.4538747 0.1706563 -0.411189
v 0.4538863 0.1706563 -0.4111888
v 0.4538853 0.2619551 -0.319882
v -0.4538719 0.2619551 -0.3198816
v 0.4538863 0.1706563 -0.4111888
v 0.4538866 -0.1706584 -0.4111889
v 0.5451843 -0.1706584 -0.3198824
v 0.5451841 0.1706563 -0.3198827
v -0.4538721 -0.2619572 -0.3198821
v 0.4538852 -0.2619572 -0.3198829
v 0.4538866 -0.1706584 -0.4111889
v -0.4538745 -0.1706584 -0.4111888
v -0.4538721 -0.1706584 0.4111893
v -0.4538724 0.1706563 0.4111895
v 0.4538849 0.1706563 0.4111887
v 0.4538852 -0.1706584 0.411189
v -0.4538737 0.2619551 0.3198981
v -0.4538719 0.2619551 -0.3198816
v 0.4538853 0.2619551 -0.319882
v 0.4538874 0.2619551 0.3198984
v -0.4538747 0.1706563 -0.411189
v -0.4538745 -0.1706584 -0.4111888
v 0.4538866 -0.1706584 -0.4111889
v 0.4538863 0.1706563 -0.4111888
v -0.4538721 -0.2619572 -0.3198821
v -0.4538738 -0.2619572 0.3198977
v 0.4538872 -0.2619572 0.3198979
v 0.4538852 -0.2619572 -0.3198829
v 0.5451826 -0.1706584 0.3198974
v 0.5451823 0.1706563 0.3198971
v 0.5451841 0.1706563 -0.3198827
v 0.5451843 -0.1706584 -0.3198824
v -0.5451745 -0.1706584 -0.3198826
v -0.5451748 0.1706563 -0.3198829
v -0.5451728 0.1706563 0.319898
v -0.5451725 -0.1706584 0.3198978
v -0.4538738 -0.2619572 0.3198977
v -0.5451725 -0.1706584 0.3198978
v -0.4538721 -0.1706584 0.4111893
v 0.5451826 -0.1706584 0.3198974
v 0.4538872 -0.2619572 0.3198979
v 0.4538852 -0.1706584 0.411189
v -0.5451728 0.1706563 0.319898
v -0.4538737 0.2619551 0.3198981
v -0.4538724 0.1706563 0.4111895
v 0.4538874 0.2619551 0.3198984
v 0.5451823 0.1706563 0.3198971
v 0.4538849 0.1706563 0.4111887
v -0.5451748 0.1706563 -0.3198829
v -0.4538747 0.1706563 -0.411189
v -0.4538719 0.2619551 -0.3198816
v 0.4538863 0.1706563 -0.4111888
v 0.5451841 0.1706563 -0.3198827
v 0.4538853 0.2619551 -0.319882
v -0.5451745 -0.1706584 -0.3198826
v -0.4538721 -0.2619572 -0.3198821
v -0.4538745 -0.1706584 -0.4111888
v 0.4538852 -0.2619572 -0.3198829
v 0.5451843 -0.1706584 -0.3198824
v 0.4538866 -0.1706584 -0.4111889

vn -0.1251221 -0.7055664 -0.6967773
vn -0.1251221 -0.7055664 -0.6967773
vn -0.1251221 -0.7055664 -0.6967773
vn -0.1251221 -0.7055664 -0.6967773
vn -0.6962891 -0.706543 0.1235962
vn -0.6962891 -0.706543 0.1235962
vn -0.6962891 -0.706543 0.1235962
vn -0.6962891 -0.706543 0.1235962
vn -0.8203125 0.001525879 -0.5712891
vn -0.8203125 0.001525879 -0.5712891
vn -0.8203125 0.001525879 -0.5712891
vn -0.8203125 0.001525879 -0.5712891
vn 0.1239014 -0.7080078 0.6948242
vn 0.1239014 -0.7080078 0.6948242
vn 0.1239014 -0.7080078 0.6948242
vn 0.1239014 -0.7080078 0.6948242
vn -0.5712891 -0.0006132126 0.8203125
vn -0.5712891 -0.0006132126 0.8203125
vn -0.5712891 -0.0006132126 0.8203125
vn -0.5712891 -0.0006132126 0.8203125
vn -0.1239014 0.7080078 -0.6948242
vn -0.1239014 0.7080078 -0.6948242
vn -0.1239014 0.7080078 -0.6948242
vn -0.1239014 0.7080078 -0.6948242
vn -0.6953125 0.7075195 0.1254883
vn -0.6953125 0.7075195 0.1254883
vn -0.6953125 0.7075195 0.1254883
vn -0.6953125 0.7075195 0.1254883
vn 0.1251221 0.7055664 0.6967773
vn 0.1251221 0.7055664 0.6967773
vn 0.1251221 0.7055664 0.6967773
vn 0.1251221 0.7055664 0.6967773
vn 0.5712891 0.0006132126 -0.8203125
vn 0.5712891 0.0006132126 -0.8203125
vn 0.5712891 0.0006132126 -0.8203125
vn 0.5712891 0.0006132126 -0.8203125
vn 0.6962891 0.706543 -0.1235962
vn 0.6962891 0.706543 -0.1235962
vn 0.6962891 0.706543 -0.1235962
vn 0.6962891 0.706543 -0.1235962
vn 0.8203125 -0.001525879 0.5712891
vn 0.8203125 -0.001525879 0.5712891
vn 0.8203125 -0.001525879 0.5712891
vn 0.8203125 -0.001525879 0.5712891
vn 0.6953125 -0.7075195 -0.1254883
vn 0.6953125 -0.7075195 -0.1254883
vn 0.6953125 -0.7075195 -0.1254883
vn 0.6953125 -0.7075195 -0.1254883
vn -0.9838867 0.0006451607 0.1761475
vn -0.9838867 0.0006451607 0.1761475
vn -0.9838867 0.0006451607 0.1761475
vn -0.9838867 0.0006451607 0.1761475
vn 0.0009016991 0.9995117 0.001375198
vn 0.0009016991 0.9995117 0.001375198
vn 0.0009016991 0.9995117 0.001375198
vn 0.0009016991 0.9995117 0.001375198
vn 0.9838867 -0.0006451607 -0.1761475
vn 0.9838867 -0.0006451607 -0.1761475
vn 0.9838867 -0.0006451607 -0.1761475
vn 0.9838867 -0.0006451607 -0.1761475
vn -0.0009016991 -0.9995117 -0.001375198
vn -0.0009016991 -0.9995117 -0.001375198
vn -0.0009016991 -0.9995117 -0.001375198
vn -0.0009016991 -0.9995117 -0.001375198
vn 0.1761475 -0.001512527 0.9838867
vn 0.1761475 -0.001512527 0.9838867
vn 0.1761475 -0.001512527 0.9838867
vn 0.1761475 -0.001512527 0.9838867
vn -0.1761475 0.001512527 -0.9838867
vn -0.1761475 0.001512527 -0.9838867
vn -0.1761475 0.001512527 -0.9838867
vn -0.1761475 0.001512527 -0.9838867
vn -0.6704102 -0.5756836 -0.4672852
vn -0.6704102 -0.5756836 -0.4672852
vn -0.6704102 -0.5756836 -0.4672852
vn -0.467041 -0.5776367 0.6689453
vn -0.467041 -0.5776367 0.6689453
vn -0.467041 -0.5776367 0.6689453
vn -0.6694336 0.578125 -0.4655762
vn -0.6694336 0.578125 -0.4655762
vn -0.6694336 0.578125 -0.4655762
vn -0.4660645 0.5766602 0.6704102
vn -0.4660645 0.5766602 0.6704102
vn -0.4660645 0.5766602 0.6704102
vn 0.467041 0.5776367 -0.6689453
vn 0.467041 0.5776367 -0.6689453
vn 0.467041 0.5776367 -0.6689453
vn 0.6704102 0.5756836 0.4672852
vn 0.6704102 0.5756836 0.4672852
vn 0.6704102 0.5756836 0.4672852
vn 0.4658203 -0.5766602 -0.6704102
vn 0.4658203 -0.5766602 -0.6704102
vn 0.4658203 -0.5766602 -0.6704102
vn 0.6694336 -0.578125 0.4658203
vn 0.6694336 -0.578125 0.4658203
vn 0.6694336 -0.578125 0.4658203

vt 0.7514648 0.6845703
vt 0.7514648 0.6298828
vt 0.7402344 0.6298828
vt 0.7402344 0.6845703
vt 0.4829102 0.244751
vt 0.559082 0.244751
vt 0.5605469 0.234375
vt 0.4816895 0.234375
vt 0.4724121 0.2432861
vt 0.4724121 0.2741699
vt 0.4829102 0.2727051
vt 0.4829102 0.244751
vt 0.8398438 0.6845703
vt 0.8398438 0.6298828
vt 0.8286133 0.6298828
vt 0.8286133 0.6845703
vt 0.559082 0.244751
vt 0.559082 0.2727051
vt 0.5698242 0.2741699
vt 0.5698242 0.2432861
vt 0.7148438 0.6904297
vt 0.7148438 0.7451172
vt 0.7255859 0.7451172
vt 0.7255859 0.6904297
vt 0.4816895 0.2832031
vt 0.5605469 0.2832031
vt 0.559082 0.2727051
vt 0.4829102 0.2727051
vt 0.8032227 0.6904297
vt 0.8032227 0.7451172
vt 0.8139648 0.7451172
vt 0.8139648 0.6904297
vt 0.7128906 0.293457
vt 0.7128906 0.2624512
vt 0.7021484 0.263916
vt 0.7021484 0.2919922
vt 0.7021484 0.2919922
vt 0.6259766 0.2919922
vt 0.6245117 0.3024902
vt 0.7036133 0.3024902
vt 0.6259766 0.2919922
vt 0.6259766 0.263916
vt 0.6157227 0.2624512
vt 0.6157227 0.293457
vt 0.7036133 0.253418
vt 0.6245117 0.253418
vt 0.6259766 0.263916
vt 0.7021484 0.263916
vt 0.4829102 0.244751
vt 0.4829102 0.2727051
vt 0.559082 0.2727051
vt 0.559082 0.244751
vt 0.7255859 0.6904297
vt 0.7255859 0.7451172
vt 0.8032227 0.7451172
vt 0.8032227 0.6904297
vt 0.7021484 0.2919922
vt 0.7021484 0.263916
vt 0.6259766 0.263916
vt 0.6259766 0.2919922
vt 0.7514648 0.6298828
vt 0.7514648 0.6845703
vt 0.8286133 0.6845703
vt 0.8286133 0.6298828
vt 0.8432617 0.6904297
vt 0.8139648 0.6904297
vt 0.8139648 0.7451172
vt 0.8432617 0.7451172
vt 0.6855469 0.7451172
vt 0.7148438 0.7451172
vt 0.7148438 0.6904297
vt 0.6855469 0.6904297
vt 0.4816895 0.234375
vt 0.4724121 0.2432861
vt 0.4829102 0.244751
vt 0.5698242 0.2432861
vt 0.5605469 0.234375
vt 0.559082 0.244751
vt 0.4724121 0.2741699
vt 0.4816895 0.2832031
vt 0.4829102 0.2727051
vt 0.5605469 0.2832031
vt 0.5698242 0.2741699
vt 0.559082 0.2727051
vt 0.7128906 0.293457
vt 0.7021484 0.2919922
vt 0.7036133 0.3024902
vt 0.6259766 0.2919922
vt 0.6157227 0.293457
vt 0.6245117 0.3024902
vt 0.7128906 0.2624512
vt 0.7036133 0.253418
vt 0.7021484 0.263916
vt 0.6245117 0.253418
vt 0.6157227 0.2624512
vt 0.6259766 0.263916

g Desert_Rock_05_(34)_791_146
usemtl Desert_Rock_05_(34)_791_146
usemap Desert_Rock_05_(34)_791_146
f 1/1/1 3/3/3 2/2/2
f 1/1/1 4/4/4 3/3/3
f 5/5/5 7/7/7 6/6/6
f 5/5/5 8/8/8 7/7/7
f 9/9/9 11/11/11 10/10/10
f 9/9/9 12/12/12 11/11/11
f 13/13/13 15/15/15 14/14/14
f 13/13/13 16/16/16 15/15/15
f 17/17/17 19/19/19 18/18/18
f 17/17/17 20/20/20 19/19/19
f 21/21/21 23/23/23 22/22/22
f 21/21/21 24/24/24 23/23/23
f 25/25/25 27/27/27 26/26/26
f 25/25/25 28/28/28 27/27/27
f 29/29/29 31/31/31 30/30/30
f 29/29/29 32/32/32 31/31/31
f 33/33/33 35/35/35 34/34/34
f 33/33/33 36/36/36 35/35/35
f 37/37/37 39/39/39 38/38/38
f 37/37/37 40/40/40 39/39/39
f 41/41/41 43/43/43 42/42/42
f 41/41/41 44/44/44 43/43/43
f 45/45/45 47/47/47 46/46/46
f 45/45/45 48/48/48 47/47/47
f 49/49/49 51/51/51 50/50/50
f 49/49/49 52/52/52 51/51/51
f 53/53/53 55/55/55 54/54/54
f 53/53/53 56/56/56 55/55/55
f 57/57/57 59/59/59 58/58/58
f 57/57/57 60/60/60 59/59/59
f 61/61/61 63/63/63 62/62/62
f 61/61/61 64/64/64 63/63/63
f 65/65/65 67/67/67 66/66/66
f 65/65/65 68/68/68 67/67/67
f 69/69/69 71/71/71 70/70/70
f 69/69/69 72/72/72 71/71/71
f 73/73/73 75/75/75 74/74/74
f 76/76/76 78/78/78 77/77/77
f 79/79/79 81/81/81 80/80/80
f 82/82/82 84/84/84 83/83/83
f 85/85/85 87/87/87 86/86/86
f 88/88/88 90/90/90 89/89/89
f 91/91/91 93/93/93 92/92/92
f 94/94/94 96/96/96 95/95/95
