#Desert_Sand_dune_01_(5)_717_95.obj

v 4.22059 7.220947E-07 0.2385799
v 2.995597 0.2895658 -0.3930814
v 3.035364 0.2955919 -0.5010678
v 4.332742 1.117904E-07 0.09001426
v 3.07396 0.2831766 -0.663339
v 4.381543 1.117904E-07 -0.08605215
v 3.259319 -4.082563E-08 0.4855297
v 2.517462 1.117904E-07 0.4279649
v 3.127604 -4.082563E-08 -1.498859
v 4.090988 -1.934417E-07 -0.6724957
v 2.517349 1.117904E-07 -1.912598
v 2.257202 0.5063468 -0.9938763
v 1.623729 2.644064E-07 -2.23238
v 1.338231 0.6450294 -1.140659
v 2.217644 0.5276185 -0.8151582
v 1.316599 0.6672152 -0.9590021
v 2.168956 0.5137562 -0.6381827
v 1.289695 0.6420645 -0.7783831
v 2.07984 2.644064E-07 0.3880981
v 1.289965 1.117904E-07 0.2926609
v 0.3739206 1.117904E-07 -2.336045
v 0.1028677 0.7119357 -1.159854
v -0.8046325 1.499844E-07 -2.215534
v -0.9186981 0.6614512 -1.144195
v 0.1044247 0.7331529 -0.977726
v -0.9005683 0.6827146 -0.9622003
v 0.1068082 0.6969622 -0.7968514
v -0.8771374 0.6502036 -0.7818058
v 0.2650469 1.308075E-07 0.1705173
v -0.7804611 7.359644E-08 0.08905252
v -2.059544 2.644064E-07 -1.779626
v -2.015676 0.49124 -0.9616026
v -2.774587 1.117904E-07 -1.428692
v -3.038431 0.2394906 -0.5993434
v -1.979391 0.5115989 -0.7825807
v -3.020574 0.2496157 -0.4350257
v -1.933481 0.4907014 -0.6060743
v -2.966403 0.2401336 -0.2799448
v -1.92713 1.117904E-07 0.1313316
v -2.605787 2.644064E-07 0.2521234
v -4.303951 -1.934417E-07 -0.1024392
v -3.6882 4.170224E-07 -0.9180176
v -4.295414 -1.934417E-07 0.08735925
v -4.215518 4.170224E-07 0.2507715
v -3.487272 1.117904E-07 0.4651505

vn 0.0463562 0.980957 0.1882324
vn 0.05819702 0.8857422 0.4604492
vn 0.3637695 0.9194336 0.1489258
vn 0.2095947 0.9726563 0.09960938
vn 0.5131836 0.8295898 -0.2197266
vn 0.2507324 0.9663086 -0.05551147
vn -0.01205444 0.9501953 0.3100586
vn 0.0008997917 0.9047852 0.425293
vn 0.3952637 0.8901367 -0.2253418
vn 0.3139648 0.9370117 -0.1508789
vn 0.3662109 0.8530273 -0.3708496
vn 0.4655762 0.78125 -0.4147949
vn 0.2263184 0.84375 -0.4858398
vn 0.263916 0.78125 -0.5654297
vn 0.3466797 0.9321289 0.1004639
vn 0.1682129 0.9838867 0.05593872
vn -0.02156067 0.8178711 0.5742188
vn -0.1030884 0.7714844 0.6274414
vn -0.05328369 0.8500977 0.5229492
vn -0.1137695 0.8076172 0.5776367
vn 0.107666 0.8310547 -0.5449219
vn 0.1054077 0.7700195 -0.628418
vn -0.04125977 0.8271484 -0.5600586
vn -0.09234619 0.7470703 -0.6577148
vn 0.003715515 0.9985352 0.04714966
vn -0.1947021 0.9804688 0.01521301
vn -0.1541748 0.7280273 0.6674805
vn -0.1707764 0.7207031 0.6713867
vn -0.1429443 0.7714844 0.6196289
vn -0.1427002 0.7578125 0.6362305
vn -0.1928711 0.8178711 -0.5419922
vn -0.2768555 0.7426758 -0.609375
vn -0.276123 0.8535156 -0.440918
vn -0.3503418 0.8378906 -0.4172363
vn -0.3447266 0.9384766 -0.0007281303
vn -0.3591309 0.9331055 0.002656937
vn -0.1633301 0.7573242 0.6318359
vn -0.1583252 0.8789063 0.449707
vn -0.1065063 0.7900391 0.6030273
vn -0.08154297 0.8754883 0.4755859
vn -0.1643066 0.9785156 -0.123291
vn -0.2075195 0.9379883 -0.276123
vn -0.2160645 0.9760742 0.008155823
vn -0.09759521 0.9833984 0.1502686
vn -0.05300903 0.953125 0.2973633

vt 0.887207 0.6738281
vt 0.7246094 0.6831055
vt 0.7207031 0.6987305
vt 0.887207 0.6982422
vt 0.7128906 0.7207031
vt 0.8793945 0.7226563
vt 0.8120117 0.5898438
vt 0.7363281 0.5556641
vt 0.6586914 0.8256836
vt 0.8100586 0.7783203
vt 0.5708008 0.8427734
vt 0.6108398 0.7158203
vt 0.4624023 0.8320313
vt 0.512207 0.6826172
vt 0.6196289 0.6914063
vt 0.5229492 0.6591797
vt 0.6274414 0.6669922
vt 0.5332031 0.6352539
vt 0.6914063 0.5366211
vt 0.6088867 0.5043945
vt 0.3347168 0.7753906
vt 0.3918457 0.6162109
vt 0.2299805 0.6953125
vt 0.2946777 0.5576172
vt 0.4050293 0.5942383
vt 0.3093262 0.5361328
vt 0.4179688 0.5717773
vt 0.3242188 0.515625
vt 0.5014648 0.4624023
vt 0.3952637 0.4143066
vt 0.1400146 0.5722656
vt 0.2021484 0.4743652
vt 0.0960083 0.489502
vt 0.1292725 0.3730469
vt 0.2182617 0.4543457
vt 0.1425781 0.3540039
vt 0.2351074 0.4353027
vt 0.1588135 0.3378906
vt 0.2878418 0.345459
vt 0.2312012 0.2927246
vt 0.04269409 0.2419434
vt 0.04425049 0.3759766
vt 0.0569458 0.2192383
vt 0.07617188 0.2036133
vt 0.161377 0.2177734

g Desert_Sand_dune_01_(5)_717_95
usemtl Desert_Sand_dune_01_(5)_717_95
usemap Desert_Sand_dune_01_(5)_717_95
f 1/1/1 3/3/3 2/2/2
f 1/1/1 4/4/4 3/3/3
f 4/4/4 5/5/5 3/3/3
f 4/4/4 6/6/6 5/5/5
f 2/2/2 7/7/7 1/1/1
f 2/2/2 8/8/8 7/7/7
f 9/9/9 5/5/5 6/6/6
f 9/9/9 6/6/6 10/10/10
f 11/11/11 5/5/5 9/9/9
f 11/11/11 12/12/12 5/5/5
f 3/3/3 5/5/5 12/12/12
f 13/13/13 12/12/12 11/11/11
f 13/13/13 14/14/14 12/12/12
f 15/15/15 12/12/12 14/14/14
f 3/3/3 12/12/12 15/15/15
f 2/2/2 3/3/3 15/15/15
f 15/15/15 14/14/14 16/16/16
f 17/17/17 15/15/15 16/16/16
f 2/2/2 15/15/15 17/17/17
f 17/17/17 8/8/8 2/2/2
f 17/17/17 16/16/16 18/18/18
f 18/18/18 19/19/19 17/17/17
f 17/17/17 19/19/19 8/8/8
f 18/18/18 20/20/20 19/19/19
f 21/21/21 14/14/14 13/13/13
f 21/21/21 22/22/22 14/14/14
f 16/16/16 14/14/14 22/22/22
f 23/23/23 22/22/22 21/21/21
f 23/23/23 24/24/24 22/22/22
f 24/24/24 25/25/25 22/22/22
f 16/16/16 22/22/22 25/25/25
f 18/18/18 16/16/16 25/25/25
f 24/24/24 26/26/26 25/25/25
f 26/26/26 27/27/27 25/25/25
f 18/18/18 25/25/25 27/27/27
f 27/27/27 20/20/20 18/18/18
f 26/26/26 28/28/28 27/27/27
f 28/28/28 29/29/29 27/27/27
f 27/27/27 29/29/29 20/20/20
f 28/28/28 30/30/30 29/29/29
f 31/31/31 24/24/24 23/23/23
f 31/31/31 32/32/32 24/24/24
f 32/32/32 26/26/26 24/24/24
f 33/33/33 32/32/32 31/31/31
f 33/33/33 34/34/34 32/32/32
f 34/34/34 35/35/35 32/32/32
f 32/32/32 35/35/35 26/26/26
f 35/35/35 28/28/28 26/26/26
f 34/34/34 36/36/36 35/35/35
f 36/36/36 37/37/37 35/35/35
f 35/35/35 37/37/37 28/28/28
f 37/37/37 30/30/30 28/28/28
f 36/36/36 38/38/38 37/37/37
f 38/38/38 39/39/39 37/37/37
f 37/37/37 39/39/39 30/30/30
f 38/38/38 40/40/40 39/39/39
f 41/41/41 34/34/34 33/33/33
f 41/41/41 36/36/36 34/34/34
f 41/41/41 33/33/33 42/42/42
f 41/41/41 43/43/43 36/36/36
f 43/43/43 38/38/38 36/36/36
f 43/43/43 44/44/44 38/38/38
f 45/45/45 38/38/38 44/44/44
f 45/45/45 40/40/40 38/38/38
