#Desert_Sand_dune_01_(17)_592_76.obj

v -1.927131 -4.783122E-08 0.1313327
v -1.912089 -4.783122E-08 0.357993
v -2.665369 -4.783122E-08 0.5486832
v -2.605788 1.032439E-07 0.252124
v -0.7848749 -4.783122E-08 0.357178
v -0.7804617 -8.467881E-08 0.08905306
v 0.2650461 -2.940743E-08 0.170518
v 0.2421352 -8.467881E-08 0.4750119
v 1.230568 2.954872E-08 0.6037487
v 1.289965 -4.783122E-08 0.2926613
v 2.079839 1.032439E-07 0.3880987
v 1.992906 1.032439E-07 0.6984286
v 2.530035 1.032439E-07 0.7980515
v 2.517461 -4.783122E-08 0.4279654
v 3.259318 -1.989063E-07 0.48553
v 3.381992 -4.783122E-08 0.833916
v 4.220589 5.638387E-07 0.2385802
v 4.523258 -3.536662E-07 0.489346
v 4.332742 -4.783122E-08 0.09001509
v 4.807482 -4.783122E-08 0.253826
v 4.381541 -4.783122E-08 -0.08605114
v 4.861456 2.580038E-07 0.03638413
v 4.090987 -3.536662E-07 -0.6724946
v 4.406576 -3.536662E-07 -0.8635394
v 3.435778 2.580038E-07 -1.786305
v 3.127603 -1.989063E-07 -1.498859
v 2.517349 -4.783122E-08 -1.912597
v 2.689324 -1.989063E-07 -2.202721
v 1.713097 -4.783122E-08 -2.569235
v 1.623728 1.032439E-07 -2.23238
v 0.3739198 -4.783122E-08 -2.336045
v 0.3494297 -8.467881E-08 -2.701834
v -0.9194435 -8.467881E-08 -2.561152
v -0.8046335 -1.098363E-08 -2.215533
v -2.059545 1.032439E-07 -1.779626
v -2.262606 1.032439E-07 -2.055178
v -3.053088 1.032439E-07 -1.702574
v -2.774588 -4.783122E-08 -1.428692
v -3.6882 2.580038E-07 -0.9180174
v -3.910359 2.580038E-07 -1.099206
v -4.303951 -3.536662E-07 -0.1024381
v -4.744998 2.580038E-07 0.01614601
v -4.295414 -3.536662E-07 0.08736024
v -4.735555 -3.536662E-07 0.2505473
v -4.215518 2.580038E-07 0.250772
v -4.647187 -3.536662E-07 0.45236
v -3.487272 -4.783122E-08 0.4651516
v -3.5915 2.580038E-07 0.7072018

vn 0.1502686 0.9433594 0.2956543
vn 0 1 0
vn 0 1 0
vn 0.1110229 0.9697266 0.2155762
vn 0 1 0
vn 0.1499023 0.9311523 0.3312988
vn 0.1422119 0.9365234 0.3198242
vn 0 1 0
vn 0 1 0
vn 0.1367188 0.9492188 0.2824707
vn 0.1396484 0.9624023 0.2310791
vn 0 1 -5.960464E-08
vn 0 1 -2.980232E-07
vn 0.1257324 0.9775391 0.1663818
vn 0.08349609 0.9887695 0.1203613
vn 2.980232E-07 1 2.980232E-07
vn 0.06921387 0.9956055 0.05645752
vn 5.960464E-07 1 3.576279E-07
vn 0.1054077 0.9941406 -0.02153015
vn 2.384186E-07 1 1.788139E-07
vn 0.07788086 0.9926758 -0.09100342
vn -2.980232E-07 1 1.192093E-07
vn 0.07641602 0.9858398 -0.1477051
vn -1.192093E-07 1 2.384186E-07
vn 0 1 4.172325E-07
vn 0.0894165 0.9741211 -0.2072754
vn 0.0355835 0.9633789 -0.2646484
vn 0 1 0
vn 0 1 -1.788139E-07
vn -0.05755615 0.9604492 -0.270752
vn -0.1263428 0.956543 -0.2612305
vn -5.960464E-08 1 -1.192093E-07
vn 0 1 -5.960464E-08
vn -0.1938477 0.9555664 -0.2215576
vn -0.2536621 0.9526367 -0.1674805
vn 0 1 0
vn 1.192093E-07 1 0
vn -0.2487793 0.9633789 -0.09533691
vn -0.1583252 0.9858398 -0.04574585
vn 5.960464E-07 1 5.960464E-08
vn -0.0947876 0.9951172 0.0001634359
vn 1.072884E-06 1 2.980232E-07
vn -0.07751465 0.9946289 0.06304932
vn -5.960464E-08 1 0
vn 0.005683899 0.996582 0.08215332
vn -5.960464E-07 1 5.960464E-08
vn 0.06433105 0.9897461 0.1269531
vn -5.960464E-08 1 1.192093E-07

vt 0.2878418 0.345459
vt 0.3054199 0.3183594
vt 0.24646 0.2531738
vt 0.2312012 0.2927246
vt 0.4138184 0.3811035
vt 0.3952637 0.4143066
vt 0.5014648 0.4624023
vt 0.5209961 0.4238281
vt 0.625 0.4628906
vt 0.6088867 0.5043945
vt 0.6914063 0.5366211
vt 0.7050781 0.4936523
vt 0.7636719 0.5112305
vt 0.7363281 0.5556641
vt 0.8120117 0.5898438
vt 0.8486328 0.5541992
vt 0.887207 0.6738281
vt 0.934082 0.659668
vt 0.887207 0.6982422
vt 0.9448242 0.7045898
vt 0.8793945 0.7226563
vt 0.9345703 0.7338867
vt 0.8100586 0.7783203
vt 0.8271484 0.8193359
vt 0.668457 0.878418
vt 0.6586914 0.8256836
vt 0.5708008 0.8427734
vt 0.5668945 0.8876953
vt 0.4472656 0.878418
vt 0.4624023 0.8320313
vt 0.3347168 0.7753906
vt 0.3066406 0.8188477
vt 0.194458 0.730957
vt 0.2299805 0.6953125
vt 0.1400146 0.5722656
vt 0.1009521 0.5947266
vt 0.04986572 0.5073242
vt 0.0960083 0.489502
vt 0.04425049 0.3759766
vt 0.01006317 0.3859863
vt 0.04269409 0.2419434
vt 0.008651733 0.2028809
vt 0.0569458 0.2192383
vt 0.02613831 0.1746826
vt 0.07617188 0.2036133
vt 0.04891968 0.1549072
vt 0.161377 0.2177734
vt 0.168457 0.182373

g Desert_Sand_dune_01_(17)_592_76
usemtl Desert_Sand_dune_01_(17)_592_76
usemap Desert_Sand_dune_01_(17)_592_76
f 1/1/1 3/3/3 2/2/2
f 1/1/1 4/4/4 3/3/3
f 5/5/5 1/1/1 2/2/2
f 5/5/5 6/6/6 1/1/1
f 7/7/7 6/6/6 5/5/5
f 7/7/7 5/5/5 8/8/8
f 9/9/9 7/7/7 8/8/8
f 9/9/9 10/10/10 7/7/7
f 11/11/11 10/10/10 9/9/9
f 11/11/11 9/9/9 12/12/12
f 13/13/13 11/11/11 12/12/12
f 13/13/13 14/14/14 11/11/11
f 15/15/15 14/14/14 13/13/13
f 15/15/15 13/13/13 16/16/16
f 17/17/17 15/15/15 16/16/16
f 17/17/17 16/16/16 18/18/18
f 19/19/19 17/17/17 18/18/18
f 19/19/19 18/18/18 20/20/20
f 21/21/21 19/19/19 20/20/20
f 21/21/21 20/20/20 22/22/22
f 23/23/23 21/21/21 22/22/22
f 23/23/23 22/22/22 24/24/24
f 25/25/25 23/23/23 24/24/24
f 25/25/25 26/26/26 23/23/23
f 27/27/27 26/26/26 25/25/25
f 27/27/27 25/25/25 28/28/28
f 29/29/29 27/27/27 28/28/28
f 29/29/29 30/30/30 27/27/27
f 31/31/31 30/30/30 29/29/29
f 31/31/31 29/29/29 32/32/32
f 33/33/33 31/31/31 32/32/32
f 33/33/33 34/34/34 31/31/31
f 35/35/35 34/34/34 33/33/33
f 35/35/35 33/33/33 36/36/36
f 37/37/37 35/35/35 36/36/36
f 37/37/37 38/38/38 35/35/35
f 39/39/39 38/38/38 37/37/37
f 39/39/39 37/37/37 40/40/40
f 41/41/41 39/39/39 40/40/40
f 41/41/41 40/40/40 42/42/42
f 43/43/43 41/41/41 42/42/42
f 43/43/43 42/42/42 44/44/44
f 45/45/45 43/43/43 44/44/44
f 45/45/45 44/44/44 46/46/46
f 47/47/47 45/45/45 46/46/46
f 47/47/47 46/46/46 48/48/48
f 3/3/3 47/47/47 48/48/48
f 3/3/3 4/4/4 47/47/47
