#Desert_Sand_dune_01_(18)_768_90.obj

v -1.927129 -4.783122E-08 0.1313319
v -1.912088 -4.783122E-08 0.3579928
v -2.665368 -4.783122E-08 0.5486823
v -2.605787 1.032439E-07 0.2521235
v -0.7848734 -4.783122E-08 0.3571777
v -0.7804598 -8.467881E-08 0.08905234
v 0.2650477 -2.940743E-08 0.1705174
v 0.242137 -8.467881E-08 0.4750111
v 1.230569 2.954872E-08 0.6037483
v 1.289966 -4.783122E-08 0.2926606
v 2.07984 1.032439E-07 0.3880978
v 1.992907 1.032439E-07 0.698428
v 2.530037 1.032439E-07 0.7980508
v 2.517463 -4.783122E-08 0.4279648
v 3.259319 -1.989063E-07 0.4855296
v 3.381994 -4.783122E-08 0.8339157
v 4.220591 5.638387E-07 0.2385796
v 4.523261 -3.536662E-07 0.4893454
v 4.332743 -4.783122E-08 0.09001414
v 4.807483 -4.783122E-08 0.2538252
v 4.381544 -4.783122E-08 -0.08605171
v 4.861459 2.580038E-07 0.03638362
v 4.090988 -3.536662E-07 -0.6724951
v 4.406578 -3.536662E-07 -0.8635403
v 3.43578 2.580038E-07 -1.786306
v 3.127605 -1.989063E-07 -1.498859
v 2.51735 -4.783122E-08 -1.912598
v 2.689326 -1.989063E-07 -2.202722
v 1.713099 -4.783122E-08 -2.569236
v 1.62373 1.032439E-07 -2.23238
v 0.3739216 -4.783122E-08 -2.336046
v 0.3494313 -8.467881E-08 -2.701835
v -0.9194422 -8.467881E-08 -2.561152
v -0.8046319 -1.098363E-08 -2.215534
v -2.059543 1.032439E-07 -1.779626
v -2.262604 1.032439E-07 -2.055179
v -3.053086 1.032439E-07 -1.702574
v -2.774587 -4.783122E-08 -1.428692
v -3.688198 2.580038E-07 -0.918018
v -3.910358 2.580038E-07 -1.099208
v -4.30395 -3.536662E-07 -0.1024389
v -4.744996 2.580038E-07 0.01614572
v -4.295413 -3.536662E-07 0.08735985
v -4.735554 -3.536662E-07 0.250547
v -4.215517 2.580038E-07 0.2507712
v -4.647186 -3.536662E-07 0.4523604
v -3.487271 -4.783122E-08 0.465151
v -3.591498 2.580038E-07 0.7072012

vn 0.2060547 0.9433594 0.2597656
vn 0 1 0
vn 0 1 0
vn 0.1516113 0.9697266 0.189209
vn 0 1 0
vn 0.2126465 0.9311523 0.2949219
vn 0.2030029 0.9365234 0.2851563
vn 0 1 0
vn 0 1 0
vn 0.1901855 0.9492188 0.2497559
vn 0.1827393 0.9624023 0.1987305
vn -5.960464E-08 1 -5.960464E-08
vn 0 1 -2.980232E-07
vn 0.15625 0.9775391 0.1380615
vn 0.1057129 0.9887695 0.1013794
vn 3.576279E-07 1 2.384186E-07
vn 0.07904053 0.9956055 0.04156494
vn 6.556511E-07 1 1.788139E-07
vn 0.09906006 0.9941406 -0.04202271
vn 2.980232E-07 1 1.192093E-07
vn 0.05825806 0.9926758 -0.1046753
vn -2.980232E-07 1 2.384186E-07
vn 0.04556274 0.9858398 -0.1599121
vn -5.960464E-08 1 2.384186E-07
vn 0 1 4.172325E-07
vn 0.04647827 0.9741211 -0.2209473
vn -0.01763916 0.9633789 -0.2663574
vn 0 1 0
vn -5.960464E-08 1 -1.788139E-07
vn -0.1101685 0.9604492 -0.2539063
vn -0.1756592 0.956543 -0.2310791
vn -5.960464E-08 1 -5.960464E-08
vn -5.960464E-08 1 -5.960464E-08
vn -0.2340088 0.9555664 -0.1787109
vn -0.2817383 0.9526367 -0.1137695
vn 0 1 0
vn 1.192093E-07 1 0
vn -0.2626953 0.9633789 -0.04403687
vn -0.1641846 0.9858398 -0.01339722
vn 5.960464E-07 1 0
vn -0.09289551 0.9951172 0.01898193
vn 1.132488E-06 1 5.960464E-08
vn -0.06341553 0.9946289 0.07720947
vn -5.960464E-08 1 5.960464E-08
vn 0.0218811 0.996582 0.0793457
vn -5.364418E-07 1 1.788139E-07
vn 0.08825684 0.9897461 0.1116333
vn 0 1 1.192093E-07

vt 0.2878418 0.345459
vt 0.3054199 0.3183594
vt 0.24646 0.2531738
vt 0.2312012 0.2927246
vt 0.4138184 0.3811035
vt 0.3952637 0.4143066
vt 0.5014648 0.4624023
vt 0.5209961 0.4238281
vt 0.625 0.4628906
vt 0.6088867 0.5043945
vt 0.6914063 0.5366211
vt 0.7050781 0.4936523
vt 0.7636719 0.5112305
vt 0.7363281 0.5556641
vt 0.8120117 0.5898438
vt 0.8486328 0.5541992
vt 0.887207 0.6738281
vt 0.934082 0.659668
vt 0.887207 0.6982422
vt 0.9448242 0.7045898
vt 0.8793945 0.7226563
vt 0.9345703 0.7338867
vt 0.8100586 0.7783203
vt 0.8271484 0.8193359
vt 0.668457 0.878418
vt 0.6586914 0.8256836
vt 0.5708008 0.8427734
vt 0.5668945 0.8876953
vt 0.4472656 0.878418
vt 0.4624023 0.8320313
vt 0.3347168 0.7753906
vt 0.3066406 0.8188477
vt 0.194458 0.730957
vt 0.2299805 0.6953125
vt 0.1400146 0.5722656
vt 0.1009521 0.5947266
vt 0.04986572 0.5073242
vt 0.0960083 0.489502
vt 0.04425049 0.3759766
vt 0.01006317 0.3859863
vt 0.04269409 0.2419434
vt 0.008651733 0.2028809
vt 0.0569458 0.2192383
vt 0.02613831 0.1746826
vt 0.07617188 0.2036133
vt 0.04891968 0.1549072
vt 0.161377 0.2177734
vt 0.168457 0.182373

g Desert_Sand_dune_01_(18)_768_90
usemtl Desert_Sand_dune_01_(18)_768_90
usemap Desert_Sand_dune_01_(18)_768_90
f 1/1/1 3/3/3 2/2/2
f 1/1/1 4/4/4 3/3/3
f 5/5/5 1/1/1 2/2/2
f 5/5/5 6/6/6 1/1/1
f 7/7/7 6/6/6 5/5/5
f 7/7/7 5/5/5 8/8/8
f 9/9/9 7/7/7 8/8/8
f 9/9/9 10/10/10 7/7/7
f 11/11/11 10/10/10 9/9/9
f 11/11/11 9/9/9 12/12/12
f 13/13/13 11/11/11 12/12/12
f 13/13/13 14/14/14 11/11/11
f 15/15/15 14/14/14 13/13/13
f 15/15/15 13/13/13 16/16/16
f 17/17/17 15/15/15 16/16/16
f 17/17/17 16/16/16 18/18/18
f 19/19/19 17/17/17 18/18/18
f 19/19/19 18/18/18 20/20/20
f 21/21/21 19/19/19 20/20/20
f 21/21/21 20/20/20 22/22/22
f 23/23/23 21/21/21 22/22/22
f 23/23/23 22/22/22 24/24/24
f 25/25/25 23/23/23 24/24/24
f 25/25/25 26/26/26 23/23/23
f 27/27/27 26/26/26 25/25/25
f 27/27/27 25/25/25 28/28/28
f 29/29/29 27/27/27 28/28/28
f 29/29/29 30/30/30 27/27/27
f 31/31/31 30/30/30 29/29/29
f 31/31/31 29/29/29 32/32/32
f 33/33/33 31/31/31 32/32/32
f 33/33/33 34/34/34 31/31/31
f 35/35/35 34/34/34 33/33/33
f 35/35/35 33/33/33 36/36/36
f 37/37/37 35/35/35 36/36/36
f 37/37/37 38/38/38 35/35/35
f 39/39/39 38/38/38 37/37/37
f 39/39/39 37/37/37 40/40/40
f 41/41/41 39/39/39 40/40/40
f 41/41/41 40/40/40 42/42/42
f 43/43/43 41/41/41 42/42/42
f 43/43/43 42/42/42 44/44/44
f 45/45/45 43/43/43 44/44/44
f 45/45/45 44/44/44 46/46/46
f 47/47/47 45/45/45 46/46/46
f 47/47/47 46/46/46 48/48/48
f 3/3/3 47/47/47 48/48/48
f 3/3/3 4/4/4 47/47/47
