#Desert_Sand_dune_01_(8)_680_87.obj

v 4.22059 6.06719E-07 0.2385799
v 2.995597 0.2895657 -0.3930804
v 3.035364 0.2955918 -0.5010675
v 4.332743 -3.526135E-09 0.09001622
v 3.07396 0.2831766 -0.6633387
v 4.381543 -3.526135E-09 -0.08605046
v 3.259319 -1.564878E-07 0.4855294
v 2.517462 -3.526135E-09 0.4279654
v 3.127604 -1.564878E-07 -1.498858
v 4.090988 -3.086487E-07 -0.6724938
v 2.51735 -3.526135E-09 -1.912597
v 2.257202 0.5063467 -0.9938761
v 1.623729 1.494356E-07 -2.23238
v 1.338231 0.6450294 -1.140658
v 2.217644 0.5276184 -0.8151585
v 1.316599 0.6672152 -0.9590002
v 2.168957 0.5137561 -0.6381807
v 1.289695 0.6420645 -0.7783815
v 2.07984 1.494356E-07 0.3880995
v 1.289966 -3.526135E-09 0.2926609
v 0.3739209 -3.526135E-09 -2.336046
v 0.1028681 0.7119356 -1.159852
v -0.8046323 3.49145E-08 -2.215533
v -0.9186979 0.6614512 -1.144193
v 0.1044253 0.7331528 -0.9777258
v -0.9005685 0.6827146 -0.9621998
v 0.1068088 0.6969622 -0.7968508
v -0.8771374 0.6502036 -0.781805
v 0.2650473 1.569418E-08 0.1705191
v -0.7804607 -4.196677E-08 0.08905368
v -2.059544 1.494356E-07 -1.779626
v -2.015676 0.4912399 -0.9616029
v -2.774587 -3.526135E-09 -1.428691
v -3.038431 0.2394905 -0.5993432
v -1.97939 0.5115988 -0.7825791
v -3.020574 0.2496156 -0.4350254
v -1.93348 0.4907013 -0.6060725
v -2.966402 0.2401335 -0.2799435
v -1.92713 -3.526135E-09 0.1313339
v -2.605787 1.494356E-07 0.2521239
v -4.30395 -3.086487E-07 -0.1024375
v -3.688199 3.015964E-07 -0.918017
v -4.295413 -3.086487E-07 0.08736023
v -4.215518 3.015964E-07 0.2507713
v -3.487272 -3.526135E-09 0.4651515

vn 0.02134705 0.9956055 0.08673096
vn 0.02900696 0.9726563 0.2293701
vn 0.1761475 0.9814453 0.07208252
vn 0.09716797 0.9941406 0.04620361
vn 0.2683105 0.9560547 -0.1149292
vn 0.1169434 0.9926758 -0.02587891
vn -0.005687714 0.9887695 0.1463623
vn 0.0004410744 0.9775391 0.2084961
vn 0.196167 0.9741211 -0.1118164
vn 0.1499023 0.9858398 -0.07202148
vn 0.1875 0.9633789 -0.1899414
vn 0.2541504 0.9399414 -0.2264404
vn 0.1168213 0.9604492 -0.2509766
vn 0.144165 0.9399414 -0.3085938
vn 0.1660156 0.9848633 0.04815674
vn 0.07727051 0.996582 0.0256958
vn -0.01139069 0.9526367 0.3032227
vn -0.0567627 0.9365234 0.345459
vn -0.02735901 0.9624023 0.2685547
vn -0.06063843 0.9492188 0.3078613
vn 0.05621338 0.956543 -0.284668
vn 0.05813599 0.9360352 -0.3466797
vn -0.0216217 0.9555664 -0.2937012
vn -0.05200195 0.9272461 -0.3706055
vn 0.00168705 0.9995117 0.02140808
vn -0.08972168 0.9956055 0.007007599
vn -0.08837891 0.9194336 0.3825684
vn -0.09851074 0.9165039 0.3874512
vn -0.07867432 0.9365234 0.3410645
vn -0.07958984 0.9311523 0.3549805
vn -0.1019287 0.9526367 -0.286377
vn -0.1564941 0.925293 -0.3444824
vn -0.1413574 0.9633789 -0.2258301
vn -0.1818848 0.9589844 -0.2166748
vn -0.1643066 0.9863281 -0.0003471375
vn -0.171875 0.9848633 0.001272202
vn -0.09112549 0.9311523 0.3522949
vn -0.0793457 0.9707031 0.2253418
vn -0.05767822 0.9433594 0.3266602
vn -0.04098511 0.9697266 0.2390137
vn -0.0758667 0.9951172 -0.05688477
vn -0.09893799 0.9858398 -0.1317139
vn -0.09985352 0.9946289 0.003772736
vn -0.04486084 0.996582 0.06903076
vn -0.02496338 0.9897461 0.1401367

vt 0.887207 0.6738281
vt 0.7246094 0.6831055
vt 0.7207031 0.6987305
vt 0.887207 0.6982422
vt 0.7128906 0.7207031
vt 0.8793945 0.7226563
vt 0.8120117 0.5898438
vt 0.7363281 0.5556641
vt 0.6586914 0.8256836
vt 0.8100586 0.7783203
vt 0.5708008 0.8427734
vt 0.6108398 0.7158203
vt 0.4624023 0.8320313
vt 0.512207 0.6826172
vt 0.6196289 0.6914063
vt 0.5229492 0.6591797
vt 0.6274414 0.6669922
vt 0.5332031 0.6352539
vt 0.6914063 0.5366211
vt 0.6088867 0.5043945
vt 0.3347168 0.7753906
vt 0.3918457 0.6162109
vt 0.2299805 0.6953125
vt 0.2946777 0.5576172
vt 0.4050293 0.5942383
vt 0.3093262 0.5361328
vt 0.4179688 0.5717773
vt 0.3242188 0.515625
vt 0.5014648 0.4624023
vt 0.3952637 0.4143066
vt 0.1400146 0.5722656
vt 0.2021484 0.4743652
vt 0.0960083 0.489502
vt 0.1292725 0.3730469
vt 0.2182617 0.4543457
vt 0.1425781 0.3540039
vt 0.2351074 0.4353027
vt 0.1588135 0.3378906
vt 0.2878418 0.345459
vt 0.2312012 0.2927246
vt 0.04269409 0.2419434
vt 0.04425049 0.3759766
vt 0.0569458 0.2192383
vt 0.07617188 0.2036133
vt 0.161377 0.2177734

g Desert_Sand_dune_01_(8)_680_87
usemtl Desert_Sand_dune_01_(8)_680_87
usemap Desert_Sand_dune_01_(8)_680_87
f 1/1/1 3/3/3 2/2/2
f 1/1/1 4/4/4 3/3/3
f 4/4/4 5/5/5 3/3/3
f 4/4/4 6/6/6 5/5/5
f 2/2/2 7/7/7 1/1/1
f 2/2/2 8/8/8 7/7/7
f 9/9/9 5/5/5 6/6/6
f 9/9/9 6/6/6 10/10/10
f 11/11/11 5/5/5 9/9/9
f 11/11/11 12/12/12 5/5/5
f 3/3/3 5/5/5 12/12/12
f 13/13/13 12/12/12 11/11/11
f 13/13/13 14/14/14 12/12/12
f 15/15/15 12/12/12 14/14/14
f 3/3/3 12/12/12 15/15/15
f 2/2/2 3/3/3 15/15/15
f 15/15/15 14/14/14 16/16/16
f 17/17/17 15/15/15 16/16/16
f 2/2/2 15/15/15 17/17/17
f 17/17/17 8/8/8 2/2/2
f 17/17/17 16/16/16 18/18/18
f 18/18/18 19/19/19 17/17/17
f 17/17/17 19/19/19 8/8/8
f 18/18/18 20/20/20 19/19/19
f 21/21/21 14/14/14 13/13/13
f 21/21/21 22/22/22 14/14/14
f 16/16/16 14/14/14 22/22/22
f 23/23/23 22/22/22 21/21/21
f 23/23/23 24/24/24 22/22/22
f 24/24/24 25/25/25 22/22/22
f 16/16/16 22/22/22 25/25/25
f 18/18/18 16/16/16 25/25/25
f 24/24/24 26/26/26 25/25/25
f 26/26/26 27/27/27 25/25/25
f 18/18/18 25/25/25 27/27/27
f 27/27/27 20/20/20 18/18/18
f 26/26/26 28/28/28 27/27/27
f 28/28/28 29/29/29 27/27/27
f 27/27/27 29/29/29 20/20/20
f 28/28/28 30/30/30 29/29/29
f 31/31/31 24/24/24 23/23/23
f 31/31/31 32/32/32 24/24/24
f 32/32/32 26/26/26 24/24/24
f 33/33/33 32/32/32 31/31/31
f 33/33/33 34/34/34 32/32/32
f 34/34/34 35/35/35 32/32/32
f 32/32/32 35/35/35 26/26/26
f 35/35/35 28/28/28 26/26/26
f 34/34/34 36/36/36 35/35/35
f 36/36/36 37/37/37 35/35/35
f 35/35/35 37/37/37 28/28/28
f 37/37/37 30/30/30 28/28/28
f 36/36/36 38/38/38 37/37/37
f 38/38/38 39/39/39 37/37/37
f 37/37/37 39/39/39 30/30/30
f 38/38/38 40/40/40 39/39/39
f 41/41/41 34/34/34 33/33/33
f 41/41/41 36/36/36 34/34/34
f 41/41/41 33/33/33 42/42/42
f 41/41/41 43/43/43 36/36/36
f 43/43/43 38/38/38 36/36/36
f 43/43/43 44/44/44 38/38/38
f 45/45/45 38/38/38 44/44/44
f 45/45/45 40/40/40 38/38/38
