#Desert_Rock_05_(1)_705_184.obj

v -0.4538751 -0.26196 0.3199005
v -0.4538771 -0.2619583 -0.319881
v -0.5451776 -0.1706589 -0.3198815
v -0.545176 -0.1706607 0.3199002
v -0.4538754 -0.1706609 0.4111919
v 0.4538851 -0.1706614 0.4111924
v 0.4538853 -0.2619605 0.319901
v -0.4538751 -0.26196 0.3199005
v -0.545176 -0.1706607 0.3199002
v -0.5451762 0.1706542 0.3199001
v -0.4538756 0.170654 0.4111918
v -0.4538754 -0.1706609 0.4111919
v 0.5451835 -0.1706622 0.3199014
v 0.5451819 -0.1706604 -0.3198804
v 0.4538834 -0.2619588 -0.3198805
v 0.4538853 -0.2619605 0.319901
v 0.4538851 -0.1706614 0.4111924
v 0.4538849 0.1706534 0.4111922
v 0.5451833 0.1706527 0.3199013
v 0.5451835 -0.1706622 0.3199014
v -0.5451762 0.1706542 0.3199001
v -0.5451778 0.170656 -0.3198817
v -0.4538784 0.2619555 -0.3198816
v -0.4538768 0.2619537 0.3199002
v -0.4538768 0.2619537 0.3199002
v 0.453884 0.2619533 0.3199003
v 0.4538849 0.1706534 0.4111922
v -0.4538756 0.170654 0.4111918
v 0.453884 0.2619533 0.3199003
v 0.4538821 0.261955 -0.3198811
v 0.5451817 0.1706545 -0.3198805
v 0.5451833 0.1706527 0.3199013
v -0.5451778 0.170656 -0.3198817
v -0.5451776 -0.1706589 -0.3198815
v -0.4538788 -0.170658 -0.4111882
v -0.4538739 0.1706523 -0.411185
v -0.4538739 0.1706523 -0.411185
v 0.4538815 0.1706564 -0.4111879
v 0.4538821 0.261955 -0.3198811
v -0.4538784 0.2619555 -0.3198816
v 0.4538815 0.1706564 -0.4111879
v 0.4538817 -0.1706585 -0.4111877
v 0.5451819 -0.1706604 -0.3198804
v 0.5451817 0.1706545 -0.3198805
v -0.4538771 -0.2619583 -0.319881
v 0.4538834 -0.2619588 -0.3198805
v 0.4538817 -0.1706585 -0.4111877
v -0.4538788 -0.170658 -0.4111882
v -0.4538754 -0.1706609 0.4111919
v -0.4538756 0.170654 0.4111918
v 0.4538849 0.1706534 0.4111922
v 0.4538851 -0.1706614 0.4111924
v -0.4538768 0.2619537 0.3199002
v -0.4538784 0.2619555 -0.3198816
v 0.4538821 0.261955 -0.3198811
v 0.453884 0.2619533 0.3199003
v -0.4538739 0.1706523 -0.411185
v -0.4538788 -0.170658 -0.4111882
v 0.4538817 -0.1706585 -0.4111877
v 0.4538815 0.1706564 -0.4111879
v -0.4538771 -0.2619583 -0.319881
v -0.4538751 -0.26196 0.3199005
v 0.4538853 -0.2619605 0.319901
v 0.4538834 -0.2619588 -0.3198805
v 0.5451835 -0.1706622 0.3199014
v 0.5451833 0.1706527 0.3199013
v 0.5451817 0.1706545 -0.3198805
v 0.5451819 -0.1706604 -0.3198804
v -0.5451776 -0.1706589 -0.3198815
v -0.5451778 0.170656 -0.3198817
v -0.5451762 0.1706542 0.3199001
v -0.545176 -0.1706607 0.3199002
v -0.4538751 -0.26196 0.3199005
v -0.545176 -0.1706607 0.3199002
v -0.4538754 -0.1706609 0.4111919
v 0.5451835 -0.1706622 0.3199014
v 0.4538853 -0.2619605 0.319901
v 0.4538851 -0.1706614 0.4111924
v -0.5451762 0.1706542 0.3199001
v -0.4538768 0.2619537 0.3199002
v -0.4538756 0.170654 0.4111918
v 0.453884 0.2619533 0.3199003
v 0.5451833 0.1706527 0.3199013
v 0.4538849 0.1706534 0.4111922
v -0.5451778 0.170656 -0.3198817
v -0.4538739 0.1706523 -0.411185
v -0.4538784 0.2619555 -0.3198816
v 0.4538815 0.1706564 -0.4111879
v 0.5451817 0.1706545 -0.3198805
v 0.4538821 0.261955 -0.3198811
v -0.5451776 -0.1706589 -0.3198815
v -0.4538771 -0.2619583 -0.319881
v -0.4538788 -0.170658 -0.4111882
v 0.4538834 -0.2619588 -0.3198805
v 0.5451819 -0.1706604 -0.3198804
v 0.4538817 -0.1706585 -0.4111877

vn -0.7089844 -0.7026367 -0.05651855
vn -0.7089844 -0.7026367 -0.05651855
vn -0.7089844 -0.7026367 -0.05651855
vn -0.7089844 -0.7026367 -0.05651855
vn -0.6772461 -0.08673096 0.7304688
vn -0.6772461 -0.08673096 0.7304688
vn -0.6772461 -0.08673096 0.7304688
vn -0.6772461 -0.08673096 0.7304688
vn -0.9506836 0.2612305 -0.1661377
vn -0.9506836 0.2612305 -0.1661377
vn -0.9506836 0.2612305 -0.1661377
vn -0.9506836 0.2612305 -0.1661377
vn 0.2734375 -0.3479004 0.8964844
vn 0.2734375 -0.3479004 0.8964844
vn 0.2734375 -0.3479004 0.8964844
vn 0.2734375 -0.3479004 0.8964844
vn 0.03164673 0.6157227 0.7866211
vn 0.03164673 0.6157227 0.7866211
vn 0.03164673 0.6157227 0.7866211
vn 0.03164673 0.6157227 0.7866211
vn -0.2734375 0.3479004 -0.8964844
vn -0.2734375 0.3479004 -0.8964844
vn -0.2734375 0.3479004 -0.8964844
vn -0.2734375 0.3479004 -0.8964844
vn -0.2416992 0.9638672 -0.1096802
vn -0.2416992 0.9638672 -0.1096802
vn -0.2416992 0.9638672 -0.1096802
vn -0.2416992 0.9638672 -0.1096802
vn 0.7089844 0.7026367 0.05651855
vn 0.7089844 0.7026367 0.05651855
vn 0.7089844 0.7026367 0.05651855
vn 0.7089844 0.7026367 0.05651855
vn -0.03164673 -0.6157227 -0.7866211
vn -0.03164673 -0.6157227 -0.7866211
vn -0.03164673 -0.6157227 -0.7866211
vn -0.03164673 -0.6157227 -0.7866211
vn 0.6772461 0.08673096 -0.7304688
vn 0.6772461 0.08673096 -0.7304688
vn 0.6772461 0.08673096 -0.7304688
vn 0.6772461 0.08673096 -0.7304688
vn 0.9506836 -0.2612305 0.1661377
vn 0.9506836 -0.2612305 0.1661377
vn 0.9506836 -0.2612305 0.1661377
vn 0.9506836 -0.2612305 0.1661377
vn 0.2416992 -0.9638672 0.1096802
vn 0.2416992 -0.9638672 0.1096802
vn 0.2416992 -0.9638672 0.1096802
vn 0.2416992 -0.9638672 0.1096802
vn -0.6499023 0.6201172 0.4387207
vn -0.6499023 0.6201172 0.4387207
vn -0.6499023 0.6201172 0.4387207
vn -0.6499023 0.6201172 0.4387207
vn 0.3078613 0.7426758 -0.59375
vn 0.3078613 0.7426758 -0.59375
vn 0.3078613 0.7426758 -0.59375
vn 0.3078613 0.7426758 -0.59375
vn 0.6499023 -0.6201172 -0.4387207
vn 0.6499023 -0.6201172 -0.4387207
vn 0.6499023 -0.6201172 -0.4387207
vn 0.6499023 -0.6201172 -0.4387207
vn -0.3078613 -0.7426758 0.59375
vn -0.3078613 -0.7426758 0.59375
vn -0.3078613 -0.7426758 0.59375
vn -0.3078613 -0.7426758 0.59375
vn 0.6943359 0.2507324 0.6738281
vn 0.6943359 0.2507324 0.6738281
vn 0.6943359 0.2507324 0.6738281
vn 0.6943359 0.2507324 0.6738281
vn -0.6943359 -0.2507324 -0.6738281
vn -0.6943359 -0.2507324 -0.6738281
vn -0.6943359 -0.2507324 -0.6738281
vn -0.6943359 -0.2507324 -0.6738281
vn -0.9541016 -0.2155762 0.2072754
vn -0.9541016 -0.2155762 0.2072754
vn -0.9541016 -0.2155762 0.2072754
vn -0.1519775 0.07403564 0.9853516
vn -0.1519775 0.07403564 0.9853516
vn -0.1519775 0.07403564 0.9853516
vn -0.5981445 0.6420898 -0.4785156
vn -0.5981445 0.6420898 -0.4785156
vn -0.5981445 0.6420898 -0.4785156
vn 0.2034912 0.9316406 0.2995605
vn 0.2034912 0.9316406 0.2995605
vn 0.2034912 0.9316406 0.2995605
vn 0.1518555 -0.07403564 -0.9853516
vn 0.1518555 -0.07403564 -0.9853516
vn 0.1518555 -0.07403564 -0.9853516
vn 0.9541016 0.2156982 -0.2071533
vn 0.9541016 0.2156982 -0.2071533
vn 0.9541016 0.2156982 -0.2071533
vn -0.2037354 -0.9316406 -0.2995605
vn -0.2037354 -0.9316406 -0.2995605
vn -0.2037354 -0.9316406 -0.2995605
vn 0.5981445 -0.6420898 0.4787598
vn 0.5981445 -0.6420898 0.4787598
vn 0.5981445 -0.6420898 0.4787598

vt 0.7514648 0.6845703
vt 0.7514648 0.6298828
vt 0.7402344 0.6298828
vt 0.7402344 0.6845703
vt 0.4829102 0.244751
vt 0.559082 0.244751
vt 0.5605469 0.234375
vt 0.4816895 0.234375
vt 0.4724121 0.2432861
vt 0.4724121 0.2741699
vt 0.4829102 0.2727051
vt 0.4829102 0.244751
vt 0.8398438 0.6845703
vt 0.8398438 0.6298828
vt 0.8286133 0.6298828
vt 0.8286133 0.6845703
vt 0.559082 0.244751
vt 0.559082 0.2727051
vt 0.5698242 0.2741699
vt 0.5698242 0.2432861
vt 0.7148438 0.6904297
vt 0.7148438 0.7451172
vt 0.7255859 0.7451172
vt 0.7255859 0.6904297
vt 0.4816895 0.2832031
vt 0.5605469 0.2832031
vt 0.559082 0.2727051
vt 0.4829102 0.2727051
vt 0.8032227 0.6904297
vt 0.8032227 0.7451172
vt 0.8139648 0.7451172
vt 0.8139648 0.6904297
vt 0.7128906 0.293457
vt 0.7128906 0.2624512
vt 0.7021484 0.263916
vt 0.7021484 0.2919922
vt 0.7021484 0.2919922
vt 0.6259766 0.2919922
vt 0.6245117 0.3024902
vt 0.7036133 0.3024902
vt 0.6259766 0.2919922
vt 0.6259766 0.263916
vt 0.6157227 0.2624512
vt 0.6157227 0.293457
vt 0.7036133 0.253418
vt 0.6245117 0.253418
vt 0.6259766 0.263916
vt 0.7021484 0.263916
vt 0.4829102 0.244751
vt 0.4829102 0.2727051
vt 0.559082 0.2727051
vt 0.559082 0.244751
vt 0.7255859 0.6904297
vt 0.7255859 0.7451172
vt 0.8032227 0.7451172
vt 0.8032227 0.6904297
vt 0.7021484 0.2919922
vt 0.7021484 0.263916
vt 0.6259766 0.263916
vt 0.6259766 0.2919922
vt 0.7514648 0.6298828
vt 0.7514648 0.6845703
vt 0.8286133 0.6845703
vt 0.8286133 0.6298828
vt 0.8432617 0.6904297
vt 0.8139648 0.6904297
vt 0.8139648 0.7451172
vt 0.8432617 0.7451172
vt 0.6855469 0.7451172
vt 0.7148438 0.7451172
vt 0.7148438 0.6904297
vt 0.6855469 0.6904297
vt 0.4816895 0.234375
vt 0.4724121 0.2432861
vt 0.4829102 0.244751
vt 0.5698242 0.2432861
vt 0.5605469 0.234375
vt 0.559082 0.244751
vt 0.4724121 0.2741699
vt 0.4816895 0.2832031
vt 0.4829102 0.2727051
vt 0.5605469 0.2832031
vt 0.5698242 0.2741699
vt 0.559082 0.2727051
vt 0.7128906 0.293457
vt 0.7021484 0.2919922
vt 0.7036133 0.3024902
vt 0.6259766 0.2919922
vt 0.6157227 0.293457
vt 0.6245117 0.3024902
vt 0.7128906 0.2624512
vt 0.7036133 0.253418
vt 0.7021484 0.263916
vt 0.6245117 0.253418
vt 0.6157227 0.2624512
vt 0.6259766 0.263916

g Desert_Rock_05_(1)_705_184
usemtl Desert_Rock_05_(1)_705_184
usemap Desert_Rock_05_(1)_705_184
f 1/1/1 3/3/3 2/2/2
f 1/1/1 4/4/4 3/3/3
f 5/5/5 7/7/7 6/6/6
f 5/5/5 8/8/8 7/7/7
f 9/9/9 11/11/11 10/10/10
f 9/9/9 12/12/12 11/11/11
f 13/13/13 15/15/15 14/14/14
f 13/13/13 16/16/16 15/15/15
f 17/17/17 19/19/19 18/18/18
f 17/17/17 20/20/20 19/19/19
f 21/21/21 23/23/23 22/22/22
f 21/21/21 24/24/24 23/23/23
f 25/25/25 27/27/27 26/26/26
f 25/25/25 28/28/28 27/27/27
f 29/29/29 31/31/31 30/30/30
f 29/29/29 32/32/32 31/31/31
f 33/33/33 35/35/35 34/34/34
f 33/33/33 36/36/36 35/35/35
f 37/37/37 39/39/39 38/38/38
f 37/37/37 40/40/40 39/39/39
f 41/41/41 43/43/43 42/42/42
f 41/41/41 44/44/44 43/43/43
f 45/45/45 47/47/47 46/46/46
f 45/45/45 48/48/48 47/47/47
f 49/49/49 51/51/51 50/50/50
f 49/49/49 52/52/52 51/51/51
f 53/53/53 55/55/55 54/54/54
f 53/53/53 56/56/56 55/55/55
f 57/57/57 59/59/59 58/58/58
f 57/57/57 60/60/60 59/59/59
f 61/61/61 63/63/63 62/62/62
f 61/61/61 64/64/64 63/63/63
f 65/65/65 67/67/67 66/66/66
f 65/65/65 68/68/68 67/67/67
f 69/69/69 71/71/71 70/70/70
f 69/69/69 72/72/72 71/71/71
f 73/73/73 75/75/75 74/74/74
f 76/76/76 78/78/78 77/77/77
f 79/79/79 81/81/81 80/80/80
f 82/82/82 84/84/84 83/83/83
f 85/85/85 87/87/87 86/86/86
f 88/88/88 90/90/90 89/89/89
f 91/91/91 93/93/93 92/92/92
f 94/94/94 96/96/96 95/95/95
