#Desert_Rock_05_(31)_815_141.obj

v -0.4538802 -0.2619561 0.3198982
v -0.45388 -0.2619562 -0.3198816
v -0.5451803 -0.1706575 -0.3198801
v -0.54518 -0.1706574 0.3198997
v -0.45388 -0.1706574 0.4111905
v 0.4538799 -0.1706575 0.4111915
v 0.4538797 -0.2619561 0.3198991
v -0.4538802 -0.2619561 0.3198982
v -0.54518 -0.1706574 0.3198997
v -0.5451804 0.1706574 0.319899
v -0.4538799 0.1706573 0.4111898
v -0.45388 -0.1706574 0.4111905
v 0.5451773 -0.1706573 0.3198987
v 0.5451776 -0.1706574 -0.3198811
v 0.4538799 -0.2619563 -0.3198806
v 0.4538797 -0.2619561 0.3198991
v 0.4538799 -0.1706575 0.4111915
v 0.45388 0.1706573 0.4111908
v 0.5451775 0.1706574 0.319898
v 0.5451773 -0.1706573 0.3198987
v -0.5451804 0.1706574 0.319899
v -0.5451802 0.1706572 -0.3198808
v -0.4538801 0.2619561 -0.3198811
v -0.4538799 0.2619562 0.3198987
v -0.4538799 0.2619562 0.3198987
v 0.45388 0.2619561 0.3198996
v 0.45388 0.1706573 0.4111908
v -0.4538799 0.1706573 0.4111898
v 0.45388 0.2619561 0.3198996
v 0.4538798 0.2619561 -0.3198801
v 0.5451777 0.1706573 -0.3198818
v 0.5451775 0.1706574 0.319898
v -0.5451802 0.1706572 -0.3198808
v -0.5451803 -0.1706575 -0.3198801
v -0.4538803 -0.1706573 -0.4111881
v -0.4538801 0.1706574 -0.4111887
v -0.4538801 0.1706574 -0.4111887
v 0.4538797 0.1706573 -0.4111878
v 0.4538798 0.2619561 -0.3198801
v -0.4538801 0.2619561 -0.3198811
v 0.4538797 0.1706573 -0.4111878
v 0.4538801 -0.1706574 -0.4111871
v 0.5451776 -0.1706574 -0.3198811
v 0.5451777 0.1706573 -0.3198818
v -0.45388 -0.2619562 -0.3198816
v 0.4538799 -0.2619563 -0.3198806
v 0.4538801 -0.1706574 -0.4111871
v -0.4538803 -0.1706573 -0.4111881
v -0.45388 -0.1706574 0.4111905
v -0.4538799 0.1706573 0.4111898
v 0.45388 0.1706573 0.4111908
v 0.4538799 -0.1706575 0.4111915
v -0.4538799 0.2619562 0.3198987
v -0.4538801 0.2619561 -0.3198811
v 0.4538798 0.2619561 -0.3198801
v 0.45388 0.2619561 0.3198996
v -0.4538801 0.1706574 -0.4111887
v -0.4538803 -0.1706573 -0.4111881
v 0.4538801 -0.1706574 -0.4111871
v 0.4538797 0.1706573 -0.4111878
v -0.45388 -0.2619562 -0.3198816
v -0.4538802 -0.2619561 0.3198982
v 0.4538797 -0.2619561 0.3198991
v 0.4538799 -0.2619563 -0.3198806
v 0.5451773 -0.1706573 0.3198987
v 0.5451775 0.1706574 0.319898
v 0.5451777 0.1706573 -0.3198818
v 0.5451776 -0.1706574 -0.3198811
v -0.5451803 -0.1706575 -0.3198801
v -0.5451802 0.1706572 -0.3198808
v -0.5451804 0.1706574 0.319899
v -0.54518 -0.1706574 0.3198997
v -0.4538802 -0.2619561 0.3198982
v -0.54518 -0.1706574 0.3198997
v -0.45388 -0.1706574 0.4111905
v 0.5451773 -0.1706573 0.3198987
v 0.4538797 -0.2619561 0.3198991
v 0.4538799 -0.1706575 0.4111915
v -0.5451804 0.1706574 0.319899
v -0.4538799 0.2619562 0.3198987
v -0.4538799 0.1706573 0.4111898
v 0.45388 0.2619561 0.3198996
v 0.5451775 0.1706574 0.319898
v 0.45388 0.1706573 0.4111908
v -0.5451802 0.1706572 -0.3198808
v -0.4538801 0.1706574 -0.4111887
v -0.4538801 0.2619561 -0.3198811
v 0.4538797 0.1706573 -0.4111878
v 0.5451777 0.1706573 -0.3198818
v 0.4538798 0.2619561 -0.3198801
v -0.5451803 -0.1706575 -0.3198801
v -0.45388 -0.2619562 -0.3198816
v -0.4538803 -0.1706573 -0.4111881
v 0.4538799 -0.2619563 -0.3198806
v 0.5451776 -0.1706574 -0.3198811
v 0.4538801 -0.1706574 -0.4111871

vn -0.625 -0.7744141 0.09356689
vn -0.625 -0.7744141 0.09356689
vn -0.625 -0.7744141 0.09356689
vn -0.625 -0.7744141 0.09356689
vn 0.1085205 -0.640625 0.7597656
vn 0.1085205 -0.640625 0.7597656
vn 0.1085205 -0.640625 0.7597656
vn 0.1085205 -0.640625 0.7597656
vn -0.6704102 -0.01456451 0.7412109
vn -0.6704102 -0.01456451 0.7412109
vn -0.6704102 -0.01456451 0.7412109
vn -0.6704102 -0.01456451 0.7412109
vn 0.7788086 -0.6264648 0.0181427
vn 0.7788086 -0.6264648 0.0181427
vn 0.7788086 -0.6264648 0.0181427
vn 0.7788086 -0.6264648 0.0181427
vn 0.7333984 0.133667 0.6660156
vn 0.7333984 0.133667 0.6660156
vn 0.7333984 0.133667 0.6660156
vn 0.7333984 0.133667 0.6660156
vn -0.7788086 0.6264648 -0.0181427
vn -0.7788086 0.6264648 -0.0181427
vn -0.7788086 0.6264648 -0.0181427
vn -0.7788086 0.6264648 -0.0181427
vn -0.04547119 0.7602539 0.6479492
vn -0.04547119 0.7602539 0.6479492
vn -0.04547119 0.7602539 0.6479492
vn -0.04547119 0.7602539 0.6479492
vn 0.625 0.7744141 -0.09356689
vn 0.625 0.7744141 -0.09356689
vn 0.625 0.7744141 -0.09356689
vn 0.625 0.7744141 -0.09356689
vn -0.7333984 -0.133667 -0.6660156
vn -0.7333984 -0.133667 -0.6660156
vn -0.7333984 -0.133667 -0.6660156
vn -0.7333984 -0.133667 -0.6660156
vn -0.1085205 0.640625 -0.7597656
vn -0.1085205 0.640625 -0.7597656
vn -0.1085205 0.640625 -0.7597656
vn -0.1085205 0.640625 -0.7597656
vn 0.6704102 0.01456451 -0.7412109
vn 0.6704102 0.01456451 -0.7412109
vn 0.6704102 0.01456451 -0.7412109
vn 0.6704102 0.01456451 -0.7412109
vn 0.04547119 -0.7602539 -0.6479492
vn 0.04547119 -0.7602539 -0.6479492
vn 0.04547119 -0.7602539 -0.6479492
vn 0.04547119 -0.7602539 -0.6479492
vn 0.04458618 0.08428955 0.9951172
vn 0.04458618 0.08428955 0.9951172
vn 0.04458618 0.08428955 0.9951172
vn 0.04458618 0.08428955 0.9951172
vn -0.1088867 0.9907227 -0.07897949
vn -0.1088867 0.9907227 -0.07897949
vn -0.1088867 0.9907227 -0.07897949
vn -0.1088867 0.9907227 -0.07897949
vn -0.04458618 -0.08428955 -0.9951172
vn -0.04458618 -0.08428955 -0.9951172
vn -0.04458618 -0.08428955 -0.9951172
vn -0.04458618 -0.08428955 -0.9951172
vn 0.1088867 -0.9907227 0.07897949
vn 0.1088867 -0.9907227 0.07897949
vn 0.1088867 -0.9907227 0.07897949
vn 0.1088867 -0.9907227 0.07897949
vn 0.9926758 0.1048584 -0.05334473
vn 0.9926758 0.1048584 -0.05334473
vn 0.9926758 0.1048584 -0.05334473
vn 0.9926758 0.1048584 -0.05334473
vn -0.9926758 -0.1048584 0.05334473
vn -0.9926758 -0.1048584 0.05334473
vn -0.9926758 -0.1048584 0.05334473
vn -0.9926758 -0.1048584 0.05334473
vn -0.4846191 -0.5834961 0.6508789
vn -0.4846191 -0.5834961 0.6508789
vn -0.4846191 -0.5834961 0.6508789
vn 0.6616211 -0.4626465 0.5893555
vn 0.6616211 -0.4626465 0.5893555
vn 0.6616211 -0.4626465 0.5893555
vn -0.6103516 0.5600586 0.5595703
vn -0.6103516 0.5600586 0.5595703
vn -0.6103516 0.5600586 0.5595703
vn 0.5361328 0.6811523 0.498291
vn 0.5361328 0.6811523 0.498291
vn 0.5361328 0.6811523 0.498291
vn -0.6616211 0.4626465 -0.5893555
vn -0.6616211 0.4626465 -0.5893555
vn -0.6616211 0.4626465 -0.5893555
vn 0.4846191 0.5834961 -0.6508789
vn 0.4846191 0.5834961 -0.6508789
vn 0.4846191 0.5834961 -0.6508789
vn -0.5361328 -0.6811523 -0.4980469
vn -0.5361328 -0.6811523 -0.4980469
vn -0.5361328 -0.6811523 -0.4980469
vn 0.6103516 -0.5600586 -0.5595703
vn 0.6103516 -0.5600586 -0.5595703
vn 0.6103516 -0.5600586 -0.5595703

vt 0.7514648 0.6845703
vt 0.7514648 0.6298828
vt 0.7402344 0.6298828
vt 0.7402344 0.6845703
vt 0.4829102 0.244751
vt 0.559082 0.244751
vt 0.5605469 0.234375
vt 0.4816895 0.234375
vt 0.4724121 0.2432861
vt 0.4724121 0.2741699
vt 0.4829102 0.2727051
vt 0.4829102 0.244751
vt 0.8398438 0.6845703
vt 0.8398438 0.6298828
vt 0.8286133 0.6298828
vt 0.8286133 0.6845703
vt 0.559082 0.244751
vt 0.559082 0.2727051
vt 0.5698242 0.2741699
vt 0.5698242 0.2432861
vt 0.7148438 0.6904297
vt 0.7148438 0.7451172
vt 0.7255859 0.7451172
vt 0.7255859 0.6904297
vt 0.4816895 0.2832031
vt 0.5605469 0.2832031
vt 0.559082 0.2727051
vt 0.4829102 0.2727051
vt 0.8032227 0.6904297
vt 0.8032227 0.7451172
vt 0.8139648 0.7451172
vt 0.8139648 0.6904297
vt 0.7128906 0.293457
vt 0.7128906 0.2624512
vt 0.7021484 0.263916
vt 0.7021484 0.2919922
vt 0.7021484 0.2919922
vt 0.6259766 0.2919922
vt 0.6245117 0.3024902
vt 0.7036133 0.3024902
vt 0.6259766 0.2919922
vt 0.6259766 0.263916
vt 0.6157227 0.2624512
vt 0.6157227 0.293457
vt 0.7036133 0.253418
vt 0.6245117 0.253418
vt 0.6259766 0.263916
vt 0.7021484 0.263916
vt 0.4829102 0.244751
vt 0.4829102 0.2727051
vt 0.559082 0.2727051
vt 0.559082 0.244751
vt 0.7255859 0.6904297
vt 0.7255859 0.7451172
vt 0.8032227 0.7451172
vt 0.8032227 0.6904297
vt 0.7021484 0.2919922
vt 0.7021484 0.263916
vt 0.6259766 0.263916
vt 0.6259766 0.2919922
vt 0.7514648 0.6298828
vt 0.7514648 0.6845703
vt 0.8286133 0.6845703
vt 0.8286133 0.6298828
vt 0.8432617 0.6904297
vt 0.8139648 0.6904297
vt 0.8139648 0.7451172
vt 0.8432617 0.7451172
vt 0.6855469 0.7451172
vt 0.7148438 0.7451172
vt 0.7148438 0.6904297
vt 0.6855469 0.6904297
vt 0.4816895 0.234375
vt 0.4724121 0.2432861
vt 0.4829102 0.244751
vt 0.5698242 0.2432861
vt 0.5605469 0.234375
vt 0.559082 0.244751
vt 0.4724121 0.2741699
vt 0.4816895 0.2832031
vt 0.4829102 0.2727051
vt 0.5605469 0.2832031
vt 0.5698242 0.2741699
vt 0.559082 0.2727051
vt 0.7128906 0.293457
vt 0.7021484 0.2919922
vt 0.7036133 0.3024902
vt 0.6259766 0.2919922
vt 0.6157227 0.293457
vt 0.6245117 0.3024902
vt 0.7128906 0.2624512
vt 0.7036133 0.253418
vt 0.7021484 0.263916
vt 0.6245117 0.253418
vt 0.6157227 0.2624512
vt 0.6259766 0.263916

g Desert_Rock_05_(31)_815_141
usemtl Desert_Rock_05_(31)_815_141
usemap Desert_Rock_05_(31)_815_141
f 1/1/1 3/3/3 2/2/2
f 1/1/1 4/4/4 3/3/3
f 5/5/5 7/7/7 6/6/6
f 5/5/5 8/8/8 7/7/7
f 9/9/9 11/11/11 10/10/10
f 9/9/9 12/12/12 11/11/11
f 13/13/13 15/15/15 14/14/14
f 13/13/13 16/16/16 15/15/15
f 17/17/17 19/19/19 18/18/18
f 17/17/17 20/20/20 19/19/19
f 21/21/21 23/23/23 22/22/22
f 21/21/21 24/24/24 23/23/23
f 25/25/25 27/27/27 26/26/26
f 25/25/25 28/28/28 27/27/27
f 29/29/29 31/31/31 30/30/30
f 29/29/29 32/32/32 31/31/31
f 33/33/33 35/35/35 34/34/34
f 33/33/33 36/36/36 35/35/35
f 37/37/37 39/39/39 38/38/38
f 37/37/37 40/40/40 39/39/39
f 41/41/41 43/43/43 42/42/42
f 41/41/41 44/44/44 43/43/43
f 45/45/45 47/47/47 46/46/46
f 45/45/45 48/48/48 47/47/47
f 49/49/49 51/51/51 50/50/50
f 49/49/49 52/52/52 51/51/51
f 53/53/53 55/55/55 54/54/54
f 53/53/53 56/56/56 55/55/55
f 57/57/57 59/59/59 58/58/58
f 57/57/57 60/60/60 59/59/59
f 61/61/61 63/63/63 62/62/62
f 61/61/61 64/64/64 63/63/63
f 65/65/65 67/67/67 66/66/66
f 65/65/65 68/68/68 67/67/67
f 69/69/69 71/71/71 70/70/70
f 69/69/69 72/72/72 71/71/71
f 73/73/73 75/75/75 74/74/74
f 76/76/76 78/78/78 77/77/77
f 79/79/79 81/81/81 80/80/80
f 82/82/82 84/84/84 83/83/83
f 85/85/85 87/87/87 86/86/86
f 88/88/88 90/90/90 89/89/89
f 91/91/91 93/93/93 92/92/92
f 94/94/94 96/96/96 95/95/95
