#Desert_Wall_Small_Short_(2)_814_57.obj

v -9.312479E-07 1.89536 5
v 0.4971204 1.89536 4.999999
v 0.6012721 -1.877609E-08 5
v -9.312479E-07 -1.877609E-08 5
v 0.6012721 -1.877609E-08 1.945768E-07
v 0.4971204 1.89536 -1.155647E-06
v -9.610554E-07 1.89536 2.906303E-08
v -9.610554E-07 -1.877609E-08 2.906303E-08
v 0.4971204 1.89536 4.999999
v 0.4971204 1.89536 -1.155647E-06
v 0.6012721 -1.877609E-08 1.945768E-07
v 0.6012721 -1.877609E-08 5
v -9.312479E-07 1.89536 5
v -9.610554E-07 1.89536 2.906303E-08
v 0.4971204 1.89536 -1.155647E-06
v 0.4971204 1.89536 4.999999
v -9.312479E-07 1.89536 5
v -9.312479E-07 -1.877609E-08 5
v -0.601273 -1.877609E-08 5
v -0.4971213 1.89536 5.000001
v -0.6012731 -1.877609E-08 -1.364383E-07
v -9.610554E-07 -1.877609E-08 2.906303E-08
v -9.610554E-07 1.89536 2.906303E-08
v -0.4971213 1.89536 1.213785E-06
v -0.4971213 1.89536 5.000001
v -0.601273 -1.877609E-08 5
v -0.6012731 -1.877609E-08 -1.364383E-07
v -0.4971213 1.89536 1.213785E-06
v -9.312479E-07 1.89536 5
v -0.4971213 1.89536 5.000001
v -0.4971213 1.89536 1.213785E-06
v -9.610554E-07 1.89536 2.906303E-08

vn 1.293421E-05 0 0.9995117
vn 1.293421E-05 0 0.9995117
vn 1.293421E-05 0 0.9995117
vn 1.293421E-05 0 0.9995117
vn -1.293421E-05 0 -0.9995117
vn -1.293421E-05 0 -0.9995117
vn -1.293421E-05 0 -0.9995117
vn -1.293421E-05 0 -0.9995117
vn 0.9980469 0.05477905 -1.293421E-05
vn 0.9980469 0.05477905 -1.293421E-05
vn 0.9980469 0.05477905 -1.293421E-05
vn 0.9980469 0.05477905 -1.293421E-05
vn 0 0.9995117 0
vn 0 0.9995117 0
vn 0 0.9995117 0
vn 0 0.9995117 0
vn 1.293421E-05 0 0.9995117
vn 1.293421E-05 0 0.9995117
vn 1.293421E-05 0 0.9995117
vn 1.293421E-05 0 0.9995117
vn -1.293421E-05 0 -0.9995117
vn -1.293421E-05 0 -0.9995117
vn -1.293421E-05 0 -0.9995117
vn -1.293421E-05 0 -0.9995117
vn -0.9980469 0.05477905 1.293421E-05
vn -0.9980469 0.05477905 1.293421E-05
vn -0.9980469 0.05477905 1.293421E-05
vn -0.9980469 0.05477905 1.293421E-05
vn 0 0.9995117 0
vn 0 0.9995117 0
vn 0 0.9995117 0
vn 0 0.9995117 0

vt 1.46582 0.8388672
vt 1.421875 0.8388672
vt 1.421875 0.6889648
vt 1.46582 0.6889648
vt 1.943359 0.8452148
vt 1.943359 0.9951172
vt 1.899414 0.9951172
vt 1.899414 0.8452148
vt 1.591797 0.9951172
vt 1.197266 0.9951172
vt 1.197266 0.8452148
vt 1.591797 0.8452148
vt 1.748047 0.6000977
vt 1.748047 0.9956055
vt 1.708984 0.9956055
vt 1.708984 0.6000977
vt 0.4660645 0.8388672
vt 0.4660645 0.6889648
vt 0.4226074 0.6889648
vt 0.4226074 0.8388672
vt 0.9433594 0.8452148
vt 0.8999023 0.8452148
vt 0.8999023 0.9951172
vt 0.9433594 0.9951172
vt 0.5922852 0.9951172
vt 0.5922852 0.8452148
vt 0.1973877 0.8452148
vt 0.1973877 0.9951172
vt 0.7485352 0.6000977
vt 0.7094727 0.6000977
vt 0.7094727 0.9956055
vt 0.7485352 0.9956055

g Desert_Wall_Small_Short_(2)_814_57
usemtl Desert_Wall_Small_Short_(2)_814_57
usemap Desert_Wall_Small_Short_(2)_814_57
f 1/1/1 3/3/3 2/2/2
f 1/1/1 4/4/4 3/3/3
f 5/5/5 7/7/7 6/6/6
f 5/5/5 8/8/8 7/7/7
f 9/9/9 11/11/11 10/10/10
f 9/9/9 12/12/12 11/11/11
f 13/13/13 15/15/15 14/14/14
f 13/13/13 16/16/16 15/15/15
f 17/17/17 19/19/19 18/18/18
f 17/17/17 20/20/20 19/19/19
f 21/21/21 23/23/23 22/22/22
f 21/21/21 24/24/24 23/23/23
f 25/25/25 27/27/27 26/26/26
f 25/25/25 28/28/28 27/27/27
f 29/29/29 31/31/31 30/30/30
f 29/29/29 32/32/32 31/31/31
