#Desert_Rock_02_(15)_607_189.obj

v -0.4538762 -0.517472 0.4863502
v -0.453878 -0.5174717 -0.4863437
v -0.5451726 -0.4261736 -0.4863408
v -0.5451754 -0.4261731 0.4863501
v -0.4538726 -0.4261737 0.5776515
v 0.4538848 -0.426173 0.5776492
v 0.4538811 -0.5174713 0.4863479
v -0.4538762 -0.517472 0.4863502
v -0.5451754 -0.4261731 0.4863501
v -0.5451749 0.4261736 0.4863507
v -0.4538718 0.4261727 0.5776519
v -0.4538726 -0.4261737 0.5776515
v 0.5451834 -0.4261734 0.4863519
v 0.5451773 -0.4261723 -0.4863452
v 0.4538843 -0.5174718 -0.4863431
v 0.4538811 -0.5174713 0.4863479
v 0.4538848 -0.426173 0.5776492
v 0.4538855 0.4261736 0.5776497
v 0.5451841 0.4261732 0.4863524
v 0.5451834 -0.4261734 0.4863519
v -0.5451749 0.4261736 0.4863507
v -0.5451764 0.4261739 -0.4863434
v -0.453875 0.5174704 -0.4863392
v -0.4538803 0.5174713 0.4863477
v -0.4538803 0.5174713 0.4863477
v 0.4538866 0.5174704 0.4863513
v 0.4538855 0.4261736 0.5776497
v -0.4538718 0.4261727 0.5776519
v 0.4538866 0.5174704 0.4863513
v 0.4538872 0.5174702 -0.4863386
v 0.545178 0.4261742 -0.4863448
v 0.5451841 0.4261732 0.4863524
v -0.5451764 0.4261739 -0.4863434
v -0.5451726 -0.4261736 -0.4863408
v -0.4538772 -0.4261729 -0.5776468
v -0.4538765 0.4261737 -0.5776463
v -0.4538765 0.4261737 -0.5776463
v 0.4538812 0.4261743 -0.5776488
v 0.4538872 0.5174702 -0.4863386
v -0.453875 0.5174704 -0.4863392
v 0.4538812 0.4261743 -0.5776488
v 0.4538896 -0.4261739 -0.5776432
v 0.5451773 -0.4261723 -0.4863452
v 0.545178 0.4261742 -0.4863448
v -0.453878 -0.5174717 -0.4863437
v 0.4538843 -0.5174718 -0.4863431
v 0.4538896 -0.4261739 -0.5776432
v -0.4538772 -0.4261729 -0.5776468
v -0.4538726 -0.4261737 0.5776515
v -0.4538718 0.4261727 0.5776519
v 0.4538855 0.4261736 0.5776497
v 0.4538848 -0.426173 0.5776492
v -0.4538803 0.5174713 0.4863477
v -0.453875 0.5174704 -0.4863392
v 0.4538872 0.5174702 -0.4863386
v 0.4538866 0.5174704 0.4863513
v -0.4538765 0.4261737 -0.5776463
v -0.4538772 -0.4261729 -0.5776468
v 0.4538896 -0.4261739 -0.5776432
v 0.4538812 0.4261743 -0.5776488
v -0.453878 -0.5174717 -0.4863437
v -0.4538762 -0.517472 0.4863502
v 0.4538811 -0.5174713 0.4863479
v 0.4538843 -0.5174718 -0.4863431
v 0.5451834 -0.4261734 0.4863519
v 0.5451841 0.4261732 0.4863524
v 0.545178 0.4261742 -0.4863448
v 0.5451773 -0.4261723 -0.4863452
v -0.5451726 -0.4261736 -0.4863408
v -0.5451764 0.4261739 -0.4863434
v -0.5451749 0.4261736 0.4863507
v -0.5451754 -0.4261731 0.4863501
v -0.4538762 -0.517472 0.4863502
v -0.5451754 -0.4261731 0.4863501
v -0.4538726 -0.4261737 0.5776515
v 0.5451834 -0.4261734 0.4863519
v 0.4538811 -0.5174713 0.4863479
v 0.4538848 -0.426173 0.5776492
v -0.5451749 0.4261736 0.4863507
v -0.4538803 0.5174713 0.4863477
v -0.4538718 0.4261727 0.5776519
v 0.4538866 0.5174704 0.4863513
v 0.5451841 0.4261732 0.4863524
v 0.4538855 0.4261736 0.5776497
v -0.5451764 0.4261739 -0.4863434
v -0.4538765 0.4261737 -0.5776463
v -0.453875 0.5174704 -0.4863392
v 0.4538812 0.4261743 -0.5776488
v 0.545178 0.4261742 -0.4863448
v 0.4538872 0.5174702 -0.4863386
v -0.5451726 -0.4261736 -0.4863408
v -0.453878 -0.5174717 -0.4863437
v -0.4538772 -0.4261729 -0.5776468
v 0.4538843 -0.5174718 -0.4863431
v 0.5451773 -0.4261723 -0.4863452
v 0.4538896 -0.4261739 -0.5776432

vn -0.2529297 -0.8974609 -0.3598633
vn -0.2529297 -0.8974609 -0.3598633
vn -0.2529297 -0.8974609 -0.3598633
vn -0.2529297 -0.8974609 -0.3598633
vn 0.0166626 -0.8857422 0.463623
vn 0.0166626 -0.8857422 0.463623
vn 0.0166626 -0.8857422 0.463623
vn 0.0166626 -0.8857422 0.463623
vn -0.9125977 -0.3632813 -0.1853027
vn -0.9125977 -0.3632813 -0.1853027
vn -0.9125977 -0.3632813 -0.1853027
vn -0.9125977 -0.3632813 -0.1853027
vn 0.7446289 -0.4182129 0.5195313
vn 0.7446289 -0.4182129 0.5195313
vn 0.7446289 -0.4182129 0.5195313
vn 0.7446289 -0.4182129 0.5195313
vn 0.3325195 0.2351074 0.9130859
vn 0.3325195 0.2351074 0.9130859
vn 0.3325195 0.2351074 0.9130859
vn 0.3325195 0.2351074 0.9130859
vn -0.7446289 0.4182129 -0.5195313
vn -0.7446289 0.4182129 -0.5195313
vn -0.7446289 0.4182129 -0.5195313
vn -0.7446289 0.4182129 -0.5195313
vn -0.5966797 0.7573242 0.263916
vn -0.5966797 0.7573242 0.263916
vn -0.5966797 0.7573242 0.263916
vn -0.5966797 0.7573242 0.263916
vn 0.2529297 0.8974609 0.3598633
vn 0.2529297 0.8974609 0.3598633
vn 0.2529297 0.8974609 0.3598633
vn 0.2529297 0.8974609 0.3598633
vn -0.3325195 -0.2351074 -0.9130859
vn -0.3325195 -0.2351074 -0.9130859
vn -0.3325195 -0.2351074 -0.9130859
vn -0.3325195 -0.2351074 -0.9130859
vn -0.0166626 0.8857422 -0.463623
vn -0.0166626 0.8857422 -0.463623
vn -0.0166626 0.8857422 -0.463623
vn -0.0166626 0.8857422 -0.463623
vn 0.9125977 0.3632813 0.1853027
vn 0.9125977 0.3632813 0.1853027
vn 0.9125977 0.3632813 0.1853027
vn 0.9125977 0.3632813 0.1853027
vn 0.5966797 -0.7573242 -0.263916
vn 0.5966797 -0.7573242 -0.263916
vn 0.5966797 -0.7573242 -0.263916
vn 0.5966797 -0.7573242 -0.263916
vn -0.6171875 -0.1363525 0.7744141
vn -0.6171875 -0.1363525 0.7744141
vn -0.6171875 -0.1363525 0.7744141
vn -0.6171875 -0.1363525 0.7744141
vn -0.3474121 0.9306641 -0.1130981
vn -0.3474121 0.9306641 -0.1130981
vn -0.3474121 0.9306641 -0.1130981
vn -0.3474121 0.9306641 -0.1130981
vn 0.6171875 0.1363525 -0.7744141
vn 0.6171875 0.1363525 -0.7744141
vn 0.6171875 0.1363525 -0.7744141
vn 0.6171875 0.1363525 -0.7744141
vn 0.3474121 -0.9306641 0.1130981
vn 0.3474121 -0.9306641 0.1130981
vn 0.3474121 -0.9306641 0.1130981
vn 0.3474121 -0.9306641 0.1130981
vn 0.7055664 0.3388672 0.6220703
vn 0.7055664 0.3388672 0.6220703
vn 0.7055664 0.3388672 0.6220703
vn 0.7055664 0.3388672 0.6220703
vn -0.7055664 -0.3388672 -0.6220703
vn -0.7055664 -0.3388672 -0.6220703
vn -0.7055664 -0.3388672 -0.6220703
vn -0.7055664 -0.3388672 -0.6220703
vn -0.4543457 -0.8881836 -0.06414795
vn -0.4543457 -0.8881836 -0.06414795
vn -0.4543457 -0.8881836 -0.06414795
vn 0.479248 -0.4394531 0.7592773
vn 0.479248 -0.4394531 0.7592773
vn 0.479248 -0.4394531 0.7592773
vn -0.9140625 0.3432617 -0.2138672
vn -0.9140625 0.3432617 -0.2138672
vn -0.9140625 0.3432617 -0.2138672
vn 0.01948547 0.7919922 0.609375
vn 0.01948547 0.7919922 0.609375
vn 0.01948547 0.7919922 0.609375
vn -0.479248 0.4394531 -0.7592773
vn -0.479248 0.4394531 -0.7592773
vn -0.479248 0.4394531 -0.7592773
vn 0.4543457 0.8881836 0.06414795
vn 0.4543457 0.8881836 0.06414795
vn 0.4543457 0.8881836 0.06414795
vn -0.01948547 -0.7919922 -0.609375
vn -0.01948547 -0.7919922 -0.609375
vn -0.01948547 -0.7919922 -0.609375
vn 0.9140625 -0.3432617 0.2138672
vn 0.9140625 -0.3432617 0.2138672
vn 0.9140625 -0.3432617 0.2138672

vt 0.6713867 0.04797363
vt 0.5888672 0.04797363
vt 0.5888672 0.05899048
vt 0.6713867 0.05899048
vt 0.7758789 0.4213867
vt 0.8520508 0.4213867
vt 0.8535156 0.4108887
vt 0.7744141 0.4108887
vt 0.7651367 0.420166
vt 0.7651367 0.4943848
vt 0.7758789 0.4931641
vt 0.7758789 0.4213867
vt 0.6298828 0.3193359
vt 0.7128906 0.3193359
vt 0.7128906 0.3083496
vt 0.6298828 0.3083496
vt 0.8520508 0.4213867
vt 0.8520508 0.4931641
vt 0.862793 0.4943848
vt 0.862793 0.420166
vt 0.6713867 0.1315918
vt 0.5888672 0.1315918
vt 0.5888672 0.1425781
vt 0.6713867 0.1425781
vt 0.7744141 0.503418
vt 0.8535156 0.503418
vt 0.8520508 0.4931641
vt 0.7758789 0.4931641
vt 0.6298828 0.402832
vt 0.7128906 0.402832
vt 0.7128906 0.3918457
vt 0.6298828 0.3918457
vt 0.4304199 0.7094727
vt 0.4304199 0.6352539
vt 0.420166 0.6362305
vt 0.420166 0.7080078
vt 0.420166 0.7080078
vt 0.3435059 0.7080078
vt 0.3422852 0.71875
vt 0.4213867 0.71875
vt 0.3435059 0.7080078
vt 0.3435059 0.6362305
vt 0.333252 0.6352539
vt 0.333252 0.7094727
vt 0.4213867 0.6259766
vt 0.3422852 0.6259766
vt 0.3435059 0.6362305
vt 0.420166 0.6362305
vt 0.7758789 0.4213867
vt 0.7758789 0.4931641
vt 0.8520508 0.4931641
vt 0.8520508 0.4213867
vt 0.6713867 0.1425781
vt 0.5888672 0.1425781
vt 0.5888672 0.2199707
vt 0.6713867 0.2199707
vt 0.420166 0.7080078
vt 0.420166 0.6362305
vt 0.3435059 0.6362305
vt 0.3435059 0.7080078
vt 0.605957 0.527832
vt 0.605957 0.6108398
vt 0.6831055 0.6108398
vt 0.6831055 0.527832
vt 0.6298828 0.3193359
vt 0.6298828 0.3918457
vt 0.7128906 0.3918457
vt 0.7128906 0.3193359
vt 0.5888672 0.05899048
vt 0.5888672 0.1315918
vt 0.6713867 0.1315918
vt 0.6713867 0.05899048
vt 0.7744141 0.4108887
vt 0.7651367 0.420166
vt 0.7758789 0.4213867
vt 0.862793 0.420166
vt 0.8535156 0.4108887
vt 0.8520508 0.4213867
vt 0.7651367 0.4943848
vt 0.7744141 0.503418
vt 0.7758789 0.4931641
vt 0.8535156 0.503418
vt 0.862793 0.4943848
vt 0.8520508 0.4931641
vt 0.4304199 0.7094727
vt 0.420166 0.7080078
vt 0.4213867 0.71875
vt 0.3435059 0.7080078
vt 0.333252 0.7094727
vt 0.3422852 0.71875
vt 0.4304199 0.6352539
vt 0.4213867 0.6259766
vt 0.420166 0.6362305
vt 0.3422852 0.6259766
vt 0.333252 0.6352539
vt 0.3435059 0.6362305

g Desert_Rock_02_(15)_607_189
usemtl Desert_Rock_02_(15)_607_189
usemap Desert_Rock_02_(15)_607_189
f 1/1/1 3/3/3 2/2/2
f 1/1/1 4/4/4 3/3/3
f 5/5/5 7/7/7 6/6/6
f 5/5/5 8/8/8 7/7/7
f 9/9/9 11/11/11 10/10/10
f 9/9/9 12/12/12 11/11/11
f 13/13/13 15/15/15 14/14/14
f 13/13/13 16/16/16 15/15/15
f 17/17/17 19/19/19 18/18/18
f 17/17/17 20/20/20 19/19/19
f 21/21/21 23/23/23 22/22/22
f 21/21/21 24/24/24 23/23/23
f 25/25/25 27/27/27 26/26/26
f 25/25/25 28/28/28 27/27/27
f 29/29/29 31/31/31 30/30/30
f 29/29/29 32/32/32 31/31/31
f 33/33/33 35/35/35 34/34/34
f 33/33/33 36/36/36 35/35/35
f 37/37/37 39/39/39 38/38/38
f 37/37/37 40/40/40 39/39/39
f 41/41/41 43/43/43 42/42/42
f 41/41/41 44/44/44 43/43/43
f 45/45/45 47/47/47 46/46/46
f 45/45/45 48/48/48 47/47/47
f 49/49/49 51/51/51 50/50/50
f 49/49/49 52/52/52 51/51/51
f 53/53/53 55/55/55 54/54/54
f 53/53/53 56/56/56 55/55/55
f 57/57/57 59/59/59 58/58/58
f 57/57/57 60/60/60 59/59/59
f 61/61/61 63/63/63 62/62/62
f 61/61/61 64/64/64 63/63/63
f 65/65/65 67/67/67 66/66/66
f 65/65/65 68/68/68 67/67/67
f 69/69/69 71/71/71 70/70/70
f 69/69/69 72/72/72 71/71/71
f 73/73/73 75/75/75 74/74/74
f 76/76/76 78/78/78 77/77/77
f 79/79/79 81/81/81 80/80/80
f 82/82/82 84/84/84 83/83/83
f 85/85/85 87/87/87 86/86/86
f 88/88/88 90/90/90 89/89/89
f 91/91/91 93/93/93 92/92/92
f 94/94/94 96/96/96 95/95/95
