#Desert_Rock_05_(33)_660_163.obj

v -0.4538772 -0.2619578 0.319902
v -0.4538767 -0.2619579 -0.3198772
v -0.5451771 -0.1706589 -0.3198785
v -0.5451774 -0.1706588 0.3199006
v -0.4538769 -0.170659 0.4111943
v 0.4538831 -0.1706591 0.4111942
v 0.4538829 -0.2619578 0.3199019
v -0.4538772 -0.2619578 0.319902
v -0.5451774 -0.1706588 0.3199006
v -0.5451773 0.1706558 0.3199014
v -0.4538768 0.1706556 0.4111951
v -0.4538769 -0.170659 0.4111943
v 0.5451807 -0.1706591 0.319903
v 0.5451803 -0.1706588 -0.3198799
v 0.4538834 -0.2619579 -0.3198772
v 0.4538829 -0.2619578 0.3199019
v 0.4538831 -0.1706591 0.4111942
v 0.4538833 0.1706555 0.4111951
v 0.5451813 0.1706555 0.3199037
v 0.5451807 -0.1706591 0.319903
v -0.5451773 0.1706558 0.3199014
v -0.545177 0.1706557 -0.3198777
v -0.4538769 0.2619545 -0.3198773
v -0.4538774 0.2619547 0.3199019
v -0.4538774 0.2619547 0.3199019
v 0.4538827 0.2619546 0.3199019
v 0.4538833 0.1706555 0.4111951
v -0.4538768 0.1706556 0.4111951
v 0.4538827 0.2619546 0.3199019
v 0.4538832 0.2619545 -0.3198773
v 0.5451804 0.1706558 -0.3198791
v 0.5451813 0.1706555 0.3199037
v -0.545177 0.1706557 -0.3198777
v -0.5451771 -0.1706589 -0.3198785
v -0.4538766 -0.1706592 -0.4111824
v -0.4538772 0.1706558 -0.4111854
v -0.4538772 0.1706558 -0.4111854
v 0.4538829 0.1706558 -0.4111854
v 0.4538832 0.2619545 -0.3198773
v -0.4538769 0.2619545 -0.3198773
v 0.4538829 0.1706558 -0.4111854
v 0.4538836 -0.1706592 -0.4111826
v 0.5451803 -0.1706588 -0.3198799
v 0.5451804 0.1706558 -0.3198791
v -0.4538767 -0.2619579 -0.3198772
v 0.4538834 -0.2619579 -0.3198772
v 0.4538836 -0.1706592 -0.4111826
v -0.4538766 -0.1706592 -0.4111824
v -0.4538769 -0.170659 0.4111943
v -0.4538768 0.1706556 0.4111951
v 0.4538833 0.1706555 0.4111951
v 0.4538831 -0.1706591 0.4111942
v -0.4538774 0.2619547 0.3199019
v -0.4538769 0.2619545 -0.3198773
v 0.4538832 0.2619545 -0.3198773
v 0.4538827 0.2619546 0.3199019
v -0.4538772 0.1706558 -0.4111854
v -0.4538766 -0.1706592 -0.4111824
v 0.4538836 -0.1706592 -0.4111826
v 0.4538829 0.1706558 -0.4111854
v -0.4538767 -0.2619579 -0.3198772
v -0.4538772 -0.2619578 0.319902
v 0.4538829 -0.2619578 0.3199019
v 0.4538834 -0.2619579 -0.3198772
v 0.5451807 -0.1706591 0.319903
v 0.5451813 0.1706555 0.3199037
v 0.5451804 0.1706558 -0.3198791
v 0.5451803 -0.1706588 -0.3198799
v -0.5451771 -0.1706589 -0.3198785
v -0.545177 0.1706557 -0.3198777
v -0.5451773 0.1706558 0.3199014
v -0.5451774 -0.1706588 0.3199006
v -0.4538772 -0.2619578 0.319902
v -0.5451774 -0.1706588 0.3199006
v -0.4538769 -0.170659 0.4111943
v 0.5451807 -0.1706591 0.319903
v 0.4538829 -0.2619578 0.3199019
v 0.4538831 -0.1706591 0.4111942
v -0.5451773 0.1706558 0.3199014
v -0.4538774 0.2619547 0.3199019
v -0.4538768 0.1706556 0.4111951
v 0.4538827 0.2619546 0.3199019
v 0.5451813 0.1706555 0.3199037
v 0.4538833 0.1706555 0.4111951
v -0.545177 0.1706557 -0.3198777
v -0.4538772 0.1706558 -0.4111854
v -0.4538769 0.2619545 -0.3198773
v 0.4538829 0.1706558 -0.4111854
v 0.5451804 0.1706558 -0.3198791
v 0.4538832 0.2619545 -0.3198773
v -0.5451771 -0.1706589 -0.3198785
v -0.4538767 -0.2619579 -0.3198772
v -0.4538766 -0.1706592 -0.4111824
v 0.4538834 -0.2619579 -0.3198772
v 0.5451803 -0.1706588 -0.3198799
v 0.4538836 -0.1706592 -0.4111826

vn -0.625 -0.7744141 -0.0916748
vn -0.625 -0.7744141 -0.0916748
vn -0.625 -0.7744141 -0.0916748
vn -0.625 -0.7744141 -0.0916748
vn -0.116394 -0.640625 0.7583008
vn -0.116394 -0.640625 0.7583008
vn -0.116394 -0.640625 0.7583008
vn -0.116394 -0.640625 0.7583008
vn -0.8564453 -0.01456451 0.5151367
vn -0.8564453 -0.01456451 0.5151367
vn -0.8564453 -0.01456451 0.5151367
vn -0.8564453 -0.01456451 0.5151367
vn 0.7402344 -0.6264648 0.2432861
vn 0.7402344 -0.6264648 0.2432861
vn 0.7402344 -0.6264648 0.2432861
vn 0.7402344 -0.6264648 0.2432861
vn 0.5087891 0.133667 0.8500977
vn 0.5087891 0.133667 0.8500977
vn 0.5087891 0.133667 0.8500977
vn 0.5087891 0.133667 0.8500977
vn -0.7402344 0.6264648 -0.2432861
vn -0.7402344 0.6264648 -0.2432861
vn -0.7402344 0.6264648 -0.2432861
vn -0.7402344 0.6264648 -0.2432861
vn -0.2314453 0.7602539 0.6069336
vn -0.2314453 0.7602539 0.6069336
vn -0.2314453 0.7602539 0.6069336
vn -0.2314453 0.7602539 0.6069336
vn 0.625 0.7744141 0.0916748
vn 0.625 0.7744141 0.0916748
vn 0.625 0.7744141 0.0916748
vn 0.625 0.7744141 0.0916748
vn -0.5087891 -0.133667 -0.8500977
vn -0.5087891 -0.133667 -0.8500977
vn -0.5087891 -0.133667 -0.8500977
vn -0.5087891 -0.133667 -0.8500977
vn 0.116394 0.640625 -0.7583008
vn 0.116394 0.640625 -0.7583008
vn 0.116394 0.640625 -0.7583008
vn 0.116394 0.640625 -0.7583008
vn 0.8564453 0.01456451 -0.5151367
vn 0.8564453 0.01456451 -0.5151367
vn 0.8564453 0.01456451 -0.5151367
vn 0.8564453 0.01456451 -0.5151367
vn 0.2314453 -0.7602539 -0.6069336
vn 0.2314453 -0.7602539 -0.6069336
vn 0.2314453 -0.7602539 -0.6069336
vn 0.2314453 -0.7602539 -0.6069336
vn -0.2459717 0.08428955 0.965332
vn -0.2459717 0.08428955 0.965332
vn -0.2459717 0.08428955 0.965332
vn -0.2459717 0.08428955 0.965332
vn -0.08129883 0.9907227 -0.1071777
vn -0.08129883 0.9907227 -0.1071777
vn -0.08129883 0.9907227 -0.1071777
vn -0.08129883 0.9907227 -0.1071777
vn 0.2459717 -0.08428955 -0.965332
vn 0.2459717 -0.08428955 -0.965332
vn 0.2459717 -0.08428955 -0.965332
vn 0.2459717 -0.08428955 -0.965332
vn 0.08129883 -0.9907227 0.1071777
vn 0.08129883 -0.9907227 0.1071777
vn 0.08129883 -0.9907227 0.1071777
vn 0.08129883 -0.9907227 0.1071777
vn 0.9658203 0.1048584 0.2368164
vn 0.9658203 0.1048584 0.2368164
vn 0.9658203 0.1048584 0.2368164
vn 0.9658203 0.1048584 0.2368164
vn -0.9658203 -0.1048584 -0.2368164
vn -0.9658203 -0.1048584 -0.2368164
vn -0.9658203 -0.1048584 -0.2368164
vn -0.9658203 -0.1048584 -0.2368164
vn -0.6523438 -0.5834961 0.482666
vn -0.6523438 -0.5834961 0.482666
vn -0.6523438 -0.5834961 0.482666
vn 0.4624023 -0.4626465 0.7558594
vn 0.4624023 -0.4626465 0.7558594
vn 0.4624023 -0.4626465 0.7558594
vn -0.746582 0.5600586 0.3586426
vn -0.746582 0.5600586 0.3586426
vn -0.746582 0.5600586 0.3586426
vn 0.3684082 0.6811523 0.6323242
vn 0.3684082 0.6811523 0.6323242
vn 0.3684082 0.6811523 0.6323242
vn -0.4624023 0.4626465 -0.7558594
vn -0.4624023 0.4626465 -0.7558594
vn -0.4624023 0.4626465 -0.7558594
vn 0.6523438 0.5834961 -0.4824219
vn 0.6523438 0.5834961 -0.4824219
vn 0.6523438 0.5834961 -0.4824219
vn -0.3686523 -0.6811523 -0.6323242
vn -0.3686523 -0.6811523 -0.6323242
vn -0.3686523 -0.6811523 -0.6323242
vn 0.746582 -0.5600586 -0.3586426
vn 0.746582 -0.5600586 -0.3586426
vn 0.746582 -0.5600586 -0.3586426

vt 0.7514648 0.6845703
vt 0.7514648 0.6298828
vt 0.7402344 0.6298828
vt 0.7402344 0.6845703
vt 0.4829102 0.244751
vt 0.559082 0.244751
vt 0.5605469 0.234375
vt 0.4816895 0.234375
vt 0.4724121 0.2432861
vt 0.4724121 0.2741699
vt 0.4829102 0.2727051
vt 0.4829102 0.244751
vt 0.8398438 0.6845703
vt 0.8398438 0.6298828
vt 0.8286133 0.6298828
vt 0.8286133 0.6845703
vt 0.559082 0.244751
vt 0.559082 0.2727051
vt 0.5698242 0.2741699
vt 0.5698242 0.2432861
vt 0.7148438 0.6904297
vt 0.7148438 0.7451172
vt 0.7255859 0.7451172
vt 0.7255859 0.6904297
vt 0.4816895 0.2832031
vt 0.5605469 0.2832031
vt 0.559082 0.2727051
vt 0.4829102 0.2727051
vt 0.8032227 0.6904297
vt 0.8032227 0.7451172
vt 0.8139648 0.7451172
vt 0.8139648 0.6904297
vt 0.7128906 0.293457
vt 0.7128906 0.2624512
vt 0.7021484 0.263916
vt 0.7021484 0.2919922
vt 0.7021484 0.2919922
vt 0.6259766 0.2919922
vt 0.6245117 0.3024902
vt 0.7036133 0.3024902
vt 0.6259766 0.2919922
vt 0.6259766 0.263916
vt 0.6157227 0.2624512
vt 0.6157227 0.293457
vt 0.7036133 0.253418
vt 0.6245117 0.253418
vt 0.6259766 0.263916
vt 0.7021484 0.263916
vt 0.4829102 0.244751
vt 0.4829102 0.2727051
vt 0.559082 0.2727051
vt 0.559082 0.244751
vt 0.7255859 0.6904297
vt 0.7255859 0.7451172
vt 0.8032227 0.7451172
vt 0.8032227 0.6904297
vt 0.7021484 0.2919922
vt 0.7021484 0.263916
vt 0.6259766 0.263916
vt 0.6259766 0.2919922
vt 0.7514648 0.6298828
vt 0.7514648 0.6845703
vt 0.8286133 0.6845703
vt 0.8286133 0.6298828
vt 0.8432617 0.6904297
vt 0.8139648 0.6904297
vt 0.8139648 0.7451172
vt 0.8432617 0.7451172
vt 0.6855469 0.7451172
vt 0.7148438 0.7451172
vt 0.7148438 0.6904297
vt 0.6855469 0.6904297
vt 0.4816895 0.234375
vt 0.4724121 0.2432861
vt 0.4829102 0.244751
vt 0.5698242 0.2432861
vt 0.5605469 0.234375
vt 0.559082 0.244751
vt 0.4724121 0.2741699
vt 0.4816895 0.2832031
vt 0.4829102 0.2727051
vt 0.5605469 0.2832031
vt 0.5698242 0.2741699
vt 0.559082 0.2727051
vt 0.7128906 0.293457
vt 0.7021484 0.2919922
vt 0.7036133 0.3024902
vt 0.6259766 0.2919922
vt 0.6157227 0.293457
vt 0.6245117 0.3024902
vt 0.7128906 0.2624512
vt 0.7036133 0.253418
vt 0.7021484 0.263916
vt 0.6245117 0.253418
vt 0.6157227 0.2624512
vt 0.6259766 0.263916

g Desert_Rock_05_(33)_660_163
usemtl Desert_Rock_05_(33)_660_163
usemap Desert_Rock_05_(33)_660_163
f 1/1/1 3/3/3 2/2/2
f 1/1/1 4/4/4 3/3/3
f 5/5/5 7/7/7 6/6/6
f 5/5/5 8/8/8 7/7/7
f 9/9/9 11/11/11 10/10/10
f 9/9/9 12/12/12 11/11/11
f 13/13/13 15/15/15 14/14/14
f 13/13/13 16/16/16 15/15/15
f 17/17/17 19/19/19 18/18/18
f 17/17/17 20/20/20 19/19/19
f 21/21/21 23/23/23 22/22/22
f 21/21/21 24/24/24 23/23/23
f 25/25/25 27/27/27 26/26/26
f 25/25/25 28/28/28 27/27/27
f 29/29/29 31/31/31 30/30/30
f 29/29/29 32/32/32 31/31/31
f 33/33/33 35/35/35 34/34/34
f 33/33/33 36/36/36 35/35/35
f 37/37/37 39/39/39 38/38/38
f 37/37/37 40/40/40 39/39/39
f 41/41/41 43/43/43 42/42/42
f 41/41/41 44/44/44 43/43/43
f 45/45/45 47/47/47 46/46/46
f 45/45/45 48/48/48 47/47/47
f 49/49/49 51/51/51 50/50/50
f 49/49/49 52/52/52 51/51/51
f 53/53/53 55/55/55 54/54/54
f 53/53/53 56/56/56 55/55/55
f 57/57/57 59/59/59 58/58/58
f 57/57/57 60/60/60 59/59/59
f 61/61/61 63/63/63 62/62/62
f 61/61/61 64/64/64 63/63/63
f 65/65/65 67/67/67 66/66/66
f 65/65/65 68/68/68 67/67/67
f 69/69/69 71/71/71 70/70/70
f 69/69/69 72/72/72 71/71/71
f 73/73/73 75/75/75 74/74/74
f 76/76/76 78/78/78 77/77/77
f 79/79/79 81/81/81 80/80/80
f 82/82/82 84/84/84 83/83/83
f 85/85/85 87/87/87 86/86/86
f 88/88/88 90/90/90 89/89/89
f 91/91/91 93/93/93 92/92/92
f 94/94/94 96/96/96 95/95/95
