#Desert_Sand_dune_01_(12)_763_99.obj

v 4.220584 5.147301E-07 0.2385796
v 2.995592 0.2895656 -0.3930816
v 3.035356 0.2955917 -0.5010687
v 4.332735 -9.793914E-08 0.09001376
v 3.073953 0.2831765 -0.6633394
v 4.381537 -9.793914E-08 -0.08605178
v 3.259311 -2.473707E-07 0.4855288
v 2.517453 -9.793914E-08 0.4279641
v 3.127598 -2.473707E-07 -1.498859
v 4.09098 -4.042738E-07 -0.6724961
v 2.517343 -9.793914E-08 -1.912598
v 2.257195 0.5063466 -0.9938765
v 1.623721 5.149239E-08 -2.232381
v 1.338225 0.6450292 -1.140659
v 2.217638 0.5276182 -0.8151588
v 1.316592 0.667215 -0.9590022
v 2.16895 0.5137559 -0.6381829
v 1.289687 0.6420643 -0.7783837
v 2.079832 5.149239E-08 0.3880973
v 1.28996 -9.793914E-08 0.2926607
v 0.3739136 -9.793914E-08 -2.336046
v 0.1028594 0.7119355 -1.159855
v -0.8046412 -6.058126E-08 -2.215535
v -0.9187043 0.661451 -1.144195
v 0.1044191 0.7331526 -0.9777266
v -0.9005744 0.6827144 -0.9622001
v 0.106803 0.696962 -0.7968519
v -0.8771455 0.6502035 -0.7818068
v 0.2650402 -7.552441E-08 0.1705168
v -0.7804664 -1.35297E-07 0.08905206
v -2.05955 5.149239E-08 -1.779627
v -2.015682 0.4912398 -0.9616033
v -2.774593 -9.793914E-08 -1.428692
v -3.03844 0.2394904 -0.5993449
v -1.979397 0.5115987 -0.7825807
v -3.020583 0.2496155 -0.4350271
v -1.933486 0.4907012 -0.6060739
v -2.966411 0.2401334 -0.2799463
v -1.927136 -9.793914E-08 0.1313318
v -2.605796 5.149239E-08 0.2521223
v -4.303959 -4.042738E-07 -0.10244
v -3.688206 2.083955E-07 -0.9180186
v -4.29542 -4.042738E-07 0.08735882
v -4.215523 2.083955E-07 0.2507713
v -3.48728 -9.793914E-08 0.4651496

vn 0.07617188 0.9946289 -0.06958008
vn 0.2150879 0.9638672 -0.1550293
vn -0.02406311 0.9755859 -0.2175293
vn -0.006816864 0.9921875 -0.1240845
vn -0.2614746 0.9428711 -0.2061768
vn -0.09075928 0.9902344 -0.104248
vn 0.1512451 0.9853516 -0.07495117
vn 0.210083 0.9707031 -0.1150513
vn -0.2203369 0.9658203 -0.1362305
vn -0.1553955 0.9814453 -0.1119385
vn -0.2932129 0.9521484 -0.08441162
vn -0.3635254 0.921875 -0.1303711
vn -0.3156738 0.9482422 0.0198822
vn -0.3859863 0.921875 0.02388
vn -0.04275513 0.9794922 -0.194458
vn -0.01661682 0.9951172 -0.09265137
vn 0.3095703 0.9379883 -0.1539307
vn 0.3747559 0.9174805 -0.1308594
vn 0.2844238 0.9506836 -0.1193848
vn 0.3408203 0.9335938 -0.1070557
vn -0.315918 0.9433594 0.09906006
vn -0.3764648 0.9169922 0.1300049
vn -0.2822266 0.9418945 0.1818848
vn -0.3395996 0.9057617 0.2519531
vn 0.02082825 0.9995117 -0.01356506
vn 0.05670166 0.9941406 0.0871582
vn 0.4265137 0.8964844 -0.1188354
vn 0.4365234 0.8925781 -0.1113281
vn 0.3823242 0.9174805 -0.1066284
vn 0.3959961 0.9111328 -0.1130371
vn -0.230957 0.9379883 0.2580566
vn -0.2573242 0.9038086 0.3415527
vn -0.1494141 0.9521484 0.2653809
vn -0.1178589 0.9462891 0.3005371
vn 0.09014893 0.9814453 0.1663818
vn 0.09594727 0.9799805 0.1730957
vn 0.3996582 0.9106445 -0.1002197
vn 0.2702637 0.9614258 -0.04367065
vn 0.3571777 0.9257813 -0.1199341
vn 0.2629395 0.9604492 -0.08972168
vn -0.01580811 0.9936523 0.1083984
vn -0.07873535 0.9814453 0.1726074
vn 0.059021 0.9931641 0.09924316
vn 0.09484863 0.9951172 0.007362366
vn 0.1556396 0.9863281 -0.05200195

vt 0.887207 0.6738281
vt 0.7246094 0.6831055
vt 0.7207031 0.6987305
vt 0.887207 0.6982422
vt 0.7128906 0.7207031
vt 0.8793945 0.7226563
vt 0.8120117 0.5898438
vt 0.7363281 0.5556641
vt 0.6586914 0.8256836
vt 0.8100586 0.7783203
vt 0.5708008 0.8427734
vt 0.6108398 0.7158203
vt 0.4624023 0.8320313
vt 0.512207 0.6826172
vt 0.6196289 0.6914063
vt 0.5229492 0.6591797
vt 0.6274414 0.6669922
vt 0.5332031 0.6352539
vt 0.6914063 0.5366211
vt 0.6088867 0.5043945
vt 0.3347168 0.7753906
vt 0.3918457 0.6162109
vt 0.2299805 0.6953125
vt 0.2946777 0.5576172
vt 0.4050293 0.5942383
vt 0.3093262 0.5361328
vt 0.4179688 0.5717773
vt 0.3242188 0.515625
vt 0.5014648 0.4624023
vt 0.3952637 0.4143066
vt 0.1400146 0.5722656
vt 0.2021484 0.4743652
vt 0.0960083 0.489502
vt 0.1292725 0.3730469
vt 0.2182617 0.4543457
vt 0.1425781 0.3540039
vt 0.2351074 0.4353027
vt 0.1588135 0.3378906
vt 0.2878418 0.345459
vt 0.2312012 0.2927246
vt 0.04269409 0.2419434
vt 0.04425049 0.3759766
vt 0.0569458 0.2192383
vt 0.07617188 0.2036133
vt 0.161377 0.2177734

g Desert_Sand_dune_01_(12)_763_99
usemtl Desert_Sand_dune_01_(12)_763_99
usemap Desert_Sand_dune_01_(12)_763_99
f 1/1/1 3/3/3 2/2/2
f 1/1/1 4/4/4 3/3/3
f 4/4/4 5/5/5 3/3/3
f 4/4/4 6/6/6 5/5/5
f 2/2/2 7/7/7 1/1/1
f 2/2/2 8/8/8 7/7/7
f 9/9/9 5/5/5 6/6/6
f 9/9/9 6/6/6 10/10/10
f 11/11/11 5/5/5 9/9/9
f 11/11/11 12/12/12 5/5/5
f 3/3/3 5/5/5 12/12/12
f 13/13/13 12/12/12 11/11/11
f 13/13/13 14/14/14 12/12/12
f 15/15/15 12/12/12 14/14/14
f 3/3/3 12/12/12 15/15/15
f 2/2/2 3/3/3 15/15/15
f 15/15/15 14/14/14 16/16/16
f 17/17/17 15/15/15 16/16/16
f 2/2/2 15/15/15 17/17/17
f 17/17/17 8/8/8 2/2/2
f 17/17/17 16/16/16 18/18/18
f 18/18/18 19/19/19 17/17/17
f 17/17/17 19/19/19 8/8/8
f 18/18/18 20/20/20 19/19/19
f 21/21/21 14/14/14 13/13/13
f 21/21/21 22/22/22 14/14/14
f 16/16/16 14/14/14 22/22/22
f 23/23/23 22/22/22 21/21/21
f 23/23/23 24/24/24 22/22/22
f 24/24/24 25/25/25 22/22/22
f 16/16/16 22/22/22 25/25/25
f 18/18/18 16/16/16 25/25/25
f 24/24/24 26/26/26 25/25/25
f 26/26/26 27/27/27 25/25/25
f 18/18/18 25/25/25 27/27/27
f 27/27/27 20/20/20 18/18/18
f 26/26/26 28/28/28 27/27/27
f 28/28/28 29/29/29 27/27/27
f 27/27/27 29/29/29 20/20/20
f 28/28/28 30/30/30 29/29/29
f 31/31/31 24/24/24 23/23/23
f 31/31/31 32/32/32 24/24/24
f 32/32/32 26/26/26 24/24/24
f 33/33/33 32/32/32 31/31/31
f 33/33/33 34/34/34 32/32/32
f 34/34/34 35/35/35 32/32/32
f 32/32/32 35/35/35 26/26/26
f 35/35/35 28/28/28 26/26/26
f 34/34/34 36/36/36 35/35/35
f 36/36/36 37/37/37 35/35/35
f 35/35/35 37/37/37 28/28/28
f 37/37/37 30/30/30 28/28/28
f 36/36/36 38/38/38 37/37/37
f 38/38/38 39/39/39 37/37/37
f 37/37/37 39/39/39 30/30/30
f 38/38/38 40/40/40 39/39/39
f 41/41/41 34/34/34 33/33/33
f 41/41/41 36/36/36 34/34/34
f 41/41/41 33/33/33 42/42/42
f 41/41/41 43/43/43 36/36/36
f 43/43/43 38/38/38 36/36/36
f 43/43/43 44/44/44 38/38/38
f 45/45/45 38/38/38 44/44/44
f 45/45/45 40/40/40 38/38/38
