#Desert_Wall_High_destroyed_(6)_641_117.obj

v -0.601482 -1.009636E-07 2.827056E-06
v -0.3266331 5 2.715143E-06
v -0.3266331 5 5.000003
v -0.601482 -1.009636E-07 5.000003
v -0.601482 -1.009636E-07 2.827056E-06
v -3.402507E-06 -1.009636E-07 2.761816E-06
v -3.402507E-06 5 2.761816E-06
v -0.3266331 5 2.715143E-06
v -0.3266331 5 2.715143E-06
v -3.402507E-06 5 2.761816E-06
v -3.456894E-06 5 5.000003
v -0.3266331 5 5.000003
v -0.559904 0.7564029 9.419544
v -0.6014859 -1.009636E-07 10
v -0.601482 -1.009636E-07 5.000003
v -0.5509412 0.9194829 8.741844
v -0.5316448 1.270498 8.211941
v -0.5068598 1.721383 7.913626
v -0.4733646 2.127318 7.212174
v -0.4393519 2.521047 6.941507
v -0.4748725 2.585456 6.332467
v -0.4408397 2.922359 5.704544
v -0.3688329 4.494208 5.542598
v -0.4082358 3.515495 5.81886
v -0.3266331 5 5.000003
v -0.3266331 5 5.000003
v -3.456894E-06 5 5.000003
v -5.118664E-06 4.494208 5.542598
v -0.3688329 4.494208 5.542598
v -0.3688329 4.494208 5.542598
v -5.118664E-06 4.494208 5.542598
v -5.964755E-06 3.515495 5.81886
v -0.4082358 3.515495 5.81886
v -0.4082358 3.515495 5.81886
v -5.964755E-06 3.515495 5.81886
v -5.614647E-06 2.922359 5.704544
v -0.4408397 2.922359 5.704544
v -0.4408397 2.922359 5.704544
v -5.614647E-06 2.922359 5.704544
v -3.723046E-06 2.585456 6.332466
v -0.4748725 2.585456 6.332467
v -0.4748725 2.585456 6.332467
v -3.723046E-06 2.585456 6.332466
v -5.588317E-06 2.521047 6.941507
v -0.4393519 2.521047 6.941507
v -0.4393519 2.521047 6.941507
v -5.588317E-06 2.521047 6.941507
v -2.602571E-06 2.127318 7.212173
v -0.4733646 2.127318 7.212174
v -0.4733646 2.127318 7.212174
v -2.602571E-06 2.127318 7.212173
v -4.750863E-06 1.721383 7.913626
v -0.5068598 1.721383 7.913626
v -0.5068598 1.721383 7.913626
v -4.750863E-06 1.721383 7.913626
v -5.664494E-06 1.270498 8.211941
v -0.5316448 1.270498 8.211941
v -0.5316448 1.270498 8.211941
v -5.664494E-06 1.270498 8.211941
v -3.472697E-06 0.9194829 8.741844
v -0.5509412 0.9194829 8.741844
v -0.5509412 0.9194829 8.741844
v -3.472697E-06 0.9194829 8.741844
v -5.548245E-06 0.7564029 9.419544
v -0.559904 0.7564029 9.419544
v -0.559904 0.7564029 9.419544
v -5.548245E-06 0.7564029 9.419544
v -3.511283E-06 -1.009636E-07 10
v -0.6014859 -1.009636E-07 10
v 0.601479 -1.009636E-07 2.696589E-06
v 0.6014789 -1.009636E-07 5.000003
v 0.3266262 5 5.000003
v 0.3266262 5 2.80849E-06
v 0.601479 -1.009636E-07 2.696589E-06
v 0.3266262 5 2.80849E-06
v -3.402507E-06 5 2.761816E-06
v -3.402507E-06 -1.009636E-07 2.761816E-06
v 0.3266262 5 2.80849E-06
v 0.3266262 5 5.000003
v -3.456894E-06 5 5.000003
v -3.402507E-06 5 2.761816E-06
v 0.5598966 0.7564029 9.419544
v 0.6014789 -1.009636E-07 5.000003
v 0.6014789 -1.009636E-07 10
v 0.5509342 0.9194829 8.741844
v 0.5316373 1.270498 8.211941
v 0.5068541 1.721383 7.913627
v 0.4733556 2.127318 7.212173
v 0.4393446 2.521047 6.941507
v 0.4748651 2.585456 6.332467
v 0.4408323 2.922359 5.704544
v 0.3688265 4.494208 5.542598
v 0.4082315 3.515495 5.818861
v 0.3266262 5 5.000003
v 0.3266262 5 5.000003
v 0.3688265 4.494208 5.542598
v -5.118664E-06 4.494208 5.542598
v -3.456894E-06 5 5.000003
v 0.3688265 4.494208 5.542598
v 0.4082315 3.515495 5.818861
v -5.964755E-06 3.515495 5.81886
v -5.118664E-06 4.494208 5.542598
v 0.4082315 3.515495 5.818861
v 0.4408323 2.922359 5.704544
v -5.614647E-06 2.922359 5.704544
v -5.964755E-06 3.515495 5.81886
v 0.4408323 2.922359 5.704544
v 0.4748651 2.585456 6.332467
v -3.723046E-06 2.585456 6.332466
v -5.614647E-06 2.922359 5.704544
v 0.4748651 2.585456 6.332467
v 0.4393446 2.521047 6.941507
v -5.588317E-06 2.521047 6.941507
v -3.723046E-06 2.585456 6.332466
v 0.4393446 2.521047 6.941507
v 0.4733556 2.127318 7.212173
v -2.602571E-06 2.127318 7.212173
v -5.588317E-06 2.521047 6.941507
v 0.4733556 2.127318 7.212173
v 0.5068541 1.721383 7.913627
v -4.750863E-06 1.721383 7.913626
v -2.602571E-06 2.127318 7.212173
v 0.5068541 1.721383 7.913627
v 0.5316373 1.270498 8.211941
v -5.664494E-06 1.270498 8.211941
v -4.750863E-06 1.721383 7.913626
v 0.5316373 1.270498 8.211941
v 0.5509342 0.9194829 8.741844
v -3.472697E-06 0.9194829 8.741844
v -5.664494E-06 1.270498 8.211941
v 0.5509342 0.9194829 8.741844
v 0.5598966 0.7564029 9.419544
v -5.548245E-06 0.7564029 9.419544
v -3.472697E-06 0.9194829 8.741844
v 0.5598966 0.7564029 9.419544
v 0.6014789 -1.009636E-07 10
v -3.511283E-06 -1.009636E-07 10
v -5.548245E-06 0.7564029 9.419544

vn -2.861023E-06 0.05487061 -0.9980469
vn -2.861023E-06 0.05487061 -0.9980469
vn -2.861023E-06 0.05487061 -0.9980469
vn 2.807379E-05 0.05487061 -0.9980469
vn 1 0 -2.861023E-06
vn 1 0 -2.861023E-06
vn 1 0 -2.861023E-06
vn 1 0 -2.861023E-06
vn 0 0.9995117 0
vn 0 0.9995117 0
vn 0 0.9995117 0
vn 0 0.9995117 0
vn 0.0003020763 0.05490112 -0.9980469
vn 0.0003020763 0.05490112 -0.9980469
vn 2.807379E-05 0.05487061 -0.9980469
vn 0.0003020763 0.05490112 -0.9980469
vn 0.0003020763 0.05490112 -0.9980469
vn 0.0003020763 0.05490112 -0.9980469
vn 0.0003020763 0.05490112 -0.9980469
vn 0.0003020763 0.05490112 -0.9980469
vn 0.0003020763 0.05490112 -0.9980469
vn 0.0003020763 0.05490112 -0.9980469
vn 0.0003020763 0.05490112 -0.9980469
vn 0.0003020763 0.05490112 -0.9980469
vn -2.861023E-06 0.05487061 -0.9980469
vn -0.6816406 0.7314453 1.966953E-06
vn -0.6816406 0.7314453 1.966953E-06
vn -0.6816406 0.7314453 1.966953E-06
vn -0.6816406 0.7314453 1.966953E-06
vn -0.9624023 0.2714844 2.801418E-06
vn -0.9624023 0.2714844 2.801418E-06
vn -0.9624023 0.2714844 2.801418E-06
vn -0.9624023 0.2714844 2.801418E-06
vn -0.9814453 -0.189209 2.861023E-06
vn -0.9814453 -0.189209 2.861023E-06
vn -0.9814453 -0.189209 2.861023E-06
vn -0.9814453 -0.189209 2.861023E-06
vn -0.4726563 0.8808594 1.370907E-06
vn -0.4726563 0.8808594 1.370907E-06
vn -0.4726563 0.8808594 1.370907E-06
vn -0.4726563 0.8808594 1.370907E-06
vn -0.1051025 0.9941406 2.980232E-07
vn -0.1051025 0.9941406 2.980232E-07
vn -0.1051025 0.9941406 2.980232E-07
vn -0.1051025 0.9941406 2.980232E-07
vn -0.8237305 0.5664063 2.384186E-06
vn -0.8237305 0.5664063 2.384186E-06
vn -0.8237305 0.5664063 2.384186E-06
vn -0.8237305 0.5664063 2.384186E-06
vn -0.5004883 0.8652344 1.430511E-06
vn -0.5004883 0.8652344 1.430511E-06
vn -0.5004883 0.8652344 1.430511E-06
vn -0.5004883 0.8652344 1.430511E-06
vn -0.8339844 0.5512695 2.384186E-06
vn -0.8339844 0.5512695 2.384186E-06
vn -0.8339844 0.5512695 2.384186E-06
vn -0.8339844 0.5512695 2.384186E-06
vn -0.5517578 0.8334961 1.609325E-06
vn -0.5517578 0.8334961 1.609325E-06
vn -0.5517578 0.8334961 1.609325E-06
vn -0.5517578 0.8334961 1.609325E-06
vn -0.2337646 0.972168 6.556511E-07
vn -0.2337646 0.972168 6.556511E-07
vn -0.2337646 0.972168 6.556511E-07
vn -0.2337646 0.972168 6.556511E-07
vn -0.7929688 0.6083984 2.264977E-06
vn -0.7929688 0.6083984 2.264977E-06
vn -0.7929688 0.6083984 2.264977E-06
vn -0.7929688 0.6083984 2.264977E-06
vn 2.861023E-06 0.05487061 0.9980469
vn 3.391504E-05 0.05487061 0.9980469
vn 2.861023E-06 0.05487061 0.9980469
vn 2.861023E-06 0.05487061 0.9980469
vn 1 0 -2.861023E-06
vn 1 0 -2.861023E-06
vn 1 0 -2.861023E-06
vn 1 0 -2.861023E-06
vn 0 0.9995117 0
vn 0 0.9995117 0
vn 0 0.9995117 0
vn 0 0.9995117 0
vn 0.0003077984 0.05490112 0.9980469
vn 3.391504E-05 0.05487061 0.9980469
vn 0.0003077984 0.05490112 0.9980469
vn 0.0003077984 0.05490112 0.9980469
vn 0.0003077984 0.05490112 0.9980469
vn 0.0003077984 0.05490112 0.9980469
vn 0.0003077984 0.05490112 0.9980469
vn 0.0003077984 0.05490112 0.9980469
vn 0.0003077984 0.05490112 0.9980469
vn 0.0003077984 0.05490112 0.9980469
vn 0.0003077984 0.05490112 0.9980469
vn 0.0003077984 0.05490112 0.9980469
vn 2.861023E-06 0.05487061 0.9980469
vn -0.6816406 0.7314453 1.966953E-06
vn -0.6816406 0.7314453 1.966953E-06
vn -0.6816406 0.7314453 1.966953E-06
vn -0.6816406 0.7314453 1.966953E-06
vn -0.9624023 0.2714844 2.801418E-06
vn -0.9624023 0.2714844 2.801418E-06
vn -0.9624023 0.2714844 2.801418E-06
vn -0.9624023 0.2714844 2.801418E-06
vn -0.9814453 -0.189209 2.861023E-06
vn -0.9814453 -0.189209 2.861023E-06
vn -0.9814453 -0.189209 2.861023E-06
vn -0.9814453 -0.189209 2.861023E-06
vn -0.4726563 0.8808594 1.370907E-06
vn -0.4726563 0.8808594 1.370907E-06
vn -0.4726563 0.8808594 1.370907E-06
vn -0.4726563 0.8808594 1.370907E-06
vn -0.1051025 0.9941406 2.980232E-07
vn -0.1051025 0.9941406 2.980232E-07
vn -0.1051025 0.9941406 2.980232E-07
vn -0.1051025 0.9941406 2.980232E-07
vn -0.8237305 0.5664063 2.384186E-06
vn -0.8237305 0.5664063 2.384186E-06
vn -0.8237305 0.5664063 2.384186E-06
vn -0.8237305 0.5664063 2.384186E-06
vn -0.5004883 0.8652344 1.430511E-06
vn -0.5004883 0.8652344 1.430511E-06
vn -0.5004883 0.8652344 1.430511E-06
vn -0.5004883 0.8652344 1.430511E-06
vn -0.8339844 0.5512695 2.384186E-06
vn -0.8339844 0.5512695 2.384186E-06
vn -0.8339844 0.5512695 2.384186E-06
vn -0.8339844 0.5512695 2.384186E-06
vn -0.5517578 0.8334961 1.609325E-06
vn -0.5517578 0.8334961 1.609325E-06
vn -0.5517578 0.8334961 1.609325E-06
vn -0.5517578 0.8334961 1.609325E-06
vn -0.2337646 0.972168 6.556511E-07
vn -0.2337646 0.972168 6.556511E-07
vn -0.2337646 0.972168 6.556511E-07
vn -0.2337646 0.972168 6.556511E-07
vn -0.7929688 0.6083984 2.264977E-06
vn -0.7929688 0.6083984 2.264977E-06
vn -0.7929688 0.6083984 2.264977E-06
vn -0.7929688 0.6083984 2.264977E-06

vt 0.5327148 0.001843452
vt 0.5327148 0.387207
vt 0.9174805 0.387207
vt 0.9174805 0.001843452
vt 0.0670166 0.001843452
vt 0.03131104 0.001843452
vt 0.03131104 0.3869629
vt 0.0670166 0.3869629
vt 0.4597168 0.3876953
vt 0.4848633 0.3876953
vt 0.4848633 0.002763748
vt 0.4597168 0.002763748
vt 0.4914551 0.4499512
vt 0.5361328 0.3916016
vt 0.151123 0.3916016
vt 0.439209 0.4624023
vt 0.3984375 0.489502
vt 0.3754883 0.5244141
vt 0.3212891 0.5556641
vt 0.3005371 0.5859375
vt 0.2536621 0.5908203
vt 0.2054443 0.6166992
vt 0.1929932 0.7382813
vt 0.2142334 0.6625977
vt 0.151123 0.7773438
vt 0.03131104 0.9960938
vt 0.06774902 0.9960938
vt 0.06774902 0.9389648
vt 0.03131104 0.9389648
vt 0.03131104 0.9389648
vt 0.06774902 0.9389648
vt 0.06774902 0.8608398
vt 0.03131104 0.8608398
vt 0.03131104 0.8608398
vt 0.06774902 0.8608398
vt 0.06774902 0.8144531
vt 0.03131104 0.8144531
vt 0.03131104 0.8144531
vt 0.06774902 0.8144531
vt 0.06774902 0.7592773
vt 0.03131104 0.7592773
vt 0.03131104 0.7592773
vt 0.06774902 0.7592773
vt 0.06774902 0.7124023
vt 0.03131104 0.7124023
vt 0.03131104 0.7124023
vt 0.06774902 0.7124023
vt 0.06774902 0.675293
vt 0.03131104 0.675293
vt 0.03131104 0.675293
vt 0.06774902 0.675293
vt 0.06774902 0.612793
vt 0.03131104 0.612793
vt 0.03131104 0.612793
vt 0.06774902 0.612793
vt 0.06774902 0.5712891
vt 0.03131104 0.5712891
vt 0.03131104 0.5712891
vt 0.06774902 0.5712891
vt 0.06774902 0.5224609
vt 0.03131104 0.5224609
vt 0.03131104 0.5224609
vt 0.06774902 0.5224609
vt 0.06774902 0.46875
vt 0.03131104 0.46875
vt 0.03131104 0.46875
vt 0.06774902 0.46875
vt 0.06774902 0.3952637
vt 0.03131104 0.3952637
vt 0.5327148 0.001843452
vt 0.9174805 0.001843452
vt 0.9174805 0.387207
vt 0.5327148 0.387207
vt 0.0670166 0.001843452
vt 0.0670166 0.3869629
vt 0.03131104 0.3869629
vt 0.03131104 0.001843452
vt 0.4597168 0.3876953
vt 0.4597168 0.002763748
vt 0.4848633 0.002763748
vt 0.4848633 0.3876953
vt 0.4914551 0.4499512
vt 0.151123 0.3916016
vt 0.5361328 0.3916016
vt 0.439209 0.4624023
vt 0.3984375 0.489502
vt 0.3754883 0.5244141
vt 0.3212891 0.5556641
vt 0.3005371 0.5859375
vt 0.2536621 0.5908203
vt 0.2054443 0.6166992
vt 0.1929932 0.7382813
vt 0.2142334 0.6625977
vt 0.151123 0.7773438
vt 0.03131104 0.9960938
vt 0.03131104 0.9389648
vt 0.06774902 0.9389648
vt 0.06774902 0.9960938
vt 0.03131104 0.9389648
vt 0.03131104 0.8608398
vt 0.06774902 0.8608398
vt 0.06774902 0.9389648
vt 0.03131104 0.8608398
vt 0.03131104 0.8144531
vt 0.06774902 0.8144531
vt 0.06774902 0.8608398
vt 0.03131104 0.8144531
vt 0.03131104 0.7592773
vt 0.06774902 0.7592773
vt 0.06774902 0.8144531
vt 0.03131104 0.7592773
vt 0.03131104 0.7124023
vt 0.06774902 0.7124023
vt 0.06774902 0.7592773
vt 0.03131104 0.7124023
vt 0.03131104 0.675293
vt 0.06774902 0.675293
vt 0.06774902 0.7124023
vt 0.03131104 0.675293
vt 0.03131104 0.612793
vt 0.06774902 0.612793
vt 0.06774902 0.675293
vt 0.03131104 0.612793
vt 0.03131104 0.5712891
vt 0.06774902 0.5712891
vt 0.06774902 0.612793
vt 0.03131104 0.5712891
vt 0.03131104 0.5224609
vt 0.06774902 0.5224609
vt 0.06774902 0.5712891
vt 0.03131104 0.5224609
vt 0.03131104 0.46875
vt 0.06774902 0.46875
vt 0.06774902 0.5224609
vt 0.03131104 0.46875
vt 0.03131104 0.3952637
vt 0.06774902 0.3952637
vt 0.06774902 0.46875

g Desert_Wall_High_destroyed_(6)_641_117
usemtl Desert_Wall_High_destroyed_(6)_641_117
usemap Desert_Wall_High_destroyed_(6)_641_117
f 1/1/1 3/3/3 2/2/2
f 1/1/1 4/4/4 3/3/3
f 5/5/5 7/7/7 6/6/6
f 5/5/5 8/8/8 7/7/7
f 9/9/9 11/11/11 10/10/10
f 9/9/9 12/12/12 11/11/11
f 13/13/13 15/15/15 14/14/14
f 16/16/16 15/15/15 13/13/13
f 17/17/17 15/15/15 16/16/16
f 18/18/18 15/15/15 17/17/17
f 19/19/19 15/15/15 18/18/18
f 20/20/20 15/15/15 19/19/19
f 21/21/21 15/15/15 20/20/20
f 22/22/22 15/15/15 21/21/21
f 23/23/23 15/15/15 22/22/22
f 23/23/23 22/22/22 24/24/24
f 25/25/25 15/15/15 23/23/23
f 26/26/26 28/28/28 27/27/27
f 26/26/26 29/29/29 28/28/28
f 30/30/30 32/32/32 31/31/31
f 30/30/30 33/33/33 32/32/32
f 34/34/34 36/36/36 35/35/35
f 34/34/34 37/37/37 36/36/36
f 38/38/38 40/40/40 39/39/39
f 38/38/38 41/41/41 40/40/40
f 42/42/42 44/44/44 43/43/43
f 42/42/42 45/45/45 44/44/44
f 46/46/46 48/48/48 47/47/47
f 46/46/46 49/49/49 48/48/48
f 50/50/50 52/52/52 51/51/51
f 50/50/50 53/53/53 52/52/52
f 54/54/54 56/56/56 55/55/55
f 54/54/54 57/57/57 56/56/56
f 58/58/58 60/60/60 59/59/59
f 58/58/58 61/61/61 60/60/60
f 62/62/62 64/64/64 63/63/63
f 62/62/62 65/65/65 64/64/64
f 66/66/66 68/68/68 67/67/67
f 66/66/66 69/69/69 68/68/68
f 70/70/70 72/72/72 71/71/71
f 70/70/70 73/73/73 72/72/72
f 74/74/74 76/76/76 75/75/75
f 74/74/74 77/77/77 76/76/76
f 78/78/78 80/80/80 79/79/79
f 78/78/78 81/81/81 80/80/80
f 82/82/82 84/84/84 83/83/83
f 85/85/85 82/82/82 83/83/83
f 86/86/86 85/85/85 83/83/83
f 87/87/87 86/86/86 83/83/83
f 88/88/88 87/87/87 83/83/83
f 89/89/89 88/88/88 83/83/83
f 90/90/90 89/89/89 83/83/83
f 91/91/91 90/90/90 83/83/83
f 92/92/92 91/91/91 83/83/83
f 92/92/92 93/93/93 91/91/91
f 94/94/94 92/92/92 83/83/83
f 95/95/95 97/97/97 96/96/96
f 95/95/95 98/98/98 97/97/97
f 99/99/99 101/101/101 100/100/100
f 99/99/99 102/102/102 101/101/101
f 103/103/103 105/105/105 104/104/104
f 103/103/103 106/106/106 105/105/105
f 107/107/107 109/109/109 108/108/108
f 107/107/107 110/110/110 109/109/109
f 111/111/111 113/113/113 112/112/112
f 111/111/111 114/114/114 113/113/113
f 115/115/115 117/117/117 116/116/116
f 115/115/115 118/118/118 117/117/117
f 119/119/119 121/121/121 120/120/120
f 119/119/119 122/122/122 121/121/121
f 123/123/123 125/125/125 124/124/124
f 123/123/123 126/126/126 125/125/125
f 127/127/127 129/129/129 128/128/128
f 127/127/127 130/130/130 129/129/129
f 131/131/131 133/133/133 132/132/132
f 131/131/131 134/134/134 133/133/133
f 135/135/135 137/137/137 136/136/136
f 135/135/135 138/138/138 137/137/137
