#Desert_Sand_dune_01_(22)_511_69.obj

v 4.22059 5.594948E-07 0.2385794
v 2.995597 0.2895657 -0.3930815
v 3.035364 0.2955918 -0.5010682
v 4.332743 -5.008101E-08 0.09001437
v 3.073961 0.2831765 -0.6633394
v 4.381544 -5.008101E-08 -0.0860519
v 3.25932 -2.04404E-07 0.4855294
v 2.517463 -5.008101E-08 0.4279644
v 3.127604 -2.04404E-07 -1.498859
v 4.090988 -3.548689E-07 -0.6724954
v 2.51735 -5.008101E-08 -1.912598
v 2.257203 0.5063466 -0.9938761
v 1.62373 1.04242E-07 -2.232381
v 1.338232 0.6450293 -1.140659
v 2.217645 0.5276183 -0.8151587
v 1.316599 0.667215 -0.9590018
v 2.168957 0.513756 -0.6381829
v 1.289696 0.6420644 -0.7783833
v 2.07984 1.04242E-07 0.388098
v 1.289967 -5.008101E-08 0.2926606
v 0.3739215 -5.008101E-08 -2.336046
v 0.1028686 0.7119355 -1.159854
v -0.8046318 -1.150026E-08 -2.215534
v -0.9186975 0.6614511 -1.144194
v 0.1044254 0.7331527 -0.9777262
v -0.9005674 0.6827145 -0.9622004
v 0.1068091 0.6969621 -0.7968521
v -0.8771369 0.6502035 -0.7818057
v 0.2650477 -3.079063E-08 0.170517
v -0.7804602 -8.866175E-08 0.08905253
v -2.059544 1.04242E-07 -1.779626
v -2.015676 0.4912398 -0.9616032
v -2.774587 -5.008101E-08 -1.428692
v -3.038431 0.2394905 -0.5993438
v -1.97939 0.5115988 -0.7825804
v -3.020573 0.2496155 -0.4350264
v -1.933479 0.4907013 -0.6060743
v -2.966402 0.2401334 -0.2799449
v -1.927129 -5.008101E-08 0.1313318
v -2.605786 1.04242E-07 0.252123
v -4.303949 -3.548689E-07 -0.1024396
v -3.688198 2.547069E-07 -0.9180188
v -4.295413 -3.548689E-07 0.08735929
v -4.215516 2.547069E-07 0.250771
v -3.487271 -5.008101E-08 0.4651506

vn 0.06066895 0.9975586 0.02604675
vn 0.1497803 0.9848633 0.08599854
vn 0.1218262 0.9897461 -0.07226563
vn 0.07061768 0.996582 -0.03677368
vn 0.05273438 0.9750977 -0.2133789
vn 0.03689575 0.9956055 -0.08062744
vn 0.08404541 0.9936523 0.06878662
vn 0.1242676 0.987793 0.09344482
vn 0.02163696 0.9853516 -0.1672363
vn 0.02441406 0.9921875 -0.1210938
vn -0.02891541 0.9794922 -0.1982422
vn -0.02082825 0.9658203 -0.2570801
vn -0.09753418 0.9780273 -0.1837158
vn -0.1209106 0.9658203 -0.2282715
vn 0.1029053 0.9916992 -0.0769043
vn 0.04959106 0.9980469 -0.03411865
vn 0.1772461 0.9731445 0.1446533
vn 0.1833496 0.9638672 0.1925049
vn 0.1484375 0.9790039 0.1378174
vn 0.157959 0.9711914 0.1767578
vn -0.1455078 0.9755859 -0.1629639
vn -0.1834717 0.9633789 -0.1939697
vn -0.1862793 0.9746094 -0.1203003
vn -0.2493896 0.9580078 -0.1386719
vn 0.01335907 0.9995117 0.008529663
vn -0.03585815 0.9975586 0.05606079
vn 0.1928711 0.9536133 0.2304688
vn 0.1914063 0.9516602 0.2392578
vn 0.1707764 0.9638672 0.2038574
vn 0.1790771 0.9604492 0.2111816
vn -0.2186279 0.9731445 -0.06878662
vn -0.2817383 0.9570313 -0.06317139
vn -0.1990967 0.9794922 -0.01745605
vn -0.2124023 0.9770508 0.01097107
vn -0.07373047 0.9921875 0.09716797
vn -0.07623291 0.9916992 0.1025391
vn 0.1722412 0.9604492 0.217041
vn 0.09869385 0.9838867 0.1489258
vn 0.1710205 0.9677734 0.1838379
vn 0.1242065 0.9829102 0.1322021
vn -0.06738281 0.9970703 0.01939392
vn -0.1223755 0.9921875 -0.0003333092
vn -0.04229736 0.9970703 0.06063843
vn 0.02073669 0.9980469 0.05722046
vn 0.07171631 0.9941406 0.07739258

vt 0.887207 0.6738281
vt 0.7246094 0.6831055
vt 0.7207031 0.6987305
vt 0.887207 0.6982422
vt 0.7128906 0.7207031
vt 0.8793945 0.7226563
vt 0.8120117 0.5898438
vt 0.7363281 0.5556641
vt 0.6586914 0.8256836
vt 0.8100586 0.7783203
vt 0.5708008 0.8427734
vt 0.6108398 0.7158203
vt 0.4624023 0.8320313
vt 0.512207 0.6826172
vt 0.6196289 0.6914063
vt 0.5229492 0.6591797
vt 0.6274414 0.6669922
vt 0.5332031 0.6352539
vt 0.6914063 0.5366211
vt 0.6088867 0.5043945
vt 0.3347168 0.7753906
vt 0.3918457 0.6162109
vt 0.2299805 0.6953125
vt 0.2946777 0.5576172
vt 0.4050293 0.5942383
vt 0.3093262 0.5361328
vt 0.4179688 0.5717773
vt 0.3242188 0.515625
vt 0.5014648 0.4624023
vt 0.3952637 0.4143066
vt 0.1400146 0.5722656
vt 0.2021484 0.4743652
vt 0.0960083 0.489502
vt 0.1292725 0.3730469
vt 0.2182617 0.4543457
vt 0.1425781 0.3540039
vt 0.2351074 0.4353027
vt 0.1588135 0.3378906
vt 0.2878418 0.345459
vt 0.2312012 0.2927246
vt 0.04269409 0.2419434
vt 0.04425049 0.3759766
vt 0.0569458 0.2192383
vt 0.07617188 0.2036133
vt 0.161377 0.2177734

g Desert_Sand_dune_01_(22)_511_69
usemtl Desert_Sand_dune_01_(22)_511_69
usemap Desert_Sand_dune_01_(22)_511_69
f 1/1/1 3/3/3 2/2/2
f 1/1/1 4/4/4 3/3/3
f 4/4/4 5/5/5 3/3/3
f 4/4/4 6/6/6 5/5/5
f 2/2/2 7/7/7 1/1/1
f 2/2/2 8/8/8 7/7/7
f 9/9/9 5/5/5 6/6/6
f 9/9/9 6/6/6 10/10/10
f 11/11/11 5/5/5 9/9/9
f 11/11/11 12/12/12 5/5/5
f 3/3/3 5/5/5 12/12/12
f 13/13/13 12/12/12 11/11/11
f 13/13/13 14/14/14 12/12/12
f 15/15/15 12/12/12 14/14/14
f 3/3/3 12/12/12 15/15/15
f 2/2/2 3/3/3 15/15/15
f 15/15/15 14/14/14 16/16/16
f 17/17/17 15/15/15 16/16/16
f 2/2/2 15/15/15 17/17/17
f 17/17/17 8/8/8 2/2/2
f 17/17/17 16/16/16 18/18/18
f 18/18/18 19/19/19 17/17/17
f 17/17/17 19/19/19 8/8/8
f 18/18/18 20/20/20 19/19/19
f 21/21/21 14/14/14 13/13/13
f 21/21/21 22/22/22 14/14/14
f 16/16/16 14/14/14 22/22/22
f 23/23/23 22/22/22 21/21/21
f 23/23/23 24/24/24 22/22/22
f 24/24/24 25/25/25 22/22/22
f 16/16/16 22/22/22 25/25/25
f 18/18/18 16/16/16 25/25/25
f 24/24/24 26/26/26 25/25/25
f 26/26/26 27/27/27 25/25/25
f 18/18/18 25/25/25 27/27/27
f 27/27/27 20/20/20 18/18/18
f 26/26/26 28/28/28 27/27/27
f 28/28/28 29/29/29 27/27/27
f 27/27/27 29/29/29 20/20/20
f 28/28/28 30/30/30 29/29/29
f 31/31/31 24/24/24 23/23/23
f 31/31/31 32/32/32 24/24/24
f 32/32/32 26/26/26 24/24/24
f 33/33/33 32/32/32 31/31/31
f 33/33/33 34/34/34 32/32/32
f 34/34/34 35/35/35 32/32/32
f 32/32/32 35/35/35 26/26/26
f 35/35/35 28/28/28 26/26/26
f 34/34/34 36/36/36 35/35/35
f 36/36/36 37/37/37 35/35/35
f 35/35/35 37/37/37 28/28/28
f 37/37/37 30/30/30 28/28/28
f 36/36/36 38/38/38 37/37/37
f 38/38/38 39/39/39 37/37/37
f 37/37/37 39/39/39 30/30/30
f 38/38/38 40/40/40 39/39/39
f 41/41/41 34/34/34 33/33/33
f 41/41/41 36/36/36 34/34/34
f 41/41/41 33/33/33 42/42/42
f 41/41/41 43/43/43 36/36/36
f 43/43/43 38/38/38 36/36/36
f 43/43/43 44/44/44 38/38/38
f 45/45/45 38/38/38 44/44/44
f 45/45/45 40/40/40 38/38/38
