#Desert_Sand_dune_01_(10)_600_114.obj

v 4.22059 5.63839E-07 0.2385804
v 2.995597 0.2895657 -0.3930804
v 3.035364 0.2955918 -0.5010675
v 4.332743 -4.783124E-08 0.09001508
v 3.073961 0.2831765 -0.6633382
v 4.381544 -4.783124E-08 -0.08605117
v 3.259319 -1.989064E-07 0.48553
v 2.517462 -4.783124E-08 0.4279651
v 3.127604 -1.989064E-07 -1.498859
v 4.090989 -3.536663E-07 -0.6724943
v 2.51735 -4.783124E-08 -1.912598
v 2.257203 0.5063466 -0.9938752
v 1.62373 1.032439E-07 -2.23238
v 1.338232 0.6450294 -1.140658
v 2.217644 0.5276183 -0.8151583
v 1.316599 0.6672151 -0.9590017
v 2.168957 0.513756 -0.6381819
v 1.289695 0.6420645 -0.7783821
v 2.079841 1.032439E-07 0.3880993
v 1.289966 -4.783124E-08 0.2926615
v 0.3739212 -4.783124E-08 -2.336045
v 0.1028687 0.7119356 -1.159853
v -0.8046321 -1.098364E-08 -2.215534
v -0.9186978 0.6614512 -1.144194
v 0.1044257 0.7331527 -0.9777256
v -0.9005672 0.6827145 -0.9621992
v 0.1068089 0.6969621 -0.7968516
v -0.8771371 0.6502035 -0.781806
v 0.2650477 -2.940744E-08 0.1705182
v -0.7804601 -8.467884E-08 0.08905308
v -2.059544 1.032439E-07 -1.779627
v -2.015676 0.4912399 -0.9616035
v -2.774587 -4.783124E-08 -1.428692
v -3.038431 0.2394905 -0.599344
v -1.97939 0.5115988 -0.7825795
v -3.020573 0.2496155 -0.4350262
v -1.933479 0.4907013 -0.606073
v -2.966402 0.2401334 -0.2799445
v -1.92713 -4.783124E-08 0.1313324
v -2.605787 1.032439E-07 0.2521237
v -4.303949 -3.536663E-07 -0.1024382
v -3.688199 2.580039E-07 -0.9180177
v -4.295413 -3.536663E-07 0.08735949
v -4.215517 2.580039E-07 0.2507713
v -3.487271 -4.783124E-08 0.4651506

vn 0.006252289 0.9956055 0.08911133
vn -0.01052094 0.9726563 0.230957
vn 0.1612549 0.9814453 0.1010742
vn 0.08789063 0.9941406 0.06210327
vn 0.2839355 0.9560547 -0.06750488
vn 0.1196289 0.9926758 -0.005561829
vn -0.0305481 0.9887695 0.1431885
vn -0.03509521 0.9775391 0.2055664
vn 0.2122803 0.9741211 -0.07678223
vn 0.1599121 0.9858398 -0.04544067
vn 0.2171631 0.9633789 -0.1551514
vn 0.2890625 0.9399414 -0.1796875
vn 0.1578369 0.9604492 -0.2272949
vn 0.1947021 0.9399414 -0.279541
vn 0.1553955 0.9848633 0.07574463
vn 0.07171631 0.996582 0.03848267
vn -0.06292725 0.9526367 0.296875
vn -0.1148071 0.9365234 0.3308105
vn -0.07275391 0.9624023 0.2600098
vn -0.1122437 0.9492188 0.2929688
vn 0.1039429 0.956543 -0.2709961
vn 0.116333 0.9360352 -0.331543
vn 0.02874756 0.9555664 -0.2929688
vn 0.01190948 0.9272461 -0.3740234
vn -0.001987457 0.9995117 0.02139282
vn -0.08959961 0.9956055 -0.008384705
vn -0.1522217 0.9194336 0.3618164
vn -0.1630859 0.9165039 0.3649902
vn -0.1357422 0.9365234 0.3227539
vn -0.138916 0.9311523 0.3361816
vn -0.05163574 0.9526367 -0.2995605
vn -0.09552002 0.925293 -0.3662109
vn -0.1008301 0.9633789 -0.246582
vn -0.142334 0.9589844 -0.2445068
vn -0.1618652 0.9863281 -0.02835083
vn -0.1696777 0.9848633 -0.02806091
vn -0.1499023 0.9311523 0.3317871
vn -0.1166382 0.9707031 0.2084961
vn -0.1124878 0.9433594 0.3120117
vn -0.08111572 0.9697266 0.2285156
vn -0.06500244 0.9951172 -0.06896973
vn -0.07501221 0.9858398 -0.1466064
vn -0.09906006 0.9946289 -0.01330566
vn -0.05596924 0.996582 0.06039429
vn -0.04849243 0.9897461 0.1337891

vt 0.887207 0.6738281
vt 0.7246094 0.6831055
vt 0.7207031 0.6987305
vt 0.887207 0.6982422
vt 0.7128906 0.7207031
vt 0.8793945 0.7226563
vt 0.8120117 0.5898438
vt 0.7363281 0.5556641
vt 0.6586914 0.8256836
vt 0.8100586 0.7783203
vt 0.5708008 0.8427734
vt 0.6108398 0.7158203
vt 0.4624023 0.8320313
vt 0.512207 0.6826172
vt 0.6196289 0.6914063
vt 0.5229492 0.6591797
vt 0.6274414 0.6669922
vt 0.5332031 0.6352539
vt 0.6914063 0.5366211
vt 0.6088867 0.5043945
vt 0.3347168 0.7753906
vt 0.3918457 0.6162109
vt 0.2299805 0.6953125
vt 0.2946777 0.5576172
vt 0.4050293 0.5942383
vt 0.3093262 0.5361328
vt 0.4179688 0.5717773
vt 0.3242188 0.515625
vt 0.5014648 0.4624023
vt 0.3952637 0.4143066
vt 0.1400146 0.5722656
vt 0.2021484 0.4743652
vt 0.0960083 0.489502
vt 0.1292725 0.3730469
vt 0.2182617 0.4543457
vt 0.1425781 0.3540039
vt 0.2351074 0.4353027
vt 0.1588135 0.3378906
vt 0.2878418 0.345459
vt 0.2312012 0.2927246
vt 0.04269409 0.2419434
vt 0.04425049 0.3759766
vt 0.0569458 0.2192383
vt 0.07617188 0.2036133
vt 0.161377 0.2177734

g Desert_Sand_dune_01_(10)_600_114
usemtl Desert_Sand_dune_01_(10)_600_114
usemap Desert_Sand_dune_01_(10)_600_114
f 1/1/1 3/3/3 2/2/2
f 1/1/1 4/4/4 3/3/3
f 4/4/4 5/5/5 3/3/3
f 4/4/4 6/6/6 5/5/5
f 2/2/2 7/7/7 1/1/1
f 2/2/2 8/8/8 7/7/7
f 9/9/9 5/5/5 6/6/6
f 9/9/9 6/6/6 10/10/10
f 11/11/11 5/5/5 9/9/9
f 11/11/11 12/12/12 5/5/5
f 3/3/3 5/5/5 12/12/12
f 13/13/13 12/12/12 11/11/11
f 13/13/13 14/14/14 12/12/12
f 15/15/15 12/12/12 14/14/14
f 3/3/3 12/12/12 15/15/15
f 2/2/2 3/3/3 15/15/15
f 15/15/15 14/14/14 16/16/16
f 17/17/17 15/15/15 16/16/16
f 2/2/2 15/15/15 17/17/17
f 17/17/17 8/8/8 2/2/2
f 17/17/17 16/16/16 18/18/18
f 18/18/18 19/19/19 17/17/17
f 17/17/17 19/19/19 8/8/8
f 18/18/18 20/20/20 19/19/19
f 21/21/21 14/14/14 13/13/13
f 21/21/21 22/22/22 14/14/14
f 16/16/16 14/14/14 22/22/22
f 23/23/23 22/22/22 21/21/21
f 23/23/23 24/24/24 22/22/22
f 24/24/24 25/25/25 22/22/22
f 16/16/16 22/22/22 25/25/25
f 18/18/18 16/16/16 25/25/25
f 24/24/24 26/26/26 25/25/25
f 26/26/26 27/27/27 25/25/25
f 18/18/18 25/25/25 27/27/27
f 27/27/27 20/20/20 18/18/18
f 26/26/26 28/28/28 27/27/27
f 28/28/28 29/29/29 27/27/27
f 27/27/27 29/29/29 20/20/20
f 28/28/28 30/30/30 29/29/29
f 31/31/31 24/24/24 23/23/23
f 31/31/31 32/32/32 24/24/24
f 32/32/32 26/26/26 24/24/24
f 33/33/33 32/32/32 31/31/31
f 33/33/33 34/34/34 32/32/32
f 34/34/34 35/35/35 32/32/32
f 32/32/32 35/35/35 26/26/26
f 35/35/35 28/28/28 26/26/26
f 34/34/34 36/36/36 35/35/35
f 36/36/36 37/37/37 35/35/35
f 35/35/35 37/37/37 28/28/28
f 37/37/37 30/30/30 28/28/28
f 36/36/36 38/38/38 37/37/37
f 38/38/38 39/39/39 37/37/37
f 37/37/37 39/39/39 30/30/30
f 38/38/38 40/40/40 39/39/39
f 41/41/41 34/34/34 33/33/33
f 41/41/41 36/36/36 34/34/34
f 41/41/41 33/33/33 42/42/42
f 41/41/41 43/43/43 36/36/36
f 43/43/43 38/38/38 36/36/36
f 43/43/43 44/44/44 38/38/38
f 45/45/45 38/38/38 44/44/44
f 45/45/45 40/40/40 38/38/38
