#Desert_Sand_dune_01_(5)_717_96.obj

v -1.92713 1.117904E-07 0.1313316
v -1.912089 1.117904E-07 0.3579928
v -2.665368 1.117904E-07 0.548683
v -2.605787 2.644064E-07 0.2521234
v -0.7848746 1.117904E-07 0.3571776
v -0.7804611 7.359644E-08 0.08905252
v 0.2650469 1.308075E-07 0.1705173
v 0.2421361 7.359644E-08 0.4750108
v 1.230568 1.880185E-07 0.603748
v 1.289965 1.117904E-07 0.2926609
v 2.07984 2.644064E-07 0.3880981
v 1.992907 2.644064E-07 0.6984277
v 2.530036 2.644064E-07 0.798051
v 2.517462 1.117904E-07 0.4279649
v 3.259319 -4.082563E-08 0.4855297
v 3.381993 1.117904E-07 0.8339154
v 4.22059 7.220947E-07 0.2385799
v 4.523259 -1.934417E-07 0.4893459
v 4.332742 1.117904E-07 0.09001426
v 4.807483 1.117904E-07 0.2538248
v 4.381543 1.117904E-07 -0.08605215
v 4.861457 4.170224E-07 0.03638365
v 4.090988 -1.934417E-07 -0.6724957
v 4.406578 -1.934417E-07 -0.8635399
v 3.435779 4.170224E-07 -1.786305
v 3.127604 -4.082563E-08 -1.498859
v 2.517349 1.117904E-07 -1.912598
v 2.689325 -4.082563E-08 -2.202722
v 1.713098 1.117904E-07 -2.569236
v 1.623729 2.644064E-07 -2.23238
v 0.3739206 1.117904E-07 -2.336045
v 0.3494305 7.359644E-08 -2.701835
v -0.9194431 7.359644E-08 -2.561152
v -0.8046325 1.499844E-07 -2.215534
v -2.059544 2.644064E-07 -1.779626
v -2.262606 2.644064E-07 -2.055179
v -3.053087 2.644064E-07 -1.702574
v -2.774587 1.117904E-07 -1.428692
v -3.6882 4.170224E-07 -0.9180176
v -3.910359 4.170224E-07 -1.099208
v -4.303951 -1.934417E-07 -0.1024392
v -4.744997 4.170224E-07 0.01614533
v -4.295414 -1.934417E-07 0.08735925
v -4.735555 -1.934417E-07 0.2505458
v -4.215518 4.170224E-07 0.2507715
v -4.647187 -1.934417E-07 0.4523593
v -3.487272 1.117904E-07 0.4651505
v -3.591499 4.170224E-07 0.7072014

vn -0.1065063 0.7900391 0.6030273
vn 0 1 0
vn 0 1 0
vn -0.08154297 0.8754883 0.4755859
vn 0 1 0
vn -0.1427002 0.7578125 0.6362305
vn -0.1429443 0.7714844 0.6196289
vn 0 1 0
vn 0 1 0
vn -0.1137695 0.8076172 0.5776367
vn -0.05328369 0.8500977 0.5229492
vn 0 1 -2.384186E-07
vn 4.768372E-07 1 -4.768372E-07
vn 0.0008997917 0.9047852 0.425293
vn -0.01205444 0.9501953 0.3100586
vn 1.192093E-07 1 9.536743E-07
vn 0.0463562 0.980957 0.1882324
vn 5.364418E-07 1 1.430511E-06
vn 0.2095947 0.9726563 0.09960938
vn 1.788139E-07 1 7.748604E-07
vn 0.2507324 0.9663086 -0.05551147
vn -8.34465E-07 1 -1.192093E-07
vn 0.3139648 0.9370117 -0.1508789
vn -5.960464E-07 1 2.384186E-07
vn -5.960464E-07 1 7.152557E-07
vn 0.3952637 0.8901367 -0.2253418
vn 0.3662109 0.8530273 -0.3708496
vn 0 1 0
vn 2.384186E-07 1 -4.172325E-07
vn 0.2263184 0.84375 -0.4858398
vn 0.107666 0.8310547 -0.5449219
vn 0 1 -2.980232E-07
vn 0 1 -1.788139E-07
vn -0.04125977 0.8271484 -0.5600586
vn -0.1928711 0.8178711 -0.5419922
vn 0 1 0
vn 2.980232E-07 1 1.788139E-07
vn -0.276123 0.8535156 -0.440918
vn -0.2075195 0.9379883 -0.276123
vn 8.940697E-07 1 9.536743E-07
vn -0.1643066 0.9785156 -0.123291
vn 1.490116E-06 1 2.026558E-06
vn -0.2160645 0.9760742 0.008155823
vn -1.788139E-07 1 0
vn -0.09759521 0.9833984 0.1502686
vn -1.132488E-06 1 -6.556511E-07
vn -0.05300903 0.953125 0.2973633
vn -2.980232E-07 1 1.192093E-07

vt 0.2878418 0.345459
vt 0.3054199 0.3183594
vt 0.24646 0.2531738
vt 0.2312012 0.2927246
vt 0.4138184 0.3811035
vt 0.3952637 0.4143066
vt 0.5014648 0.4624023
vt 0.5209961 0.4238281
vt 0.625 0.4628906
vt 0.6088867 0.5043945
vt 0.6914063 0.5366211
vt 0.7050781 0.4936523
vt 0.7636719 0.5112305
vt 0.7363281 0.5556641
vt 0.8120117 0.5898438
vt 0.8486328 0.5541992
vt 0.887207 0.6738281
vt 0.934082 0.659668
vt 0.887207 0.6982422
vt 0.9448242 0.7045898
vt 0.8793945 0.7226563
vt 0.9345703 0.7338867
vt 0.8100586 0.7783203
vt 0.8271484 0.8193359
vt 0.668457 0.878418
vt 0.6586914 0.8256836
vt 0.5708008 0.8427734
vt 0.5668945 0.8876953
vt 0.4472656 0.878418
vt 0.4624023 0.8320313
vt 0.3347168 0.7753906
vt 0.3066406 0.8188477
vt 0.194458 0.730957
vt 0.2299805 0.6953125
vt 0.1400146 0.5722656
vt 0.1009521 0.5947266
vt 0.04986572 0.5073242
vt 0.0960083 0.489502
vt 0.04425049 0.3759766
vt 0.01006317 0.3859863
vt 0.04269409 0.2419434
vt 0.008651733 0.2028809
vt 0.0569458 0.2192383
vt 0.02613831 0.1746826
vt 0.07617188 0.2036133
vt 0.04891968 0.1549072
vt 0.161377 0.2177734
vt 0.168457 0.182373

g Desert_Sand_dune_01_(5)_717_96
usemtl Desert_Sand_dune_01_(5)_717_96
usemap Desert_Sand_dune_01_(5)_717_96
f 1/1/1 3/3/3 2/2/2
f 1/1/1 4/4/4 3/3/3
f 5/5/5 1/1/1 2/2/2
f 5/5/5 6/6/6 1/1/1
f 7/7/7 6/6/6 5/5/5
f 7/7/7 5/5/5 8/8/8
f 9/9/9 7/7/7 8/8/8
f 9/9/9 10/10/10 7/7/7
f 11/11/11 10/10/10 9/9/9
f 11/11/11 9/9/9 12/12/12
f 13/13/13 11/11/11 12/12/12
f 13/13/13 14/14/14 11/11/11
f 15/15/15 14/14/14 13/13/13
f 15/15/15 13/13/13 16/16/16
f 17/17/17 15/15/15 16/16/16
f 17/17/17 16/16/16 18/18/18
f 19/19/19 17/17/17 18/18/18
f 19/19/19 18/18/18 20/20/20
f 21/21/21 19/19/19 20/20/20
f 21/21/21 20/20/20 22/22/22
f 23/23/23 21/21/21 22/22/22
f 23/23/23 22/22/22 24/24/24
f 25/25/25 23/23/23 24/24/24
f 25/25/25 26/26/26 23/23/23
f 27/27/27 26/26/26 25/25/25
f 27/27/27 25/25/25 28/28/28
f 29/29/29 27/27/27 28/28/28
f 29/29/29 30/30/30 27/27/27
f 31/31/31 30/30/30 29/29/29
f 31/31/31 29/29/29 32/32/32
f 33/33/33 31/31/31 32/32/32
f 33/33/33 34/34/34 31/31/31
f 35/35/35 34/34/34 33/33/33
f 35/35/35 33/33/33 36/36/36
f 37/37/37 35/35/35 36/36/36
f 37/37/37 38/38/38 35/35/35
f 39/39/39 38/38/38 37/37/37
f 39/39/39 37/37/37 40/40/40
f 41/41/41 39/39/39 40/40/40
f 41/41/41 40/40/40 42/42/42
f 43/43/43 41/41/41 42/42/42
f 43/43/43 42/42/42 44/44/44
f 45/45/45 43/43/43 44/44/44
f 45/45/45 44/44/44 46/46/46
f 47/47/47 45/45/45 46/46/46
f 47/47/47 46/46/46 48/48/48
f 3/3/3 47/47/47 48/48/48
f 3/3/3 4/4/4 47/47/47
