#Desert_Sand_dune_01_(17)_410_59.obj

v 4.22059 6.022835E-07 0.2385794
v 2.995598 0.2895657 -0.3930825
v 3.035365 0.2955918 -0.5010694
v 4.332743 -8.23231E-09 0.09001363
v 3.073961 0.2831765 -0.66334
v 4.381544 -8.23231E-09 -0.08605218
v 3.25932 -1.61328E-07 0.4855281
v 2.517463 -8.23231E-09 0.4279647
v 3.127605 -1.61328E-07 -1.49886
v 4.090989 -3.125567E-07 -0.672496
v 2.517351 -8.23231E-09 -1.9126
v 2.257203 0.5063466 -0.9938768
v 1.623729 1.448634E-07 -2.232381
v 1.338231 0.6450294 -1.140659
v 2.217645 0.5276183 -0.8151592
v 1.3166 0.6672151 -0.9590027
v 2.168957 0.513756 -0.6381835
v 1.289696 0.6420645 -0.7783839
v 2.07984 1.448634E-07 0.3880978
v 1.289966 -8.23231E-09 0.2926603
v 0.3739209 -8.23231E-09 -2.336046
v 0.1028684 0.7119355 -1.159854
v -0.8046325 2.910811E-08 -2.215534
v -0.9186968 0.6614511 -1.144195
v 0.1044252 0.7331527 -0.9777265
v -0.9005681 0.6827145 -0.9622002
v 0.1068086 0.6969621 -0.7968519
v -0.8771365 0.6502035 -0.7818065
v 0.2650474 1.04379E-08 0.1705169
v -0.7804595 -4.557273E-08 0.08905151
v -2.059543 1.448634E-07 -1.779627
v -2.015675 0.4912399 -0.9616039
v -2.774587 -8.23231E-09 -1.428692
v -3.038431 0.2394905 -0.5993442
v -1.97939 0.5115988 -0.7825808
v -3.020573 0.2496156 -0.435026
v -1.933479 0.4907013 -0.606074
v -2.966402 0.2401334 -0.2799454
v -1.927129 -8.23231E-09 0.1313311
v -2.605787 1.448634E-07 0.2521233
v -4.30395 -3.125567E-07 -0.1024388
v -3.688198 2.960921E-07 -0.9180189
v -4.295412 -3.125567E-07 0.08735865
v -4.215517 2.960921E-07 0.2507712
v -3.487271 -8.23231E-09 0.4651506

vn 0.0982666 0.9946289 0.03161621
vn 0.241333 0.9638672 0.1098022
vn 0.1768799 0.9755859 -0.1289063
vn 0.1043091 0.9921875 -0.06750488
vn 0.04910278 0.9428711 -0.3293457
vn 0.04544067 0.9902344 -0.1304932
vn 0.1401367 0.9853516 0.09417725
vn 0.2041016 0.9707031 0.1252441
vn 0.008903503 0.9658203 -0.2587891
vn 0.02000427 0.9814453 -0.1904297
vn -0.07226563 0.9521484 -0.2966309
vn -0.06726074 0.921875 -0.3803711
vn -0.1739502 0.9482422 -0.2641602
vn -0.2122803 0.921875 -0.3232422
vn 0.147583 0.9794922 -0.133667
vn 0.07214355 0.9951172 -0.0604248
vn 0.2873535 0.9379883 0.1925049
vn 0.2995605 0.9174805 0.2602539
vn 0.244873 0.9506836 0.1877441
vn 0.2619629 0.9335938 0.2427979
vn -0.2429199 0.9433594 -0.2250977
vn -0.2998047 0.9169922 -0.262207
vn -0.2978516 0.9418945 -0.1547852
vn -0.3874512 0.9057617 -0.1697998
vn 0.02210999 0.9995117 0.01134491
vn -0.04754639 0.9941406 0.09246826
vn 0.3149414 0.8964844 0.3112793
vn 0.3132324 0.8925781 0.3237305
vn 0.2822266 0.9174805 0.2790527
vn 0.2946777 0.9111328 0.2875977
vn -0.338623 0.9379883 -0.0723877
vn -0.4243164 0.9038086 -0.05380249
vn -0.3046875 0.9521484 0.002094269
vn -0.3195801 0.9462891 0.04696655
vn -0.09967041 0.9814453 0.1608887
vn -0.1026611 0.9799805 0.1691895
vn 0.2854004 0.9106445 0.2971191
vn 0.1721191 0.9614258 0.2130127
vn 0.2814941 0.9257813 0.2504883
vn 0.208374 0.9604492 0.1837158
vn -0.1019287 0.9936523 0.04006958
vn -0.1889648 0.9814453 0.01734924
vn -0.05685425 0.9931641 0.1004639
vn 0.04071045 0.9951172 0.08599854
vn 0.1224365 0.9863281 0.109314

vt 0.887207 0.6738281
vt 0.7246094 0.6831055
vt 0.7207031 0.6987305
vt 0.887207 0.6982422
vt 0.7128906 0.7207031
vt 0.8793945 0.7226563
vt 0.8120117 0.5898438
vt 0.7363281 0.5556641
vt 0.6586914 0.8256836
vt 0.8100586 0.7783203
vt 0.5708008 0.8427734
vt 0.6108398 0.7158203
vt 0.4624023 0.8320313
vt 0.512207 0.6826172
vt 0.6196289 0.6914063
vt 0.5229492 0.6591797
vt 0.6274414 0.6669922
vt 0.5332031 0.6352539
vt 0.6914063 0.5366211
vt 0.6088867 0.5043945
vt 0.3347168 0.7753906
vt 0.3918457 0.6162109
vt 0.2299805 0.6953125
vt 0.2946777 0.5576172
vt 0.4050293 0.5942383
vt 0.3093262 0.5361328
vt 0.4179688 0.5717773
vt 0.3242188 0.515625
vt 0.5014648 0.4624023
vt 0.3952637 0.4143066
vt 0.1400146 0.5722656
vt 0.2021484 0.4743652
vt 0.0960083 0.489502
vt 0.1292725 0.3730469
vt 0.2182617 0.4543457
vt 0.1425781 0.3540039
vt 0.2351074 0.4353027
vt 0.1588135 0.3378906
vt 0.2878418 0.345459
vt 0.2312012 0.2927246
vt 0.04269409 0.2419434
vt 0.04425049 0.3759766
vt 0.0569458 0.2192383
vt 0.07617188 0.2036133
vt 0.161377 0.2177734

g Desert_Sand_dune_01_(17)_410_59
usemtl Desert_Sand_dune_01_(17)_410_59
usemap Desert_Sand_dune_01_(17)_410_59
f 1/1/1 3/3/3 2/2/2
f 1/1/1 4/4/4 3/3/3
f 4/4/4 5/5/5 3/3/3
f 4/4/4 6/6/6 5/5/5
f 2/2/2 7/7/7 1/1/1
f 2/2/2 8/8/8 7/7/7
f 9/9/9 5/5/5 6/6/6
f 9/9/9 6/6/6 10/10/10
f 11/11/11 5/5/5 9/9/9
f 11/11/11 12/12/12 5/5/5
f 3/3/3 5/5/5 12/12/12
f 13/13/13 12/12/12 11/11/11
f 13/13/13 14/14/14 12/12/12
f 15/15/15 12/12/12 14/14/14
f 3/3/3 12/12/12 15/15/15
f 2/2/2 3/3/3 15/15/15
f 15/15/15 14/14/14 16/16/16
f 17/17/17 15/15/15 16/16/16
f 2/2/2 15/15/15 17/17/17
f 17/17/17 8/8/8 2/2/2
f 17/17/17 16/16/16 18/18/18
f 18/18/18 19/19/19 17/17/17
f 17/17/17 19/19/19 8/8/8
f 18/18/18 20/20/20 19/19/19
f 21/21/21 14/14/14 13/13/13
f 21/21/21 22/22/22 14/14/14
f 16/16/16 14/14/14 22/22/22
f 23/23/23 22/22/22 21/21/21
f 23/23/23 24/24/24 22/22/22
f 24/24/24 25/25/25 22/22/22
f 16/16/16 22/22/22 25/25/25
f 18/18/18 16/16/16 25/25/25
f 24/24/24 26/26/26 25/25/25
f 26/26/26 27/27/27 25/25/25
f 18/18/18 25/25/25 27/27/27
f 27/27/27 20/20/20 18/18/18
f 26/26/26 28/28/28 27/27/27
f 28/28/28 29/29/29 27/27/27
f 27/27/27 29/29/29 20/20/20
f 28/28/28 30/30/30 29/29/29
f 31/31/31 24/24/24 23/23/23
f 31/31/31 32/32/32 24/24/24
f 32/32/32 26/26/26 24/24/24
f 33/33/33 32/32/32 31/31/31
f 33/33/33 34/34/34 32/32/32
f 34/34/34 35/35/35 32/32/32
f 32/32/32 35/35/35 26/26/26
f 35/35/35 28/28/28 26/26/26
f 34/34/34 36/36/36 35/35/35
f 36/36/36 37/37/37 35/35/35
f 35/35/35 37/37/37 28/28/28
f 37/37/37 30/30/30 28/28/28
f 36/36/36 38/38/38 37/37/37
f 38/38/38 39/39/39 37/37/37
f 37/37/37 39/39/39 30/30/30
f 38/38/38 40/40/40 39/39/39
f 41/41/41 34/34/34 33/33/33
f 41/41/41 36/36/36 34/34/34
f 41/41/41 33/33/33 42/42/42
f 41/41/41 43/43/43 36/36/36
f 43/43/43 38/38/38 36/36/36
f 43/43/43 44/44/44 38/38/38
f 45/45/45 38/38/38 44/44/44
f 45/45/45 40/40/40 38/38/38
