#Desert_Rock_05_(17)_636_219.obj

v -0.4538787 -0.261956 0.3198951
v -0.4538788 -0.261956 -0.319885
v -0.5451803 -0.1706571 -0.3198849
v -0.5451802 -0.1706571 0.3198952
v -0.45388 -0.1706571 0.4111867
v 0.4538797 -0.170657 0.4111871
v 0.453881 -0.261956 0.3198955
v -0.4538787 -0.261956 0.3198951
v -0.5451802 -0.1706571 0.3198952
v -0.5451787 0.1706574 0.3198954
v -0.4538786 0.1706574 0.4111869
v -0.45388 -0.1706571 0.4111867
v 0.5451788 -0.1706571 0.3198953
v 0.5451787 -0.1706571 -0.3198848
v 0.4538809 -0.2619559 -0.3198851
v 0.453881 -0.261956 0.3198955
v 0.4538797 -0.170657 0.4111871
v 0.4538811 0.1706575 0.4111868
v 0.5451783 0.1706576 0.3198951
v 0.5451788 -0.1706571 0.3198953
v -0.5451787 0.1706574 0.3198954
v -0.5451788 0.1706575 -0.3198847
v -0.453879 0.2619563 -0.3198841
v -0.4538789 0.2619564 0.319896
v -0.4538789 0.2619564 0.319896
v 0.4538807 0.2619563 0.3198959
v 0.4538811 0.1706575 0.4111868
v -0.4538786 0.1706574 0.4111869
v 0.4538807 0.2619563 0.3198959
v 0.4538806 0.2619565 -0.3198842
v 0.5451782 0.1706577 -0.319885
v 0.5451783 0.1706576 0.3198951
v -0.5451788 0.1706575 -0.3198847
v -0.5451803 -0.1706571 -0.3198849
v -0.4538786 -0.1706572 -0.4111913
v -0.453879 0.1706576 -0.411191
v -0.453879 0.1706576 -0.411191
v 0.4538806 0.1706577 -0.4111911
v 0.4538806 0.2619565 -0.3198842
v -0.453879 0.2619563 -0.3198841
v 0.4538806 0.1706577 -0.4111911
v 0.4538811 -0.1706571 -0.4111909
v 0.5451787 -0.1706571 -0.3198848
v 0.5451782 0.1706577 -0.319885
v -0.4538788 -0.261956 -0.319885
v 0.4538809 -0.2619559 -0.3198851
v 0.4538811 -0.1706571 -0.4111909
v -0.4538786 -0.1706572 -0.4111913
v -0.45388 -0.1706571 0.4111867
v -0.4538786 0.1706574 0.4111869
v 0.4538811 0.1706575 0.4111868
v 0.4538797 -0.170657 0.4111871
v -0.4538789 0.2619564 0.319896
v -0.453879 0.2619563 -0.3198841
v 0.4538806 0.2619565 -0.3198842
v 0.4538807 0.2619563 0.3198959
v -0.453879 0.1706576 -0.411191
v -0.4538786 -0.1706572 -0.4111913
v 0.4538811 -0.1706571 -0.4111909
v 0.4538806 0.1706577 -0.4111911
v -0.4538788 -0.261956 -0.319885
v -0.4538787 -0.261956 0.3198951
v 0.453881 -0.261956 0.3198955
v 0.4538809 -0.2619559 -0.3198851
v 0.5451788 -0.1706571 0.3198953
v 0.5451783 0.1706576 0.3198951
v 0.5451782 0.1706577 -0.319885
v 0.5451787 -0.1706571 -0.3198848
v -0.5451803 -0.1706571 -0.3198849
v -0.5451788 0.1706575 -0.3198847
v -0.5451787 0.1706574 0.3198954
v -0.5451802 -0.1706571 0.3198952
v -0.4538787 -0.261956 0.3198951
v -0.5451802 -0.1706571 0.3198952
v -0.45388 -0.1706571 0.4111867
v 0.5451788 -0.1706571 0.3198953
v 0.453881 -0.261956 0.3198955
v 0.4538797 -0.170657 0.4111871
v -0.5451787 0.1706574 0.3198954
v -0.4538789 0.2619564 0.319896
v -0.4538786 0.1706574 0.4111869
v 0.4538807 0.2619563 0.3198959
v 0.5451783 0.1706576 0.3198951
v 0.4538811 0.1706575 0.4111868
v -0.5451788 0.1706575 -0.3198847
v -0.453879 0.1706576 -0.411191
v -0.453879 0.2619563 -0.3198841
v 0.4538806 0.1706577 -0.4111911
v 0.5451782 0.1706577 -0.319885
v 0.4538806 0.2619565 -0.3198842
v -0.5451803 -0.1706571 -0.3198849
v -0.4538788 -0.261956 -0.319885
v -0.4538786 -0.1706572 -0.4111913
v 0.4538809 -0.2619559 -0.3198851
v 0.5451787 -0.1706571 -0.3198848
v 0.4538811 -0.1706571 -0.4111909

vn 0.01038361 -0.7744141 0.6318359
vn 0.01038361 -0.7744141 0.6318359
vn 0.01038361 -0.7744141 0.6318359
vn 0.01038361 -0.7744141 0.6318359
vn 0.7670898 -0.640625 -0.007434845
vn 0.7670898 -0.640625 -0.007434845
vn 0.7670898 -0.640625 -0.007434845
vn 0.7670898 -0.640625 -0.007434845
vn 0.6464844 -0.01456451 0.762207
vn 0.6464844 -0.01456451 0.762207
vn 0.6464844 -0.01456451 0.762207
vn 0.6464844 -0.01456451 0.762207
vn 0.1206665 -0.6264648 -0.7695313
vn 0.1206665 -0.6264648 -0.7695313
vn 0.1206665 -0.6264648 -0.7695313
vn 0.1206665 -0.6264648 -0.7695313
vn 0.7568359 0.133667 -0.6391602
vn 0.7568359 0.133667 -0.6391602
vn 0.7568359 0.133667 -0.6391602
vn 0.7568359 0.133667 -0.6391602
vn -0.1206665 0.6264648 0.7695313
vn -0.1206665 0.6264648 0.7695313
vn -0.1206665 0.6264648 0.7695313
vn -0.1206665 0.6264648 0.7695313
vn 0.6362305 0.7602539 0.1304932
vn 0.6362305 0.7602539 0.1304932
vn 0.6362305 0.7602539 0.1304932
vn 0.6362305 0.7602539 0.1304932
vn -0.01038361 0.7744141 -0.6318359
vn -0.01038361 0.7744141 -0.6318359
vn -0.01038361 0.7744141 -0.6318359
vn -0.01038361 0.7744141 -0.6318359
vn -0.7568359 -0.133667 0.6391602
vn -0.7568359 -0.133667 0.6391602
vn -0.7568359 -0.133667 0.6391602
vn -0.7568359 -0.133667 0.6391602
vn -0.7670898 0.640625 0.007434845
vn -0.7670898 0.640625 0.007434845
vn -0.7670898 0.640625 0.007434845
vn -0.7670898 0.640625 0.007434845
vn -0.6464844 0.01456451 -0.762207
vn -0.6464844 0.01456451 -0.762207
vn -0.6464844 0.01456451 -0.762207
vn -0.6464844 0.01456451 -0.762207
vn -0.6362305 -0.7602539 -0.1304932
vn -0.6362305 -0.7602539 -0.1304932
vn -0.6362305 -0.7602539 -0.1304932
vn -0.6362305 -0.7602539 -0.1304932
vn 0.9921875 0.08428955 0.0869751
vn 0.9921875 0.08428955 0.0869751
vn 0.9921875 0.08428955 0.0869751
vn 0.9921875 0.08428955 0.0869751
vn -0.09265137 0.9907227 0.09753418
vn -0.09265137 0.9907227 0.09753418
vn -0.09265137 0.9907227 0.09753418
vn -0.09265137 0.9907227 0.09753418
vn -0.9921875 -0.08428955 -0.0869751
vn -0.9921875 -0.08428955 -0.0869751
vn -0.9921875 -0.08428955 -0.0869751
vn -0.9921875 -0.08428955 -0.0869751
vn 0.09265137 -0.9907227 -0.09753418
vn 0.09265137 -0.9907227 -0.09753418
vn 0.09265137 -0.9907227 -0.09753418
vn 0.09265137 -0.9907227 -0.09753418
vn 0.07800293 0.1048584 -0.9912109
vn 0.07800293 0.1048584 -0.9912109
vn 0.07800293 0.1048584 -0.9912109
vn 0.07800293 0.1048584 -0.9912109
vn -0.07800293 -0.1048584 0.9912109
vn -0.07800293 -0.1048584 0.9912109
vn -0.07800293 -0.1048584 0.9912109
vn -0.07800293 -0.1048584 0.9912109
vn 0.581543 -0.5834961 0.565918
vn 0.581543 -0.5834961 0.565918
vn 0.581543 -0.5834961 0.565918
vn 0.6713867 -0.4626465 -0.578125
vn 0.6713867 -0.4626465 -0.578125
vn 0.6713867 -0.4626465 -0.578125
vn 0.4743652 0.5600586 0.6787109
vn 0.4743652 0.5600586 0.6787109
vn 0.4743652 0.5600586 0.6787109
vn 0.5644531 0.6811523 -0.4655762
vn 0.5644531 0.6811523 -0.4655762
vn 0.5644531 0.6811523 -0.4655762
vn -0.6713867 0.4626465 0.578125
vn -0.6713867 0.4626465 0.578125
vn -0.6713867 0.4626465 0.578125
vn -0.5810547 0.5834961 -0.565918
vn -0.5810547 0.5834961 -0.565918
vn -0.5810547 0.5834961 -0.565918
vn -0.5644531 -0.6811523 0.4658203
vn -0.5644531 -0.6811523 0.4658203
vn -0.5644531 -0.6811523 0.4658203
vn -0.4743652 -0.5600586 -0.6787109
vn -0.4743652 -0.5600586 -0.6787109
vn -0.4743652 -0.5600586 -0.6787109

vt 0.7514648 0.6845703
vt 0.7514648 0.6298828
vt 0.7402344 0.6298828
vt 0.7402344 0.6845703
vt 0.4829102 0.244751
vt 0.559082 0.244751
vt 0.5605469 0.234375
vt 0.4816895 0.234375
vt 0.4724121 0.2432861
vt 0.4724121 0.2741699
vt 0.4829102 0.2727051
vt 0.4829102 0.244751
vt 0.8398438 0.6845703
vt 0.8398438 0.6298828
vt 0.8286133 0.6298828
vt 0.8286133 0.6845703
vt 0.559082 0.244751
vt 0.559082 0.2727051
vt 0.5698242 0.2741699
vt 0.5698242 0.2432861
vt 0.7148438 0.6904297
vt 0.7148438 0.7451172
vt 0.7255859 0.7451172
vt 0.7255859 0.6904297
vt 0.4816895 0.2832031
vt 0.5605469 0.2832031
vt 0.559082 0.2727051
vt 0.4829102 0.2727051
vt 0.8032227 0.6904297
vt 0.8032227 0.7451172
vt 0.8139648 0.7451172
vt 0.8139648 0.6904297
vt 0.7128906 0.293457
vt 0.7128906 0.2624512
vt 0.7021484 0.263916
vt 0.7021484 0.2919922
vt 0.7021484 0.2919922
vt 0.6259766 0.2919922
vt 0.6245117 0.3024902
vt 0.7036133 0.3024902
vt 0.6259766 0.2919922
vt 0.6259766 0.263916
vt 0.6157227 0.2624512
vt 0.6157227 0.293457
vt 0.7036133 0.253418
vt 0.6245117 0.253418
vt 0.6259766 0.263916
vt 0.7021484 0.263916
vt 0.4829102 0.244751
vt 0.4829102 0.2727051
vt 0.559082 0.2727051
vt 0.559082 0.244751
vt 0.7255859 0.6904297
vt 0.7255859 0.7451172
vt 0.8032227 0.7451172
vt 0.8032227 0.6904297
vt 0.7021484 0.2919922
vt 0.7021484 0.263916
vt 0.6259766 0.263916
vt 0.6259766 0.2919922
vt 0.7514648 0.6298828
vt 0.7514648 0.6845703
vt 0.8286133 0.6845703
vt 0.8286133 0.6298828
vt 0.8432617 0.6904297
vt 0.8139648 0.6904297
vt 0.8139648 0.7451172
vt 0.8432617 0.7451172
vt 0.6855469 0.7451172
vt 0.7148438 0.7451172
vt 0.7148438 0.6904297
vt 0.6855469 0.6904297
vt 0.4816895 0.234375
vt 0.4724121 0.2432861
vt 0.4829102 0.244751
vt 0.5698242 0.2432861
vt 0.5605469 0.234375
vt 0.559082 0.244751
vt 0.4724121 0.2741699
vt 0.4816895 0.2832031
vt 0.4829102 0.2727051
vt 0.5605469 0.2832031
vt 0.5698242 0.2741699
vt 0.559082 0.2727051
vt 0.7128906 0.293457
vt 0.7021484 0.2919922
vt 0.7036133 0.3024902
vt 0.6259766 0.2919922
vt 0.6157227 0.293457
vt 0.6245117 0.3024902
vt 0.7128906 0.2624512
vt 0.7036133 0.253418
vt 0.7021484 0.263916
vt 0.6245117 0.253418
vt 0.6157227 0.2624512
vt 0.6259766 0.263916

g Desert_Rock_05_(17)_636_219
usemtl Desert_Rock_05_(17)_636_219
usemap Desert_Rock_05_(17)_636_219
f 1/1/1 3/3/3 2/2/2
f 1/1/1 4/4/4 3/3/3
f 5/5/5 7/7/7 6/6/6
f 5/5/5 8/8/8 7/7/7
f 9/9/9 11/11/11 10/10/10
f 9/9/9 12/12/12 11/11/11
f 13/13/13 15/15/15 14/14/14
f 13/13/13 16/16/16 15/15/15
f 17/17/17 19/19/19 18/18/18
f 17/17/17 20/20/20 19/19/19
f 21/21/21 23/23/23 22/22/22
f 21/21/21 24/24/24 23/23/23
f 25/25/25 27/27/27 26/26/26
f 25/25/25 28/28/28 27/27/27
f 29/29/29 31/31/31 30/30/30
f 29/29/29 32/32/32 31/31/31
f 33/33/33 35/35/35 34/34/34
f 33/33/33 36/36/36 35/35/35
f 37/37/37 39/39/39 38/38/38
f 37/37/37 40/40/40 39/39/39
f 41/41/41 43/43/43 42/42/42
f 41/41/41 44/44/44 43/43/43
f 45/45/45 47/47/47 46/46/46
f 45/45/45 48/48/48 47/47/47
f 49/49/49 51/51/51 50/50/50
f 49/49/49 52/52/52 51/51/51
f 53/53/53 55/55/55 54/54/54
f 53/53/53 56/56/56 55/55/55
f 57/57/57 59/59/59 58/58/58
f 57/57/57 60/60/60 59/59/59
f 61/61/61 63/63/63 62/62/62
f 61/61/61 64/64/64 63/63/63
f 65/65/65 67/67/67 66/66/66
f 65/65/65 68/68/68 67/67/67
f 69/69/69 71/71/71 70/70/70
f 69/69/69 72/72/72 71/71/71
f 73/73/73 75/75/75 74/74/74
f 76/76/76 78/78/78 77/77/77
f 79/79/79 81/81/81 80/80/80
f 82/82/82 84/84/84 83/83/83
f 85/85/85 87/87/87 86/86/86
f 88/88/88 90/90/90 89/89/89
f 91/91/91 93/93/93 92/92/92
f 94/94/94 96/96/96 95/95/95
