#Desert_Sand_dune_01_(8)_680_88.obj

v -1.92713 -3.526135E-09 0.1313339
v -1.912089 -3.526135E-09 0.3579936
v -2.665369 -3.526135E-09 0.5486838
v -2.605787 1.494356E-07 0.2521239
v -0.7848741 -3.526135E-09 0.3571776
v -0.7804607 -4.196677E-08 0.08905368
v 0.2650473 1.569418E-08 0.1705191
v 0.2421366 -4.196677E-08 0.4750126
v 1.230569 7.255429E-08 0.6037503
v 1.289966 -3.526135E-09 0.2926609
v 2.07984 1.494356E-07 0.3880995
v 1.992907 1.494356E-07 0.6984281
v 2.530037 1.494356E-07 0.7980523
v 2.517462 -3.526135E-09 0.4279654
v 3.259319 -1.564878E-07 0.4855294
v 3.381994 -3.526135E-09 0.8339168
v 4.22059 6.06719E-07 0.2385799
v 4.52326 -3.086487E-07 0.4893454
v 4.332743 -3.526135E-09 0.09001622
v 4.807483 -3.526135E-09 0.2538255
v 4.381543 -3.526135E-09 -0.08605046
v 4.861457 3.015964E-07 0.03638379
v 4.090988 -3.086487E-07 -0.6724938
v 4.406578 -3.086487E-07 -0.8635391
v 3.435779 3.015964E-07 -1.786304
v 3.127604 -1.564878E-07 -1.498858
v 2.51735 -3.526135E-09 -1.912597
v 2.689325 -1.564878E-07 -2.202721
v 1.713098 -3.526135E-09 -2.569236
v 1.623729 1.494356E-07 -2.23238
v 0.3739209 -3.526135E-09 -2.336046
v 0.3494307 -4.196677E-08 -2.701834
v -0.9194425 -4.196677E-08 -2.561152
v -0.8046323 3.49145E-08 -2.215533
v -2.059544 1.494356E-07 -1.779626
v -2.262605 1.494356E-07 -2.055178
v -3.053087 1.494356E-07 -1.702574
v -2.774587 -3.526135E-09 -1.428691
v -3.688199 3.015964E-07 -0.918017
v -3.910359 3.015964E-07 -1.099207
v -4.30395 -3.086487E-07 -0.1024375
v -4.744996 3.015964E-07 0.01614705
v -4.295413 -3.086487E-07 0.08736023
v -4.735554 -3.086487E-07 0.2505476
v -4.215518 3.015964E-07 0.2507713
v -4.647186 -3.086487E-07 0.4523603
v -3.487272 -3.526135E-09 0.4651515
v -3.591499 3.015964E-07 0.7072026

vn -0.05767822 0.9433594 0.3266602
vn 0 1 0
vn 0 1 0
vn -0.04098511 0.9697266 0.2390137
vn 0 1 0
vn -0.07958984 0.9311523 0.3549805
vn -0.07867432 0.9365234 0.3410645
vn 0 1 0
vn 0 1 0
vn -0.06063843 0.9492188 0.3078613
vn -0.02735901 0.9624023 0.2685547
vn 0 1 -5.960464E-08
vn 1.788139E-07 1 -1.788139E-07
vn 0.0004410744 0.9775391 0.2084961
vn -0.005687714 0.9887695 0.1463623
vn 0 1 4.172325E-07
vn 0.02134705 0.9956055 0.08673096
vn 2.384186E-07 1 6.556511E-07
vn 0.09716797 0.9941406 0.04620361
vn 5.960464E-08 1 2.980232E-07
vn 0.1169434 0.9926758 -0.02587891
vn -3.576279E-07 1 -5.960464E-08
vn 0.1499023 0.9858398 -0.07202148
vn -2.384186E-07 1 5.960464E-08
vn -2.384186E-07 1 2.980232E-07
vn 0.196167 0.9741211 -0.1118164
vn 0.1875 0.9633789 -0.1899414
vn 0 1 0
vn 1.192093E-07 1 -1.788139E-07
vn 0.1168213 0.9604492 -0.2509766
vn 0.05621338 0.956543 -0.284668
vn 0 1 -1.192093E-07
vn 0 1 -5.960464E-08
vn -0.0216217 0.9555664 -0.2937012
vn -0.1019287 0.9526367 -0.286377
vn 0 1 0
vn 1.192093E-07 1 5.960464E-08
vn -0.1413574 0.9633789 -0.2258301
vn -0.09893799 0.9858398 -0.1317139
vn 4.172325E-07 1 4.172325E-07
vn -0.0758667 0.9951172 -0.05688477
vn 6.556511E-07 1 8.940697E-07
vn -0.09985352 0.9946289 0.003772736
vn -5.960464E-08 1 0
vn -0.04486084 0.996582 0.06903076
vn -5.364418E-07 1 -2.980232E-07
vn -0.02496338 0.9897461 0.1401367
vn -1.192093E-07 1 5.960464E-08

vt 0.2878418 0.345459
vt 0.3054199 0.3183594
vt 0.24646 0.2531738
vt 0.2312012 0.2927246
vt 0.4138184 0.3811035
vt 0.3952637 0.4143066
vt 0.5014648 0.4624023
vt 0.5209961 0.4238281
vt 0.625 0.4628906
vt 0.6088867 0.5043945
vt 0.6914063 0.5366211
vt 0.7050781 0.4936523
vt 0.7636719 0.5112305
vt 0.7363281 0.5556641
vt 0.8120117 0.5898438
vt 0.8486328 0.5541992
vt 0.887207 0.6738281
vt 0.934082 0.659668
vt 0.887207 0.6982422
vt 0.9448242 0.7045898
vt 0.8793945 0.7226563
vt 0.9345703 0.7338867
vt 0.8100586 0.7783203
vt 0.8271484 0.8193359
vt 0.668457 0.878418
vt 0.6586914 0.8256836
vt 0.5708008 0.8427734
vt 0.5668945 0.8876953
vt 0.4472656 0.878418
vt 0.4624023 0.8320313
vt 0.3347168 0.7753906
vt 0.3066406 0.8188477
vt 0.194458 0.730957
vt 0.2299805 0.6953125
vt 0.1400146 0.5722656
vt 0.1009521 0.5947266
vt 0.04986572 0.5073242
vt 0.0960083 0.489502
vt 0.04425049 0.3759766
vt 0.01006317 0.3859863
vt 0.04269409 0.2419434
vt 0.008651733 0.2028809
vt 0.0569458 0.2192383
vt 0.02613831 0.1746826
vt 0.07617188 0.2036133
vt 0.04891968 0.1549072
vt 0.161377 0.2177734
vt 0.168457 0.182373

g Desert_Sand_dune_01_(8)_680_88
usemtl Desert_Sand_dune_01_(8)_680_88
usemap Desert_Sand_dune_01_(8)_680_88
f 1/1/1 3/3/3 2/2/2
f 1/1/1 4/4/4 3/3/3
f 5/5/5 1/1/1 2/2/2
f 5/5/5 6/6/6 1/1/1
f 7/7/7 6/6/6 5/5/5
f 7/7/7 5/5/5 8/8/8
f 9/9/9 7/7/7 8/8/8
f 9/9/9 10/10/10 7/7/7
f 11/11/11 10/10/10 9/9/9
f 11/11/11 9/9/9 12/12/12
f 13/13/13 11/11/11 12/12/12
f 13/13/13 14/14/14 11/11/11
f 15/15/15 14/14/14 13/13/13
f 15/15/15 13/13/13 16/16/16
f 17/17/17 15/15/15 16/16/16
f 17/17/17 16/16/16 18/18/18
f 19/19/19 17/17/17 18/18/18
f 19/19/19 18/18/18 20/20/20
f 21/21/21 19/19/19 20/20/20
f 21/21/21 20/20/20 22/22/22
f 23/23/23 21/21/21 22/22/22
f 23/23/23 22/22/22 24/24/24
f 25/25/25 23/23/23 24/24/24
f 25/25/25 26/26/26 23/23/23
f 27/27/27 26/26/26 25/25/25
f 27/27/27 25/25/25 28/28/28
f 29/29/29 27/27/27 28/28/28
f 29/29/29 30/30/30 27/27/27
f 31/31/31 30/30/30 29/29/29
f 31/31/31 29/29/29 32/32/32
f 33/33/33 31/31/31 32/32/32
f 33/33/33 34/34/34 31/31/31
f 35/35/35 34/34/34 33/33/33
f 35/35/35 33/33/33 36/36/36
f 37/37/37 35/35/35 36/36/36
f 37/37/37 38/38/38 35/35/35
f 39/39/39 38/38/38 37/37/37
f 39/39/39 37/37/37 40/40/40
f 41/41/41 39/39/39 40/40/40
f 41/41/41 40/40/40 42/42/42
f 43/43/43 41/41/41 42/42/42
f 43/43/43 42/42/42 44/44/44
f 45/45/45 43/43/43 44/44/44
f 45/45/45 44/44/44 46/46/46
f 47/47/47 45/45/45 46/46/46
f 47/47/47 46/46/46 48/48/48
f 3/3/3 47/47/47 48/48/48
f 3/3/3 4/4/4 47/47/47
