#Desert_Sand_dune_01_(1)_585_73.obj

v 4.22059 6.02956E-07 0.2385806
v 2.995597 0.2895657 -0.3930794
v 3.035364 0.2955918 -0.5010661
v 4.332742 -7.263074E-09 0.09001504
v 3.07396 0.2831765 -0.663337
v 4.381543 -7.263074E-09 -0.08605086
v 3.259319 -1.599103E-07 0.4855301
v 2.517463 -7.263074E-09 0.4279681
v 3.127604 -1.599103E-07 -1.498856
v 4.090989 -3.125574E-07 -0.672492
v 2.51735 -7.263074E-09 -1.912597
v 2.257202 0.5063468 -0.9938745
v 1.62373 1.453841E-07 -2.232378
v 1.338231 0.6450294 -1.140656
v 2.217645 0.5276183 -0.8151555
v 1.3166 0.6672152 -0.9589996
v 2.168957 0.5137561 -0.6381798
v 1.289695 0.6420645 -0.7783806
v 2.07984 1.453841E-07 0.3880985
v 1.289967 -7.263074E-09 0.292664
v 0.3739218 -7.263074E-09 -2.336043
v 0.1028687 0.7119356 -1.159852
v -0.8046318 3.080632E-08 -2.215532
v -0.9186977 0.6614512 -1.144192
v 0.1044257 0.7331527 -0.9777235
v -0.9005679 0.6827146 -0.9621968
v 0.106809 0.6969622 -0.7968493
v -0.8771365 0.6502035 -0.781803
v 0.2650477 1.195643E-08 0.1705192
v -0.78046 -4.533247E-08 0.08905371
v -2.059543 1.453841E-07 -1.779625
v -2.015676 0.4912399 -0.961601
v -2.774587 -7.263074E-09 -1.42869
v -3.038431 0.2394905 -0.5993419
v -1.97939 0.5115988 -0.7825775
v -3.020573 0.2496156 -0.4350242
v -1.933479 0.4907013 -0.6060719
v -2.966401 0.2401335 -0.2799427
v -1.92713 -7.263074E-09 0.1313336
v -2.605787 1.453841E-07 0.2521261
v -4.303949 -3.125574E-07 -0.1024365
v -3.688199 2.980313E-07 -0.918016
v -4.295413 -3.125574E-07 0.08736239
v -4.215517 2.980313E-07 0.250772
v -3.487271 -7.263074E-09 0.465153

vn 0.03594971 0.9921875 0.1152954
vn 0.05691528 0.9516602 0.3015137
vn 0.2408447 0.9667969 0.08190918
vn 0.1347656 0.9892578 0.05429077
vn 0.3417969 0.9238281 -0.1717529
vn 0.1552734 0.9868164 -0.04440308
vn 0.004322052 0.9799805 0.1968994
vn 0.01747131 0.9604492 0.2773438
vn 0.2509766 0.9536133 -0.1641846
vn 0.1948242 0.9746094 -0.1086426
vn 0.2315674 0.9355469 -0.2648926
vn 0.310791 0.8974609 -0.3127441
vn 0.1333008 0.9311523 -0.338623
vn 0.1619873 0.8969727 -0.4104004
vn 0.2260742 0.9726563 0.0508728
vn 0.1064453 0.9936523 0.02836609
vn 0.009223938 0.9174805 0.3967285
vn -0.04608154 0.8916016 0.4499512
vn -0.01448059 0.9345703 0.3552246
vn -0.05453491 0.9121094 0.4055176
vn 0.05090332 0.9243164 -0.3771973
vn 0.04772949 0.890625 -0.451416
vn -0.05163574 0.9223633 -0.3823242
vn -0.09552002 0.8769531 -0.470459
vn 0.004047394 0.9995117 0.02885437
vn -0.1205444 0.9921875 0.01683044
vn -0.08294678 0.8652344 0.4943848
vn -0.09527588 0.8603516 0.5
vn -0.07470703 0.8916016 0.4460449
vn -0.07446289 0.8833008 0.4621582
vn -0.1557617 0.9174805 -0.3654785
vn -0.2270508 0.8740234 -0.4287109
vn -0.2041016 0.9360352 -0.2856445
vn -0.2556152 0.9282227 -0.2695313
vn -0.2200928 0.9750977 0.01293182
vn -0.2298584 0.9726563 0.01570129
vn -0.08953857 0.8833008 0.4599609
vn -0.08685303 0.9482422 0.3044434
vn -0.0489502 0.9023438 0.4277344
vn -0.03494263 0.9467773 0.3193359
vn -0.1069946 0.9916992 -0.07049561
vn -0.1431885 0.9750977 -0.168335
vn -0.1343994 0.9907227 0.01329041
vn -0.05490112 0.9936523 0.09692383
vn -0.02206421 0.9814453 0.1901855

vt 0.887207 0.6738281
vt 0.7246094 0.6831055
vt 0.7207031 0.6987305
vt 0.887207 0.6982422
vt 0.7128906 0.7207031
vt 0.8793945 0.7226563
vt 0.8120117 0.5898438
vt 0.7363281 0.5556641
vt 0.6586914 0.8256836
vt 0.8100586 0.7783203
vt 0.5708008 0.8427734
vt 0.6108398 0.7158203
vt 0.4624023 0.8320313
vt 0.512207 0.6826172
vt 0.6196289 0.6914063
vt 0.5229492 0.6591797
vt 0.6274414 0.6669922
vt 0.5332031 0.6352539
vt 0.6914063 0.5366211
vt 0.6088867 0.5043945
vt 0.3347168 0.7753906
vt 0.3918457 0.6162109
vt 0.2299805 0.6953125
vt 0.2946777 0.5576172
vt 0.4050293 0.5942383
vt 0.3093262 0.5361328
vt 0.4179688 0.5717773
vt 0.3242188 0.515625
vt 0.5014648 0.4624023
vt 0.3952637 0.4143066
vt 0.1400146 0.5722656
vt 0.2021484 0.4743652
vt 0.0960083 0.489502
vt 0.1292725 0.3730469
vt 0.2182617 0.4543457
vt 0.1425781 0.3540039
vt 0.2351074 0.4353027
vt 0.1588135 0.3378906
vt 0.2878418 0.345459
vt 0.2312012 0.2927246
vt 0.04269409 0.2419434
vt 0.04425049 0.3759766
vt 0.0569458 0.2192383
vt 0.07617188 0.2036133
vt 0.161377 0.2177734

g Desert_Sand_dune_01_(1)_585_73
usemtl Desert_Sand_dune_01_(1)_585_73
usemap Desert_Sand_dune_01_(1)_585_73
f 1/1/1 3/3/3 2/2/2
f 1/1/1 4/4/4 3/3/3
f 4/4/4 5/5/5 3/3/3
f 4/4/4 6/6/6 5/5/5
f 2/2/2 7/7/7 1/1/1
f 2/2/2 8/8/8 7/7/7
f 9/9/9 5/5/5 6/6/6
f 9/9/9 6/6/6 10/10/10
f 11/11/11 5/5/5 9/9/9
f 11/11/11 12/12/12 5/5/5
f 3/3/3 5/5/5 12/12/12
f 13/13/13 12/12/12 11/11/11
f 13/13/13 14/14/14 12/12/12
f 15/15/15 12/12/12 14/14/14
f 3/3/3 12/12/12 15/15/15
f 2/2/2 3/3/3 15/15/15
f 15/15/15 14/14/14 16/16/16
f 17/17/17 15/15/15 16/16/16
f 2/2/2 15/15/15 17/17/17
f 17/17/17 8/8/8 2/2/2
f 17/17/17 16/16/16 18/18/18
f 18/18/18 19/19/19 17/17/17
f 17/17/17 19/19/19 8/8/8
f 18/18/18 20/20/20 19/19/19
f 21/21/21 14/14/14 13/13/13
f 21/21/21 22/22/22 14/14/14
f 16/16/16 14/14/14 22/22/22
f 23/23/23 22/22/22 21/21/21
f 23/23/23 24/24/24 22/22/22
f 24/24/24 25/25/25 22/22/22
f 16/16/16 22/22/22 25/25/25
f 18/18/18 16/16/16 25/25/25
f 24/24/24 26/26/26 25/25/25
f 26/26/26 27/27/27 25/25/25
f 18/18/18 25/25/25 27/27/27
f 27/27/27 20/20/20 18/18/18
f 26/26/26 28/28/28 27/27/27
f 28/28/28 29/29/29 27/27/27
f 27/27/27 29/29/29 20/20/20
f 28/28/28 30/30/30 29/29/29
f 31/31/31 24/24/24 23/23/23
f 31/31/31 32/32/32 24/24/24
f 32/32/32 26/26/26 24/24/24
f 33/33/33 32/32/32 31/31/31
f 33/33/33 34/34/34 32/32/32
f 34/34/34 35/35/35 32/32/32
f 32/32/32 35/35/35 26/26/26
f 35/35/35 28/28/28 26/26/26
f 34/34/34 36/36/36 35/35/35
f 36/36/36 37/37/37 35/35/35
f 35/35/35 37/37/37 28/28/28
f 37/37/37 30/30/30 28/28/28
f 36/36/36 38/38/38 37/37/37
f 38/38/38 39/39/39 37/37/37
f 37/37/37 39/39/39 30/30/30
f 38/38/38 40/40/40 39/39/39
f 41/41/41 34/34/34 33/33/33
f 41/41/41 36/36/36 34/34/34
f 41/41/41 33/33/33 42/42/42
f 41/41/41 43/43/43 36/36/36
f 43/43/43 38/38/38 36/36/36
f 43/43/43 44/44/44 38/38/38
f 45/45/45 38/38/38 44/44/44
f 45/45/45 40/40/40 38/38/38
