#Desert_Sand_dune_01_(24)_482_62.obj

v -1.92713 -5.870464E-08 0.131332
v -1.912089 -5.870464E-08 0.3579925
v -2.665369 -5.870464E-08 0.5486825
v -2.605787 9.505733E-08 0.2521231
v -0.7848738 -5.870464E-08 0.3571772
v -0.7804604 -9.488392E-08 0.08905222
v 0.2650476 -4.061499E-08 0.1705168
v 0.2421367 -9.488392E-08 0.475011
v 1.23057 1.817635E-08 0.603748
v 1.289966 -5.870464E-08 0.2926608
v 2.079841 9.505733E-08 0.3880979
v 1.992907 9.505733E-08 0.6984283
v 2.530037 9.505733E-08 0.7980506
v 2.517463 -5.870464E-08 0.4279652
v 3.25932 -2.124666E-07 0.4855301
v 3.381994 -5.870464E-08 0.8339159
v 4.220591 5.518208E-07 0.2385793
v 4.523261 -3.617062E-07 0.4893453
v 4.332744 -5.870464E-08 0.09001432
v 4.807484 -5.870464E-08 0.2538255
v 4.381544 -5.870464E-08 -0.08605141
v 4.861459 2.442969E-07 0.03638382
v 4.090989 -3.617062E-07 -0.6724953
v 4.406578 -3.617062E-07 -0.86354
v 3.43578 2.442969E-07 -1.786306
v 3.127605 -2.124666E-07 -1.49886
v 2.517351 -5.870464E-08 -1.912599
v 2.689326 -2.124666E-07 -2.202723
v 1.713099 -5.870464E-08 -2.569237
v 1.62373 9.505733E-08 -2.232381
v 0.3739219 -5.870464E-08 -2.336047
v 0.3494315 -9.488392E-08 -2.701836
v -0.9194422 -9.488392E-08 -2.561153
v -0.8046319 -2.252535E-08 -2.215534
v -2.059543 9.505733E-08 -1.779627
v -2.262604 9.505733E-08 -2.055179
v -3.053087 9.505733E-08 -1.702575
v -2.774587 -5.870464E-08 -1.428693
v -3.688199 2.442969E-07 -0.9180193
v -3.910358 2.442969E-07 -1.099208
v -4.30395 -3.617062E-07 -0.1024395
v -4.744997 2.442969E-07 0.01614496
v -4.295413 -3.617062E-07 0.08735889
v -4.735555 -3.617062E-07 0.2505457
v -4.215517 2.442969E-07 0.2507709
v -4.647187 -3.617062E-07 0.4523595
v -3.487271 -5.870464E-08 0.4651505
v -3.591499 2.442969E-07 0.7072008

vn -0.1425781 0.9433594 -0.2993164
vn 0 1 0
vn 0 1 0
vn -0.1053467 0.9697266 -0.2183838
vn 0 1 0
vn -0.1412354 0.9311523 -0.3352051
vn -0.1339111 0.9365234 -0.3234863
vn 0 1 0
vn 0 1 0
vn -0.1293945 0.9492188 -0.2858887
vn -0.1335449 0.9624023 -0.2346191
vn 0 1 5.960464E-08
vn 0 1 2.980232E-07
vn -0.1213989 0.9775391 -0.1695557
vn -0.08032227 0.9887695 -0.1224976
vn -2.980232E-07 1 -2.980232E-07
vn -0.06768799 0.9956055 -0.05822754
vn -5.960464E-07 1 -3.576279E-07
vn -0.105957 0.9941406 0.01878357
vn -2.384186E-07 1 -2.384186E-07
vn -0.0802002 0.9926758 0.08892822
vn 2.980232E-07 1 -1.192093E-07
vn -0.0802002 0.9858398 0.1456299
vn 1.192093E-07 1 -2.384186E-07
vn 0 1 -4.172325E-07
vn -0.0947876 0.9741211 0.2049561
vn -0.04244995 0.9633789 0.2634277
vn 0 1 0
vn 0 1 1.788139E-07
vn 0.05050659 0.9604492 0.2722168
vn 0.1195068 0.956543 0.2644043
vn 5.960464E-08 1 1.192093E-07
vn 0 1 5.960464E-08
vn 0.1881104 0.9555664 0.2265625
vn 0.2492676 0.9526367 0.1739502
vn 0 1 0
vn -1.192093E-07 1 0
vn 0.2462158 0.9633789 0.1018066
vn 0.1569824 0.9858398 0.04983521
vn -5.960464E-07 1 -5.960464E-08
vn 0.0947876 0.9951172 0.002298355
vn -1.072884E-06 1 -3.576279E-07
vn 0.07910156 0.9946289 -0.06103516
vn 5.960464E-08 1 0
vn -0.003549576 0.996582 -0.08227539
vn 5.960464E-07 1 0
vn -0.06100464 0.9897461 -0.12854
vn 5.960464E-08 1 -1.192093E-07

vt 0.2878418 0.345459
vt 0.3054199 0.3183594
vt 0.24646 0.2531738
vt 0.2312012 0.2927246
vt 0.4138184 0.3811035
vt 0.3952637 0.4143066
vt 0.5014648 0.4624023
vt 0.5209961 0.4238281
vt 0.625 0.4628906
vt 0.6088867 0.5043945
vt 0.6914063 0.5366211
vt 0.7050781 0.4936523
vt 0.7636719 0.5112305
vt 0.7363281 0.5556641
vt 0.8120117 0.5898438
vt 0.8486328 0.5541992
vt 0.887207 0.6738281
vt 0.934082 0.659668
vt 0.887207 0.6982422
vt 0.9448242 0.7045898
vt 0.8793945 0.7226563
vt 0.9345703 0.7338867
vt 0.8100586 0.7783203
vt 0.8271484 0.8193359
vt 0.668457 0.878418
vt 0.6586914 0.8256836
vt 0.5708008 0.8427734
vt 0.5668945 0.8876953
vt 0.4472656 0.878418
vt 0.4624023 0.8320313
vt 0.3347168 0.7753906
vt 0.3066406 0.8188477
vt 0.194458 0.730957
vt 0.2299805 0.6953125
vt 0.1400146 0.5722656
vt 0.1009521 0.5947266
vt 0.04986572 0.5073242
vt 0.0960083 0.489502
vt 0.04425049 0.3759766
vt 0.01006317 0.3859863
vt 0.04269409 0.2419434
vt 0.008651733 0.2028809
vt 0.0569458 0.2192383
vt 0.02613831 0.1746826
vt 0.07617188 0.2036133
vt 0.04891968 0.1549072
vt 0.161377 0.2177734
vt 0.168457 0.182373

g Desert_Sand_dune_01_(24)_482_62
usemtl Desert_Sand_dune_01_(24)_482_62
usemap Desert_Sand_dune_01_(24)_482_62
f 1/1/1 3/3/3 2/2/2
f 1/1/1 4/4/4 3/3/3
f 5/5/5 1/1/1 2/2/2
f 5/5/5 6/6/6 1/1/1
f 7/7/7 6/6/6 5/5/5
f 7/7/7 5/5/5 8/8/8
f 9/9/9 7/7/7 8/8/8
f 9/9/9 10/10/10 7/7/7
f 11/11/11 10/10/10 9/9/9
f 11/11/11 9/9/9 12/12/12
f 13/13/13 11/11/11 12/12/12
f 13/13/13 14/14/14 11/11/11
f 15/15/15 14/14/14 13/13/13
f 15/15/15 13/13/13 16/16/16
f 17/17/17 15/15/15 16/16/16
f 17/17/17 16/16/16 18/18/18
f 19/19/19 17/17/17 18/18/18
f 19/19/19 18/18/18 20/20/20
f 21/21/21 19/19/19 20/20/20
f 21/21/21 20/20/20 22/22/22
f 23/23/23 21/21/21 22/22/22
f 23/23/23 22/22/22 24/24/24
f 25/25/25 23/23/23 24/24/24
f 25/25/25 26/26/26 23/23/23
f 27/27/27 26/26/26 25/25/25
f 27/27/27 25/25/25 28/28/28
f 29/29/29 27/27/27 28/28/28
f 29/29/29 30/30/30 27/27/27
f 31/31/31 30/30/30 29/29/29
f 31/31/31 29/29/29 32/32/32
f 33/33/33 31/31/31 32/32/32
f 33/33/33 34/34/34 31/31/31
f 35/35/35 34/34/34 33/33/33
f 35/35/35 33/33/33 36/36/36
f 37/37/37 35/35/35 36/36/36
f 37/37/37 38/38/38 35/35/35
f 39/39/39 38/38/38 37/37/37
f 39/39/39 37/37/37 40/40/40
f 41/41/41 39/39/39 40/40/40
f 41/41/41 40/40/40 42/42/42
f 43/43/43 41/41/41 42/42/42
f 43/43/43 42/42/42 44/44/44
f 45/45/45 43/43/43 44/44/44
f 45/45/45 44/44/44 46/46/46
f 47/47/47 45/45/45 46/46/46
f 47/47/47 46/46/46 48/48/48
f 3/3/3 47/47/47 48/48/48
f 3/3/3 4/4/4 47/47/47
