#Desert_Sand_dune_01_(9)_613_98.obj

v 4.220591 5.638376E-07 0.2385793
v 2.995598 0.2895657 -0.3930827
v 3.035365 0.2955918 -0.5010685
v 4.332744 -4.783113E-08 0.09001408
v 3.073961 0.2831765 -0.6633394
v 4.381544 -4.783113E-08 -0.08605193
v 3.25932 -1.989059E-07 0.4855293
v 2.517463 -4.783113E-08 0.4279645
v 3.127605 -1.989059E-07 -1.498859
v 4.090989 -3.536655E-07 -0.6724958
v 2.517351 -4.783113E-08 -1.9126
v 2.257203 0.5063466 -0.9938766
v 1.62373 1.032437E-07 -2.232381
v 1.338232 0.6450294 -1.140659
v 2.217645 0.5276183 -0.8151587
v 1.3166 0.6672151 -0.9590023
v 2.168957 0.513756 -0.6381828
v 1.289696 0.6420644 -0.7783836
v 2.079841 1.032437E-07 0.3880979
v 1.289967 -4.783113E-08 0.2926603
v 0.3739219 -4.783113E-08 -2.336047
v 0.1028693 0.7119356 -1.159854
v -0.8046315 -1.098361E-08 -2.215534
v -0.9186969 0.6614512 -1.144196
v 0.104426 0.7331527 -0.9777266
v -0.9005671 0.6827145 -0.9622006
v 0.1068094 0.6969621 -0.7968525
v -0.8771362 0.6502035 -0.7818069
v 0.2650481 -2.940737E-08 0.1705159
v -0.7804598 -8.467864E-08 0.08905213
v -2.059543 1.032437E-07 -1.779628
v -2.015675 0.4912399 -0.9616047
v -2.774586 -4.783113E-08 -1.428694
v -3.038431 0.2394905 -0.599345
v -1.97939 0.5115988 -0.7825814
v -3.020573 0.2496155 -0.4350266
v -1.933479 0.4907013 -0.6060746
v -2.966401 0.2401334 -0.2799462
v -1.927129 -4.783113E-08 0.1313308
v -2.605786 1.032437E-07 0.252122
v -4.30395 -3.536655E-07 -0.1024399
v -3.688198 2.580032E-07 -0.9180193
v -4.295412 -3.536655E-07 0.08735867
v -4.215517 2.580032E-07 0.2507704
v -3.487271 -4.783113E-08 0.4651493

vn 0.03530884 0.9956055 0.08203125
vn 0.06628418 0.9726563 0.2215576
vn 0.1855469 0.9814453 0.04220581
vn 0.1034546 0.9941406 0.02961731
vn 0.2458496 0.9560547 -0.1574707
vn 0.111084 0.9926758 -0.04473877
vn 0.01843262 0.9887695 0.1452637
vn 0.03469849 0.9775391 0.2056885
vn 0.1750488 0.9741211 -0.1425781
vn 0.1359863 0.9858398 -0.09570313
vn 0.1538086 0.9633789 -0.2182617
vn 0.213501 0.9399414 -0.2648926
vn 0.07403564 0.9604492 -0.2666016
vn 0.0914917 0.9399414 -0.328125
vn 0.1717529 0.9848633 0.0202179
vn 0.08044434 0.996582 0.01265717
vn 0.03857422 0.9526367 0.3010254
vn 0.0007677078 0.9365234 0.3500977
vn 0.01713562 0.9624023 0.2692871
vn -0.009231567 0.9492188 0.3137207
vn 0.008674622 0.956543 -0.2900391
vn 0.0003974438 0.9360352 -0.3513184
vn -0.06958008 0.9555664 -0.2861328
vn -0.1121826 0.9272461 -0.3569336
vn 0.005180359 0.9995117 0.02084351
vn -0.08734131 0.9956055 0.02165222
vn -0.02433777 0.9194336 0.3918457
vn -0.0335083 0.9165039 0.3984375
vn -0.02159119 0.9365234 0.3493652
vn -0.02018738 0.9311523 0.3630371
vn -0.147583 0.9526367 -0.265625
vn -0.2109375 0.925293 -0.314209
vn -0.1766357 0.9633789 -0.1994629
vn -0.2150879 0.9589844 -0.1838379
vn -0.1621094 0.9863281 0.02664185
vn -0.1694336 0.9848633 0.02949524
vn -0.03198242 0.9311523 0.3625488
vn -0.04125977 0.9707031 0.2353516
vn -0.003234863 0.9433594 0.331543
vn -0.001158714 0.9697266 0.2425537
vn -0.08416748 0.9951172 -0.04364014
vn -0.1192627 0.9858398 -0.1137085
vn -0.09790039 0.9946289 0.02012634
vn -0.03289795 0.996582 0.07543945
vn -0.001607895 0.9897461 0.142334

vt 0.887207 0.6738281
vt 0.7246094 0.6831055
vt 0.7207031 0.6987305
vt 0.887207 0.6982422
vt 0.7128906 0.7207031
vt 0.8793945 0.7226563
vt 0.8120117 0.5898438
vt 0.7363281 0.5556641
vt 0.6586914 0.8256836
vt 0.8100586 0.7783203
vt 0.5708008 0.8427734
vt 0.6108398 0.7158203
vt 0.4624023 0.8320313
vt 0.512207 0.6826172
vt 0.6196289 0.6914063
vt 0.5229492 0.6591797
vt 0.6274414 0.6669922
vt 0.5332031 0.6352539
vt 0.6914063 0.5366211
vt 0.6088867 0.5043945
vt 0.3347168 0.7753906
vt 0.3918457 0.6162109
vt 0.2299805 0.6953125
vt 0.2946777 0.5576172
vt 0.4050293 0.5942383
vt 0.3093262 0.5361328
vt 0.4179688 0.5717773
vt 0.3242188 0.515625
vt 0.5014648 0.4624023
vt 0.3952637 0.4143066
vt 0.1400146 0.5722656
vt 0.2021484 0.4743652
vt 0.0960083 0.489502
vt 0.1292725 0.3730469
vt 0.2182617 0.4543457
vt 0.1425781 0.3540039
vt 0.2351074 0.4353027
vt 0.1588135 0.3378906
vt 0.2878418 0.345459
vt 0.2312012 0.2927246
vt 0.04269409 0.2419434
vt 0.04425049 0.3759766
vt 0.0569458 0.2192383
vt 0.07617188 0.2036133
vt 0.161377 0.2177734

g Desert_Sand_dune_01_(9)_613_98
usemtl Desert_Sand_dune_01_(9)_613_98
usemap Desert_Sand_dune_01_(9)_613_98
f 1/1/1 3/3/3 2/2/2
f 1/1/1 4/4/4 3/3/3
f 4/4/4 5/5/5 3/3/3
f 4/4/4 6/6/6 5/5/5
f 2/2/2 7/7/7 1/1/1
f 2/2/2 8/8/8 7/7/7
f 9/9/9 5/5/5 6/6/6
f 9/9/9 6/6/6 10/10/10
f 11/11/11 5/5/5 9/9/9
f 11/11/11 12/12/12 5/5/5
f 3/3/3 5/5/5 12/12/12
f 13/13/13 12/12/12 11/11/11
f 13/13/13 14/14/14 12/12/12
f 15/15/15 12/12/12 14/14/14
f 3/3/3 12/12/12 15/15/15
f 2/2/2 3/3/3 15/15/15
f 15/15/15 14/14/14 16/16/16
f 17/17/17 15/15/15 16/16/16
f 2/2/2 15/15/15 17/17/17
f 17/17/17 8/8/8 2/2/2
f 17/17/17 16/16/16 18/18/18
f 18/18/18 19/19/19 17/17/17
f 17/17/17 19/19/19 8/8/8
f 18/18/18 20/20/20 19/19/19
f 21/21/21 14/14/14 13/13/13
f 21/21/21 22/22/22 14/14/14
f 16/16/16 14/14/14 22/22/22
f 23/23/23 22/22/22 21/21/21
f 23/23/23 24/24/24 22/22/22
f 24/24/24 25/25/25 22/22/22
f 16/16/16 22/22/22 25/25/25
f 18/18/18 16/16/16 25/25/25
f 24/24/24 26/26/26 25/25/25
f 26/26/26 27/27/27 25/25/25
f 18/18/18 25/25/25 27/27/27
f 27/27/27 20/20/20 18/18/18
f 26/26/26 28/28/28 27/27/27
f 28/28/28 29/29/29 27/27/27
f 27/27/27 29/29/29 20/20/20
f 28/28/28 30/30/30 29/29/29
f 31/31/31 24/24/24 23/23/23
f 31/31/31 32/32/32 24/24/24
f 32/32/32 26/26/26 24/24/24
f 33/33/33 32/32/32 31/31/31
f 33/33/33 34/34/34 32/32/32
f 34/34/34 35/35/35 32/32/32
f 32/32/32 35/35/35 26/26/26
f 35/35/35 28/28/28 26/26/26
f 34/34/34 36/36/36 35/35/35
f 36/36/36 37/37/37 35/35/35
f 35/35/35 37/37/37 28/28/28
f 37/37/37 30/30/30 28/28/28
f 36/36/36 38/38/38 37/37/37
f 38/38/38 39/39/39 37/37/37
f 37/37/37 39/39/39 30/30/30
f 38/38/38 40/40/40 39/39/39
f 41/41/41 34/34/34 33/33/33
f 41/41/41 36/36/36 34/34/34
f 41/41/41 33/33/33 42/42/42
f 41/41/41 43/43/43 36/36/36
f 43/43/43 38/38/38 36/36/36
f 43/43/43 44/44/44 38/38/38
f 45/45/45 38/38/38 44/44/44
f 45/45/45 40/40/40 38/38/38
