#Desert_Sand_dune_01_(23)_499_58.obj

v -1.92713 -5.870464E-08 0.1313319
v -1.912089 -5.870464E-08 0.3579922
v -2.665369 -5.870464E-08 0.5486826
v -2.605787 9.505733E-08 0.2521233
v -0.7848742 -5.870464E-08 0.3571773
v -0.7804609 -9.488392E-08 0.08905253
v 0.2650468 -4.061499E-08 0.1705168
v 0.2421362 -9.488392E-08 0.4750109
v 1.230569 1.817635E-08 0.6037483
v 1.289966 -5.870464E-08 0.2926607
v 2.079839 9.505733E-08 0.3880981
v 1.992906 9.505733E-08 0.6984283
v 2.530036 9.505733E-08 0.7980507
v 2.517462 -5.870464E-08 0.427965
v 3.259319 -2.124666E-07 0.4855297
v 3.381994 -5.870464E-08 0.833916
v 4.220589 5.518208E-07 0.2385793
v 4.523259 -3.617062E-07 0.4893458
v 4.332743 -5.870464E-08 0.09001425
v 4.807482 -5.870464E-08 0.2538252
v 4.381542 -5.870464E-08 -0.08605181
v 4.861458 2.442969E-07 0.03638338
v 4.090988 -3.617062E-07 -0.6724949
v 4.406577 -3.617062E-07 -0.8635401
v 3.435779 2.442969E-07 -1.786306
v 3.127604 -2.124666E-07 -1.498859
v 2.517349 -5.870464E-08 -1.912598
v 2.689325 -2.124666E-07 -2.202722
v 1.713099 -5.870464E-08 -2.569236
v 1.62373 9.505733E-08 -2.232381
v 0.3739208 -5.870464E-08 -2.336046
v 0.3494307 -9.488392E-08 -2.701835
v -0.9194429 -9.488392E-08 -2.561153
v -0.8046324 -2.252535E-08 -2.215534
v -2.059544 9.505733E-08 -1.779627
v -2.262605 9.505733E-08 -2.055179
v -3.053087 9.505733E-08 -1.702575
v -2.774587 -5.870464E-08 -1.428692
v -3.6882 2.442969E-07 -0.9180186
v -3.910359 2.442969E-07 -1.099208
v -4.303951 -3.617062E-07 -0.1024394
v -4.744997 2.442969E-07 0.01614489
v -4.295414 -3.617062E-07 0.08735897
v -4.735555 -3.617062E-07 0.2505464
v -4.215518 2.442969E-07 0.2507711
v -4.647186 -3.617062E-07 0.4523596
v -3.487272 -5.870464E-08 0.4651502
v -3.591499 2.442969E-07 0.7072011

vn 0.1490479 0.9433594 -0.2961426
vn 0 1 0
vn 0 1 0
vn 0.1079712 0.9697266 -0.2171631
vn 0 1 0
vn 0.1782227 0.9311523 -0.3168945
vn 0.1734619 0.9365234 -0.3041992
vn 0 1 0
vn 0 1 0
vn 0.1466064 0.9492188 -0.2775879
vn 0.1033936 0.9624023 -0.2493896
vn 0 1 5.960464E-08
vn -2.384186E-07 1 1.192093E-07
vn 0.05953979 0.9775391 -0.1998291
vn 0.04751587 0.9887695 -0.1385498
vn 5.960464E-08 1 -4.172325E-07
vn 0.004486084 0.9956055 -0.08917236
vn -5.960464E-08 1 -6.556511E-07
vn -0.07977295 0.9941406 -0.07220459
vn 0 1 -3.576279E-07
vn -0.1194458 0.9926758 -0.008834839
vn 2.980232E-07 1 1.192093E-07
vn -0.1643066 0.9858398 0.02589417
vn 2.980232E-07 1 0
vn 3.576279E-07 1 -1.788139E-07
vn -0.2199707 0.9741211 0.05072021
vn -0.2342529 0.9633789 0.1280518
vn 0 1 0
vn -1.192093E-07 1 1.192093E-07
vn -0.184082 0.9604492 0.2067871
vn -0.1357422 0.956543 0.2565918
vn -5.960464E-08 1 1.192093E-07
vn 0 1 5.960464E-08
vn -0.0637207 0.9555664 0.2873535
vn 0.01531982 0.9526367 0.3034668
vn 0 1 0
vn -5.960464E-08 1 -1.192093E-07
vn 0.07049561 0.9633789 0.2568359
vn 0.05688477 0.9858398 0.1546631
vn -2.384186E-07 1 -5.364418E-07
vn 0.05630493 0.9951172 0.07629395
vn -3.576279E-07 1 -1.072884E-06
vn 0.09674072 0.9946289 0.02510071
vn 5.960464E-08 1 0
vn 0.06280518 0.996582 -0.05322266
vn 4.172325E-07 1 4.172325E-07
vn 0.06420898 0.9897461 -0.1269531
vn 1.192093E-07 1 0

vt 0.2878418 0.345459
vt 0.3054199 0.3183594
vt 0.24646 0.2531738
vt 0.2312012 0.2927246
vt 0.4138184 0.3811035
vt 0.3952637 0.4143066
vt 0.5014648 0.4624023
vt 0.5209961 0.4238281
vt 0.625 0.4628906
vt 0.6088867 0.5043945
vt 0.6914063 0.5366211
vt 0.7050781 0.4936523
vt 0.7636719 0.5112305
vt 0.7363281 0.5556641
vt 0.8120117 0.5898438
vt 0.8486328 0.5541992
vt 0.887207 0.6738281
vt 0.934082 0.659668
vt 0.887207 0.6982422
vt 0.9448242 0.7045898
vt 0.8793945 0.7226563
vt 0.9345703 0.7338867
vt 0.8100586 0.7783203
vt 0.8271484 0.8193359
vt 0.668457 0.878418
vt 0.6586914 0.8256836
vt 0.5708008 0.8427734
vt 0.5668945 0.8876953
vt 0.4472656 0.878418
vt 0.4624023 0.8320313
vt 0.3347168 0.7753906
vt 0.3066406 0.8188477
vt 0.194458 0.730957
vt 0.2299805 0.6953125
vt 0.1400146 0.5722656
vt 0.1009521 0.5947266
vt 0.04986572 0.5073242
vt 0.0960083 0.489502
vt 0.04425049 0.3759766
vt 0.01006317 0.3859863
vt 0.04269409 0.2419434
vt 0.008651733 0.2028809
vt 0.0569458 0.2192383
vt 0.02613831 0.1746826
vt 0.07617188 0.2036133
vt 0.04891968 0.1549072
vt 0.161377 0.2177734
vt 0.168457 0.182373

g Desert_Sand_dune_01_(23)_499_58
usemtl Desert_Sand_dune_01_(23)_499_58
usemap Desert_Sand_dune_01_(23)_499_58
f 1/1/1 3/3/3 2/2/2
f 1/1/1 4/4/4 3/3/3
f 5/5/5 1/1/1 2/2/2
f 5/5/5 6/6/6 1/1/1
f 7/7/7 6/6/6 5/5/5
f 7/7/7 5/5/5 8/8/8
f 9/9/9 7/7/7 8/8/8
f 9/9/9 10/10/10 7/7/7
f 11/11/11 10/10/10 9/9/9
f 11/11/11 9/9/9 12/12/12
f 13/13/13 11/11/11 12/12/12
f 13/13/13 14/14/14 11/11/11
f 15/15/15 14/14/14 13/13/13
f 15/15/15 13/13/13 16/16/16
f 17/17/17 15/15/15 16/16/16
f 17/17/17 16/16/16 18/18/18
f 19/19/19 17/17/17 18/18/18
f 19/19/19 18/18/18 20/20/20
f 21/21/21 19/19/19 20/20/20
f 21/21/21 20/20/20 22/22/22
f 23/23/23 21/21/21 22/22/22
f 23/23/23 22/22/22 24/24/24
f 25/25/25 23/23/23 24/24/24
f 25/25/25 26/26/26 23/23/23
f 27/27/27 26/26/26 25/25/25
f 27/27/27 25/25/25 28/28/28
f 29/29/29 27/27/27 28/28/28
f 29/29/29 30/30/30 27/27/27
f 31/31/31 30/30/30 29/29/29
f 31/31/31 29/29/29 32/32/32
f 33/33/33 31/31/31 32/32/32
f 33/33/33 34/34/34 31/31/31
f 35/35/35 34/34/34 33/33/33
f 35/35/35 33/33/33 36/36/36
f 37/37/37 35/35/35 36/36/36
f 37/37/37 38/38/38 35/35/35
f 39/39/39 38/38/38 37/37/37
f 39/39/39 37/37/37 40/40/40
f 41/41/41 39/39/39 40/40/40
f 41/41/41 40/40/40 42/42/42
f 43/43/43 41/41/41 42/42/42
f 43/43/43 42/42/42 44/44/44
f 45/45/45 43/43/43 44/44/44
f 45/45/45 44/44/44 46/46/46
f 47/47/47 45/45/45 46/46/46
f 47/47/47 46/46/46 48/48/48
f 3/3/3 47/47/47 48/48/48
f 3/3/3 4/4/4 47/47/47
