#Desert_Sand_dune_01_(14)_477_80.obj

v -1.92713 -4.65112E-09 0.1313323
v -1.912088 -4.65112E-09 0.3579923
v -2.665368 -4.65112E-09 0.5486823
v -2.605787 1.483001E-07 0.2521221
v -0.7848739 -4.65112E-09 0.3571777
v -0.7804603 -4.262523E-08 0.08905263
v 0.2650472 1.433593E-08 0.1705159
v 0.2421368 -4.262523E-08 0.4750114
v 1.230569 7.129709E-08 0.603748
v 1.289966 -4.65112E-09 0.2926604
v 2.07984 1.483001E-07 0.3880977
v 1.992907 1.483001E-07 0.6984278
v 2.530037 1.483001E-07 0.7980511
v 2.517462 -4.65112E-09 0.4279653
v 3.259319 -1.576024E-07 0.4855293
v 3.381994 -4.65112E-09 0.8339149
v 4.22059 6.060991E-07 0.2385799
v 4.52326 -3.094988E-07 0.4893443
v 4.332743 -4.65112E-09 0.09001338
v 4.807483 -4.65112E-09 0.2538246
v 4.381543 -4.65112E-09 -0.08605208
v 4.861458 3.001966E-07 0.03638344
v 4.090988 -3.094988E-07 -0.6724952
v 4.406577 -3.094988E-07 -0.8635412
v 3.435779 3.001966E-07 -1.786305
v 3.127604 -1.576024E-07 -1.498859
v 2.51735 -4.65112E-09 -1.912599
v 2.689325 -1.576024E-07 -2.202723
v 1.713098 -4.65112E-09 -2.569237
v 1.62373 1.483001E-07 -2.232382
v 0.3739215 -4.65112E-09 -2.336046
v 0.3494308 -4.262523E-08 -2.701836
v -0.9194422 -4.262523E-08 -2.561152
v -0.8046322 3.332299E-08 -2.215535
v -2.059543 1.483001E-07 -1.779626
v -2.262605 1.483001E-07 -2.05518
v -3.053087 1.483001E-07 -1.702575
v -2.774587 -4.65112E-09 -1.428692
v -3.688199 3.001966E-07 -0.9180195
v -3.910359 3.001966E-07 -1.099209
v -4.30395 -3.094988E-07 -0.1024393
v -4.744996 3.001966E-07 0.01614451
v -4.295413 -3.094988E-07 0.08735916
v -4.735554 -3.094988E-07 0.2505461
v -4.215517 3.001966E-07 0.250771
v -4.647186 -3.094988E-07 0.4523592
v -3.487271 -4.65112E-09 0.4651504
v -3.591499 3.001966E-07 0.7072012

vn -0.04632568 0.9257813 0.3740234
vn 0 1 0
vn 0 1 0
vn -0.03277588 0.9604492 0.2758789
vn 0 1 0
vn -0.0692749 0.9111328 0.4057617
vn -0.06921387 0.9174805 0.3908691
vn 0 1 0
vn 0 1 0
vn -0.05090332 0.9335938 0.3535156
vn -0.01542664 0.9506836 0.3081055
vn 0 1 -1.192093E-07
vn 2.384186E-07 1 -2.384186E-07
vn 0.01284027 0.9707031 0.2392578
vn 0.002138138 0.9853516 0.1688232
vn 5.960464E-08 1 4.768372E-07
vn 0.02980042 0.9946289 0.09881592
vn 2.980232E-07 1 7.152557E-07
vn 0.1148071 0.9921875 0.04751587
vn 1.192093E-07 1 3.576279E-07
vn 0.1331787 0.9902344 -0.03677368
vn -4.172325E-07 1 0
vn 0.1680908 0.9814453 -0.09173584
vn -2.980232E-07 1 1.192093E-07
vn -2.980232E-07 1 3.576279E-07
vn 0.2181396 0.9658203 -0.1396484
vn 0.2030029 0.9521484 -0.2280273
vn 0 1 0
vn 1.192093E-07 1 -2.384186E-07
vn 0.1185303 0.9482422 -0.2932129
vn 0.04733276 0.9433594 -0.3276367
vn 0 1 -1.192093E-07
vn 0 1 -1.192093E-07
vn -0.04187012 0.9418945 -0.333252
vn -0.1328125 0.9379883 -0.3198242
vn 0 1 0
vn 1.192093E-07 1 5.960464E-08
vn -0.1748047 0.9521484 -0.2495117
vn -0.1216431 0.9814453 -0.1456299
vn 4.768372E-07 1 4.768372E-07
vn -0.09088135 0.9936523 -0.06112671
vn 8.34465E-07 1 1.013279E-06
vn -0.1149902 0.9931641 0.01029205
vn -1.192093E-07 1 0
vn -0.04766846 0.9951172 0.08233643
vn -5.960464E-07 1 -2.980232E-07
vn -0.02043152 0.9863281 0.1628418
vn -1.788139E-07 1 5.960464E-08

vt 0.2878418 0.345459
vt 0.3054199 0.3183594
vt 0.24646 0.2531738
vt 0.2312012 0.2927246
vt 0.4138184 0.3811035
vt 0.3952637 0.4143066
vt 0.5014648 0.4624023
vt 0.5209961 0.4238281
vt 0.625 0.4628906
vt 0.6088867 0.5043945
vt 0.6914063 0.5366211
vt 0.7050781 0.4936523
vt 0.7636719 0.5112305
vt 0.7363281 0.5556641
vt 0.8120117 0.5898438
vt 0.8486328 0.5541992
vt 0.887207 0.6738281
vt 0.934082 0.659668
vt 0.887207 0.6982422
vt 0.9448242 0.7045898
vt 0.8793945 0.7226563
vt 0.9345703 0.7338867
vt 0.8100586 0.7783203
vt 0.8271484 0.8193359
vt 0.668457 0.878418
vt 0.6586914 0.8256836
vt 0.5708008 0.8427734
vt 0.5668945 0.8876953
vt 0.4472656 0.878418
vt 0.4624023 0.8320313
vt 0.3347168 0.7753906
vt 0.3066406 0.8188477
vt 0.194458 0.730957
vt 0.2299805 0.6953125
vt 0.1400146 0.5722656
vt 0.1009521 0.5947266
vt 0.04986572 0.5073242
vt 0.0960083 0.489502
vt 0.04425049 0.3759766
vt 0.01006317 0.3859863
vt 0.04269409 0.2419434
vt 0.008651733 0.2028809
vt 0.0569458 0.2192383
vt 0.02613831 0.1746826
vt 0.07617188 0.2036133
vt 0.04891968 0.1549072
vt 0.161377 0.2177734
vt 0.168457 0.182373

g Desert_Sand_dune_01_(14)_477_80
usemtl Desert_Sand_dune_01_(14)_477_80
usemap Desert_Sand_dune_01_(14)_477_80
f 1/1/1 3/3/3 2/2/2
f 1/1/1 4/4/4 3/3/3
f 5/5/5 1/1/1 2/2/2
f 5/5/5 6/6/6 1/1/1
f 7/7/7 6/6/6 5/5/5
f 7/7/7 5/5/5 8/8/8
f 9/9/9 7/7/7 8/8/8
f 9/9/9 10/10/10 7/7/7
f 11/11/11 10/10/10 9/9/9
f 11/11/11 9/9/9 12/12/12
f 13/13/13 11/11/11 12/12/12
f 13/13/13 14/14/14 11/11/11
f 15/15/15 14/14/14 13/13/13
f 15/15/15 13/13/13 16/16/16
f 17/17/17 15/15/15 16/16/16
f 17/17/17 16/16/16 18/18/18
f 19/19/19 17/17/17 18/18/18
f 19/19/19 18/18/18 20/20/20
f 21/21/21 19/19/19 20/20/20
f 21/21/21 20/20/20 22/22/22
f 23/23/23 21/21/21 22/22/22
f 23/23/23 22/22/22 24/24/24
f 25/25/25 23/23/23 24/24/24
f 25/25/25 26/26/26 23/23/23
f 27/27/27 26/26/26 25/25/25
f 27/27/27 25/25/25 28/28/28
f 29/29/29 27/27/27 28/28/28
f 29/29/29 30/30/30 27/27/27
f 31/31/31 30/30/30 29/29/29
f 31/31/31 29/29/29 32/32/32
f 33/33/33 31/31/31 32/32/32
f 33/33/33 34/34/34 31/31/31
f 35/35/35 34/34/34 33/33/33
f 35/35/35 33/33/33 36/36/36
f 37/37/37 35/35/35 36/36/36
f 37/37/37 38/38/38 35/35/35
f 39/39/39 38/38/38 37/37/37
f 39/39/39 37/37/37 40/40/40
f 41/41/41 39/39/39 40/40/40
f 41/41/41 40/40/40 42/42/42
f 43/43/43 41/41/41 42/42/42
f 43/43/43 42/42/42 44/44/44
f 45/45/45 43/43/43 44/44/44
f 45/45/45 44/44/44 46/46/46
f 47/47/47 45/45/45 46/46/46
f 47/47/47 46/46/46 48/48/48
f 3/3/3 47/47/47 48/48/48
f 3/3/3 4/4/4 47/47/47
