#Desert_Wall_Small_Column_(4)_703_44.obj

v 0.6980062 1.925382 -0.7328992
v 0.8442465 -6.302317E-06 -0.8631915
v 0.8442465 -6.302317E-06 2.573942E-06
v 0.6980062 1.925382 2.573942E-06
v 0.8442465 -6.302317E-06 0.8632017
v 0.6980062 1.925382 0.7329044
v -2.982672E-07 1.925382 -0.7328992
v -2.982672E-07 -6.302317E-06 -0.8631915
v 0.8442465 -6.302317E-06 -0.8631915
v 0.6980062 1.925382 -0.7328992
v -0.8442507 -6.302317E-06 -0.8631915
v -0.6980068 1.925382 -0.7328992
v -0.6980068 1.925382 2.573942E-06
v -0.8442507 -6.302317E-06 2.573942E-06
v -0.8442507 -6.302317E-06 -0.8631915
v -0.6980068 1.925382 -0.7328992
v -0.6980068 1.925382 0.7329044
v -0.8442507 -6.302317E-06 0.8632017
v -2.982672E-07 1.925382 2.573942E-06
v -2.982672E-07 1.925382 -0.7328992
v 0.6980062 1.925382 -0.7328992
v 0.6980062 1.925382 2.573942E-06
v -0.6980068 1.925382 -0.7328992
v -0.6980068 1.925382 2.573942E-06
v -2.982672E-07 1.925382 0.7329044
v 0.6980062 1.925382 0.7329044
v -0.6980068 1.925382 0.7329044
v -2.982672E-07 1.925382 0.7329044
v -2.982672E-07 -6.302317E-06 0.8632017
v -0.8442507 -6.302317E-06 0.8632017
v -0.6980068 1.925382 0.7329044
v 0.6980062 1.925382 0.7329044
v 0.8442465 -6.302317E-06 0.8632017
v -0.8442507 -6.302317E-06 2.573942E-06
v -1.518153E-06 -6.302317E-06 2.573942E-06
v -0.8442507 -6.302317E-06 -0.8631915
v -2.982672E-07 -6.302317E-06 -0.8631915
v 0.8442465 -6.302317E-06 -0.8631915
v 0.8442465 -6.302317E-06 2.573942E-06
v -0.8442507 -6.302317E-06 0.8632017
v -2.982672E-07 -6.302317E-06 0.8632017
v 0.8442465 -6.302317E-06 0.8632017

vn 0.8505859 0.5249023 0
vn 0.8505859 0.5249023 0
vn 0.8505859 0.5249023 0
vn 0.8505859 0.5249023 0
vn 0.8505859 0.5249023 0
vn 0.8505859 0.5249023 0
vn 0 0.4819336 -0.8759766
vn 0 0.4819336 -0.8759766
vn 0 0.4819336 -0.8759766
vn 0 0.4819336 -0.8759766
vn 0 0.4819336 -0.8759766
vn 0 0.4819336 -0.8759766
vn -0.8505859 0.5249023 0
vn -0.8505859 0.5249023 0
vn -0.8505859 0.5249023 0
vn -0.8505859 0.5249023 0
vn -0.8505859 0.5249023 0
vn -0.8505859 0.5249023 0
vn 0 1 0
vn 0 1 0
vn 0 1 0
vn 0 1 0
vn 0 1 0
vn 0 1 0
vn 0 1 0
vn 0 1 0
vn 0 1 0
vn 0 0.4819336 0.8759766
vn 0 0.4819336 0.8759766
vn 0 0.4819336 0.8759766
vn 0 0.4819336 0.8759766
vn 0 0.4819336 0.8759766
vn 0 0.4819336 0.8759766
vn 0 -1 0
vn 0 -1 0
vn 0 -1 0
vn 0 -1 0
vn 0 -1 0
vn 0 -1 0
vn 0 -1 0
vn 0 -1 0
vn 0 -1 0

vt 0.5078125 0.527832
vt 0.5078125 0.375
vt 0.4448242 0.375
vt 0.4448242 0.527832
vt 0.3815918 0.375
vt 0.3815918 0.527832
vt 0.6884766 0.4682617
vt 0.6884766 0.3154297
vt 0.6274414 0.3154297
vt 0.6274414 0.4682617
vt 0.7490234 0.3154297
vt 0.7490234 0.4682617
vt 0.3535156 0.8388672
vt 0.3535156 0.6860352
vt 0.2902832 0.6860352
vt 0.2902832 0.8388672
vt 0.4165039 0.8388672
vt 0.4165039 0.6860352
vt 0.5083008 0.5922852
vt 0.5083008 0.6499023
vt 0.5634766 0.6499023
vt 0.5634766 0.5922852
vt 0.4533691 0.6499023
vt 0.4533691 0.5922852
vt 0.5083008 0.5341797
vt 0.5634766 0.5341797
vt 0.4533691 0.5341797
vt 0.6425781 0.8212891
vt 0.6425781 0.668457
vt 0.581543 0.668457
vt 0.581543 0.8212891
vt 0.7036133 0.8212891
vt 0.7036133 0.668457
vt 0.5698242 0.5942383
vt 0.6362305 0.5942383
vt 0.5698242 0.5258789
vt 0.6362305 0.5258789
vt 0.703125 0.5258789
vt 0.703125 0.5942383
vt 0.5698242 0.6621094
vt 0.6362305 0.6621094
vt 0.703125 0.6621094

g Desert_Wall_Small_Column_(4)_703_44
usemtl Desert_Wall_Small_Column_(4)_703_44
usemap Desert_Wall_Small_Column_(4)_703_44
f 1/1/1 3/3/3 2/2/2
f 1/1/1 4/4/4 3/3/3
f 4/4/4 5/5/5 3/3/3
f 4/4/4 6/6/6 5/5/5
f 7/7/7 9/9/9 8/8/8
f 7/7/7 10/10/10 9/9/9
f 11/11/11 7/7/7 8/8/8
f 11/11/11 12/12/12 7/7/7
f 13/13/13 15/15/15 14/14/14
f 13/13/13 16/16/16 15/15/15
f 17/17/17 13/13/13 14/14/14
f 17/17/17 14/14/14 18/18/18
f 19/19/19 21/21/21 20/20/20
f 19/19/19 22/22/22 21/21/21
f 19/19/19 20/20/20 23/23/23
f 19/19/19 23/23/23 24/24/24
f 25/25/25 22/22/22 19/19/19
f 25/25/25 19/19/19 24/24/24
f 25/25/25 26/26/26 22/22/22
f 25/25/25 24/24/24 27/27/27
f 28/28/28 30/30/30 29/29/29
f 28/28/28 31/31/31 30/30/30
f 32/32/32 28/28/28 29/29/29
f 32/32/32 29/29/29 33/33/33
f 34/34/34 36/36/36 35/35/35
f 36/36/36 37/37/37 35/35/35
f 37/37/37 38/38/38 35/35/35
f 38/38/38 39/39/39 35/35/35
f 40/40/40 34/34/34 35/35/35
f 41/41/41 40/40/40 35/35/35
f 39/39/39 42/42/42 35/35/35
f 42/42/42 41/41/41 35/35/35
