#Desert_Sand_dune_01_(10)_600_115.obj

v -1.92713 -4.783124E-08 0.1313324
v -1.912087 -4.783124E-08 0.3579935
v -2.665368 -4.783124E-08 0.5486832
v -2.605787 1.032439E-07 0.2521237
v -0.7848738 -4.783124E-08 0.3571775
v -0.7804601 -8.467884E-08 0.08905308
v 0.2650477 -2.940744E-08 0.1705182
v 0.2421368 -8.467884E-08 0.4750116
v 1.230569 2.954873E-08 0.603749
v 1.289966 -4.783124E-08 0.2926615
v 2.079841 1.032439E-07 0.3880993
v 1.992907 1.032439E-07 0.6984288
v 2.530037 1.032439E-07 0.7980518
v 2.517462 -4.783124E-08 0.4279651
v 3.259319 -1.989064E-07 0.48553
v 3.381994 -4.783124E-08 0.8339157
v 4.22059 5.63839E-07 0.2385804
v 4.52326 -3.536663E-07 0.4893455
v 4.332743 -4.783124E-08 0.09001508
v 4.807484 -4.783124E-08 0.2538265
v 4.381544 -4.783124E-08 -0.08605117
v 4.861458 2.580039E-07 0.03638438
v 4.090989 -3.536663E-07 -0.6724943
v 4.406578 -3.536663E-07 -0.8635392
v 3.435779 2.580039E-07 -1.786306
v 3.127604 -1.989064E-07 -1.498859
v 2.51735 -4.783124E-08 -1.912598
v 2.689326 -1.989064E-07 -2.202721
v 1.713098 -4.783124E-08 -2.569235
v 1.62373 1.032439E-07 -2.23238
v 0.3739212 -4.783124E-08 -2.336045
v 0.349431 -8.467884E-08 -2.701835
v -0.9194423 -8.467884E-08 -2.561153
v -0.8046321 -1.098364E-08 -2.215534
v -2.059544 1.032439E-07 -1.779627
v -2.262605 1.032439E-07 -2.055178
v -3.053086 1.032439E-07 -1.702574
v -2.774587 -4.783124E-08 -1.428692
v -3.688199 2.580039E-07 -0.9180177
v -3.910358 2.580039E-07 -1.099208
v -4.303949 -3.536663E-07 -0.1024382
v -4.744995 2.580039E-07 0.01614583
v -4.295413 -3.536663E-07 0.08735949
v -4.735553 -3.536663E-07 0.2505467
v -4.215517 2.580039E-07 0.2507713
v -4.647185 -3.536663E-07 0.4523598
v -3.487271 -4.783124E-08 0.4651506
v -3.591498 2.580039E-07 0.7072012

vn -0.1124878 0.9433594 0.3120117
vn 0 1 0
vn 0 1 0
vn -0.08111572 0.9697266 0.2285156
vn 0 1 0
vn -0.138916 0.9311523 0.3361816
vn -0.1357422 0.9365234 0.3227539
vn 0 1 0
vn 0 1 0
vn -0.1122437 0.9492188 0.2929688
vn -0.07275391 0.9624023 0.2600098
vn 0 1 -5.960464E-08
vn 2.384186E-07 1 -1.788139E-07
vn -0.03509521 0.9775391 0.2055664
vn -0.0305481 0.9887695 0.1431885
vn 0 1 4.172325E-07
vn 0.006252289 0.9956055 0.08911133
vn 1.192093E-07 1 6.556511E-07
vn 0.08789063 0.9941406 0.06210327
vn 0 1 3.576279E-07
vn 0.1196289 0.9926758 -0.005561829
vn -3.576279E-07 1 -1.192093E-07
vn 0.1599121 0.9858398 -0.04544067
vn -2.384186E-07 1 5.960464E-08
vn -2.980232E-07 1 2.384186E-07
vn 0.2122803 0.9741211 -0.07678223
vn 0.2171631 0.9633789 -0.1551514
vn 0 1 0
vn 1.192093E-07 1 -1.192093E-07
vn 0.1578369 0.9604492 -0.2272949
vn 0.1039429 0.956543 -0.2709961
vn 0 1 -1.192093E-07
vn 0 1 -5.960464E-08
vn 0.02874756 0.9555664 -0.2929688
vn -0.05163574 0.9526367 -0.2995605
vn 0 1 0
vn 1.192093E-07 1 1.192093E-07
vn -0.1008301 0.9633789 -0.246582
vn -0.07501221 0.9858398 -0.1466064
vn 2.980232E-07 1 4.768372E-07
vn -0.06500244 0.9951172 -0.06896973
vn 4.768372E-07 1 1.013279E-06
vn -0.09906006 0.9946289 -0.01330566
vn -5.960464E-08 1 0
vn -0.05596924 0.996582 0.06039429
vn -4.172325E-07 1 -3.576279E-07
vn -0.04849243 0.9897461 0.1337891
vn -1.192093E-07 1 0

vt 0.2878418 0.345459
vt 0.3054199 0.3183594
vt 0.24646 0.2531738
vt 0.2312012 0.2927246
vt 0.4138184 0.3811035
vt 0.3952637 0.4143066
vt 0.5014648 0.4624023
vt 0.5209961 0.4238281
vt 0.625 0.4628906
vt 0.6088867 0.5043945
vt 0.6914063 0.5366211
vt 0.7050781 0.4936523
vt 0.7636719 0.5112305
vt 0.7363281 0.5556641
vt 0.8120117 0.5898438
vt 0.8486328 0.5541992
vt 0.887207 0.6738281
vt 0.934082 0.659668
vt 0.887207 0.6982422
vt 0.9448242 0.7045898
vt 0.8793945 0.7226563
vt 0.9345703 0.7338867
vt 0.8100586 0.7783203
vt 0.8271484 0.8193359
vt 0.668457 0.878418
vt 0.6586914 0.8256836
vt 0.5708008 0.8427734
vt 0.5668945 0.8876953
vt 0.4472656 0.878418
vt 0.4624023 0.8320313
vt 0.3347168 0.7753906
vt 0.3066406 0.8188477
vt 0.194458 0.730957
vt 0.2299805 0.6953125
vt 0.1400146 0.5722656
vt 0.1009521 0.5947266
vt 0.04986572 0.5073242
vt 0.0960083 0.489502
vt 0.04425049 0.3759766
vt 0.01006317 0.3859863
vt 0.04269409 0.2419434
vt 0.008651733 0.2028809
vt 0.0569458 0.2192383
vt 0.02613831 0.1746826
vt 0.07617188 0.2036133
vt 0.04891968 0.1549072
vt 0.161377 0.2177734
vt 0.168457 0.182373

g Desert_Sand_dune_01_(10)_600_115
usemtl Desert_Sand_dune_01_(10)_600_115
usemap Desert_Sand_dune_01_(10)_600_115
f 1/1/1 3/3/3 2/2/2
f 1/1/1 4/4/4 3/3/3
f 5/5/5 1/1/1 2/2/2
f 5/5/5 6/6/6 1/1/1
f 7/7/7 6/6/6 5/5/5
f 7/7/7 5/5/5 8/8/8
f 9/9/9 7/7/7 8/8/8
f 9/9/9 10/10/10 7/7/7
f 11/11/11 10/10/10 9/9/9
f 11/11/11 9/9/9 12/12/12
f 13/13/13 11/11/11 12/12/12
f 13/13/13 14/14/14 11/11/11
f 15/15/15 14/14/14 13/13/13
f 15/15/15 13/13/13 16/16/16
f 17/17/17 15/15/15 16/16/16
f 17/17/17 16/16/16 18/18/18
f 19/19/19 17/17/17 18/18/18
f 19/19/19 18/18/18 20/20/20
f 21/21/21 19/19/19 20/20/20
f 21/21/21 20/20/20 22/22/22
f 23/23/23 21/21/21 22/22/22
f 23/23/23 22/22/22 24/24/24
f 25/25/25 23/23/23 24/24/24
f 25/25/25 26/26/26 23/23/23
f 27/27/27 26/26/26 25/25/25
f 27/27/27 25/25/25 28/28/28
f 29/29/29 27/27/27 28/28/28
f 29/29/29 30/30/30 27/27/27
f 31/31/31 30/30/30 29/29/29
f 31/31/31 29/29/29 32/32/32
f 33/33/33 31/31/31 32/32/32
f 33/33/33 34/34/34 31/31/31
f 35/35/35 34/34/34 33/33/33
f 35/35/35 33/33/33 36/36/36
f 37/37/37 35/35/35 36/36/36
f 37/37/37 38/38/38 35/35/35
f 39/39/39 38/38/38 37/37/37
f 39/39/39 37/37/37 40/40/40
f 41/41/41 39/39/39 40/40/40
f 41/41/41 40/40/40 42/42/42
f 43/43/43 41/41/41 42/42/42
f 43/43/43 42/42/42 44/44/44
f 45/45/45 43/43/43 44/44/44
f 45/45/45 44/44/44 46/46/46
f 47/47/47 45/45/45 46/46/46
f 47/47/47 46/46/46 48/48/48
f 3/3/3 47/47/47 48/48/48
f 3/3/3 4/4/4 47/47/47
