#Desert_Sand_dune_01_(9)_714_93.obj

v 4.22059 6.048616E-07 0.2385797
v 2.995597 0.2895657 -0.3930818
v 3.035364 0.2955918 -0.5010684
v 4.332742 -5.587894E-09 0.09001399
v 3.07396 0.2831765 -0.6633395
v 4.381543 -5.587894E-09 -0.08605251
v 3.259319 -1.582003E-07 0.4855297
v 2.517462 -5.587894E-09 0.4279649
v 3.127604 -1.582003E-07 -1.498859
v 4.090988 -3.108127E-07 -0.6724953
v 2.51735 -5.587894E-09 -1.912598
v 2.257202 0.5063468 -0.993876
v 1.62373 1.470245E-07 -2.23238
v 1.338231 0.6450294 -1.140659
v 2.217644 0.5276183 -0.8151588
v 1.316599 0.6672151 -0.9590018
v 2.168956 0.5137561 -0.6381823
v 1.289695 0.6420645 -0.7783828
v 2.07984 1.470245E-07 0.388098
v 1.289966 -5.587894E-09 0.2926607
v 0.3739208 -5.587894E-09 -2.336046
v 0.1028679 0.7119356 -1.159854
v -0.8046327 3.263346E-08 -2.215534
v -0.9186983 0.6614512 -1.144194
v 0.1044247 0.7331528 -0.9777268
v -0.9005685 0.6827145 -0.9622001
v 0.1068082 0.6969621 -0.7968521
v -0.8771377 0.6502036 -0.7818064
v 0.2650469 1.352278E-08 0.170517
v -0.7804608 -4.380924E-08 0.0890522
v -2.059544 1.470245E-07 -1.779626
v -2.015677 0.4912399 -0.9616034
v -2.774588 -5.587894E-09 -1.428693
v -3.038432 0.2394905 -0.599344
v -1.979391 0.5115988 -0.7825804
v -3.020574 0.2496156 -0.4350262
v -1.93348 0.4907013 -0.6060739
v -2.966403 0.2401335 -0.2799453
v -1.92713 -5.587894E-09 0.1313313
v -2.605788 1.470245E-07 0.2521232
v -4.303951 -3.108127E-07 -0.1024396
v -3.6882 2.996369E-07 -0.9180185
v -4.295414 -3.108127E-07 0.08735893
v -4.215518 2.996369E-07 0.2507713
v -3.487272 -5.587894E-09 0.4651504

vn 0.02746582 0.9931641 0.1115723
vn 0.03677368 0.9555664 0.2907715
vn 0.2246094 0.9697266 0.09191895
vn 0.1248779 0.9902344 0.05938721
vn 0.3369141 0.9301758 -0.1442871
vn 0.1501465 0.987793 -0.03320313
vn -0.007289886 0.9819336 0.1875
vn 0.0005607605 0.9638672 0.2651367
vn 0.2489014 0.9580078 -0.1418457
vn 0.1916504 0.9770508 -0.09210205
vn 0.2364502 0.9414063 -0.239502
vn 0.315918 0.9057617 -0.2814941
vn 0.1470947 0.9370117 -0.315918
vn 0.1791992 0.9057617 -0.3837891
vn 0.2121582 0.9750977 0.06152344
vn 0.0994873 0.9941406 0.03308105
vn -0.01426697 0.9248047 0.3798828
vn -0.07043457 0.9003906 0.4287109
vn -0.03448486 0.9399414 0.3383789
vn -0.07580566 0.9194336 0.3850098
vn 0.07055664 0.9311523 -0.3574219
vn 0.07208252 0.8999023 -0.4299316
vn -0.02713013 0.9291992 -0.3684082
vn -0.06414795 0.8867188 -0.4572754
vn 0.002176285 0.9995117 0.02763367
vn -0.1154785 0.9931641 0.009017944
vn -0.1085815 0.8754883 0.4699707
vn -0.1208496 0.8710938 0.4753418
vn -0.09765625 0.9003906 0.4233398
vn -0.09844971 0.8925781 0.4389648
vn -0.1276855 0.9243164 -0.3586426
vn -0.1929932 0.8842773 -0.4248047
vn -0.1783447 0.9414063 -0.284668
vn -0.2287598 0.9345703 -0.2722168
vn -0.210083 0.9775391 -0.000443697
vn -0.2197266 0.9750977 0.001626015
vn -0.1127319 0.8925781 0.4360352
vn -0.1005249 0.9526367 0.2854004
vn -0.07183838 0.9106445 0.4067383
vn -0.05187988 0.9516602 0.3024902
vn -0.09759521 0.9921875 -0.07318115
vn -0.1264648 0.9775391 -0.168457
vn -0.128418 0.9916992 0.004852295
vn -0.05773926 0.9941406 0.08886719
vn -0.03198242 0.9829102 0.1795654

vt 0.887207 0.6738281
vt 0.7246094 0.6831055
vt 0.7207031 0.6987305
vt 0.887207 0.6982422
vt 0.7128906 0.7207031
vt 0.8793945 0.7226563
vt 0.8120117 0.5898438
vt 0.7363281 0.5556641
vt 0.6586914 0.8256836
vt 0.8100586 0.7783203
vt 0.5708008 0.8427734
vt 0.6108398 0.7158203
vt 0.4624023 0.8320313
vt 0.512207 0.6826172
vt 0.6196289 0.6914063
vt 0.5229492 0.6591797
vt 0.6274414 0.6669922
vt 0.5332031 0.6352539
vt 0.6914063 0.5366211
vt 0.6088867 0.5043945
vt 0.3347168 0.7753906
vt 0.3918457 0.6162109
vt 0.2299805 0.6953125
vt 0.2946777 0.5576172
vt 0.4050293 0.5942383
vt 0.3093262 0.5361328
vt 0.4179688 0.5717773
vt 0.3242188 0.515625
vt 0.5014648 0.4624023
vt 0.3952637 0.4143066
vt 0.1400146 0.5722656
vt 0.2021484 0.4743652
vt 0.0960083 0.489502
vt 0.1292725 0.3730469
vt 0.2182617 0.4543457
vt 0.1425781 0.3540039
vt 0.2351074 0.4353027
vt 0.1588135 0.3378906
vt 0.2878418 0.345459
vt 0.2312012 0.2927246
vt 0.04269409 0.2419434
vt 0.04425049 0.3759766
vt 0.0569458 0.2192383
vt 0.07617188 0.2036133
vt 0.161377 0.2177734

g Desert_Sand_dune_01_(9)_714_93
usemtl Desert_Sand_dune_01_(9)_714_93
usemap Desert_Sand_dune_01_(9)_714_93
f 1/1/1 3/3/3 2/2/2
f 1/1/1 4/4/4 3/3/3
f 4/4/4 5/5/5 3/3/3
f 4/4/4 6/6/6 5/5/5
f 2/2/2 7/7/7 1/1/1
f 2/2/2 8/8/8 7/7/7
f 9/9/9 5/5/5 6/6/6
f 9/9/9 6/6/6 10/10/10
f 11/11/11 5/5/5 9/9/9
f 11/11/11 12/12/12 5/5/5
f 3/3/3 5/5/5 12/12/12
f 13/13/13 12/12/12 11/11/11
f 13/13/13 14/14/14 12/12/12
f 15/15/15 12/12/12 14/14/14
f 3/3/3 12/12/12 15/15/15
f 2/2/2 3/3/3 15/15/15
f 15/15/15 14/14/14 16/16/16
f 17/17/17 15/15/15 16/16/16
f 2/2/2 15/15/15 17/17/17
f 17/17/17 8/8/8 2/2/2
f 17/17/17 16/16/16 18/18/18
f 18/18/18 19/19/19 17/17/17
f 17/17/17 19/19/19 8/8/8
f 18/18/18 20/20/20 19/19/19
f 21/21/21 14/14/14 13/13/13
f 21/21/21 22/22/22 14/14/14
f 16/16/16 14/14/14 22/22/22
f 23/23/23 22/22/22 21/21/21
f 23/23/23 24/24/24 22/22/22
f 24/24/24 25/25/25 22/22/22
f 16/16/16 22/22/22 25/25/25
f 18/18/18 16/16/16 25/25/25
f 24/24/24 26/26/26 25/25/25
f 26/26/26 27/27/27 25/25/25
f 18/18/18 25/25/25 27/27/27
f 27/27/27 20/20/20 18/18/18
f 26/26/26 28/28/28 27/27/27
f 28/28/28 29/29/29 27/27/27
f 27/27/27 29/29/29 20/20/20
f 28/28/28 30/30/30 29/29/29
f 31/31/31 24/24/24 23/23/23
f 31/31/31 32/32/32 24/24/24
f 32/32/32 26/26/26 24/24/24
f 33/33/33 32/32/32 31/31/31
f 33/33/33 34/34/34 32/32/32
f 34/34/34 35/35/35 32/32/32
f 32/32/32 35/35/35 26/26/26
f 35/35/35 28/28/28 26/26/26
f 34/34/34 36/36/36 35/35/35
f 36/36/36 37/37/37 35/35/35
f 35/35/35 37/37/37 28/28/28
f 37/37/37 30/30/30 28/28/28
f 36/36/36 38/38/38 37/37/37
f 38/38/38 39/39/39 37/37/37
f 37/37/37 39/39/39 30/30/30
f 38/38/38 40/40/40 39/39/39
f 41/41/41 34/34/34 33/33/33
f 41/41/41 36/36/36 34/34/34
f 41/41/41 33/33/33 42/42/42
f 41/41/41 43/43/43 36/36/36
f 43/43/43 38/38/38 36/36/36
f 43/43/43 44/44/44 38/38/38
f 45/45/45 38/38/38 44/44/44
f 45/45/45 40/40/40 38/38/38
