#Desert_Rock_01_(6)_589_179.obj

v 0.6530463 -0.4159698 -0.9791603
v 0.7443427 -0.4159698 -0.8878614
v 0.6530473 -0.5072693 -0.887862
v -0.65305 -0.4159701 -0.9791608
v -0.6530487 -0.5072692 -0.8878617
v -0.7443482 -0.4159697 -0.8878614
v 0.6530457 0.5072697 -0.8878624
v 0.7443412 0.4159702 -0.8878624
v 0.6530457 0.4159705 -0.9791586
v -0.6530505 0.5072697 -0.8878625
v -0.6530506 0.4159702 -0.9791591
v -0.7443497 0.4159703 -0.8878623
v 0.6530473 0.4159696 0.9791608
v 0.7443419 0.4159695 0.8878625
v 0.6530463 0.5072691 0.8878625
v -0.6530488 0.4159696 0.9791607
v -0.6530498 0.507269 0.8878624
v -0.7443491 0.4159696 0.8878626
v 0.6530481 -0.4159705 0.9791595
v 0.6530472 -0.50727 0.8878606
v 0.7443426 -0.4159706 0.8878612
v -0.6530517 -0.4159708 0.9791606
v -0.7443484 -0.4159707 0.8878608
v -0.6530488 -0.5072699 0.8878609
v -0.7443484 -0.4159707 0.8878608
v -0.7443491 0.4159696 0.8878626
v -0.7443482 -0.4159697 -0.8878614
v -0.7443497 0.4159703 -0.8878623
v 0.7443427 -0.4159698 -0.8878614
v 0.7443412 0.4159702 -0.8878624
v 0.7443426 -0.4159706 0.8878612
v 0.7443419 0.4159695 0.8878625
v 0.6530473 -0.5072693 -0.887862
v 0.6530472 -0.50727 0.8878606
v -0.6530487 -0.5072692 -0.8878617
v -0.6530488 -0.5072699 0.8878609
v 0.6530457 0.4159705 -0.9791586
v 0.6530463 -0.4159698 -0.9791603
v -0.6530506 0.4159702 -0.9791591
v -0.65305 -0.4159701 -0.9791608
v 0.6530463 0.5072691 0.8878625
v 0.6530457 0.5072697 -0.8878624
v -0.6530498 0.507269 0.8878624
v -0.6530505 0.5072697 -0.8878625
v 0.6530481 -0.4159705 0.9791595
v 0.6530473 0.4159696 0.9791608
v -0.6530517 -0.4159708 0.9791606
v -0.6530488 0.4159696 0.9791607
v -0.65305 -0.4159701 -0.9791608
v 0.6530463 -0.4159698 -0.9791603
v -0.6530487 -0.5072692 -0.8878617
v 0.6530473 -0.5072693 -0.887862
v 0.7443412 0.4159702 -0.8878624
v 0.7443427 -0.4159698 -0.8878614
v 0.6530457 0.4159705 -0.9791586
v 0.6530463 -0.4159698 -0.9791603
v -0.6530505 0.5072697 -0.8878625
v 0.6530457 0.5072697 -0.8878624
v -0.6530506 0.4159702 -0.9791591
v 0.6530457 0.4159705 -0.9791586
v -0.6530506 0.4159702 -0.9791591
v -0.65305 -0.4159701 -0.9791608
v -0.7443497 0.4159703 -0.8878623
v -0.7443482 -0.4159697 -0.8878614
v 0.7443419 0.4159695 0.8878625
v 0.7443412 0.4159702 -0.8878624
v 0.6530463 0.5072691 0.8878625
v 0.6530457 0.5072697 -0.8878624
v -0.6530488 0.4159696 0.9791607
v 0.6530473 0.4159696 0.9791608
v -0.6530498 0.507269 0.8878624
v 0.6530463 0.5072691 0.8878625
v -0.6530498 0.507269 0.8878624
v -0.6530505 0.5072697 -0.8878625
v -0.7443491 0.4159696 0.8878626
v -0.7443497 0.4159703 -0.8878623
v 0.7443426 -0.4159706 0.8878612
v 0.7443419 0.4159695 0.8878625
v 0.6530481 -0.4159705 0.9791595
v 0.6530473 0.4159696 0.9791608
v 0.6530472 -0.50727 0.8878606
v 0.6530473 -0.5072693 -0.887862
v 0.7443426 -0.4159706 0.8878612
v 0.7443427 -0.4159698 -0.8878614
v -0.6530517 -0.4159708 0.9791606
v -0.6530488 0.4159696 0.9791607
v -0.7443484 -0.4159707 0.8878608
v -0.7443491 0.4159696 0.8878626
v -0.6530488 -0.5072699 0.8878609
v 0.6530472 -0.50727 0.8878606
v -0.6530517 -0.4159708 0.9791606
v 0.6530481 -0.4159705 0.9791595
v -0.7443484 -0.4159707 0.8878608
v -0.7443482 -0.4159697 -0.8878614
v -0.6530488 -0.5072699 0.8878609
v -0.6530487 -0.5072692 -0.8878617

vn 0.296875 0.8896484 0.3466797
vn 0.296875 0.8896484 0.3466797
vn 0.296875 0.8896484 0.3466797
vn 0.4790039 0.8549805 -0.1982422
vn 0.4790039 0.8549805 -0.1982422
vn 0.4790039 0.8549805 -0.1982422
vn 0.0617981 -0.9213867 0.3833008
vn 0.0617981 -0.9213867 0.3833008
vn 0.0617981 -0.9213867 0.3833008
vn 0.2438965 -0.9560547 -0.1616211
vn 0.2438965 -0.9560547 -0.1616211
vn 0.2438965 -0.9560547 -0.1616211
vn -0.4790039 -0.8549805 0.1981201
vn -0.4790039 -0.8549805 0.1981201
vn -0.4790039 -0.8549805 0.1981201
vn -0.296875 -0.8896484 -0.3466797
vn -0.296875 -0.8896484 -0.3466797
vn -0.296875 -0.8896484 -0.3466797
vn -0.2438965 0.9560547 0.1616211
vn -0.2438965 0.9560547 0.1616211
vn -0.2438965 0.9560547 0.1616211
vn -0.0617981 0.9213867 -0.3830566
vn -0.0617981 0.9213867 -0.3830566
vn -0.0617981 0.9213867 -0.3830566
vn 0.3164063 -0.06021118 -0.9462891
vn 0.3164063 -0.06021118 -0.9462891
vn 0.3164063 -0.06021118 -0.9462891
vn 0.3164063 -0.06021118 -0.9462891
vn -0.3164063 0.06021118 0.9462891
vn -0.3164063 0.06021118 0.9462891
vn -0.3164063 0.06021118 0.9462891
vn -0.3164063 0.06021118 0.9462891
vn 0.1286621 0.9912109 -0.02001953
vn 0.1286621 0.9912109 -0.02001953
vn 0.1286621 0.9912109 -0.02001953
vn 0.1286621 0.9912109 -0.02001953
vn 0.9394531 -0.1155396 0.3212891
vn 0.9394531 -0.1155396 0.3212891
vn 0.9394531 -0.1155396 0.3212891
vn 0.9394531 -0.1155396 0.3212891
vn -0.1286621 -0.9912109 0.02001953
vn -0.1286621 -0.9912109 0.02001953
vn -0.1286621 -0.9912109 0.02001953
vn -0.1286621 -0.9912109 0.02001953
vn -0.9394531 0.1155396 -0.3212891
vn -0.9394531 0.1155396 -0.3212891
vn -0.9394531 0.1155396 -0.3212891
vn -0.9394531 0.1155396 -0.3212891
vn 0.4050293 0.9106445 0.07745361
vn 0.4050293 0.9106445 0.07745361
vn 0.4050293 0.9106445 0.07745361
vn 0.4050293 0.9106445 0.07745361
vn 0.4406738 -0.03912354 0.8964844
vn 0.4406738 -0.03912354 0.8964844
vn 0.4406738 -0.03912354 0.8964844
vn 0.4406738 -0.03912354 0.8964844
vn 0.1595459 -0.9799805 0.1156616
vn 0.1595459 -0.9799805 0.1156616
vn 0.1595459 -0.9799805 0.1156616
vn 0.1595459 -0.9799805 0.1156616
vn 0.8881836 -0.1242676 -0.4418945
vn 0.8881836 -0.1242676 -0.4418945
vn 0.8881836 -0.1242676 -0.4418945
vn 0.8881836 -0.1242676 -0.4418945
vn -0.2178955 -0.9272461 0.3034668
vn -0.2178955 -0.9272461 0.3034668
vn -0.2178955 -0.9272461 0.3034668
vn -0.2178955 -0.9272461 0.3034668
vn -0.4050293 -0.9106445 -0.07745361
vn -0.4050293 -0.9106445 -0.07745361
vn -0.4050293 -0.9106445 -0.07745361
vn -0.4050293 -0.9106445 -0.07745361
vn -0.0276947 -0.9633789 -0.2653809
vn -0.0276947 -0.9633789 -0.2653809
vn -0.0276947 -0.9633789 -0.2653809
vn -0.0276947 -0.9633789 -0.2653809
vn -0.8881836 0.1242676 0.4418945
vn -0.8881836 0.1242676 0.4418945
vn -0.8881836 0.1242676 0.4418945
vn -0.8881836 0.1242676 0.4418945
vn 0.0276947 0.9633789 0.2653809
vn 0.0276947 0.9633789 0.2653809
vn 0.0276947 0.9633789 0.2653809
vn 0.0276947 0.9633789 0.2653809
vn -0.4406738 0.03912354 -0.8964844
vn -0.4406738 0.03912354 -0.8964844
vn -0.4406738 0.03912354 -0.8964844
vn -0.4406738 0.03912354 -0.8964844
vn -0.1595459 0.9799805 -0.1156616
vn -0.1595459 0.9799805 -0.1156616
vn -0.1595459 0.9799805 -0.1156616
vn -0.1595459 0.9799805 -0.1156616
vn 0.2178955 0.9272461 -0.3034668
vn 0.2178955 0.9272461 -0.3034668
vn 0.2178955 0.9272461 -0.3034668
vn 0.2178955 0.9272461 -0.3034668

vt 0.4616699 0.05838013
vt 0.451416 0.05709839
vt 0.4604492 0.04797363
vt 0.5722656 0.05838013
vt 0.5732422 0.04797363
vt 0.5825195 0.05709839
vt 0.4604492 0.1387939
vt 0.451416 0.1297607
vt 0.4616699 0.1282959
vt 0.5732422 0.1387939
vt 0.5722656 0.1282959
vt 0.5825195 0.1297607
vt 0.5258789 0.9848633
vt 0.5361328 0.9863281
vt 0.5273438 0.9956055
vt 0.4157715 0.9848633
vt 0.4143066 0.9956055
vt 0.4052734 0.9863281
vt 0.5258789 0.9150391
vt 0.5273438 0.9047852
vt 0.5361328 0.9135742
vt 0.4157715 0.9150391
vt 0.4052734 0.9135742
vt 0.4143066 0.9047852
vt 0.163208 0.00289917
vt 0.2341309 0.00289917
vt 0.163208 0.1540527
vt 0.2341309 0.1540527
vt 0.4382324 0.1540527
vt 0.3671875 0.1540527
vt 0.4382324 0.00289917
vt 0.3671875 0.00289917
vt 0.8417969 0.253418
vt 0.8417969 0.4047852
vt 0.7304688 0.253418
vt 0.7304688 0.4047852
vt 0.4616699 0.1282959
vt 0.4616699 0.05838013
vt 0.5722656 0.1282959
vt 0.5722656 0.05838013
vt 0.3562012 0.00289917
vt 0.3562012 0.1540527
vt 0.2451172 0.00289917
vt 0.2451172 0.1540527
vt 0.5258789 0.9150391
vt 0.5258789 0.9848633
vt 0.4157715 0.9150391
vt 0.4157715 0.9848633
vt 0.5722656 0.05838013
vt 0.4616699 0.05838013
vt 0.5732422 0.04797363
vt 0.4604492 0.04797363
vt 0.451416 0.1297607
vt 0.451416 0.05709839
vt 0.4616699 0.1282959
vt 0.4616699 0.05838013
vt 0.5732422 0.1387939
vt 0.4604492 0.1387939
vt 0.5722656 0.1282959
vt 0.4616699 0.1282959
vt 0.5722656 0.1282959
vt 0.5722656 0.05838013
vt 0.5825195 0.1297607
vt 0.5825195 0.05709839
vt 0.3671875 0.00289917
vt 0.3671875 0.1540527
vt 0.3562012 0.00289917
vt 0.3562012 0.1540527
vt 0.4157715 0.9848633
vt 0.5258789 0.9848633
vt 0.4143066 0.9956055
vt 0.5273438 0.9956055
vt 0.2451172 0.00289917
vt 0.2451172 0.1540527
vt 0.2341309 0.00289917
vt 0.2341309 0.1540527
vt 0.5361328 0.9135742
vt 0.5361328 0.9863281
vt 0.5258789 0.9150391
vt 0.5258789 0.9848633
vt 0.8417969 0.4047852
vt 0.8417969 0.253418
vt 0.8525391 0.4047852
vt 0.8525391 0.253418
vt 0.4157715 0.9150391
vt 0.4157715 0.9848633
vt 0.4052734 0.9135742
vt 0.4052734 0.9863281
vt 0.4143066 0.9047852
vt 0.5273438 0.9047852
vt 0.4157715 0.9150391
vt 0.5258789 0.9150391
vt 0.7192383 0.4047852
vt 0.7192383 0.253418
vt 0.7304688 0.4047852
vt 0.7304688 0.253418

g Desert_Rock_01_(6)_589_179
usemtl Desert_Rock_01_(6)_589_179
usemap Desert_Rock_01_(6)_589_179
f 1/1/1 3/3/3 2/2/2
f 4/4/4 6/6/6 5/5/5
f 7/7/7 9/9/9 8/8/8
f 10/10/10 12/12/12 11/11/11
f 13/13/13 15/15/15 14/14/14
f 16/16/16 18/18/18 17/17/17
f 19/19/19 21/21/21 20/20/20
f 22/22/22 24/24/24 23/23/23
f 25/25/25 27/27/27 26/26/26
f 26/26/26 27/27/27 28/28/28
f 29/29/29 31/31/31 30/30/30
f 30/30/30 31/31/31 32/32/32
f 33/33/33 35/35/35 34/34/34
f 34/34/34 35/35/35 36/36/36
f 37/37/37 39/39/39 38/38/38
f 38/38/38 39/39/39 40/40/40
f 41/41/41 43/43/43 42/42/42
f 42/42/42 43/43/43 44/44/44
f 45/45/45 47/47/47 46/46/46
f 46/46/46 47/47/47 48/48/48
f 49/49/49 51/51/51 50/50/50
f 50/50/50 51/51/51 52/52/52
f 53/53/53 55/55/55 54/54/54
f 54/54/54 55/55/55 56/56/56
f 57/57/57 59/59/59 58/58/58
f 58/58/58 59/59/59 60/60/60
f 61/61/61 63/63/63 62/62/62
f 62/62/62 63/63/63 64/64/64
f 65/65/65 67/67/67 66/66/66
f 66/66/66 67/67/67 68/68/68
f 69/69/69 71/71/71 70/70/70
f 70/70/70 71/71/71 72/72/72
f 73/73/73 75/75/75 74/74/74
f 74/74/74 75/75/75 76/76/76
f 77/77/77 79/79/79 78/78/78
f 78/78/78 79/79/79 80/80/80
f 81/81/81 83/83/83 82/82/82
f 82/82/82 83/83/83 84/84/84
f 85/85/85 87/87/87 86/86/86
f 86/86/86 87/87/87 88/88/88
f 89/89/89 91/91/91 90/90/90
f 90/90/90 91/91/91 92/92/92
f 93/93/93 95/95/95 94/94/94
f 94/94/94 95/95/95 96/96/96
