#Desert_Wall_High_02_(8)_570_134.obj

v 0.6014829 -1.877609E-08 -4.257562E-07
v 0.6014771 -1.877609E-08 5
v 0.3266281 5 5
v 0.3266276 5 -1.391975E-06
v 0.3266281 5 5
v 0.6014771 -1.877609E-08 5
v 0.6014776 -1.877609E-08 9.999999
v 0.3266286 5 9.999999
v 0.3266281 5 5
v 0.3266286 5 9.999999
v 1.385297E-06 5 9.999999
v 8.757929E-07 5 4.999999
v 0.3266276 5 -1.391975E-06
v 3.662892E-07 5 -6.328424E-07
v 0.3266286 5 9.999999
v 0.6014776 -1.877609E-08 9.999999
v 1.385297E-06 -1.877609E-08 9.999999
v 1.385297E-06 5 9.999999
v -0.3266258 5 9.999999
v -0.6014812 -1.877609E-08 9.999999
v 0.6014829 -1.877609E-08 -4.257562E-07
v 0.3266276 5 -1.391975E-06
v 3.662892E-07 5 -6.328424E-07
v 3.662892E-07 -1.877609E-08 -6.328424E-07
v -0.6014822 -1.877609E-08 -8.399287E-07
v -0.3266268 5 1.262901E-07
v -0.6014822 -1.877609E-08 -8.399287E-07
v -0.3266268 5 1.262901E-07
v -0.3266263 5 4.999999
v -0.6014817 -1.877609E-08 4.999999
v -0.3266263 5 4.999999
v -0.3266258 5 9.999999
v -0.6014812 -1.877609E-08 9.999999
v -0.6014817 -1.877609E-08 4.999999
v -0.3266263 5 4.999999
v 8.757929E-07 5 4.999999
v 1.385297E-06 5 9.999999
v -0.3266258 5 9.999999
v -0.3266268 5 1.262901E-07
v 3.662892E-07 5 -6.328424E-07

vn 2.861023E-06 0.0657959 0.9975586
vn 2.861023E-06 0.0657959 0.9975586
vn 2.861023E-06 0.0657959 0.9975586
vn 2.861023E-06 0.0657959 0.9975586
vn 2.861023E-06 0.0657959 0.9975586
vn 2.861023E-06 0.0657959 0.9975586
vn 2.861023E-06 0.0657959 0.9975586
vn 2.861023E-06 0.0657959 0.9975586
vn 0 1 0
vn 0 1 0
vn 0 1 0
vn 0 1 0
vn 0 1 0
vn 0 1 0
vn -1 0 2.920628E-06
vn -1 0 2.920628E-06
vn -1 0 2.920628E-06
vn -1 0 2.920628E-06
vn -1 0 2.920628E-06
vn -1 0 2.920628E-06
vn 1 0 -2.920628E-06
vn 1 0 -2.920628E-06
vn 1 0 -2.920628E-06
vn 1 0 -2.920628E-06
vn 1 0 -2.920628E-06
vn 1 0 -2.920628E-06
vn -2.861023E-06 0.0657959 -0.9975586
vn -2.861023E-06 0.0657959 -0.9975586
vn -2.861023E-06 0.0657959 -0.9975586
vn -2.861023E-06 0.0657959 -0.9975586
vn -2.861023E-06 0.0657959 -0.9975586
vn -2.861023E-06 0.0657959 -0.9975586
vn -2.861023E-06 0.0657959 -0.9975586
vn -2.861023E-06 0.0657959 -0.9975586
vn 0 1 0
vn 0 1 0
vn 0 1 0
vn 0 1 0
vn 0 1 0
vn 0 1 0

vt 0.6118164 0.6108398
vt 0.996582 0.6108398
vt 0.996582 0.996582
vt 0.6118164 0.996582
vt 0.2230225 0.996582
vt 0.2230225 0.6108398
vt 0.6079102 0.6108398
vt 0.6079102 0.996582
vt 0.001843452 0.3867188
vt 0.001843452 0.001843452
vt 0.0269928 0.001843452
vt 0.0269928 0.3867188
vt 0.001843452 0.7714844
vt 0.0269928 0.7714844
vt 0.07183838 0.9960938
vt 0.07183838 0.6108398
vt 0.107605 0.6108398
vt 0.107605 0.9960938
vt 0.07183838 0.9960938
vt 0.07183838 0.6108398
vt 0.996582 0.001843452
vt 0.996582 0.3869629
vt 0.9609375 0.3869629
vt 0.9609375 0.001843452
vt 0.996582 0.001843452
vt 0.996582 0.3869629
vt 0.6118164 0.6108398
vt 0.6118164 0.996582
vt 0.996582 0.996582
vt 0.996582 0.6108398
vt 0.2230225 0.996582
vt 0.6079102 0.996582
vt 0.6079102 0.6108398
vt 0.2230225 0.6108398
vt 0.001843452 0.3867188
vt 0.0269928 0.3867188
vt 0.0269928 0.001843452
vt 0.001843452 0.001843452
vt 0.001843452 0.7714844
vt 0.0269928 0.7714844

g Desert_Wall_High_02_(8)_570_134
usemtl Desert_Wall_High_02_(8)_570_134
usemap Desert_Wall_High_02_(8)_570_134
f 1/1/1 3/3/3 2/2/2
f 1/1/1 4/4/4 3/3/3
f 5/5/5 7/7/7 6/6/6
f 5/5/5 8/8/8 7/7/7
f 9/9/9 11/11/11 10/10/10
f 9/9/9 12/12/12 11/11/11
f 13/13/13 12/12/12 9/9/9
f 13/13/13 14/14/14 12/12/12
f 15/15/15 17/17/17 16/16/16
f 15/15/15 18/18/18 17/17/17
f 19/19/19 17/17/17 18/18/18
f 19/19/19 20/20/20 17/17/17
f 21/21/21 23/23/23 22/22/22
f 21/21/21 24/24/24 23/23/23
f 25/25/25 23/23/23 24/24/24
f 25/25/25 26/26/26 23/23/23
f 27/27/27 29/29/29 28/28/28
f 27/27/27 30/30/30 29/29/29
f 31/31/31 33/33/33 32/32/32
f 31/31/31 34/34/34 33/33/33
f 35/35/35 37/37/37 36/36/36
f 35/35/35 38/38/38 37/37/37
f 39/39/39 35/35/35 36/36/36
f 39/39/39 36/36/36 40/40/40
