#Desert_Wall_High_01_(1)_685_122.obj

v 0.3265125 5 1.025226E-06
v 0.6012699 -1.009636E-07 1.137418E-06
v 0.6012738 -1.009636E-07 5.000001
v 0.3265126 5 5.000002
v 0.3265125 5 1.025226E-06
v 0.3265126 5 5.000002
v -2.641818E-06 5 5.000001
v -2.696204E-06 5 1.071548E-06
v -0.3265179 5 1.117871E-06
v -0.3265179 5 5.000002
v 0.3265126 5 5.000002
v 0.6012738 -1.009636E-07 5.000001
v -2.641818E-06 -1.009636E-07 5.000001
v -2.641818E-06 5 5.000001
v -0.3265179 5 5.000002
v -0.6012753 -1.009636E-07 5.000001
v 0.6012699 -1.009636E-07 1.137418E-06
v 0.3265125 5 1.025226E-06
v -2.696204E-06 5 1.071548E-06
v -2.696204E-06 -1.009636E-07 1.071548E-06
v -0.6012753 -1.009636E-07 1.005679E-06
v -0.3265179 5 1.117871E-06
v -0.3265179 5 1.117871E-06
v -0.3265179 5 5.000002
v -0.6012753 -1.009636E-07 5.000001
v -0.6012753 -1.009636E-07 1.005679E-06

vn 2.861023E-06 0.05477905 -0.9980469
vn 2.861023E-06 0.05477905 -0.9980469
vn 2.861023E-06 0.05477905 -0.9980469
vn 2.861023E-06 0.05477905 -0.9980469
vn 0 0.9995117 0
vn 0 0.9995117 0
vn 0 0.9995117 0
vn 0 0.9995117 0
vn 0 0.9995117 0
vn 0 0.9995117 0
vn 1 0 2.861023E-06
vn 1 0 2.861023E-06
vn 1 0 2.861023E-06
vn 1 0 2.861023E-06
vn 1 0 2.861023E-06
vn 1 0 2.861023E-06
vn -1 0 -2.861023E-06
vn -1 0 -2.861023E-06
vn -1 0 -2.861023E-06
vn -1 0 -2.861023E-06
vn -1 0 -2.861023E-06
vn -1 0 -2.861023E-06
vn -2.861023E-06 0.05477905 0.9980469
vn -2.861023E-06 0.05477905 0.9980469
vn -2.861023E-06 0.05477905 0.9980469
vn -2.861023E-06 0.05477905 0.9980469

vt 0.07092285 0.387207
vt 0.07092285 0.001843452
vt 0.4558105 0.001843452
vt 0.4558105 0.387207
vt 0.3234863 0.5581055
vt 0.7084961 0.5581055
vt 0.7084961 0.5834961
vt 0.3234863 0.5834961
vt 0.3234863 0.5581055
vt 0.7084961 0.5581055
vt 0.1115112 0.9960938
vt 0.1115112 0.6108398
vt 0.1472168 0.6108398
vt 0.1472168 0.9960938
vt 0.1115112 0.9960938
vt 0.1115112 0.6108398
vt 0.9570313 0.001843452
vt 0.9570313 0.3869629
vt 0.9213867 0.3869629
vt 0.9213867 0.001843452
vt 0.9570313 0.001843452
vt 0.9570313 0.3869629
vt 0.07092285 0.387207
vt 0.4558105 0.387207
vt 0.4558105 0.001843452
vt 0.07092285 0.001843452

g Desert_Wall_High_01_(1)_685_122
usemtl Desert_Wall_High_01_(1)_685_122
usemap Desert_Wall_High_01_(1)_685_122
f 1/1/1 3/3/3 2/2/2
f 1/1/1 4/4/4 3/3/3
f 5/5/5 7/7/7 6/6/6
f 5/5/5 8/8/8 7/7/7
f 9/9/9 7/7/7 8/8/8
f 9/9/9 10/10/10 7/7/7
f 11/11/11 13/13/13 12/12/12
f 11/11/11 14/14/14 13/13/13
f 15/15/15 13/13/13 14/14/14
f 15/15/15 16/16/16 13/13/13
f 17/17/17 19/19/19 18/18/18
f 17/17/17 20/20/20 19/19/19
f 21/21/21 19/19/19 20/20/20
f 21/21/21 22/22/22 19/19/19
f 23/23/23 25/25/25 24/24/24
f 23/23/23 26/26/26 25/25/25
