#Desert_Wall_Small_Destro_620_59.obj

v 0.6012718 -1.009636E-07 1.784237E-06
v 0.4971192 1.89536 1.401119E-06
v -1.762616E-06 1.89536 1.870914E-06
v -1.762616E-06 -1.009636E-07 1.870914E-06
v -0.6012756 -1.009636E-07 1.544638E-06
v -0.4971227 1.89536 2.340708E-06
v 0.4971178 1.89536 1.628381
v -2.404464E-06 1.89536 1.613635
v -1.762616E-06 1.89536 1.870914E-06
v 0.4971192 1.89536 1.401119E-06
v -0.4971204 1.89536 1.628381
v -0.4971227 1.89536 2.340708E-06
v 0.516 1.551727 1.801695
v 0.4971178 1.89536 1.628381
v 0.4971192 1.89536 1.401119E-06
v 0.6012718 -1.009636E-07 1.784237E-06
v 0.5325599 1.250382 2.139741
v 0.5563515 0.8174558 3.375685
v 0.5803605 0.3805189 3.795725
v 0.585555 0.2859969 4.468271
v 0.6012724 -1.009636E-07 5.000001
v 0.4971178 1.89536 1.628381
v 0.516 1.551727 1.801695
v -1.228111E-06 1.551727 1.801694
v -2.404464E-06 1.89536 1.613635
v -0.4971204 1.89536 1.628381
v -0.5160058 1.551727 1.801694
v 0.516 1.551727 1.801695
v 0.5325599 1.250382 2.139741
v -2.616473E-06 1.250382 2.139741
v -1.228111E-06 1.551727 1.801694
v -0.5160058 1.551727 1.801694
v -0.5325654 1.250382 2.139741
v 0.5325599 1.250382 2.139741
v 0.5563515 0.8174558 3.375685
v -1.495058E-06 0.8174558 3.375685
v -2.616473E-06 1.250382 2.139741
v -0.5325654 1.250382 2.139741
v -0.5563545 0.8174558 3.375686
v 0.5563515 0.8174558 3.375685
v 0.5803605 0.3805189 3.795725
v -3.037826E-06 0.3805189 3.795725
v -1.495058E-06 0.8174558 3.375685
v -0.5563545 0.8174558 3.375686
v -0.5803633 0.3805189 3.795724
v 0.5803605 0.3805189 3.795725
v 0.585555 0.2859969 4.468271
v -1.986224E-06 0.2859969 4.468271
v -3.037826E-06 0.3805189 3.795725
v -0.5803633 0.3805189 3.795724
v -0.585559 0.2859969 4.468272
v 0.585555 0.2859969 4.468271
v 0.6012724 -1.009636E-07 5.000001
v -1.155579E-06 -1.009636E-07 5.000002
v -1.986224E-06 0.2859969 4.468271
v -0.585559 0.2859969 4.468272
v -0.6012782 -1.009636E-07 5.000003
v -0.6012756 -1.009636E-07 1.544638E-06
v -0.5160058 1.551727 1.801694
v -0.5325654 1.250382 2.139741
v -0.4971204 1.89536 1.628381
v -0.4971227 1.89536 2.340708E-06
v -0.5563545 0.8174558 3.375686
v -0.5803633 0.3805189 3.795724
v -0.585559 0.2859969 4.468272
v -0.6012782 -1.009636E-07 5.000003

vn -0.8657227 0 -0.5
vn -0.8657227 0 -0.5
vn -0.8657227 0 -0.5
vn -0.8657227 0 -0.5
vn -0.8657227 0 -0.5
vn -0.8657227 0 -0.5
vn 0 0.9995117 0
vn 0 0.9995117 0
vn 0 0.9995117 0
vn 0 0.9995117 0
vn 0 0.9995117 0
vn 0 0.9995117 0
vn 0.4990234 0.05477905 -0.8642578
vn 0.4990234 0.05477905 -0.8642578
vn 0.4990234 0.05477905 -0.8642578
vn 0.4990234 0.05477905 -0.8642578
vn 0.4990234 0.05477905 -0.8642578
vn 0.4990234 0.05477905 -0.8642578
vn 0.4990234 0.05477905 -0.8642578
vn 0.4990234 0.05477905 -0.8642578
vn 0.4990234 0.05477905 -0.8642578
vn 0.7597656 0.4648438 0.4536133
vn 0.7597656 0.4648438 0.4536133
vn 0.7597656 0.4648438 0.4536133
vn 0.7597656 0.4648438 0.4536133
vn 0.7729492 0.4648438 0.4313965
vn 0.7729492 0.4648438 0.4313965
vn 0.5761719 0.7460938 0.3325195
vn 0.5761719 0.7460938 0.3325195
vn 0.5761719 0.7460938 0.3325195
vn 0.5761719 0.7460938 0.3325195
vn 0.5761719 0.7460938 0.3325195
vn 0.5761719 0.7460938 0.3325195
vn 0.2861328 0.9433594 0.1651611
vn 0.2861328 0.9433594 0.1651611
vn 0.2861328 0.9433594 0.1651611
vn 0.2861328 0.9433594 0.1651611
vn 0.2861328 0.9433594 0.1651611
vn 0.2861328 0.9433594 0.1651611
vn 0.6240234 0.6928711 0.3603516
vn 0.6240234 0.6928711 0.3603516
vn 0.6240234 0.6928711 0.3603516
vn 0.6240234 0.6928711 0.3603516
vn 0.6240234 0.6928711 0.3603516
vn 0.6240234 0.6928711 0.3603516
vn 0.1204834 0.9902344 0.06951904
vn 0.1204834 0.9902344 0.06951904
vn 0.1204834 0.9902344 0.06951904
vn 0.1204834 0.9902344 0.06951904
vn 0.1204834 0.9902344 0.06951904
vn 0.1204834 0.9902344 0.06951904
vn 0.4101563 0.8803711 0.2368164
vn 0.4101563 0.8803711 0.2368164
vn 0.4101563 0.8803711 0.2368164
vn 0.4101563 0.8803711 0.2368164
vn 0.4101563 0.8803711 0.2368164
vn 0.4101563 0.8803711 0.2368164
vn -0.4990234 0.05477905 0.8642578
vn -0.4990234 0.05477905 0.8642578
vn -0.4990234 0.05477905 0.8642578
vn -0.4990234 0.05477905 0.8642578
vn -0.4990234 0.05477905 0.8642578
vn -0.4990234 0.05477905 0.8642578
vn -0.4990234 0.05477905 0.8642578
vn -0.4990234 0.05477905 0.8642578
vn -0.4990234 0.05477905 0.8642578

vt 0.5268555 0.3081055
vt 0.5268555 0.4580078
vt 0.5703125 0.4580078
vt 0.5703125 0.3081055
vt 0.6137695 0.3081055
vt 0.6137695 0.4580078
vt 0.550293 0.7109375
vt 0.5112305 0.7109375
vt 0.5112305 0.8393555
vt 0.550293 0.8393555
vt 0.4719238 0.7109375
vt 0.4719238 0.8393555
vt 0.6064453 0.2819824
vt 0.6201172 0.309082
vt 0.7485352 0.309082
vt 0.7485352 0.1591797
vt 0.5795898 0.2580566
vt 0.4821777 0.223877
vt 0.4489746 0.1893311
vt 0.395752 0.1817627
vt 0.3537598 0.1591797
vt 0.284668 0.8393555
vt 0.284668 0.809082
vt 0.2409668 0.809082
vt 0.2409668 0.8393555
vt 0.1973877 0.8393555
vt 0.1973877 0.809082
vt 0.284668 0.809082
vt 0.284668 0.7729492
vt 0.2409668 0.7729492
vt 0.2409668 0.809082
vt 0.1973877 0.809082
vt 0.1973877 0.7729492
vt 0.284668 0.7729492
vt 0.284668 0.6694336
vt 0.2409668 0.6694336
vt 0.2409668 0.7729492
vt 0.1973877 0.7729492
vt 0.1973877 0.6694336
vt 0.284668 0.6694336
vt 0.284668 0.621582
vt 0.2409668 0.621582
vt 0.2409668 0.6694336
vt 0.1973877 0.6694336
vt 0.1973877 0.621582
vt 0.284668 0.621582
vt 0.284668 0.5678711
vt 0.2409668 0.5678711
vt 0.2409668 0.621582
vt 0.1973877 0.621582
vt 0.1973877 0.5678711
vt 0.284668 0.5678711
vt 0.284668 0.5200195
vt 0.2409668 0.5200195
vt 0.2409668 0.5678711
vt 0.1973877 0.5678711
vt 0.1973877 0.5200195
vt 0.1973877 0.2753906
vt 0.3395996 0.3984375
vt 0.3664551 0.3745117
vt 0.3259277 0.4255371
vt 0.1973877 0.4255371
vt 0.4641113 0.3400879
vt 0.4973145 0.3056641
vt 0.550293 0.2980957
vt 0.5922852 0.2753906

g Desert_Wall_Small_Destro_620_59
usemtl Desert_Wall_Small_Destro_620_59
usemap Desert_Wall_Small_Destro_620_59
f 1/1/1 3/3/3 2/2/2
f 1/1/1 4/4/4 3/3/3
f 5/5/5 3/3/3 4/4/4
f 5/5/5 6/6/6 3/3/3
f 7/7/7 9/9/9 8/8/8
f 7/7/7 10/10/10 9/9/9
f 11/11/11 8/8/8 9/9/9
f 11/11/11 9/9/9 12/12/12
f 13/13/13 15/15/15 14/14/14
f 13/13/13 16/16/16 15/15/15
f 17/17/17 16/16/16 13/13/13
f 18/18/18 16/16/16 17/17/17
f 19/19/19 16/16/16 18/18/18
f 20/20/20 16/16/16 19/19/19
f 21/21/21 16/16/16 20/20/20
f 22/22/22 24/24/24 23/23/23
f 22/22/22 25/25/25 24/24/24
f 26/26/26 24/24/24 25/25/25
f 26/26/26 27/27/27 24/24/24
f 28/28/28 30/30/30 29/29/29
f 28/28/28 31/31/31 30/30/30
f 32/32/32 30/30/30 31/31/31
f 32/32/32 33/33/33 30/30/30
f 34/34/34 36/36/36 35/35/35
f 34/34/34 37/37/37 36/36/36
f 38/38/38 36/36/36 37/37/37
f 38/38/38 39/39/39 36/36/36
f 40/40/40 42/42/42 41/41/41
f 40/40/40 43/43/43 42/42/42
f 44/44/44 42/42/42 43/43/43
f 44/44/44 45/45/45 42/42/42
f 46/46/46 48/48/48 47/47/47
f 46/46/46 49/49/49 48/48/48
f 50/50/50 48/48/48 49/49/49
f 50/50/50 51/51/51 48/48/48
f 52/52/52 54/54/54 53/53/53
f 52/52/52 55/55/55 54/54/54
f 56/56/56 54/54/54 55/55/55
f 56/56/56 57/57/57 54/54/54
f 58/58/58 60/60/60 59/59/59
f 58/58/58 59/59/59 61/61/61
f 58/58/58 61/61/61 62/62/62
f 58/58/58 63/63/63 60/60/60
f 58/58/58 64/64/64 63/63/63
f 58/58/58 65/65/65 64/64/64
f 66/66/66 65/65/65 58/58/58
