#Desert_Wall_Small_Column_(5)_496_42.obj

v 0.6980065 1.925388 -0.7329018
v 0.844248 0 -0.863196
v 0.8442456 0 -1.196025E-07
v 0.6980099 1.925388 -4.659768E-06
v 0.8442455 0 0.8631982
v 0.6980084 1.925388 0.7329022
v 3.308539E-06 1.925388 -0.7329051
v 1.800213E-06 0 -0.8631965
v 0.844248 0 -0.863196
v 0.6980065 1.925388 -0.7329018
v -0.8442535 0 -0.8631915
v -0.6980072 1.925388 -0.732901
v -0.6980039 1.925388 -3.989741E-06
v -0.8442487 0 -3.030873E-06
v -0.8442535 0 -0.8631915
v -0.6980072 1.925388 -0.732901
v -0.6980054 1.925388 0.7329028
v -0.8442487 0 0.8631952
v -6.587421E-07 1.925388 -6.587359E-07
v 3.308539E-06 1.925388 -0.7329051
v 0.6980065 1.925388 -0.7329018
v 0.6980099 1.925388 -4.659768E-06
v -0.6980072 1.925388 -0.732901
v -0.6980039 1.925388 -3.989741E-06
v -2.191542E-06 1.925388 0.7329062
v 0.6980084 1.925388 0.7329022
v -0.6980054 1.925388 0.7329028
v -2.191542E-06 1.925388 0.7329062
v -6.832153E-07 0 0.8631976
v -0.8442487 0 0.8631952
v -0.6980054 1.925388 0.7329028
v 0.6980084 1.925388 0.7329022
v 0.8442455 0 0.8631982
v -0.8442487 0 -3.030873E-06
v -1.260202E-06 0 -1.26019E-06
v -0.8442535 0 -0.8631915
v 1.800213E-06 0 -0.8631965
v 0.844248 0 -0.863196
v 0.8442456 0 -1.196025E-07
v -0.8442487 0 0.8631952
v -6.832153E-07 0 0.8631976
v 0.8442455 0 0.8631982

vn 0.6918945 0.2061768 -0.6918945
vn 0.6918945 0.2061768 -0.6918945
vn 0.6918945 0.2061768 -0.6918945
vn 0.6918945 0.2061768 -0.6918945
vn 0.6918945 0.2061768 -0.6918945
vn 0.6918945 0.2061768 -0.6918945
vn -0.6948242 0.1846924 -0.6948242
vn -0.6948242 0.1846924 -0.6948242
vn -0.6948242 0.1846924 -0.6948242
vn -0.6948242 0.1846924 -0.6948242
vn -0.6948242 0.1846924 -0.6948242
vn -0.6948242 0.1846924 -0.6948242
vn -0.6918945 0.2061768 0.6918945
vn -0.6918945 0.2061768 0.6918945
vn -0.6918945 0.2061768 0.6918945
vn -0.6918945 0.2061768 0.6918945
vn -0.6918945 0.2061768 0.6918945
vn -0.6918945 0.2061768 0.6918945
vn 0 1 0
vn 0 1 0
vn 0 1 0
vn 0 1 0
vn 0 1 0
vn 0 1 0
vn 0 1 0
vn 0 1 0
vn 0 1 0
vn 0.6948242 0.1846924 0.6948242
vn 0.6948242 0.1846924 0.6948242
vn 0.6948242 0.1846924 0.6948242
vn 0.6948242 0.1846924 0.6948242
vn 0.6948242 0.1846924 0.6948242
vn 0.6948242 0.1846924 0.6948242
vn 0 -1 0
vn 0 -1 0
vn 0 -1 0
vn 0 -1 0
vn 0 -1 0
vn 0 -1 0
vn 0 -1 0
vn 0 -1 0
vn 0 -1 0

vt 0.5078125 0.527832
vt 0.5078125 0.375
vt 0.4448242 0.375
vt 0.4448242 0.527832
vt 0.3815918 0.375
vt 0.3815918 0.527832
vt 0.6884766 0.4682617
vt 0.6884766 0.3154297
vt 0.6274414 0.3154297
vt 0.6274414 0.4682617
vt 0.7490234 0.3154297
vt 0.7490234 0.4682617
vt 0.3535156 0.8388672
vt 0.3535156 0.6860352
vt 0.2902832 0.6860352
vt 0.2902832 0.8388672
vt 0.4165039 0.8388672
vt 0.4165039 0.6860352
vt 0.5083008 0.5922852
vt 0.5083008 0.6499023
vt 0.5634766 0.6499023
vt 0.5634766 0.5922852
vt 0.4533691 0.6499023
vt 0.4533691 0.5922852
vt 0.5083008 0.5341797
vt 0.5634766 0.5341797
vt 0.4533691 0.5341797
vt 0.6425781 0.8212891
vt 0.6425781 0.668457
vt 0.581543 0.668457
vt 0.581543 0.8212891
vt 0.7036133 0.8212891
vt 0.7036133 0.668457
vt 0.5698242 0.5942383
vt 0.6362305 0.5942383
vt 0.5698242 0.5258789
vt 0.6362305 0.5258789
vt 0.703125 0.5258789
vt 0.703125 0.5942383
vt 0.5698242 0.6621094
vt 0.6362305 0.6621094
vt 0.703125 0.6621094

g Desert_Wall_Small_Column_(5)_496_42
usemtl Desert_Wall_Small_Column_(5)_496_42
usemap Desert_Wall_Small_Column_(5)_496_42
f 1/1/1 3/3/3 2/2/2
f 1/1/1 4/4/4 3/3/3
f 4/4/4 5/5/5 3/3/3
f 4/4/4 6/6/6 5/5/5
f 7/7/7 9/9/9 8/8/8
f 7/7/7 10/10/10 9/9/9
f 11/11/11 7/7/7 8/8/8
f 11/11/11 12/12/12 7/7/7
f 13/13/13 15/15/15 14/14/14
f 13/13/13 16/16/16 15/15/15
f 17/17/17 13/13/13 14/14/14
f 17/17/17 14/14/14 18/18/18
f 19/19/19 21/21/21 20/20/20
f 19/19/19 22/22/22 21/21/21
f 19/19/19 20/20/20 23/23/23
f 19/19/19 23/23/23 24/24/24
f 25/25/25 22/22/22 19/19/19
f 25/25/25 19/19/19 24/24/24
f 25/25/25 26/26/26 22/22/22
f 25/25/25 24/24/24 27/27/27
f 28/28/28 30/30/30 29/29/29
f 28/28/28 31/31/31 30/30/30
f 32/32/32 28/28/28 29/29/29
f 32/32/32 29/29/29 33/33/33
f 34/34/34 36/36/36 35/35/35
f 36/36/36 37/37/37 35/35/35
f 37/37/37 38/38/38 35/35/35
f 38/38/38 39/39/39 35/35/35
f 40/40/40 34/34/34 35/35/35
f 41/41/41 40/40/40 35/35/35
f 39/39/39 42/42/42 35/35/35
f 42/42/42 41/41/41 35/35/35
