#Desert_Wall_Small_Column_(2)_757_49.obj

v 0.6980062 1.925388 -0.732902
v 0.8442432 -1.877609E-08 -0.8631925
v 0.8442467 -1.877609E-08 -9.457173E-07
v 0.6980022 1.925388 2.137949E-06
v 0.8442458 -1.877609E-08 0.8631975
v 0.6980059 1.925388 0.732904
v -4.886768E-06 1.925388 -0.7328988
v 4.205135E-07 -1.877609E-08 -0.8631947
v 0.8442432 -1.877609E-08 -0.8631925
v 0.6980062 1.925388 -0.732902
v -0.8442508 -1.877609E-08 -0.8631954
v -0.6980093 1.925388 -0.7328995
v -0.6980077 1.925388 -7.355739E-07
v -0.8442534 -1.877609E-08 8.246109E-07
v -0.8442508 -1.877609E-08 -0.8631954
v -0.6980093 1.925388 -0.7328995
v -0.6980094 1.925388 0.7329065
v -0.8442544 -1.877609E-08 0.8631993
v -2.798891E-06 1.925388 7.011874E-07
v -4.886768E-06 1.925388 -0.7328988
v 0.6980062 1.925388 -0.732902
v 0.6980022 1.925388 2.137949E-06
v -0.6980093 1.925388 -0.7328995
v -0.6980077 1.925388 -7.355739E-07
v -5.083541E-06 1.925388 0.7329071
v 0.6980059 1.925388 0.732904
v -0.6980094 1.925388 0.7329065
v -5.083541E-06 1.925388 0.7329071
v -3.723098E-06 -1.877609E-08 0.8631992
v -0.8442544 -1.877609E-08 0.8631993
v -0.6980094 1.925388 0.7329065
v 0.6980059 1.925388 0.732904
v 0.8442458 -1.877609E-08 0.8631975
v -0.8442534 -1.877609E-08 8.246109E-07
v -3.372691E-06 -1.877609E-08 -6.055323E-08
v -0.8442508 -1.877609E-08 -0.8631954
v 4.205135E-07 -1.877609E-08 -0.8631947
v 0.8442432 -1.877609E-08 -0.8631925
v 0.8442467 -1.877609E-08 -9.457173E-07
v -0.8442544 -1.877609E-08 0.8631993
v -3.723098E-06 -1.877609E-08 0.8631992
v 0.8442458 -1.877609E-08 0.8631975

vn 0.5996094 0.07562256 -0.7963867
vn 0.5996094 0.07562256 -0.7963867
vn 0.5996094 0.07562256 -0.7963867
vn 0.5996094 0.07562256 -0.7963867
vn 0.5996094 0.07562256 -0.7963867
vn 0.5996094 0.07562256 -0.7963867
vn -0.796875 0.06750488 -0.6000977
vn -0.796875 0.06750488 -0.6000977
vn -0.796875 0.06750488 -0.6000977
vn -0.796875 0.06750488 -0.6000977
vn -0.796875 0.06750488 -0.6000977
vn -0.796875 0.06750488 -0.6000977
vn -0.5996094 0.07562256 0.7963867
vn -0.5996094 0.07562256 0.7963867
vn -0.5996094 0.07562256 0.7963867
vn -0.5996094 0.07562256 0.7963867
vn -0.5996094 0.07562256 0.7963867
vn -0.5996094 0.07562256 0.7963867
vn 0 0.9995117 0
vn 0 0.9995117 0
vn 0 0.9995117 0
vn 0 0.9995117 0
vn 0 0.9995117 0
vn 0 0.9995117 0
vn 0 0.9995117 0
vn 0 0.9995117 0
vn 0 0.9995117 0
vn 0.796875 0.06750488 0.6000977
vn 0.796875 0.06750488 0.6000977
vn 0.796875 0.06750488 0.6000977
vn 0.796875 0.06750488 0.6000977
vn 0.796875 0.06750488 0.6000977
vn 0.796875 0.06750488 0.6000977
vn 0 -0.9995117 0
vn 0 -0.9995117 0
vn 0 -0.9995117 0
vn 0 -0.9995117 0
vn 0 -0.9995117 0
vn 0 -0.9995117 0
vn 0 -0.9995117 0
vn 0 -0.9995117 0
vn 0 -0.9995117 0

vt 0.5078125 0.527832
vt 0.5078125 0.375
vt 0.4448242 0.375
vt 0.4448242 0.527832
vt 0.3815918 0.375
vt 0.3815918 0.527832
vt 0.6884766 0.4682617
vt 0.6884766 0.3154297
vt 0.6274414 0.3154297
vt 0.6274414 0.4682617
vt 0.7490234 0.3154297
vt 0.7490234 0.4682617
vt 0.3535156 0.8388672
vt 0.3535156 0.6860352
vt 0.2902832 0.6860352
vt 0.2902832 0.8388672
vt 0.4165039 0.8388672
vt 0.4165039 0.6860352
vt 0.5083008 0.5922852
vt 0.5083008 0.6499023
vt 0.5634766 0.6499023
vt 0.5634766 0.5922852
vt 0.4533691 0.6499023
vt 0.4533691 0.5922852
vt 0.5083008 0.5341797
vt 0.5634766 0.5341797
vt 0.4533691 0.5341797
vt 0.6425781 0.8212891
vt 0.6425781 0.668457
vt 0.581543 0.668457
vt 0.581543 0.8212891
vt 0.7036133 0.8212891
vt 0.7036133 0.668457
vt 0.5698242 0.5942383
vt 0.6362305 0.5942383
vt 0.5698242 0.5258789
vt 0.6362305 0.5258789
vt 0.703125 0.5258789
vt 0.703125 0.5942383
vt 0.5698242 0.6621094
vt 0.6362305 0.6621094
vt 0.703125 0.6621094

g Desert_Wall_Small_Column_(2)_757_49
usemtl Desert_Wall_Small_Column_(2)_757_49
usemap Desert_Wall_Small_Column_(2)_757_49
f 1/1/1 3/3/3 2/2/2
f 1/1/1 4/4/4 3/3/3
f 4/4/4 5/5/5 3/3/3
f 4/4/4 6/6/6 5/5/5
f 7/7/7 9/9/9 8/8/8
f 7/7/7 10/10/10 9/9/9
f 11/11/11 7/7/7 8/8/8
f 11/11/11 12/12/12 7/7/7
f 13/13/13 15/15/15 14/14/14
f 13/13/13 16/16/16 15/15/15
f 17/17/17 13/13/13 14/14/14
f 17/17/17 14/14/14 18/18/18
f 19/19/19 21/21/21 20/20/20
f 19/19/19 22/22/22 21/21/21
f 19/19/19 20/20/20 23/23/23
f 19/19/19 23/23/23 24/24/24
f 25/25/25 22/22/22 19/19/19
f 25/25/25 19/19/19 24/24/24
f 25/25/25 26/26/26 22/22/22
f 25/25/25 24/24/24 27/27/27
f 28/28/28 30/30/30 29/29/29
f 28/28/28 31/31/31 30/30/30
f 32/32/32 28/28/28 29/29/29
f 32/32/32 29/29/29 33/33/33
f 34/34/34 36/36/36 35/35/35
f 36/36/36 37/37/37 35/35/35
f 37/37/37 38/38/38 35/35/35
f 38/38/38 39/39/39 35/35/35
f 40/40/40 34/34/34 35/35/35
f 41/41/41 40/40/40 35/35/35
f 39/39/39 42/42/42 35/35/35
f 42/42/42 41/41/41 35/35/35
