#Desert_Sand_dune_01_(18)_540_68.obj

v -1.927131 -8.232321E-09 0.1313325
v -1.912089 -8.232321E-09 0.357993
v -2.665369 -8.232321E-09 0.548683
v -2.605788 1.448636E-07 0.2521237
v -0.784875 -8.232321E-09 0.3571779
v -0.7804618 -4.557279E-08 0.08905249
v 0.2650462 1.043791E-08 0.1705176
v 0.2421356 -4.557279E-08 0.4750115
v 1.230568 6.831564E-08 0.6037487
v 1.289966 -8.232321E-09 0.2926618
v 2.07984 1.448636E-07 0.3880988
v 1.992906 1.448636E-07 0.6984289
v 2.530036 1.448636E-07 0.7980518
v 2.517462 -8.232321E-09 0.4279659
v 3.259319 -1.613283E-07 0.4855304
v 3.381994 -8.232321E-09 0.8339168
v 4.22059 6.022844E-07 0.2385802
v 4.523259 -3.125571E-07 0.4893468
v 4.332742 -8.232321E-09 0.0900151
v 4.807483 -8.232321E-09 0.2538257
v 4.381542 -8.232321E-09 -0.08605127
v 4.861458 2.960925E-07 0.03638493
v 4.090988 -3.125571E-07 -0.6724944
v 4.406577 -3.125571E-07 -0.8635393
v 3.435779 2.960925E-07 -1.786305
v 3.127603 -1.613283E-07 -1.498859
v 2.51735 -8.232321E-09 -1.912597
v 2.689324 -1.613283E-07 -2.202721
v 1.713097 -8.23232E-09 -2.569236
v 1.623729 1.448636E-07 -2.23238
v 0.3739204 -8.232321E-09 -2.336045
v 0.3494302 -4.557279E-08 -2.701835
v -0.9194425 -4.557279E-08 -2.561152
v -0.8046334 2.910815E-08 -2.215534
v -2.059545 1.448636E-07 -1.779626
v -2.262607 1.448636E-07 -2.055179
v -3.053087 1.448636E-07 -1.702574
v -2.774589 -8.232321E-09 -1.428692
v -3.6882 2.960925E-07 -0.918018
v -3.910361 2.960925E-07 -1.099208
v -4.303951 -3.125572E-07 -0.102439
v -4.744997 2.960925E-07 0.01614541
v -4.295415 -3.125572E-07 0.08735946
v -4.735555 -3.125572E-07 0.2505465
v -4.215519 2.960925E-07 0.2507714
v -4.647187 -3.125572E-07 0.4523599
v -3.487273 -8.232321E-09 0.4651507
v -3.5915 2.960925E-07 0.7072016

vn 0.3198242 0.9257813 -0.1990967
vn 0 1 0
vn 0 1 0
vn 0.2351074 0.9604492 -0.1479492
vn 0 1 0
vn 0.3591309 0.9111328 -0.2012939
vn 0.3474121 0.9174805 -0.1920166
vn 0 1 0
vn 0 1 0
vn 0.3068848 0.9335938 -0.1827393
vn 0.2493896 0.9506836 -0.1817627
vn -5.960464E-08 1 5.960464E-08
vn -3.576279E-07 1 0
vn 0.1778564 0.9707031 -0.1604004
vn 0.1298828 0.9853516 -0.1078491
vn 2.980232E-07 1 -3.576279E-07
vn 0.05810547 0.9946289 -0.08532715
vn 3.576279E-07 1 -7.152557E-07
vn -0.0352478 0.9921875 -0.1191406
vn 2.384186E-07 1 -2.980232E-07
vn -0.1123657 0.9902344 -0.08050537
vn 2.384186E-07 1 3.576279E-07
vn -0.177002 0.9814453 -0.07299805
vn 2.980232E-07 1 1.192093E-07
vn 4.768372E-07 1 0
vn -0.2458496 0.9658203 -0.08172607
vn -0.3049316 0.9521484 -0.01448059
vn 0 1 0
vn -2.384186E-07 1 0
vn -0.3024902 0.9482422 0.09216309
vn -0.284668 0.9433594 0.1693115
vn -1.192093E-07 1 5.960464E-08
vn -5.960464E-08 1 5.960464E-08
vn -0.2327881 0.9418945 0.2420654
vn -0.1651611 0.9379883 0.3044434
vn 0 1 0
vn 0 1 -1.788139E-07
vn -0.08410645 0.9521484 0.2927246
vn -0.03677368 0.9814453 0.1861572
vn 0 1 -6.556511E-07
vn 0.009628296 0.9936523 0.1091309
vn 2.384186E-07 1 -1.251698E-06
vn 0.08032227 0.9931641 0.08294678
vn 5.960464E-08 1 5.960464E-08
vn 0.09399414 0.9951172 -0.01473236
vn 1.192093E-07 1 6.556511E-07
vn 0.1394043 0.9863281 -0.08648682
vn 1.788139E-07 1 5.960464E-08

vt 0.2878418 0.345459
vt 0.3054199 0.3183594
vt 0.24646 0.2531738
vt 0.2312012 0.2927246
vt 0.4138184 0.3811035
vt 0.3952637 0.4143066
vt 0.5014648 0.4624023
vt 0.5209961 0.4238281
vt 0.625 0.4628906
vt 0.6088867 0.5043945
vt 0.6914063 0.5366211
vt 0.7050781 0.4936523
vt 0.7636719 0.5112305
vt 0.7363281 0.5556641
vt 0.8120117 0.5898438
vt 0.8486328 0.5541992
vt 0.887207 0.6738281
vt 0.934082 0.659668
vt 0.887207 0.6982422
vt 0.9448242 0.7045898
vt 0.8793945 0.7226563
vt 0.9345703 0.7338867
vt 0.8100586 0.7783203
vt 0.8271484 0.8193359
vt 0.668457 0.878418
vt 0.6586914 0.8256836
vt 0.5708008 0.8427734
vt 0.5668945 0.8876953
vt 0.4472656 0.878418
vt 0.4624023 0.8320313
vt 0.3347168 0.7753906
vt 0.3066406 0.8188477
vt 0.194458 0.730957
vt 0.2299805 0.6953125
vt 0.1400146 0.5722656
vt 0.1009521 0.5947266
vt 0.04986572 0.5073242
vt 0.0960083 0.489502
vt 0.04425049 0.3759766
vt 0.01006317 0.3859863
vt 0.04269409 0.2419434
vt 0.008651733 0.2028809
vt 0.0569458 0.2192383
vt 0.02613831 0.1746826
vt 0.07617188 0.2036133
vt 0.04891968 0.1549072
vt 0.161377 0.2177734
vt 0.168457 0.182373

g Desert_Sand_dune_01_(18)_540_68
usemtl Desert_Sand_dune_01_(18)_540_68
usemap Desert_Sand_dune_01_(18)_540_68
f 1/1/1 3/3/3 2/2/2
f 1/1/1 4/4/4 3/3/3
f 5/5/5 1/1/1 2/2/2
f 5/5/5 6/6/6 1/1/1
f 7/7/7 6/6/6 5/5/5
f 7/7/7 5/5/5 8/8/8
f 9/9/9 7/7/7 8/8/8
f 9/9/9 10/10/10 7/7/7
f 11/11/11 10/10/10 9/9/9
f 11/11/11 9/9/9 12/12/12
f 13/13/13 11/11/11 12/12/12
f 13/13/13 14/14/14 11/11/11
f 15/15/15 14/14/14 13/13/13
f 15/15/15 13/13/13 16/16/16
f 17/17/17 15/15/15 16/16/16
f 17/17/17 16/16/16 18/18/18
f 19/19/19 17/17/17 18/18/18
f 19/19/19 18/18/18 20/20/20
f 21/21/21 19/19/19 20/20/20
f 21/21/21 20/20/20 22/22/22
f 23/23/23 21/21/21 22/22/22
f 23/23/23 22/22/22 24/24/24
f 25/25/25 23/23/23 24/24/24
f 25/25/25 26/26/26 23/23/23
f 27/27/27 26/26/26 25/25/25
f 27/27/27 25/25/25 28/28/28
f 29/29/29 27/27/27 28/28/28
f 29/29/29 30/30/30 27/27/27
f 31/31/31 30/30/30 29/29/29
f 31/31/31 29/29/29 32/32/32
f 33/33/33 31/31/31 32/32/32
f 33/33/33 34/34/34 31/31/31
f 35/35/35 34/34/34 33/33/33
f 35/35/35 33/33/33 36/36/36
f 37/37/37 35/35/35 36/36/36
f 37/37/37 38/38/38 35/35/35
f 39/39/39 38/38/38 37/37/37
f 39/39/39 37/37/37 40/40/40
f 41/41/41 39/39/39 40/40/40
f 41/41/41 40/40/40 42/42/42
f 43/43/43 41/41/41 42/42/42
f 43/43/43 42/42/42 44/44/44
f 45/45/45 43/43/43 44/44/44
f 45/45/45 44/44/44 46/46/46
f 47/47/47 45/45/45 46/46/46
f 47/47/47 46/46/46 48/48/48
f 3/3/3 47/47/47 48/48/48
f 3/3/3 4/4/4 47/47/47
