#Desert_Sand_dune_01_(23)_499_57.obj

v 4.220589 5.518208E-07 0.2385793
v 2.995597 0.2895657 -0.3930817
v 3.035364 0.2955918 -0.5010681
v 4.332743 -5.870464E-08 0.09001425
v 3.073959 0.2831765 -0.6633391
v 4.381542 -5.870464E-08 -0.08605181
v 3.259319 -2.124666E-07 0.4855297
v 2.517462 -5.870464E-08 0.427965
v 3.127604 -2.124666E-07 -1.498859
v 4.090988 -3.617062E-07 -0.6724949
v 2.517349 -5.870464E-08 -1.912598
v 2.257202 0.5063467 -0.9938757
v 1.62373 9.505733E-08 -2.232381
v 1.338231 0.6450293 -1.140659
v 2.217644 0.5276183 -0.8151591
v 1.316599 0.6672151 -0.9590016
v 2.168956 0.513756 -0.6381824
v 1.289695 0.6420644 -0.7783834
v 2.079839 9.505733E-08 0.3880981
v 1.289966 -5.870464E-08 0.2926607
v 0.3739208 -5.870464E-08 -2.336046
v 0.1028682 0.7119356 -1.159853
v -0.8046324 -2.252535E-08 -2.215534
v -0.9186983 0.6614512 -1.144195
v 0.1044251 0.7331527 -0.9777264
v -0.9005682 0.6827145 -0.9621999
v 0.1068084 0.6969621 -0.7968514
v -0.8771376 0.6502035 -0.7818056
v 0.2650468 -4.061499E-08 0.1705168
v -0.7804609 -9.488392E-08 0.08905253
v -2.059544 9.505733E-08 -1.779627
v -2.015676 0.4912399 -0.9616036
v -2.774587 -5.870464E-08 -1.428692
v -3.038432 0.2394905 -0.5993439
v -1.979391 0.5115988 -0.7825802
v -3.020574 0.2496155 -0.4350261
v -1.93348 0.4907012 -0.6060739
v -2.966403 0.2401334 -0.2799456
v -1.92713 -5.870464E-08 0.1313319
v -2.605787 9.505733E-08 0.2521233
v -4.303951 -3.617062E-07 -0.1024394
v -3.6882 2.442969E-07 -0.9180186
v -4.295414 -3.617062E-07 0.08735897
v -4.215518 2.442969E-07 0.2507711
v -3.487272 -5.870464E-08 0.4651502

vn 0.004486084 0.9956055 -0.08917236
vn 0.03817749 0.9726563 -0.2280273
vn -0.1479492 0.9814453 -0.119751
vn -0.07977295 0.9941406 -0.07220459
vn -0.2900391 0.9560547 0.03292847
vn -0.1194458 0.9926758 -0.008834839
vn 0.04751587 0.9887695 -0.1385498
vn 0.05953979 0.9775391 -0.1998291
vn -0.2199707 0.9741211 0.05072021
vn -0.1643066 0.9858398 0.02589417
vn -0.2342529 0.9633789 0.1280518
vn -0.3083496 0.9399414 0.1437988
vn -0.184082 0.9604492 0.2067871
vn -0.2268066 0.9399414 0.2541504
vn -0.1451416 0.9848633 -0.09387207
vn -0.06658936 0.996582 -0.04681396
vn 0.0980835 0.9526367 -0.2871094
vn 0.1536865 0.9365234 -0.3144531
vn 0.1033936 0.9624023 -0.2493896
vn 0.1466064 0.9492188 -0.2775879
vn -0.1357422 0.956543 0.2565918
vn -0.1552734 0.9360352 0.3151855
vn -0.0637207 0.9555664 0.2873535
vn -0.05670166 0.9272461 0.369873
vn 0.00453949 0.9995117 -0.02099609
vn 0.08795166 0.9956055 0.01908875
vn 0.1945801 0.9194336 -0.3408203
vn 0.2056885 0.9165039 -0.3427734
vn 0.1734619 0.9365234 -0.3041992
vn 0.1782227 0.9311523 -0.3168945
vn 0.01531982 0.9526367 0.3034668
vn 0.0508728 0.925293 0.375
vn 0.07049561 0.9633789 0.2568359
vn 0.1119385 0.9589844 0.2597656
vn 0.1572266 0.9863281 0.0475769
vn 0.1650391 0.9848633 0.04821777
vn 0.1885986 0.9311523 -0.3112793
vn 0.1407471 0.9707031 -0.1929932
vn 0.1490479 0.9433594 -0.2961426
vn 0.1079712 0.9697266 -0.2171631
vn 0.05630493 0.9951172 0.07629395
vn 0.05688477 0.9858398 0.1546631
vn 0.09674072 0.9946289 0.02510071
vn 0.06280518 0.996582 -0.05322266
vn 0.06420898 0.9897461 -0.1269531

vt 0.887207 0.6738281
vt 0.7246094 0.6831055
vt 0.7207031 0.6987305
vt 0.887207 0.6982422
vt 0.7128906 0.7207031
vt 0.8793945 0.7226563
vt 0.8120117 0.5898438
vt 0.7363281 0.5556641
vt 0.6586914 0.8256836
vt 0.8100586 0.7783203
vt 0.5708008 0.8427734
vt 0.6108398 0.7158203
vt 0.4624023 0.8320313
vt 0.512207 0.6826172
vt 0.6196289 0.6914063
vt 0.5229492 0.6591797
vt 0.6274414 0.6669922
vt 0.5332031 0.6352539
vt 0.6914063 0.5366211
vt 0.6088867 0.5043945
vt 0.3347168 0.7753906
vt 0.3918457 0.6162109
vt 0.2299805 0.6953125
vt 0.2946777 0.5576172
vt 0.4050293 0.5942383
vt 0.3093262 0.5361328
vt 0.4179688 0.5717773
vt 0.3242188 0.515625
vt 0.5014648 0.4624023
vt 0.3952637 0.4143066
vt 0.1400146 0.5722656
vt 0.2021484 0.4743652
vt 0.0960083 0.489502
vt 0.1292725 0.3730469
vt 0.2182617 0.4543457
vt 0.1425781 0.3540039
vt 0.2351074 0.4353027
vt 0.1588135 0.3378906
vt 0.2878418 0.345459
vt 0.2312012 0.2927246
vt 0.04269409 0.2419434
vt 0.04425049 0.3759766
vt 0.0569458 0.2192383
vt 0.07617188 0.2036133
vt 0.161377 0.2177734

g Desert_Sand_dune_01_(23)_499_57
usemtl Desert_Sand_dune_01_(23)_499_57
usemap Desert_Sand_dune_01_(23)_499_57
f 1/1/1 3/3/3 2/2/2
f 1/1/1 4/4/4 3/3/3
f 4/4/4 5/5/5 3/3/3
f 4/4/4 6/6/6 5/5/5
f 2/2/2 7/7/7 1/1/1
f 2/2/2 8/8/8 7/7/7
f 9/9/9 5/5/5 6/6/6
f 9/9/9 6/6/6 10/10/10
f 11/11/11 5/5/5 9/9/9
f 11/11/11 12/12/12 5/5/5
f 3/3/3 5/5/5 12/12/12
f 13/13/13 12/12/12 11/11/11
f 13/13/13 14/14/14 12/12/12
f 15/15/15 12/12/12 14/14/14
f 3/3/3 12/12/12 15/15/15
f 2/2/2 3/3/3 15/15/15
f 15/15/15 14/14/14 16/16/16
f 17/17/17 15/15/15 16/16/16
f 2/2/2 15/15/15 17/17/17
f 17/17/17 8/8/8 2/2/2
f 17/17/17 16/16/16 18/18/18
f 18/18/18 19/19/19 17/17/17
f 17/17/17 19/19/19 8/8/8
f 18/18/18 20/20/20 19/19/19
f 21/21/21 14/14/14 13/13/13
f 21/21/21 22/22/22 14/14/14
f 16/16/16 14/14/14 22/22/22
f 23/23/23 22/22/22 21/21/21
f 23/23/23 24/24/24 22/22/22
f 24/24/24 25/25/25 22/22/22
f 16/16/16 22/22/22 25/25/25
f 18/18/18 16/16/16 25/25/25
f 24/24/24 26/26/26 25/25/25
f 26/26/26 27/27/27 25/25/25
f 18/18/18 25/25/25 27/27/27
f 27/27/27 20/20/20 18/18/18
f 26/26/26 28/28/28 27/27/27
f 28/28/28 29/29/29 27/27/27
f 27/27/27 29/29/29 20/20/20
f 28/28/28 30/30/30 29/29/29
f 31/31/31 24/24/24 23/23/23
f 31/31/31 32/32/32 24/24/24
f 32/32/32 26/26/26 24/24/24
f 33/33/33 32/32/32 31/31/31
f 33/33/33 34/34/34 32/32/32
f 34/34/34 35/35/35 32/32/32
f 32/32/32 35/35/35 26/26/26
f 35/35/35 28/28/28 26/26/26
f 34/34/34 36/36/36 35/35/35
f 36/36/36 37/37/37 35/35/35
f 35/35/35 37/37/37 28/28/28
f 37/37/37 30/30/30 28/28/28
f 36/36/36 38/38/38 37/37/37
f 38/38/38 39/39/39 37/37/37
f 37/37/37 39/39/39 30/30/30
f 38/38/38 40/40/40 39/39/39
f 41/41/41 34/34/34 33/33/33
f 41/41/41 36/36/36 34/34/34
f 41/41/41 33/33/33 42/42/42
f 41/41/41 43/43/43 36/36/36
f 43/43/43 38/38/38 36/36/36
f 43/43/43 44/44/44 38/38/38
f 45/45/45 38/38/38 44/44/44
f 45/45/45 40/40/40 38/38/38
