#Desert_Sand_dune_01_(1)_569_109.obj

v -1.92713 -7.263074E-09 0.1313336
v -1.912089 -7.263074E-09 0.3579929
v -2.665368 -7.263074E-09 0.5486835
v -2.605787 1.453841E-07 0.2521261
v -0.7848736 -7.263074E-09 0.3571782
v -0.78046 -4.533247E-08 0.08905371
v 0.2650477 1.195643E-08 0.1705192
v 0.2421372 -4.533247E-08 0.4750139
v 1.230569 6.887571E-08 0.603751
v 1.289967 -7.263074E-09 0.292664
v 2.07984 1.453841E-07 0.3880985
v 1.992906 1.453841E-07 0.6984295
v 2.530036 1.453841E-07 0.7980516
v 2.517463 -7.263074E-09 0.4279681
v 3.259319 -1.599103E-07 0.4855301
v 3.381994 -7.263074E-09 0.8339162
v 4.22059 6.02956E-07 0.2385806
v 4.523259 -3.125574E-07 0.4893461
v 4.332742 -7.263074E-09 0.09001504
v 4.807483 -7.263074E-09 0.2538257
v 4.381543 -7.263074E-09 -0.08605086
v 4.861457 2.980313E-07 0.03638424
v 4.090989 -3.125574E-07 -0.672492
v 4.406577 -3.125574E-07 -0.863537
v 3.435779 2.980313E-07 -1.786304
v 3.127604 -1.599103E-07 -1.498856
v 2.51735 -7.263074E-09 -1.912597
v 2.689326 -1.599103E-07 -2.202719
v 1.713098 -7.263074E-09 -2.569233
v 1.62373 1.453841E-07 -2.232378
v 0.3739218 -7.263074E-09 -2.336043
v 0.349431 -4.533247E-08 -2.701834
v -0.9194425 -4.533247E-08 -2.561151
v -0.8046318 3.080632E-08 -2.215532
v -2.059543 1.453841E-07 -1.779625
v -2.262604 1.453841E-07 -2.055176
v -3.053086 1.453841E-07 -1.702572
v -2.774587 -7.263074E-09 -1.42869
v -3.688199 2.980313E-07 -0.918016
v -3.910358 2.980313E-07 -1.099207
v -4.303949 -3.125574E-07 -0.1024365
v -4.744996 2.980313E-07 0.01614629
v -4.295413 -3.125574E-07 0.08736239
v -4.735553 -3.125574E-07 0.2505485
v -4.215517 2.980313E-07 0.250772
v -4.647186 -3.125574E-07 0.4523605
v -3.487271 -7.263074E-09 0.465153
v -3.591498 2.980313E-07 0.7072027

vn -0.0489502 0.9023438 0.4277344
vn 0 1 0
vn 0 1 0
vn -0.03494263 0.9467773 0.3193359
vn 0 1 0
vn -0.07446289 0.8833008 0.4621582
vn -0.07470703 0.8916016 0.4460449
vn 0 1 0
vn 0 1 0
vn -0.05453491 0.9121094 0.4055176
vn -0.01448059 0.9345703 0.3552246
vn 0 1 -1.192093E-07
vn 2.384186E-07 1 -2.980232E-07
vn 0.01747131 0.9604492 0.2773438
vn 0.004322052 0.9799805 0.1968994
vn 5.960464E-08 1 5.364418E-07
vn 0.03594971 0.9921875 0.1152954
vn 4.172325E-07 1 8.34465E-07
vn 0.1347656 0.9892578 0.05429077
vn 1.192093E-07 1 4.172325E-07
vn 0.1552734 0.9868164 -0.04440308
vn -4.768372E-07 1 -5.960464E-08
vn 0.1948242 0.9746094 -0.1086426
vn -3.576279E-07 1 1.192093E-07
vn -3.576279E-07 1 4.172325E-07
vn 0.2509766 0.9536133 -0.1641846
vn 0.2315674 0.9355469 -0.2648926
vn 0 1 0
vn 1.192093E-07 1 -2.384186E-07
vn 0.1333008 0.9311523 -0.338623
vn 0.05090332 0.9243164 -0.3771973
vn 0 1 -1.788139E-07
vn 0 1 -1.192093E-07
vn -0.05163574 0.9223633 -0.3823242
vn -0.1557617 0.9174805 -0.3654785
vn 0 1 0
vn 1.788139E-07 1 1.192093E-07
vn -0.2041016 0.9360352 -0.2856445
vn -0.1431885 0.9750977 -0.168335
vn 5.960464E-07 1 5.364418E-07
vn -0.1069946 0.9916992 -0.07049561
vn 9.536743E-07 1 1.192093E-06
vn -0.1343994 0.9907227 0.01329041
vn -1.192093E-07 1 0
vn -0.05490112 0.9936523 0.09692383
vn -7.152557E-07 1 -3.576279E-07
vn -0.02206421 0.9814453 0.1901855
vn -1.788139E-07 1 1.192093E-07

vt 0.2878418 0.345459
vt 0.3054199 0.3183594
vt 0.24646 0.2531738
vt 0.2312012 0.2927246
vt 0.4138184 0.3811035
vt 0.3952637 0.4143066
vt 0.5014648 0.4624023
vt 0.5209961 0.4238281
vt 0.625 0.4628906
vt 0.6088867 0.5043945
vt 0.6914063 0.5366211
vt 0.7050781 0.4936523
vt 0.7636719 0.5112305
vt 0.7363281 0.5556641
vt 0.8120117 0.5898438
vt 0.8486328 0.5541992
vt 0.887207 0.6738281
vt 0.934082 0.659668
vt 0.887207 0.6982422
vt 0.9448242 0.7045898
vt 0.8793945 0.7226563
vt 0.9345703 0.7338867
vt 0.8100586 0.7783203
vt 0.8271484 0.8193359
vt 0.668457 0.878418
vt 0.6586914 0.8256836
vt 0.5708008 0.8427734
vt 0.5668945 0.8876953
vt 0.4472656 0.878418
vt 0.4624023 0.8320313
vt 0.3347168 0.7753906
vt 0.3066406 0.8188477
vt 0.194458 0.730957
vt 0.2299805 0.6953125
vt 0.1400146 0.5722656
vt 0.1009521 0.5947266
vt 0.04986572 0.5073242
vt 0.0960083 0.489502
vt 0.04425049 0.3759766
vt 0.01006317 0.3859863
vt 0.04269409 0.2419434
vt 0.008651733 0.2028809
vt 0.0569458 0.2192383
vt 0.02613831 0.1746826
vt 0.07617188 0.2036133
vt 0.04891968 0.1549072
vt 0.161377 0.2177734
vt 0.168457 0.182373

g Desert_Sand_dune_01_(1)_569_109
usemtl Desert_Sand_dune_01_(1)_569_109
usemap Desert_Sand_dune_01_(1)_569_109
f 1/1/1 3/3/3 2/2/2
f 1/1/1 4/4/4 3/3/3
f 5/5/5 1/1/1 2/2/2
f 5/5/5 6/6/6 1/1/1
f 7/7/7 6/6/6 5/5/5
f 7/7/7 5/5/5 8/8/8
f 9/9/9 7/7/7 8/8/8
f 9/9/9 10/10/10 7/7/7
f 11/11/11 10/10/10 9/9/9
f 11/11/11 9/9/9 12/12/12
f 13/13/13 11/11/11 12/12/12
f 13/13/13 14/14/14 11/11/11
f 15/15/15 14/14/14 13/13/13
f 15/15/15 13/13/13 16/16/16
f 17/17/17 15/15/15 16/16/16
f 17/17/17 16/16/16 18/18/18
f 19/19/19 17/17/17 18/18/18
f 19/19/19 18/18/18 20/20/20
f 21/21/21 19/19/19 20/20/20
f 21/21/21 20/20/20 22/22/22
f 23/23/23 21/21/21 22/22/22
f 23/23/23 22/22/22 24/24/24
f 25/25/25 23/23/23 24/24/24
f 25/25/25 26/26/26 23/23/23
f 27/27/27 26/26/26 25/25/25
f 27/27/27 25/25/25 28/28/28
f 29/29/29 27/27/27 28/28/28
f 29/29/29 30/30/30 27/27/27
f 31/31/31 30/30/30 29/29/29
f 31/31/31 29/29/29 32/32/32
f 33/33/33 31/31/31 32/32/32
f 33/33/33 34/34/34 31/31/31
f 35/35/35 34/34/34 33/33/33
f 35/35/35 33/33/33 36/36/36
f 37/37/37 35/35/35 36/36/36
f 37/37/37 38/38/38 35/35/35
f 39/39/39 38/38/38 37/37/37
f 39/39/39 37/37/37 40/40/40
f 41/41/41 39/39/39 40/40/40
f 41/41/41 40/40/40 42/42/42
f 43/43/43 41/41/41 42/42/42
f 43/43/43 42/42/42 44/44/44
f 45/45/45 43/43/43 44/44/44
f 45/45/45 44/44/44 46/46/46
f 47/47/47 45/45/45 46/46/46
f 47/47/47 46/46/46 48/48/48
f 3/3/3 47/47/47 48/48/48
f 3/3/3 4/4/4 47/47/47
