#Desert_Rock_05_(1)_711_226.obj

v -0.4538788 -0.2619573 0.3198988
v -0.4538784 -0.2619542 -0.3198853
v -0.5451794 -0.1706574 -0.3198825
v -0.5451786 -0.1706558 0.3198956
v -0.4538782 -0.1706555 0.4111866
v 0.4538816 -0.1706557 0.4111869
v 0.453881 -0.2619575 0.3198991
v -0.4538788 -0.2619573 0.3198988
v -0.5451786 -0.1706558 0.3198956
v -0.5451783 0.1706591 0.3198951
v -0.4538788 0.1706597 0.4111861
v -0.4538782 -0.1706555 0.4111866
v 0.5451782 -0.1706582 0.3198987
v 0.5451795 -0.1706554 -0.3198854
v 0.4538814 -0.2619545 -0.319885
v 0.453881 -0.2619575 0.3198991
v 0.4538816 -0.1706557 0.4111869
v 0.4538819 0.1706593 0.4111864
v 0.5451785 0.1706568 0.3198982
v 0.5451782 -0.1706582 0.3198987
v -0.5451783 0.1706591 0.3198951
v -0.545179 0.1706576 -0.319883
v -0.4538788 0.2619568 -0.3198829
v -0.4538781 0.2619584 0.3198952
v -0.4538781 0.2619584 0.3198952
v 0.4538817 0.2619582 0.3198955
v 0.4538819 0.1706593 0.4111864
v -0.4538788 0.1706597 0.4111861
v 0.4538817 0.2619582 0.3198955
v 0.4538809 0.2619566 -0.3198826
v 0.5451789 0.1706598 -0.3198859
v 0.5451785 0.1706568 0.3198982
v -0.545179 0.1706576 -0.319883
v -0.5451794 -0.1706574 -0.3198825
v -0.4538789 -0.1706581 -0.411188
v -0.4538786 0.1706569 -0.4111885
v -0.4538786 0.1706569 -0.4111885
v 0.4538812 0.1706568 -0.4111882
v 0.4538809 0.2619566 -0.3198826
v -0.4538788 0.2619568 -0.3198829
v 0.4538812 0.1706568 -0.4111882
v 0.4538808 -0.1706582 -0.4111878
v 0.5451795 -0.1706554 -0.3198854
v 0.5451789 0.1706598 -0.3198859
v -0.4538784 -0.2619542 -0.3198853
v 0.4538814 -0.2619545 -0.319885
v 0.4538808 -0.1706582 -0.4111878
v -0.4538789 -0.1706581 -0.411188
v -0.4538782 -0.1706555 0.4111866
v -0.4538788 0.1706597 0.4111861
v 0.4538819 0.1706593 0.4111864
v 0.4538816 -0.1706557 0.4111869
v -0.4538781 0.2619584 0.3198952
v -0.4538788 0.2619568 -0.3198829
v 0.4538809 0.2619566 -0.3198826
v 0.4538817 0.2619582 0.3198955
v -0.4538786 0.1706569 -0.4111885
v -0.4538789 -0.1706581 -0.411188
v 0.4538808 -0.1706582 -0.4111878
v 0.4538812 0.1706568 -0.4111882
v -0.4538784 -0.2619542 -0.3198853
v -0.4538788 -0.2619573 0.3198988
v 0.453881 -0.2619575 0.3198991
v 0.4538814 -0.2619545 -0.319885
v 0.5451782 -0.1706582 0.3198987
v 0.5451785 0.1706568 0.3198982
v 0.5451789 0.1706598 -0.3198859
v 0.5451795 -0.1706554 -0.3198854
v -0.5451794 -0.1706574 -0.3198825
v -0.545179 0.1706576 -0.319883
v -0.5451783 0.1706591 0.3198951
v -0.5451786 -0.1706558 0.3198956
v -0.4538788 -0.2619573 0.3198988
v -0.5451786 -0.1706558 0.3198956
v -0.4538782 -0.1706555 0.4111866
v 0.5451782 -0.1706582 0.3198987
v 0.453881 -0.2619575 0.3198991
v 0.4538816 -0.1706557 0.4111869
v -0.5451783 0.1706591 0.3198951
v -0.4538781 0.2619584 0.3198952
v -0.4538788 0.1706597 0.4111861
v 0.4538817 0.2619582 0.3198955
v 0.5451785 0.1706568 0.3198982
v 0.4538819 0.1706593 0.4111864
v -0.545179 0.1706576 -0.319883
v -0.4538786 0.1706569 -0.4111885
v -0.4538788 0.2619568 -0.3198829
v 0.4538812 0.1706568 -0.4111882
v 0.5451789 0.1706598 -0.3198859
v 0.4538809 0.2619566 -0.3198826
v -0.5451794 -0.1706574 -0.3198825
v -0.4538784 -0.2619542 -0.3198853
v -0.4538789 -0.1706581 -0.411188
v 0.4538814 -0.2619545 -0.319885
v 0.5451795 -0.1706554 -0.3198854
v 0.4538808 -0.1706582 -0.4111878

vn -0.4716797 -0.7026367 0.5322266
vn -0.4716797 -0.7026367 0.5322266
vn -0.4716797 -0.7026367 0.5322266
vn -0.4716797 -0.7026367 0.5322266
vn 0.1757813 -0.08673096 0.9804688
vn 0.1757813 -0.08673096 0.9804688
vn 0.1757813 -0.08673096 0.9804688
vn 0.1757813 -0.08673096 0.9804688
vn -0.7045898 0.2612305 0.6591797
vn -0.7045898 0.2612305 0.6591797
vn -0.7045898 0.2612305 0.6591797
vn -0.7045898 0.2612305 0.6591797
vn 0.8803711 -0.3479004 0.3210449
vn 0.8803711 -0.3479004 0.3210449
vn 0.8803711 -0.3479004 0.3210449
vn 0.8803711 -0.3479004 0.3210449
vn 0.6474609 0.6157227 0.4482422
vn 0.6474609 0.6157227 0.4482422
vn 0.6474609 0.6157227 0.4482422
vn 0.6474609 0.6157227 0.4482422
vn -0.8803711 0.3479004 -0.3210449
vn -0.8803711 0.3479004 -0.3210449
vn -0.8803711 0.3479004 -0.3210449
vn -0.8803711 0.3479004 -0.3210449
vn -0.2330322 0.9638672 0.1270752
vn -0.2330322 0.9638672 0.1270752
vn -0.2330322 0.9638672 0.1270752
vn -0.2330322 0.9638672 0.1270752
vn 0.4716797 0.7026367 -0.5322266
vn 0.4716797 0.7026367 -0.5322266
vn 0.4716797 0.7026367 -0.5322266
vn 0.4716797 0.7026367 -0.5322266
vn -0.6474609 -0.6157227 -0.4482422
vn -0.6474609 -0.6157227 -0.4482422
vn -0.6474609 -0.6157227 -0.4482422
vn -0.6474609 -0.6157227 -0.4482422
vn -0.1757813 0.08673096 -0.9804688
vn -0.1757813 0.08673096 -0.9804688
vn -0.1757813 0.08673096 -0.9804688
vn -0.1757813 0.08673096 -0.9804688
vn 0.7045898 -0.2612305 -0.6591797
vn 0.7045898 -0.2612305 -0.6591797
vn 0.7045898 -0.2612305 -0.6591797
vn 0.7045898 -0.2612305 -0.6591797
vn 0.2330322 -0.9638672 -0.1270752
vn 0.2330322 -0.9638672 -0.1270752
vn 0.2330322 -0.9638672 -0.1270752
vn 0.2330322 -0.9638672 -0.1270752
vn -0.04043579 0.6201172 0.7832031
vn -0.04043579 0.6201172 0.7832031
vn -0.04043579 0.6201172 0.7832031
vn -0.04043579 0.6201172 0.7832031
vn -0.2890625 0.7426758 -0.6030273
vn -0.2890625 0.7426758 -0.6030273
vn -0.2890625 0.7426758 -0.6030273
vn -0.2890625 0.7426758 -0.6030273
vn 0.04043579 -0.6201172 -0.7832031
vn 0.04043579 -0.6201172 -0.7832031
vn 0.04043579 -0.6201172 -0.7832031
vn 0.04043579 -0.6201172 -0.7832031
vn 0.2890625 -0.7426758 0.6030273
vn 0.2890625 -0.7426758 0.6030273
vn 0.2890625 -0.7426758 0.6030273
vn 0.2890625 -0.7426758 0.6030273
vn 0.9560547 0.2507324 -0.149292
vn 0.9560547 0.2507324 -0.149292
vn 0.9560547 0.2507324 -0.149292
vn 0.9560547 0.2507324 -0.149292
vn -0.9560547 -0.2507324 0.149292
vn -0.9560547 -0.2507324 0.149292
vn -0.9560547 -0.2507324 0.149292
vn -0.9560547 -0.2507324 0.149292
vn -0.4084473 -0.2155762 0.8867188
vn -0.4084473 -0.2155762 0.8867188
vn -0.4084473 -0.2155762 0.8867188
vn 0.6953125 0.07403564 0.7143555
vn 0.6953125 0.07403564 0.7143555
vn 0.6953125 0.07403564 0.7143555
vn -0.7421875 0.6420898 0.1900635
vn -0.7421875 0.6420898 0.1900635
vn -0.7421875 0.6420898 0.1900635
vn 0.3618164 0.9316406 0.01763916
vn 0.3618164 0.9316406 0.01763916
vn 0.3618164 0.9316406 0.01763916
vn -0.6958008 -0.07403564 -0.7138672
vn -0.6958008 -0.07403564 -0.7138672
vn -0.6958008 -0.07403564 -0.7138672
vn 0.4084473 0.2156982 -0.8867188
vn 0.4084473 0.2156982 -0.8867188
vn 0.4084473 0.2156982 -0.8867188
vn -0.3618164 -0.9316406 -0.01754761
vn -0.3618164 -0.9316406 -0.01754761
vn -0.3618164 -0.9316406 -0.01754761
vn 0.7421875 -0.6420898 -0.1899414
vn 0.7421875 -0.6420898 -0.1899414
vn 0.7421875 -0.6420898 -0.1899414

vt 0.7514648 0.6845703
vt 0.7514648 0.6298828
vt 0.7402344 0.6298828
vt 0.7402344 0.6845703
vt 0.4829102 0.244751
vt 0.559082 0.244751
vt 0.5605469 0.234375
vt 0.4816895 0.234375
vt 0.4724121 0.2432861
vt 0.4724121 0.2741699
vt 0.4829102 0.2727051
vt 0.4829102 0.244751
vt 0.8398438 0.6845703
vt 0.8398438 0.6298828
vt 0.8286133 0.6298828
vt 0.8286133 0.6845703
vt 0.559082 0.244751
vt 0.559082 0.2727051
vt 0.5698242 0.2741699
vt 0.5698242 0.2432861
vt 0.7148438 0.6904297
vt 0.7148438 0.7451172
vt 0.7255859 0.7451172
vt 0.7255859 0.6904297
vt 0.4816895 0.2832031
vt 0.5605469 0.2832031
vt 0.559082 0.2727051
vt 0.4829102 0.2727051
vt 0.8032227 0.6904297
vt 0.8032227 0.7451172
vt 0.8139648 0.7451172
vt 0.8139648 0.6904297
vt 0.7128906 0.293457
vt 0.7128906 0.2624512
vt 0.7021484 0.263916
vt 0.7021484 0.2919922
vt 0.7021484 0.2919922
vt 0.6259766 0.2919922
vt 0.6245117 0.3024902
vt 0.7036133 0.3024902
vt 0.6259766 0.2919922
vt 0.6259766 0.263916
vt 0.6157227 0.2624512
vt 0.6157227 0.293457
vt 0.7036133 0.253418
vt 0.6245117 0.253418
vt 0.6259766 0.263916
vt 0.7021484 0.263916
vt 0.4829102 0.244751
vt 0.4829102 0.2727051
vt 0.559082 0.2727051
vt 0.559082 0.244751
vt 0.7255859 0.6904297
vt 0.7255859 0.7451172
vt 0.8032227 0.7451172
vt 0.8032227 0.6904297
vt 0.7021484 0.2919922
vt 0.7021484 0.263916
vt 0.6259766 0.263916
vt 0.6259766 0.2919922
vt 0.7514648 0.6298828
vt 0.7514648 0.6845703
vt 0.8286133 0.6845703
vt 0.8286133 0.6298828
vt 0.8432617 0.6904297
vt 0.8139648 0.6904297
vt 0.8139648 0.7451172
vt 0.8432617 0.7451172
vt 0.6855469 0.7451172
vt 0.7148438 0.7451172
vt 0.7148438 0.6904297
vt 0.6855469 0.6904297
vt 0.4816895 0.234375
vt 0.4724121 0.2432861
vt 0.4829102 0.244751
vt 0.5698242 0.2432861
vt 0.5605469 0.234375
vt 0.559082 0.244751
vt 0.4724121 0.2741699
vt 0.4816895 0.2832031
vt 0.4829102 0.2727051
vt 0.5605469 0.2832031
vt 0.5698242 0.2741699
vt 0.559082 0.2727051
vt 0.7128906 0.293457
vt 0.7021484 0.2919922
vt 0.7036133 0.3024902
vt 0.6259766 0.2919922
vt 0.6157227 0.293457
vt 0.6245117 0.3024902
vt 0.7128906 0.2624512
vt 0.7036133 0.253418
vt 0.7021484 0.263916
vt 0.6245117 0.253418
vt 0.6157227 0.2624512
vt 0.6259766 0.263916

g Desert_Rock_05_(1)_711_226
usemtl Desert_Rock_05_(1)_711_226
usemap Desert_Rock_05_(1)_711_226
f 1/1/1 3/3/3 2/2/2
f 1/1/1 4/4/4 3/3/3
f 5/5/5 7/7/7 6/6/6
f 5/5/5 8/8/8 7/7/7
f 9/9/9 11/11/11 10/10/10
f 9/9/9 12/12/12 11/11/11
f 13/13/13 15/15/15 14/14/14
f 13/13/13 16/16/16 15/15/15
f 17/17/17 19/19/19 18/18/18
f 17/17/17 20/20/20 19/19/19
f 21/21/21 23/23/23 22/22/22
f 21/21/21 24/24/24 23/23/23
f 25/25/25 27/27/27 26/26/26
f 25/25/25 28/28/28 27/27/27
f 29/29/29 31/31/31 30/30/30
f 29/29/29 32/32/32 31/31/31
f 33/33/33 35/35/35 34/34/34
f 33/33/33 36/36/36 35/35/35
f 37/37/37 39/39/39 38/38/38
f 37/37/37 40/40/40 39/39/39
f 41/41/41 43/43/43 42/42/42
f 41/41/41 44/44/44 43/43/43
f 45/45/45 47/47/47 46/46/46
f 45/45/45 48/48/48 47/47/47
f 49/49/49 51/51/51 50/50/50
f 49/49/49 52/52/52 51/51/51
f 53/53/53 55/55/55 54/54/54
f 53/53/53 56/56/56 55/55/55
f 57/57/57 59/59/59 58/58/58
f 57/57/57 60/60/60 59/59/59
f 61/61/61 63/63/63 62/62/62
f 61/61/61 64/64/64 63/63/63
f 65/65/65 67/67/67 66/66/66
f 65/65/65 68/68/68 67/67/67
f 69/69/69 71/71/71 70/70/70
f 69/69/69 72/72/72 71/71/71
f 73/73/73 75/75/75 74/74/74
f 76/76/76 78/78/78 77/77/77
f 79/79/79 81/81/81 80/80/80
f 82/82/82 84/84/84 83/83/83
f 85/85/85 87/87/87 86/86/86
f 88/88/88 90/90/90 89/89/89
f 91/91/91 93/93/93 92/92/92
f 94/94/94 96/96/96 95/95/95
