#Desert_Rock_05_(10)_641_230.obj

v -0.4538741 -0.2619565 0.3198983
v -0.453876 -0.2619563 -0.3198827
v -0.5451759 -0.1706573 -0.3198834
v -0.5451744 -0.1706577 0.3198984
v -0.4538767 -0.1706574 0.4111885
v 0.4538816 -0.1706572 0.4111878
v 0.4538842 -0.2619563 0.3198977
v -0.4538741 -0.2619565 0.3198983
v -0.5451744 -0.1706577 0.3198984
v -0.5451745 0.1706571 0.3198981
v -0.4538768 0.1706574 0.4111882
v -0.4538767 -0.1706574 0.4111885
v 0.5451804 -0.1706574 0.3198972
v 0.5451789 -0.170657 -0.3198847
v 0.4538823 -0.2619561 -0.3198833
v 0.4538842 -0.2619563 0.3198977
v 0.4538816 -0.1706572 0.4111878
v 0.4538816 0.1706576 0.4111875
v 0.5451804 0.1706574 0.3198968
v 0.5451804 -0.1706574 0.3198972
v -0.5451745 0.1706571 0.3198981
v -0.5451764 0.1706573 -0.3198829
v -0.4538798 0.2619565 -0.3198842
v -0.4538778 0.2619563 0.3198968
v -0.4538778 0.2619563 0.3198968
v 0.4538805 0.2619565 0.3198962
v 0.4538816 0.1706576 0.4111875
v -0.4538768 0.1706574 0.4111882
v 0.4538805 0.2619565 0.3198962
v 0.4538853 0.2619559 -0.3198814
v 0.5451785 0.1706576 -0.3198841
v 0.5451804 0.1706574 0.3198968
v -0.5451764 0.1706573 -0.3198829
v -0.5451759 -0.1706573 -0.3198834
v -0.4538777 -0.1706573 -0.4111897
v -0.4538778 0.1706575 -0.4111901
v -0.4538778 0.1706575 -0.4111901
v 0.4538805 0.1706577 -0.4111907
v 0.4538853 0.2619559 -0.3198814
v -0.4538798 0.2619565 -0.3198842
v 0.4538805 0.1706577 -0.4111907
v 0.4538806 -0.1706571 -0.4111904
v 0.5451789 -0.170657 -0.3198847
v 0.5451785 0.1706576 -0.3198841
v -0.453876 -0.2619563 -0.3198827
v 0.4538823 -0.2619561 -0.3198833
v 0.4538806 -0.1706571 -0.4111904
v -0.4538777 -0.1706573 -0.4111897
v -0.4538767 -0.1706574 0.4111885
v -0.4538768 0.1706574 0.4111882
v 0.4538816 0.1706576 0.4111875
v 0.4538816 -0.1706572 0.4111878
v -0.4538778 0.2619563 0.3198968
v -0.4538798 0.2619565 -0.3198842
v 0.4538853 0.2619559 -0.3198814
v 0.4538805 0.2619565 0.3198962
v -0.4538778 0.1706575 -0.4111901
v -0.4538777 -0.1706573 -0.4111897
v 0.4538806 -0.1706571 -0.4111904
v 0.4538805 0.1706577 -0.4111907
v -0.453876 -0.2619563 -0.3198827
v -0.4538741 -0.2619565 0.3198983
v 0.4538842 -0.2619563 0.3198977
v 0.4538823 -0.2619561 -0.3198833
v 0.5451804 -0.1706574 0.3198972
v 0.5451804 0.1706574 0.3198968
v 0.5451785 0.1706576 -0.3198841
v 0.5451789 -0.170657 -0.3198847
v -0.5451759 -0.1706573 -0.3198834
v -0.5451764 0.1706573 -0.3198829
v -0.5451745 0.1706571 0.3198981
v -0.5451744 -0.1706577 0.3198984
v -0.4538741 -0.2619565 0.3198983
v -0.5451744 -0.1706577 0.3198984
v -0.4538767 -0.1706574 0.4111885
v 0.5451804 -0.1706574 0.3198972
v 0.4538842 -0.2619563 0.3198977
v 0.4538816 -0.1706572 0.4111878
v -0.5451745 0.1706571 0.3198981
v -0.4538778 0.2619563 0.3198968
v -0.4538768 0.1706574 0.4111882
v 0.4538805 0.2619565 0.3198962
v 0.5451804 0.1706574 0.3198968
v 0.4538816 0.1706576 0.4111875
v -0.5451764 0.1706573 -0.3198829
v -0.4538778 0.1706575 -0.4111901
v -0.4538798 0.2619565 -0.3198842
v 0.4538805 0.1706577 -0.4111907
v 0.5451785 0.1706576 -0.3198841
v 0.4538853 0.2619559 -0.3198814
v -0.5451759 -0.1706573 -0.3198834
v -0.453876 -0.2619563 -0.3198827
v -0.4538777 -0.1706573 -0.4111897
v 0.4538823 -0.2619561 -0.3198833
v 0.5451789 -0.170657 -0.3198847
v 0.4538806 -0.1706571 -0.4111904

vn -0.4631348 -0.6943359 -0.5498047
vn -0.4631348 -0.6943359 -0.5498047
vn -0.4631348 -0.6943359 -0.5498047
vn -0.4631348 -0.6943359 -0.5498047
vn -0.7504883 -0.5302734 0.3933105
vn -0.7504883 -0.5302734 0.3933105
vn -0.7504883 -0.5302734 0.3933105
vn -0.7504883 -0.5302734 0.3933105
vn -0.9375 0.1529541 -0.3122559
vn -0.9375 0.1529541 -0.3122559
vn -0.9375 0.1529541 -0.3122559
vn -0.9375 0.1529541 -0.3122559
vn 0.1866455 -0.6831055 0.7055664
vn 0.1866455 -0.6831055 0.7055664
vn 0.1866455 -0.6831055 0.7055664
vn 0.1866455 -0.6831055 0.7055664
vn -0.2875977 0.1640625 0.9433594
vn -0.2875977 0.1640625 0.9433594
vn -0.2875977 0.1640625 0.9433594
vn -0.2875977 0.1640625 0.9433594
vn -0.1866455 0.6831055 -0.7055664
vn -0.1866455 0.6831055 -0.7055664
vn -0.1866455 0.6831055 -0.7055664
vn -0.1866455 0.6831055 -0.7055664
vn -0.4741211 0.847168 0.237793
vn -0.4741211 0.847168 0.237793
vn -0.4741211 0.847168 0.237793
vn -0.4741211 0.847168 0.237793
vn 0.4631348 0.6943359 0.5498047
vn 0.4631348 0.6943359 0.5498047
vn 0.4631348 0.6943359 0.5498047
vn 0.4631348 0.6943359 0.5498047
vn 0.2875977 -0.1640625 -0.9433594
vn 0.2875977 -0.1640625 -0.9433594
vn 0.2875977 -0.1640625 -0.9433594
vn 0.2875977 -0.1640625 -0.9433594
vn 0.7504883 0.5302734 -0.3933105
vn 0.7504883 0.5302734 -0.3933105
vn 0.7504883 0.5302734 -0.3933105
vn 0.7504883 0.5302734 -0.3933105
vn 0.9375 -0.1529541 0.3122559
vn 0.9375 -0.1529541 0.3122559
vn 0.9375 -0.1529541 0.3122559
vn 0.9375 -0.1529541 0.3122559
vn 0.4741211 -0.847168 -0.237793
vn 0.4741211 -0.847168 -0.237793
vn 0.4741211 -0.847168 -0.237793
vn 0.4741211 -0.847168 -0.237793
vn -0.8662109 0.2241211 0.4462891
vn -0.8662109 0.2241211 0.4462891
vn -0.8662109 0.2241211 0.4462891
vn -0.8662109 0.2241211 0.4462891
vn 0.1955566 0.9741211 -0.1098633
vn 0.1955566 0.9741211 -0.1098633
vn 0.1955566 0.9741211 -0.1098633
vn 0.1955566 0.9741211 -0.1098633
vn 0.8662109 -0.2241211 -0.4462891
vn 0.8662109 -0.2241211 -0.4462891
vn 0.8662109 -0.2241211 -0.4462891
vn 0.8662109 -0.2241211 -0.4462891
vn -0.1955566 -0.9741211 0.1098633
vn -0.1955566 -0.9741211 0.1098633
vn -0.1955566 -0.9741211 0.1098633
vn -0.1955566 -0.9741211 0.1098633
vn 0.4594727 0.007904053 0.8876953
vn 0.4594727 0.007904053 0.8876953
vn 0.4594727 0.007904053 0.8876953
vn 0.4594727 0.007904053 0.8876953
vn -0.4594727 -0.007904053 -0.8876953
vn -0.4594727 -0.007904053 -0.8876953
vn -0.4594727 -0.007904053 -0.8876953
vn -0.4594727 -0.007904053 -0.8876953
vn -0.878418 -0.4375 -0.1915283
vn -0.878418 -0.4375 -0.1915283
vn -0.878418 -0.4375 -0.1915283
vn -0.3476563 -0.4284668 0.8334961
vn -0.3476563 -0.4284668 0.8334961
vn -0.3476563 -0.4284668 0.8334961
vn -0.6523438 0.6875 -0.3183594
vn -0.6523438 0.6875 -0.3183594
vn -0.6523438 0.6875 -0.3183594
vn -0.1219482 0.6962891 0.706543
vn -0.1219482 0.6962891 0.706543
vn -0.1219482 0.6962891 0.706543
vn 0.3476563 0.4284668 -0.8334961
vn 0.3476563 0.4284668 -0.8334961
vn 0.3476563 0.4284668 -0.8334961
vn 0.878418 0.4375 0.1916504
vn 0.878418 0.4375 0.1916504
vn 0.878418 0.4375 0.1916504
vn 0.1218262 -0.6962891 -0.706543
vn 0.1218262 -0.6962891 -0.706543
vn 0.1218262 -0.6962891 -0.706543
vn 0.6523438 -0.6870117 0.3183594
vn 0.6523438 -0.6870117 0.3183594
vn 0.6523438 -0.6870117 0.3183594

vt 0.7514648 0.6845703
vt 0.7514648 0.6298828
vt 0.7402344 0.6298828
vt 0.7402344 0.6845703
vt 0.4829102 0.244751
vt 0.559082 0.244751
vt 0.5605469 0.234375
vt 0.4816895 0.234375
vt 0.4724121 0.2432861
vt 0.4724121 0.2741699
vt 0.4829102 0.2727051
vt 0.4829102 0.244751
vt 0.8398438 0.6845703
vt 0.8398438 0.6298828
vt 0.8286133 0.6298828
vt 0.8286133 0.6845703
vt 0.559082 0.244751
vt 0.559082 0.2727051
vt 0.5698242 0.2741699
vt 0.5698242 0.2432861
vt 0.7148438 0.6904297
vt 0.7148438 0.7451172
vt 0.7255859 0.7451172
vt 0.7255859 0.6904297
vt 0.4816895 0.2832031
vt 0.5605469 0.2832031
vt 0.559082 0.2727051
vt 0.4829102 0.2727051
vt 0.8032227 0.6904297
vt 0.8032227 0.7451172
vt 0.8139648 0.7451172
vt 0.8139648 0.6904297
vt 0.7128906 0.293457
vt 0.7128906 0.2624512
vt 0.7021484 0.263916
vt 0.7021484 0.2919922
vt 0.7021484 0.2919922
vt 0.6259766 0.2919922
vt 0.6245117 0.3024902
vt 0.7036133 0.3024902
vt 0.6259766 0.2919922
vt 0.6259766 0.263916
vt 0.6157227 0.2624512
vt 0.6157227 0.293457
vt 0.7036133 0.253418
vt 0.6245117 0.253418
vt 0.6259766 0.263916
vt 0.7021484 0.263916
vt 0.4829102 0.244751
vt 0.4829102 0.2727051
vt 0.559082 0.2727051
vt 0.559082 0.244751
vt 0.7255859 0.6904297
vt 0.7255859 0.7451172
vt 0.8032227 0.7451172
vt 0.8032227 0.6904297
vt 0.7021484 0.2919922
vt 0.7021484 0.263916
vt 0.6259766 0.263916
vt 0.6259766 0.2919922
vt 0.7514648 0.6298828
vt 0.7514648 0.6845703
vt 0.8286133 0.6845703
vt 0.8286133 0.6298828
vt 0.8432617 0.6904297
vt 0.8139648 0.6904297
vt 0.8139648 0.7451172
vt 0.8432617 0.7451172
vt 0.6855469 0.7451172
vt 0.7148438 0.7451172
vt 0.7148438 0.6904297
vt 0.6855469 0.6904297
vt 0.4816895 0.234375
vt 0.4724121 0.2432861
vt 0.4829102 0.244751
vt 0.5698242 0.2432861
vt 0.5605469 0.234375
vt 0.559082 0.244751
vt 0.4724121 0.2741699
vt 0.4816895 0.2832031
vt 0.4829102 0.2727051
vt 0.5605469 0.2832031
vt 0.5698242 0.2741699
vt 0.559082 0.2727051
vt 0.7128906 0.293457
vt 0.7021484 0.2919922
vt 0.7036133 0.3024902
vt 0.6259766 0.2919922
vt 0.6157227 0.293457
vt 0.6245117 0.3024902
vt 0.7128906 0.2624512
vt 0.7036133 0.253418
vt 0.7021484 0.263916
vt 0.6245117 0.253418
vt 0.6157227 0.2624512
vt 0.6259766 0.263916

g Desert_Rock_05_(10)_641_230
usemtl Desert_Rock_05_(10)_641_230
usemap Desert_Rock_05_(10)_641_230
f 1/1/1 3/3/3 2/2/2
f 1/1/1 4/4/4 3/3/3
f 5/5/5 7/7/7 6/6/6
f 5/5/5 8/8/8 7/7/7
f 9/9/9 11/11/11 10/10/10
f 9/9/9 12/12/12 11/11/11
f 13/13/13 15/15/15 14/14/14
f 13/13/13 16/16/16 15/15/15
f 17/17/17 19/19/19 18/18/18
f 17/17/17 20/20/20 19/19/19
f 21/21/21 23/23/23 22/22/22
f 21/21/21 24/24/24 23/23/23
f 25/25/25 27/27/27 26/26/26
f 25/25/25 28/28/28 27/27/27
f 29/29/29 31/31/31 30/30/30
f 29/29/29 32/32/32 31/31/31
f 33/33/33 35/35/35 34/34/34
f 33/33/33 36/36/36 35/35/35
f 37/37/37 39/39/39 38/38/38
f 37/37/37 40/40/40 39/39/39
f 41/41/41 43/43/43 42/42/42
f 41/41/41 44/44/44 43/43/43
f 45/45/45 47/47/47 46/46/46
f 45/45/45 48/48/48 47/47/47
f 49/49/49 51/51/51 50/50/50
f 49/49/49 52/52/52 51/51/51
f 53/53/53 55/55/55 54/54/54
f 53/53/53 56/56/56 55/55/55
f 57/57/57 59/59/59 58/58/58
f 57/57/57 60/60/60 59/59/59
f 61/61/61 63/63/63 62/62/62
f 61/61/61 64/64/64 63/63/63
f 65/65/65 67/67/67 66/66/66
f 65/65/65 68/68/68 67/67/67
f 69/69/69 71/71/71 70/70/70
f 69/69/69 72/72/72 71/71/71
f 73/73/73 75/75/75 74/74/74
f 76/76/76 78/78/78 77/77/77
f 79/79/79 81/81/81 80/80/80
f 82/82/82 84/84/84 83/83/83
f 85/85/85 87/87/87 86/86/86
f 88/88/88 90/90/90 89/89/89
f 91/91/91 93/93/93 92/92/92
f 94/94/94 96/96/96 95/95/95
