#P_brushwood_01A_(1)_572_22.obj

v -0.001547395 0.0003670224 -0.001377484
v -0.002161206 0.0004324791 -0.001975465
v -0.002960481 0.0006731805 -0.001527658
v -0.002365703 0.0005728814 0.0001344469
v -0.001378947 0.0003508819 -0.0005878058
v -0.003457902 0.0007885696 -0.0006879201
v -0.003436788 0.0006532174 -0.001749677
v -0.006494942 0.0006833962 -0.002290022
v -0.007401773 0.0003090332 -0.0004109636
v -0.00605679 0.0006810395 -0.0009500597
v -0.005694143 0.0007885691 -0.001817837
v -0.006514701 0.0004762815 -0.003294062
v -0.005392183 0.0006194137 -0.00297591
v -0.003210587 0.0004374714 -0.002482657
v -0.004263792 0.0004503288 -0.002948253
v -0.003748403 0.0006920092 0.0001523113
v -0.004411817 0.0007192867 -0.001888824
v -0.004835621 0.0007885705 -0.001271827
v -0.005230888 0.0007010456 -0.0005253082
v -0.005308241 0.0006414148 -0.0002670596

vn -0.08276367 -0.3967285 -0.9140625
vn -0.04006958 -0.496582 -0.8666992
vn -0.04483032 -0.3713379 -0.9272461
vn -0.1195679 -0.2078857 -0.9707031
vn -0.1529541 -0.2416992 -0.9580078
vn 0.01050568 -0.2685547 -0.9628906
vn 0.1046143 -0.4331055 -0.8950195
vn 0.3835449 -0.237915 -0.8920898
vn 0.2543945 -0.02975464 -0.9663086
vn 0.2030029 -0.07397461 -0.9760742
vn 0.1610107 -0.3010254 -0.9394531
vn 0.2705078 -0.4211426 -0.8652344
vn 0.1702881 -0.434082 -0.8842773
vn 0.1116943 -0.5336914 -0.8378906
vn 0.0668335 -0.527832 -0.8461914
vn 0.04864502 -0.003822327 -0.9985352
vn 0.09942627 -0.4086914 -0.9067383
vn 0.1066284 -0.2512207 -0.9619141
vn 0.1124268 -0.1054688 -0.987793
vn 0.0993042 0.08111572 -0.9916992

vt 0.8710938 0.2705078
vt 0.909668 0.347168
vt 0.8427734 0.4099121
vt 0.7021484 0.3029785
vt 0.8007813 0.2307129
vt 0.7475586 0.4318848
vt 0.8496094 0.4619141
vt 0.8085938 0.7695313
vt 0.6025391 0.7993164
vt 0.6943359 0.6875
vt 0.7880859 0.6791992
vt 0.9038086 0.8017578
vt 0.9077148 0.6850586
vt 0.9262695 0.4624023
vt 0.9389648 0.5766602
vt 0.6586914 0.4343262
vt 0.8334961 0.559082
vt 0.7617188 0.5805664
vt 0.6787109 0.5957031
vt 0.6518555 0.5952148

g P_brushwood_01A_(1)_572_22
usemtl P_brushwood_01A_(1)_572_22
usemap P_brushwood_01A_(1)_572_22
f 1/1/1 3/3/3 2/2/2
f 1/1/1 5/5/5 4/4/4
f 4/4/4 6/6/6 1/1/1
f 1/1/1 6/6/6 3/3/3
f 3/3/3 6/6/6 7/7/7
f 8/8/8 10/10/10 9/9/9
f 8/8/8 11/11/11 10/10/10
f 12/12/12 11/11/11 8/8/8
f 13/13/13 11/11/11 12/12/12
f 7/7/7 15/15/15 14/14/14
f 4/4/4 16/16/16 6/6/6
f 17/17/17 18/18/18 13/13/13
f 13/13/13 18/18/18 11/11/11
f 7/7/7 17/17/17 15/15/15
f 19/19/19 16/16/16 20/20/20
f 11/11/11 19/19/19 10/10/10
f 18/18/18 19/19/19 11/11/11
f 7/7/7 6/6/6 17/17/17
f 17/17/17 6/6/6 18/18/18
f 6/6/6 16/16/16 18/18/18
f 18/18/18 16/16/16 19/19/19
