#P_brushwood_01C_(30)_611_92.obj

v -0.002813925 -0.0002074859 0.0009498507
v -0.003537129 0.0002089023 3.214585E-05
v -0.002280069 0.0004571282 0.0001171255
v -0.00446001 -0.0004702087 0.0003035928
v -0.001864951 -4.357408E-05 0.0007991077
v -0.00446001 -0.0004702087 0.0003035928
v -0.004542867 -0.0004706096 0.0002117588
v -0.003806955 0.0001537377 -0.0001212248
v -0.003537129 0.0002089023 3.214585E-05
v -0.003219525 0.0006047848 -0.0004195428
v -0.000911881 0.0004973116 -0.0001781942
v -0.001579031 0.0004236897 0.0001257062
v -0.002280069 0.0004571282 0.0001171255
v -0.0008960224 0.000609024 -0.0004954862
v -0.002280069 0.0004571282 0.0001171255
v -0.0007288972 0.0006277863 -0.001164623
v -0.001579031 0.0004236897 0.0001257062
v -0.001864951 -4.357408E-05 0.0007991077
v -0.002280069 0.0004571282 0.0001171255
v -0.0005170649 0.0005296767 -0.001125576
v -0.0008960224 0.000609024 -0.0004954862
v -0.0007288972 0.0006277863 -0.001164623
v -0.0005382813 0.0002768644 -5.778805E-07
v 7.057732E-10 -2.845538E-10 2.227627E-09
v 0.0002421174 6.135267E-05 -0.0008831592
v -0.0002575524 0.0002581286 -0.002886487
v -0.0001770512 -0.0002074185 -0.004162736
v 0.0001552278 -3.186517E-05 -0.003250676
v -6.034188E-05 0.0001807816 -0.002572536
v -0.0007876031 0.0005184499 -0.002499525
v -0.0005170649 0.0005296767 -0.001125576
v 0.0002291544 7.555736E-05 -0.001422629
v -0.0007288972 0.0006277863 -0.001164623
v -0.0005594316 0.0002732082 -0.003372966
v -0.0002575524 0.0002581286 -0.002886487
v -0.0007876031 0.0005184499 -0.002499525
v -0.001195682 0.0004485345 -0.003363626
v -0.0005358022 1.816498E-05 -0.003959276
v -0.001676361 5.86158E-05 -0.004193086
v -0.002811082 -8.11938E-05 -0.004341478
v -0.002920865 0.0005014873 -0.003303953
v -0.0009062914 -0.0001944306 -0.004530706
v -0.003326651 7.050921E-05 -0.004044245
v -0.003630771 2.319542E-05 -0.004029626
v -0.004644067 -0.0001520971 -0.003568404
v -0.004011489 0.0004057334 -0.002951881
v -0.00430731 0.000247026 -0.002966997
v -0.004221097 0.0003305738 -0.001614569
v -0.004521738 0.0001835119 -0.001770593
v -0.005013446 -0.0001070494 -0.002482809
v -0.004945947 -9.694079E-05 -0.002751919
v -0.00467201 1.715751E-05 -0.001497317
v -0.00462489 -0.000168997 -0.0006216166
v -0.003219525 0.0006047848 -0.0004195428
v -0.003806955 0.0001537377 -0.0001212248

vn -0.4418945 0.6357422 -0.6323242
vn -0.5239258 0.6069336 -0.597168
vn -0.373291 0.6474609 -0.6640625
vn -0.5751953 0.6044922 -0.550293
vn -0.2883301 0.7148438 -0.6362305
vn -0.6264648 0.454834 -0.6323242
vn -0.6264648 0.454834 -0.6323242
vn -0.6196289 0.4521484 -0.6411133
vn -0.4624023 0.5546875 -0.6914063
vn -0.439209 0.3930664 -0.8076172
vn -0.1469727 0.5009766 -0.8525391
vn -0.1469727 0.5009766 -0.8525391
vn -0.1469727 0.5009766 -0.8525391
vn -0.1967773 0.244751 -0.9492188
vn -0.1918945 0.2768555 -0.9414063
vn -0.2072754 0.1682129 -0.9633789
vn -0.213623 0.7138672 -0.6665039
vn -0.213623 0.7138672 -0.6665039
vn -0.213623 0.7138672 -0.6665039
vn 0.2983398 0.486084 -0.8208008
vn 0.3364258 0.496582 -0.7998047
vn 0.2514648 0.4147949 -0.8740234
vn 0.3012695 0.4921875 -0.8164063
vn 0.2961426 0.4909668 -0.8188477
vn 0.2961426 0.4909668 -0.8188477
vn 0.3391113 0.1999512 -0.9189453
vn 0.331543 0.0005216599 -0.9433594
vn 0.342041 0.02270508 -0.9389648
vn 0.34375 0.2337646 -0.9091797
vn 0.3266602 0.2266846 -0.9169922
vn 0.3461914 0.2384033 -0.9072266
vn 0.4064941 0.2746582 -0.8710938
vn 0.3266602 0.2266846 -0.9169922
vn 0.232666 0.04373169 -0.9711914
vn 0.2283936 0.09521484 -0.96875
vn 0.2283936 0.09521484 -0.96875
vn 0.105835 -0.1785889 -0.9780273
vn 0.1611328 -0.2025146 -0.9658203
vn 0.05822754 -0.2443848 -0.9677734
vn 0.02203369 -0.2597656 -0.965332
vn -0.07012939 -0.2687988 -0.9604492
vn 0.15271 -0.2122803 -0.9648438
vn -0.03189087 -0.2858887 -0.9575195
vn -0.2310791 -0.2817383 -0.9311523
vn -0.2398682 -0.2817383 -0.9287109
vn -0.3051758 -0.21875 -0.9267578
vn -0.5087891 -0.02867126 -0.8598633
vn -0.6000977 0.1704102 -0.78125
vn -0.5610352 0.07275391 -0.8242188
vn -0.5302734 -0.005302429 -0.847168
vn -0.5302734 -0.005302429 -0.847168
vn -0.6411133 0.2077637 -0.7382813
vn -0.6245117 0.2338867 -0.7446289
vn -0.6235352 0.2414551 -0.7431641
vn -0.6328125 0.2785645 -0.7216797

vt 0.251709 0.03057861
vt 0.1746826 0.1186523
vt 0.3015137 0.1170044
vt 0.08312988 0.08465576
vt 0.3459473 0.05062866
vt 0.08312988 0.08465576
vt 0.07434082 0.09338379
vt 0.1468506 0.1323242
vt 0.1746826 0.1186523
vt 0.2045898 0.1663818
vt 0.4379883 0.1456299
vt 0.3718262 0.1176147
vt 0.3015137 0.1170044
vt 0.4389648 0.1761475
vt 0.3015137 0.1170044
vt 0.4560547 0.2398682
vt 0.3718262 0.1176147
vt 0.3459473 0.05062866
vt 0.3015137 0.1170044
vt 0.4775391 0.2354736
vt 0.4389648 0.1761475
vt 0.4560547 0.2398682
vt 0.4758301 0.1268311
vt 0.5297852 0.1240234
vt 0.5541992 0.2095947
vt 0.5043945 0.4091797
vt 0.512207 0.5366211
vt 0.5458984 0.4455566
vt 0.5239258 0.3776855
vt 0.451416 0.3706055
vt 0.4775391 0.2354736
vt 0.5532227 0.2629395
vt 0.4560547 0.2398682
vt 0.4743652 0.4577637
vt 0.5043945 0.4091797
vt 0.451416 0.3706055
vt 0.4106445 0.4567871
vt 0.4768066 0.5161133
vt 0.3625488 0.5395508
vt 0.2492676 0.5546875
vt 0.2370605 0.4511719
vt 0.4396973 0.5732422
vt 0.1976318 0.5249023
vt 0.1672363 0.5234375
vt 0.0657959 0.4772949
vt 0.1265869 0.4155273
vt 0.09735107 0.416748
vt 0.1019287 0.2807617
vt 0.07244873 0.2956543
vt 0.02616882 0.3674316
vt 0.03372192 0.3947754
vt 0.05737305 0.267334
vt 0.06286621 0.1781006
vt 0.2045898 0.1663818
vt 0.1468506 0.1323242

g P_brushwood_01C_(30)_611_92
usemtl P_brushwood_01C_(30)_611_92
usemap P_brushwood_01C_(30)_611_92
f 1/1/1 3/3/3 2/2/2
f 1/1/1 2/2/2 4/4/4
f 5/5/5 3/3/3 1/1/1
f 6/6/6 8/8/8 7/7/7
f 6/6/6 9/9/9 8/8/8
f 8/8/8 9/9/9 10/10/10
f 11/11/11 13/13/13 12/12/12
f 14/14/14 15/15/15 11/11/11
f 14/14/14 16/16/16 15/15/15
f 17/17/17 19/19/19 18/18/18
f 20/20/20 22/22/22 21/21/21
f 20/20/20 21/21/21 23/23/23
f 20/20/20 23/23/23 24/24/24
f 20/20/20 24/24/24 25/25/25
f 26/26/26 28/28/28 27/27/27
f 26/26/26 29/29/29 28/28/28
f 30/30/30 29/29/29 26/26/26
f 29/29/29 30/30/30 31/31/31
f 29/29/29 31/31/31 32/32/32
f 31/31/31 30/30/30 33/33/33
f 34/34/34 36/36/36 35/35/35
f 34/34/34 37/37/37 36/36/36
f 38/38/38 37/37/37 34/34/34
f 39/39/39 37/37/37 38/38/38
f 40/40/40 37/37/37 39/39/39
f 40/40/40 41/41/41 37/37/37
f 39/39/39 38/38/38 42/42/42
f 43/43/43 41/41/41 40/40/40
f 44/44/44 41/41/41 43/43/43
f 45/45/45 41/41/41 44/44/44
f 45/45/45 46/46/46 41/41/41
f 47/47/47 46/46/46 45/45/45
f 47/47/47 48/48/48 46/46/46
f 47/47/47 49/49/49 48/48/48
f 50/50/50 49/49/49 47/47/47
f 50/50/50 47/47/47 51/51/51
f 48/48/48 49/49/49 52/52/52
f 48/48/48 52/52/52 53/53/53
f 48/48/48 53/53/53 54/54/54
f 54/54/54 53/53/53 55/55/55
