#P_brushwood_01A_(1)_572_21.obj

v -0.003210587 0.0004374714 -0.002482657
v -0.003436788 0.0006532174 -0.001749677
v -0.002960481 0.0006731805 -0.001527658
v -0.001236014 0.0002615609 -0.001496582
v -0.000350619 -3.685989E-09 -0.002346777
v -0.0008980646 9.969446E-05 -0.002161843
v -0.001827966 0.0002409049 -0.002493236
v -0.001547395 0.0003670224 -0.001377484
v -0.001378947 0.0003508819 -0.0005878058
v -0.002161206 0.0004324791 -0.001975465
v -0.002606603 0.0004638561 -0.002192239
v -0.003553225 0.0002351375 -0.003361053
v -0.004263792 0.0004503288 -0.002948253
v -0.004773908 0.0005073882 -0.003112661
v -0.004411817 0.0007192867 -0.001888824
v -0.005392183 0.0006194137 -0.00297591
v -0.005758001 0.0004348348 -0.003636676
v -0.006514701 0.0004762815 -0.003294062
v -0.006890179 0.0003553458 -0.003504228
v -0.006494942 0.0006833962 -0.002290022
v -0.008179362 0.0001119029 -0.0003190476
v -0.007401773 0.0003090332 -0.0004109636
v -0.007016785 0.0002709375 0.0001053263
v -0.00605679 0.0006810395 -0.0009500597
v -0.005864805 0.0005810955 -0.0004166936
v -0.005308241 0.0006414148 -0.0002670596
v -0.005230888 0.0007010456 -0.0005253082
v -0.004198452 0.0003687092 0.00119776
v -0.00366607 0.0004151989 0.001181846
v -0.003394075 0.0006010186 0.0005763482
v -0.005168267 0.0002109883 0.001239162
v -0.003748403 0.0006920092 0.0001523113
v -0.001306961 0.0001246079 0.00118236
v -0.002365703 0.0005728814 0.0001344469
v 3.143398E-09 -3.073503E-09 5.71278E-09

vn 0.1116943 -0.5336914 -0.8378906
vn 0.1046143 -0.4331055 -0.8950195
vn -0.04483032 -0.3713379 -0.9272461
vn -0.06039429 -0.4824219 -0.8735352
vn 0.0692749 -0.4680176 -0.8808594
vn 0.01608276 -0.4614258 -0.8867188
vn -0.04470825 -0.5004883 -0.8642578
vn -0.08276367 -0.3967285 -0.9140625
vn -0.1529541 -0.2416992 -0.9580078
vn -0.04006958 -0.496582 -0.8666992
vn 0.08679199 -0.527832 -0.8442383
vn 0.09222412 -0.5507813 -0.8291016
vn 0.0668335 -0.527832 -0.8461914
vn 0.06738281 -0.5205078 -0.8510742
vn 0.09942627 -0.4086914 -0.9067383
vn 0.1702881 -0.434082 -0.8842773
vn 0.2369385 -0.4929199 -0.8369141
vn 0.2705078 -0.4211426 -0.8652344
vn 0.5048828 -0.2114258 -0.8364258
vn 0.3835449 -0.237915 -0.8920898
vn 0.3977051 -0.1026001 -0.9116211
vn 0.2543945 -0.02975464 -0.9663086
vn 0.1763916 0.04812622 -0.9829102
vn 0.2030029 -0.07397461 -0.9760742
vn 0.1412354 0.06500244 -0.987793
vn 0.0993042 0.08111572 -0.9916992
vn 0.1124268 -0.1054688 -0.987793
vn 0.1297607 0.009963989 -0.9912109
vn 0.1297607 0.009963989 -0.9912109
vn -0.02029419 0.008789063 -0.9995117
vn 0.08184814 0.08660889 -0.9926758
vn 0.04864502 -0.003822327 -0.9985352
vn -0.1608887 -0.1972656 -0.9667969
vn -0.1195679 -0.2078857 -0.9707031
vn -0.1678467 -0.2186279 -0.9609375

vt 0.9262695 0.4624023
vt 0.8496094 0.4619141
vt 0.8427734 0.4099121
vt 0.8920898 0.2445068
vt 1 0.185791
vt 0.9658203 0.2324219
vt 0.9692383 0.3310547
vt 0.8710938 0.2705078
vt 0.8007813 0.2307129
vt 0.909668 0.347168
vt 0.9169922 0.3962402
vt 1 0.5214844
vt 0.9389648 0.5766602
vt 0.9394531 0.6303711
vt 0.8334961 0.559082
vt 0.9077148 0.6850586
vt 0.9594727 0.7402344
vt 0.9038086 0.8017578
vt 0.9125977 0.8442383
vt 0.8085938 0.7695313
vt 0.5703125 0.8706055
vt 0.6025391 0.7993164
vt 0.5649414 0.7470703
vt 0.6943359 0.6875
vt 0.6494141 0.652832
vt 0.6518555 0.5952148
vt 0.6787109 0.5957031
vt 0.5458984 0.4455566
vt 0.5634766 0.3952637
vt 0.6293945 0.3876953
vt 0.512207 0.5366211
vt 0.6586914 0.4343262
vt 0.6342773 0.1704102
vt 0.7021484 0.3029785
vt 0.7866211 0.08154297

g P_brushwood_01A_(1)_572_21
usemtl P_brushwood_01A_(1)_572_21
usemap P_brushwood_01A_(1)_572_21
f 1/1/1 3/3/3 2/2/2
f 4/4/4 6/6/6 5/5/5
f 4/4/4 7/7/7 6/6/6
f 8/8/8 4/4/4 9/9/9
f 8/8/8 7/7/7 4/4/4
f 10/10/10 7/7/7 8/8/8
f 10/10/10 11/11/11 7/7/7
f 3/3/3 11/11/11 10/10/10
f 1/1/1 11/11/11 3/3/3
f 1/1/1 12/12/12 11/11/11
f 13/13/13 12/12/12 1/1/1
f 14/14/14 12/12/12 13/13/13
f 14/14/14 13/13/13 15/15/15
f 14/14/14 15/15/15 16/16/16
f 14/14/14 16/16/16 17/17/17
f 17/17/17 16/16/16 18/18/18
f 17/17/17 18/18/18 19/19/19
f 19/19/19 18/18/18 20/20/20
f 19/19/19 20/20/20 21/21/21
f 21/21/21 20/20/20 22/22/22
f 21/21/21 22/22/22 23/23/23
f 23/23/23 22/22/22 24/24/24
f 23/23/23 24/24/24 25/25/25
f 26/26/26 24/24/24 27/27/27
f 25/25/25 24/24/24 26/26/26
f 28/28/28 30/30/30 29/29/29
f 31/31/31 30/30/30 28/28/28
f 26/26/26 31/31/31 25/25/25
f 26/26/26 30/30/30 31/31/31
f 32/32/32 30/30/30 26/26/26
f 32/32/32 33/33/33 30/30/30
f 34/34/34 33/33/33 32/32/32
f 34/34/34 9/9/9 33/33/33
f 33/33/33 9/9/9 35/35/35
