#P_brushwood_01B_681_26.obj

v -0.001899489 0.0008441616 -0.001091185
v -0.003420671 0.0008441558 -0.0007888761
v -0.00411234 0.0008441589 -0.002017418
v -0.002315128 0.0008441592 -0.002570487

vn 0.1779785 0.1719971 -0.96875
vn 0.3115234 0.1665039 -0.9350586
vn 0.3601074 0.2719727 -0.8920898
vn 0.1939697 0.3186035 -0.9277344

vt 0.3745117 0.737793
vt 0.2224121 0.7075195
vt 0.1531982 0.8300781
vt 0.3327637 0.8857422

g P_brushwood_01B_681_26
usemtl P_brushwood_01B_681_26
usemap P_brushwood_01B_681_26
f 1/1/1 3/3/3 2/2/2
f 1/1/1 4/4/4 3/3/3
