#P_brushwood_01C_(13)_658_54.obj

v -0.002813925 -0.0002074864 0.000949848
v -0.003537129 0.0002089003 3.214437E-05
v -0.002280069 0.0004571289 0.0001171237
v -0.00446001 -0.000470208 0.0003035903
v -0.001864951 -4.357349E-05 0.0007991056
v -0.00446001 -0.000470208 0.0003035903
v -0.004542867 -0.0004706098 0.0002117566
v -0.003806955 0.000153737 -0.0001212273
v -0.003537129 0.0002089003 3.214437E-05
v -0.003219525 0.0006047841 -0.0004195443
v -0.0009118808 0.0004973104 -0.000178196
v -0.001579031 0.0004236905 0.0001257044
v -0.002280069 0.0004571289 0.0001171237
v -0.0008960227 0.0006090247 -0.0004954886
v -0.002280069 0.0004571289 0.0001171237
v -0.0007288968 0.0006277844 -0.001164624
v -0.001579031 0.0004236905 0.0001257044
v -0.001864951 -4.357349E-05 0.0007991056
v -0.002280069 0.0004571289 0.0001171237
v -0.0005170644 0.0005296769 -0.001125577
v -0.0008960227 0.0006090247 -0.0004954886
v -0.0007288968 0.0006277844 -0.001164624
v -0.0005382815 0.0002768645 -5.800207E-07
v 1.352335E-09 -6.603364E-10 6.62237E-10
v 0.0002421171 6.13531E-05 -0.0008831614
v -0.0002575523 0.000258128 -0.002886488
v -0.0001770512 -0.0002074184 -0.004162738
v 0.0001552278 -3.186524E-05 -0.003250678
v -6.034133E-05 0.000180783 -0.002572539
v -0.000787603 0.0005184505 -0.002499526
v -0.0005170644 0.0005296769 -0.001125577
v 0.0002291547 7.555691E-05 -0.001422631
v -0.0007288968 0.0006277844 -0.001164624
v -0.0005594317 0.0002732085 -0.003372968
v -0.0002575523 0.000258128 -0.002886488
v -0.000787603 0.0005184505 -0.002499526
v -0.001195681 0.0004485358 -0.003363628
v -0.0005358023 1.816534E-05 -0.003959278
v -0.001676361 5.861598E-05 -0.004193088
v -0.002811081 -8.119549E-05 -0.004341479
v -0.002920865 0.0005014875 -0.003303955
v -0.0009062911 -0.0001944313 -0.004530707
v -0.003326651 7.050989E-05 -0.004044247
v -0.003630771 2.319566E-05 -0.004029627
v -0.004644067 -0.0001520959 -0.003568406
v -0.004011489 0.0004057328 -0.002951883
v -0.00430731 0.0002470266 -0.002967
v -0.004221097 0.0003305734 -0.00161457
v -0.004521737 0.0001835128 -0.001770595
v -0.005013446 -0.0001070493 -0.002482811
v -0.004945947 -9.693957E-05 -0.002751921
v -0.00467201 1.715734E-05 -0.00149732
v -0.004624891 -0.0001689968 -0.0006216187
v -0.003219525 0.0006047841 -0.0004195443
v -0.003806955 0.000153737 -0.0001212273

vn -0.4013672 0.5390625 -0.7402344
vn -0.4851074 0.5087891 -0.7104492
vn -0.3300781 0.5517578 -0.7651367
vn -0.5410156 0.5083008 -0.6694336
vn -0.2524414 0.6269531 -0.7363281
vn -0.5756836 0.3481445 -0.7392578
vn -0.5756836 0.3481445 -0.7392578
vn -0.5673828 0.3449707 -0.7470703
vn -0.4111328 0.4516602 -0.7915039
vn -0.3671875 0.2805176 -0.8862305
vn -0.07751465 0.401123 -0.9125977
vn -0.07751465 0.401123 -0.9125977
vn -0.07751465 0.401123 -0.9125977
vn -0.1035156 0.1337891 -0.9853516
vn -0.1011353 0.1669922 -0.9804688
vn -0.1085205 0.05575562 -0.9921875
vn -0.1749268 0.6274414 -0.7583008
vn -0.1749268 0.6274414 -0.7583008
vn -0.1749268 0.6274414 -0.7583008
vn 0.3618164 0.4172363 -0.8334961
vn 0.3967285 0.4318848 -0.8095703
vn 0.324707 0.3381348 -0.8828125
vn 0.3640137 0.423584 -0.8291016
vn 0.3591309 0.421875 -0.8320313
vn 0.3591309 0.421875 -0.8320313
vn 0.4272461 0.1254883 -0.8950195
vn 0.4326172 -0.07543945 -0.8979492
vn 0.4414063 -0.05233765 -0.8955078
vn 0.4294434 0.1602783 -0.8886719
vn 0.4135742 0.1514893 -0.8974609
vn 0.4311523 0.1654053 -0.8867188
vn 0.4853516 0.2087402 -0.8486328
vn 0.4135742 0.1514893 -0.8974609
vn 0.3354492 -0.04150391 -0.940918
vn 0.328125 0.009628296 -0.9443359
vn 0.328125 0.009628296 -0.9443359
vn 0.2214355 -0.270752 -0.9365234
vn 0.276123 -0.2897949 -0.9160156
vn 0.1762695 -0.3378906 -0.9243164
vn 0.1408691 -0.3552246 -0.9238281
vn 0.04934692 -0.3693848 -0.9277344
vn 0.2680664 -0.3000488 -0.9150391
vn 0.08782959 -0.3837891 -0.9189453
vn -0.1129761 -0.3891602 -0.9140625
vn -0.1219482 -0.3894043 -0.9125977
vn -0.1903076 -0.3308105 -0.9238281
vn -0.4091797 -0.1478271 -0.8999023
vn -0.5185547 0.05230713 -0.8530273
vn -0.470459 -0.04666138 -0.8808594
vn -0.4333496 -0.1246338 -0.8920898
vn -0.4333496 -0.1246338 -0.8920898
vn -0.565918 0.09118652 -0.8188477
vn -0.5498047 0.1175537 -0.8266602
vn -0.5493164 0.1252441 -0.8256836
vn -0.5634766 0.1638184 -0.8095703

vt 0.251709 0.03057861
vt 0.1746826 0.1186523
vt 0.3015137 0.1170044
vt 0.08312988 0.08465576
vt 0.3459473 0.05062866
vt 0.08312988 0.08465576
vt 0.07434082 0.09338379
vt 0.1468506 0.1323242
vt 0.1746826 0.1186523
vt 0.2045898 0.1663818
vt 0.4379883 0.1456299
vt 0.3718262 0.1176147
vt 0.3015137 0.1170044
vt 0.4389648 0.1761475
vt 0.3015137 0.1170044
vt 0.4560547 0.2398682
vt 0.3718262 0.1176147
vt 0.3459473 0.05062866
vt 0.3015137 0.1170044
vt 0.4775391 0.2354736
vt 0.4389648 0.1761475
vt 0.4560547 0.2398682
vt 0.4758301 0.1268311
vt 0.5297852 0.1240234
vt 0.5541992 0.2095947
vt 0.5043945 0.4091797
vt 0.512207 0.5366211
vt 0.5458984 0.4455566
vt 0.5239258 0.3776855
vt 0.451416 0.3706055
vt 0.4775391 0.2354736
vt 0.5532227 0.2629395
vt 0.4560547 0.2398682
vt 0.4743652 0.4577637
vt 0.5043945 0.4091797
vt 0.451416 0.3706055
vt 0.4106445 0.4567871
vt 0.4768066 0.5161133
vt 0.3625488 0.5395508
vt 0.2492676 0.5546875
vt 0.2370605 0.4511719
vt 0.4396973 0.5732422
vt 0.1976318 0.5249023
vt 0.1672363 0.5234375
vt 0.0657959 0.4772949
vt 0.1265869 0.4155273
vt 0.09735107 0.416748
vt 0.1019287 0.2807617
vt 0.07244873 0.2956543
vt 0.02616882 0.3674316
vt 0.03372192 0.3947754
vt 0.05737305 0.267334
vt 0.06286621 0.1781006
vt 0.2045898 0.1663818
vt 0.1468506 0.1323242

g P_brushwood_01C_(13)_658_54
usemtl P_brushwood_01C_(13)_658_54
usemap P_brushwood_01C_(13)_658_54
f 1/1/1 3/3/3 2/2/2
f 1/1/1 2/2/2 4/4/4
f 5/5/5 3/3/3 1/1/1
f 6/6/6 8/8/8 7/7/7
f 6/6/6 9/9/9 8/8/8
f 8/8/8 9/9/9 10/10/10
f 11/11/11 13/13/13 12/12/12
f 14/14/14 15/15/15 11/11/11
f 14/14/14 16/16/16 15/15/15
f 17/17/17 19/19/19 18/18/18
f 20/20/20 22/22/22 21/21/21
f 20/20/20 21/21/21 23/23/23
f 20/20/20 23/23/23 24/24/24
f 20/20/20 24/24/24 25/25/25
f 26/26/26 28/28/28 27/27/27
f 26/26/26 29/29/29 28/28/28
f 30/30/30 29/29/29 26/26/26
f 29/29/29 30/30/30 31/31/31
f 29/29/29 31/31/31 32/32/32
f 31/31/31 30/30/30 33/33/33
f 34/34/34 36/36/36 35/35/35
f 34/34/34 37/37/37 36/36/36
f 38/38/38 37/37/37 34/34/34
f 39/39/39 37/37/37 38/38/38
f 40/40/40 37/37/37 39/39/39
f 40/40/40 41/41/41 37/37/37
f 39/39/39 38/38/38 42/42/42
f 43/43/43 41/41/41 40/40/40
f 44/44/44 41/41/41 43/43/43
f 45/45/45 41/41/41 44/44/44
f 45/45/45 46/46/46 41/41/41
f 47/47/47 46/46/46 45/45/45
f 47/47/47 48/48/48 46/46/46
f 47/47/47 49/49/49 48/48/48
f 50/50/50 49/49/49 47/47/47
f 50/50/50 47/47/47 51/51/51
f 48/48/48 49/49/49 52/52/52
f 48/48/48 52/52/52 53/53/53
f 48/48/48 53/53/53 54/54/54
f 54/54/54 53/53/53 55/55/55
