#P_CE_Floor_01_(41)_863_111.obj

v -5.000001 -5 1.152505E-06
v -2.5 -2.499999 1.053089E-06
v -2.5 -5 8.102173E-07
v -5.000001 -2.499999 1.395377E-06
v 5.268848E-08 -2.499999 1.664475E-06
v -1.384335E-08 -5 1.421604E-06
v 2.5 -2.499999 1.322187E-06
v 2.5 -5 1.079315E-06
v 5.000001 -2.499999 1.933573E-06
v 5.000001 -5 1.690701E-06
v -2.5 1.854661E-06 2.249634E-06
v -5.000001 1.801972E-06 1.638248E-06
v 1.113486E-11 1.907349E-06 1.907346E-06
v 2.5 1.960037E-06 1.565059E-06
v 5.000001 2.012726E-06 2.176444E-06
v -2.5 2.500003 2.492506E-06
v -5.000001 2.500003 1.88112E-06
v -5.266621E-08 2.500003 2.150218E-06
v 2.5 2.500003 2.761604E-06
v 5.000001 2.500003 2.419316E-06
v -2.5 5.000003 2.735377E-06
v -5.000001 5.000003 2.123991E-06
v 1.386562E-08 5.000003 2.393089E-06
v 2.5 5.000003 3.004476E-06
v 5.000001 5.000003 2.662188E-06

vn 5.841255E-06 -1 5.364418E-07
vn 5.841255E-06 -1 5.364418E-07
vn 5.841255E-06 -1 5.364418E-07
vn 5.841255E-06 -1 5.364418E-07
vn 5.841255E-06 -1 5.364418E-07
vn 5.841255E-06 -1 5.364418E-07
vn 5.841255E-06 -1 5.364418E-07
vn 5.841255E-06 -1 5.364418E-07
vn 5.841255E-06 -1 5.364418E-07
vn 5.841255E-06 -1 5.364418E-07
vn 5.841255E-06 -1 5.364418E-07
vn 5.841255E-06 -1 5.364418E-07
vn 5.841255E-06 -1 5.364418E-07
vn 5.841255E-06 -1 5.364418E-07
vn 5.841255E-06 -1 5.364418E-07
vn 5.841255E-06 -1 5.364418E-07
vn 5.841255E-06 -1 5.364418E-07
vn 5.841255E-06 -1 5.364418E-07
vn 5.841255E-06 -1 5.364418E-07
vn 5.841255E-06 -1 5.364418E-07
vn 5.841255E-06 -1 5.364418E-07
vn 5.841255E-06 -1 5.364418E-07
vn 5.841255E-06 -1 5.364418E-07
vn 5.841255E-06 -1 5.364418E-07
vn 5.841255E-06 -1 5.364418E-07

vt 1 1
vt 0.75 0.75
vt 0.75 1
vt 1 0.75
vt 0.5 0.75
vt 0.5 1
vt 0.25 0.75
vt 0.25 1
vt 0 0.75
vt 0 1
vt 0.7495117 0.4997559
vt 0.9995117 0.4997559
vt 0.4997559 0.5
vt 0.2498779 0.5
vt 0 0.5
vt 0.7495117 0.25
vt 0.9995117 0.2498779
vt 0.4997559 0.25
vt 0.2498779 0.25
vt -5.960464E-08 0.25
vt 0.7495117 0
vt 0.9995117 0
vt 0.4997559 5.960464E-08
vt 0.2498779 5.960464E-08
vt -1.192093E-07 5.960464E-08

g P_CE_Floor_01_(41)_863_111
usemtl P_CE_Floor_01_(41)_863_111
usemap P_CE_Floor_01_(41)_863_111
f 1/1/1 3/3/3 2/2/2
f 2/2/2 4/4/4 1/1/1
f 5/5/5 2/2/2 3/3/3
f 3/3/3 6/6/6 5/5/5
f 7/7/7 5/5/5 6/6/6
f 6/6/6 8/8/8 7/7/7
f 9/9/9 7/7/7 8/8/8
f 8/8/8 10/10/10 9/9/9
f 4/4/4 2/2/2 11/11/11
f 11/11/11 12/12/12 4/4/4
f 2/2/2 5/5/5 13/13/13
f 13/13/13 11/11/11 2/2/2
f 5/5/5 7/7/7 14/14/14
f 14/14/14 13/13/13 5/5/5
f 7/7/7 9/9/9 15/15/15
f 15/15/15 14/14/14 7/7/7
f 12/12/12 11/11/11 16/16/16
f 16/16/16 17/17/17 12/12/12
f 11/11/11 13/13/13 18/18/18
f 18/18/18 16/16/16 11/11/11
f 13/13/13 14/14/14 19/19/19
f 19/19/19 18/18/18 13/13/13
f 14/14/14 15/15/15 20/20/20
f 20/20/20 19/19/19 14/14/14
f 17/17/17 16/16/16 21/21/21
f 21/21/21 22/22/22 17/17/17
f 16/16/16 18/18/18 23/23/23
f 23/23/23 21/21/21 16/16/16
f 18/18/18 19/19/19 24/24/24
f 24/24/24 23/23/23 18/18/18
f 19/19/19 20/20/20 25/25/25
f 25/25/25 24/24/24 19/19/19
