#P_CE_Floor_01_(39)_845_104.obj

v -5.000001 -5.000002 -3.139058E-06
v -2.5 -2.500001 -2.284785E-06
v -2.5 -5.000002 -3.004495E-06
v -5.000001 -2.500001 -2.419348E-06
v 5.266619E-08 -2.500001 -2.150222E-06
v 1.053407E-07 -5.000002 -2.869932E-06
v 2.5 -2.500001 -2.015659E-06
v 2.5 -5.000001 -2.735369E-06
v 5.000001 -2.500001 -2.357936E-06
v 5.000001 -5.000001 -2.600809E-06
v -2.5 -5.295272E-07 -2.041912E-06
v -5.000001 -5.822158E-07 -2.176475E-06
v -1.116502E-11 -4.768385E-07 -1.907349E-06
v 2.5 -4.241499E-07 -1.772786E-06
v 5.000001 -3.714613E-07 -1.638225E-06
v -2.5 2.5 -1.799039E-06
v -5.000001 2.5 -1.456765E-06
v -5.268852E-08 2.5 -1.664476E-06
v 2.5 2.5 -1.529913E-06
v 5.000001 2.5 -1.395352E-06
v -2.5 5 -1.079328E-06
v -5.000001 5 -1.213891E-06
v -1.053631E-07 5 -9.447651E-07
v 2.5 5 -8.10202E-07
v 5.000001 5 -6.756417E-07

vn 5.841255E-06 -0.9995117 4.768372E-07
vn 5.841255E-06 -0.9995117 4.768372E-07
vn 5.841255E-06 -0.9995117 4.768372E-07
vn 5.841255E-06 -0.9995117 4.768372E-07
vn 5.841255E-06 -0.9995117 4.768372E-07
vn 5.841255E-06 -0.9995117 4.768372E-07
vn 5.841255E-06 -0.9995117 4.768372E-07
vn 5.841255E-06 -0.9995117 4.768372E-07
vn 5.841255E-06 -0.9995117 4.768372E-07
vn 5.841255E-06 -0.9995117 4.768372E-07
vn 5.841255E-06 -0.9995117 4.768372E-07
vn 5.841255E-06 -0.9995117 4.768372E-07
vn 5.841255E-06 -0.9995117 4.768372E-07
vn 5.841255E-06 -0.9995117 4.768372E-07
vn 5.841255E-06 -0.9995117 4.768372E-07
vn 5.841255E-06 -0.9995117 4.768372E-07
vn 5.841255E-06 -0.9995117 4.768372E-07
vn 5.841255E-06 -0.9995117 4.768372E-07
vn 5.841255E-06 -0.9995117 4.768372E-07
vn 5.841255E-06 -0.9995117 4.768372E-07
vn 5.841255E-06 -0.9995117 4.768372E-07
vn 5.841255E-06 -0.9995117 4.768372E-07
vn 5.841255E-06 -0.9995117 4.768372E-07
vn 5.841255E-06 -0.9995117 4.768372E-07
vn 5.841255E-06 -0.9995117 4.768372E-07

vt 1 1
vt 0.75 0.75
vt 0.75 1
vt 1 0.75
vt 0.5 0.75
vt 0.5 1
vt 0.25 0.75
vt 0.25 1
vt 0 0.75
vt 0 1
vt 0.7495117 0.4997559
vt 0.9995117 0.4997559
vt 0.4997559 0.5
vt 0.2498779 0.5
vt 0 0.5
vt 0.7495117 0.25
vt 0.9995117 0.2498779
vt 0.4997559 0.25
vt 0.2498779 0.25
vt -5.960464E-08 0.25
vt 0.7495117 0
vt 0.9995117 0
vt 0.4997559 5.960464E-08
vt 0.2498779 5.960464E-08
vt -1.192093E-07 5.960464E-08

g P_CE_Floor_01_(39)_845_104
usemtl P_CE_Floor_01_(39)_845_104
usemap P_CE_Floor_01_(39)_845_104
f 1/1/1 3/3/3 2/2/2
f 2/2/2 4/4/4 1/1/1
f 5/5/5 2/2/2 3/3/3
f 3/3/3 6/6/6 5/5/5
f 7/7/7 5/5/5 6/6/6
f 6/6/6 8/8/8 7/7/7
f 9/9/9 7/7/7 8/8/8
f 8/8/8 10/10/10 9/9/9
f 4/4/4 2/2/2 11/11/11
f 11/11/11 12/12/12 4/4/4
f 2/2/2 5/5/5 13/13/13
f 13/13/13 11/11/11 2/2/2
f 5/5/5 7/7/7 14/14/14
f 14/14/14 13/13/13 5/5/5
f 7/7/7 9/9/9 15/15/15
f 15/15/15 14/14/14 7/7/7
f 12/12/12 11/11/11 16/16/16
f 16/16/16 17/17/17 12/12/12
f 11/11/11 13/13/13 18/18/18
f 18/18/18 16/16/16 11/11/11
f 13/13/13 14/14/14 19/19/19
f 19/19/19 18/18/18 13/13/13
f 14/14/14 15/15/15 20/20/20
f 20/20/20 19/19/19 14/14/14
f 17/17/17 16/16/16 21/21/21
f 21/21/21 22/22/22 17/17/17
f 16/16/16 18/18/18 23/23/23
f 23/23/23 21/21/21 16/16/16
f 18/18/18 19/19/19 24/24/24
f 24/24/24 23/23/23 18/18/18
f 19/19/19 20/20/20 25/25/25
f 25/25/25 24/24/24 19/19/19
