#P_CE_Floor_01_(49)_816_72.obj

v -5 -5.000001 1.629311E-06
v -2.5 -2.500001 2.483587E-06
v -2.5 -5.000001 1.763877E-06
v -5 -2.500001 2.349022E-06
v -4.241431E-07 -2.5 2.618153E-06
v -3.714685E-07 -5.000001 1.898443E-06
v 2.5 -2.5 2.752719E-06
v 2.5 -5.000001 2.033009E-06
v 5 -2.5 2.410442E-06
v 5 -5.000001 2.167569E-06
v -2.5 -5.268674E-08 2.72646E-06
v -5 -1.053754E-07 2.591895E-06
v -4.768204E-07 1.894794E-12 2.861026E-06
v 2.5 5.269053E-08 2.995592E-06
v 5 1.053792E-07 3.130153E-06
v -2.5 2.5 2.969334E-06
v -5 2.5 3.311605E-06
v -5.294978E-07 2.500001 3.103899E-06
v 2.5 2.500001 3.238465E-06
v 5 2.500001 3.373026E-06
v -2.5 5.000001 3.689044E-06
v -5 5.000001 3.554478E-06
v -5.821723E-07 5.000001 3.82361E-06
v 2.5 5.000001 3.958176E-06
v 5 5.000001 4.092736E-06

vn 5.841255E-06 -0.9995117 4.768372E-07
vn 5.841255E-06 -0.9995117 4.768372E-07
vn 5.841255E-06 -0.9995117 4.768372E-07
vn 5.841255E-06 -0.9995117 4.768372E-07
vn 5.841255E-06 -0.9995117 4.768372E-07
vn 5.841255E-06 -0.9995117 4.768372E-07
vn 5.841255E-06 -0.9995117 4.768372E-07
vn 5.841255E-06 -0.9995117 4.768372E-07
vn 5.841255E-06 -0.9995117 4.768372E-07
vn 5.841255E-06 -0.9995117 4.768372E-07
vn 5.841255E-06 -0.9995117 4.768372E-07
vn 5.841255E-06 -0.9995117 4.768372E-07
vn 5.841255E-06 -0.9995117 4.768372E-07
vn 5.841255E-06 -0.9995117 4.768372E-07
vn 5.841255E-06 -0.9995117 4.768372E-07
vn 5.841255E-06 -0.9995117 4.768372E-07
vn 5.841255E-06 -0.9995117 4.768372E-07
vn 5.841255E-06 -0.9995117 4.768372E-07
vn 5.841255E-06 -0.9995117 4.768372E-07
vn 5.841255E-06 -0.9995117 4.768372E-07
vn 5.841255E-06 -0.9995117 4.768372E-07
vn 5.841255E-06 -0.9995117 4.768372E-07
vn 5.841255E-06 -0.9995117 4.768372E-07
vn 5.841255E-06 -0.9995117 4.768372E-07
vn 5.841255E-06 -0.9995117 4.768372E-07

vt 1 1
vt 0.75 0.75
vt 0.75 1
vt 1 0.75
vt 0.5 0.75
vt 0.5 1
vt 0.25 0.75
vt 0.25 1
vt 0 0.75
vt 0 1
vt 0.7495117 0.4997559
vt 0.9995117 0.4997559
vt 0.4997559 0.5
vt 0.2498779 0.5
vt 0 0.5
vt 0.7495117 0.25
vt 0.9995117 0.2498779
vt 0.4997559 0.25
vt 0.2498779 0.25
vt -5.960464E-08 0.25
vt 0.7495117 0
vt 0.9995117 0
vt 0.4997559 5.960464E-08
vt 0.2498779 5.960464E-08
vt -1.192093E-07 5.960464E-08

g P_CE_Floor_01_(49)_816_72
usemtl P_CE_Floor_01_(49)_816_72
usemap P_CE_Floor_01_(49)_816_72
f 1/1/1 3/3/3 2/2/2
f 2/2/2 4/4/4 1/1/1
f 5/5/5 2/2/2 3/3/3
f 3/3/3 6/6/6 5/5/5
f 7/7/7 5/5/5 6/6/6
f 6/6/6 8/8/8 7/7/7
f 9/9/9 7/7/7 8/8/8
f 8/8/8 10/10/10 9/9/9
f 4/4/4 2/2/2 11/11/11
f 11/11/11 12/12/12 4/4/4
f 2/2/2 5/5/5 13/13/13
f 13/13/13 11/11/11 2/2/2
f 5/5/5 7/7/7 14/14/14
f 14/14/14 13/13/13 5/5/5
f 7/7/7 9/9/9 15/15/15
f 15/15/15 14/14/14 7/7/7
f 12/12/12 11/11/11 16/16/16
f 16/16/16 17/17/17 12/12/12
f 11/11/11 13/13/13 18/18/18
f 18/18/18 16/16/16 11/11/11
f 13/13/13 14/14/14 19/19/19
f 19/19/19 18/18/18 13/13/13
f 14/14/14 15/15/15 20/20/20
f 20/20/20 19/19/19 14/14/14
f 17/17/17 16/16/16 21/21/21
f 21/21/21 22/22/22 17/17/17
f 16/16/16 18/18/18 23/23/23
f 23/23/23 21/21/21 16/16/16
f 18/18/18 19/19/19 24/24/24
f 24/24/24 23/23/23 18/18/18
f 19/19/19 20/20/20 25/25/25
f 25/25/25 24/24/24 19/19/19
