#P_CE_FloorDecal_01_723_66.obj

v -0.005170289 -0.551239 -3.998613E-06
v -1.019611 0.5465039 -4.129446E-06
v -0.007051082 0.5452812 -4.113092E-06
v -1.018357 -0.5503222 -4.023144E-06
v -0.003289185 -1.647762 -3.89231E-06
v -1.017103 -1.647148 -3.916841E-06
v -0.001408392 -2.744282 -3.786007E-06
v -1.015849 -2.743977 -3.810539E-06
v 0.0004730233 -3.840805 -3.679705E-06
v -1.014595 -3.840803 -3.704236E-06
v 1.008017 -0.5521557 -3.982258E-06
v 1.005509 0.5440586 -4.088561E-06
v -0.008932497 1.641804 -4.219395E-06
v 1.003001 1.640275 -4.194863E-06
v -0.01081329 2.738327 -4.325697E-06
v 1.000493 2.736492 -4.301166E-06
v -0.0126944 3.834847 -4.432E-06
v 0.9979845 3.832706 -4.407469E-06
v 2.021204 -0.5530725 -3.957727E-06
v 2.018069 0.5428384 -4.064029E-06
v 3.034391 -0.5539893 -3.933195E-06
v 3.030629 0.5416157 -4.039498E-06
v 1.015541 -3.840804 -3.655173E-06
v -2.030291 -2.743672 -3.83507E-06
v -2.029664 -3.840804 -3.728767E-06
v -3.044732 -2.743367 -3.851424E-06
v -3.044732 -3.840805 -3.745122E-06
v -2.030917 -1.646537 -3.941373E-06
v -3.044731 -1.645927 -3.965904E-06
v 3.038153 -1.649594 -3.826893E-06
v 2.024339 -1.648983 -3.851424E-06
v 3.041916 -2.745199 -3.72059E-06
v 2.027474 -2.744894 -3.745122E-06
v 3.045678 -3.840804 -3.614288E-06
v 2.03061 -3.840803 -3.638819E-06
v 1.013033 -2.744587 -3.761476E-06
v 1.010525 -1.648373 -3.875955E-06
v -3.044731 -0.5484887 -4.072207E-06
v -2.031544 -0.5494055 -4.047675E-06
v -2.032171 0.5477266 -4.153978E-06
v -3.044731 0.5489492 -4.178509E-06
v -3.044731 1.646387 -4.284811E-06
v -2.032798 1.644861 -4.26028E-06
v -3.04473 2.743825 -4.391114E-06
v -2.033425 2.741993 -4.366583E-06
v -3.04473 3.841266 -4.497417E-06
v -2.034053 3.839125 -4.472885E-06
v -1.022118 2.740159 -4.350229E-06
v -1.023373 3.836987 -4.456531E-06
v -1.020864 1.643333 -4.235749E-06
v 2.011799 2.734658 -4.276635E-06
v 3.019342 3.828428 -4.366583E-06
v 3.023104 2.732823 -4.26028E-06
v 2.008663 3.830569 -4.382937E-06
v 2.014934 1.638747 -4.170332E-06
v 3.026866 1.637218 -4.145801E-06

vn 0 1 1.192093E-07
vn 0 1 1.192093E-07
vn 0 1 1.192093E-07
vn 0 1 1.192093E-07
vn 0 1 1.192093E-07
vn 0 1 1.192093E-07
vn 0 1 1.192093E-07
vn 0 1 1.192093E-07
vn 0 1 1.192093E-07
vn 0 1 1.192093E-07
vn 0 1 1.192093E-07
vn 0 1 1.192093E-07
vn 0 1 1.192093E-07
vn 0 1 1.192093E-07
vn 0 1 1.192093E-07
vn 0 1 1.192093E-07
vn 0 1 1.192093E-07
vn 0 1 1.192093E-07
vn 0 1 1.192093E-07
vn 0 1 1.192093E-07
vn 0 1 1.192093E-07
vn 0 1 1.192093E-07
vn 0 1 1.192093E-07
vn 0 1 1.192093E-07
vn 0 1 1.192093E-07
vn 0 1 1.192093E-07
vn 0 1 1.192093E-07
vn 0 1 1.192093E-07
vn 0 1 1.192093E-07
vn 0 1 1.192093E-07
vn 0 1 1.192093E-07
vn 0 1 1.192093E-07
vn 0 1 1.192093E-07
vn 0 1 1.192093E-07
vn 0 1 1.192093E-07
vn 0 1 1.192093E-07
vn 0 1 1.192093E-07
vn 0 1 1.192093E-07
vn 0 1 1.192093E-07
vn 0 1 1.192093E-07
vn 0 1 1.192093E-07
vn 0 1 1.192093E-07
vn 0 1 1.192093E-07
vn 0 1 1.192093E-07
vn 0 1 1.192093E-07
vn 0 1 1.192093E-07
vn 0 1 1.192093E-07
vn 0 1 1.192093E-07
vn 0 1 1.192093E-07
vn 0 1 1.192093E-07
vn 0 1 1.192093E-07
vn 0 1 1.192093E-07
vn 0 1 1.192093E-07
vn 0 1 1.192093E-07
vn 0 1 1.192093E-07
vn 0 1 1.192093E-07

vt 0.793457 0.2893066
vt 0.7275391 0.3608398
vt 0.793457 0.3605957
vt 0.7275391 0.2895508
vt 0.793457 0.2182617
vt 0.7275391 0.2182617
vt 0.7939453 0.1469727
vt 0.7280273 0.1469727
vt 0.7939453 0.07580566
vt 0.7280273 0.07580566
vt 0.859375 0.2893066
vt 0.859375 0.3605957
vt 0.793457 0.4318848
vt 0.8588867 0.4318848
vt 0.7929688 0.5029297
vt 0.8588867 0.5029297
vt 0.7929688 0.5742188
vt 0.8588867 0.5742188
vt 0.925293 0.2893066
vt 0.9248047 0.3605957
vt 0.9912109 0.2893066
vt 0.9907227 0.3603516
vt 0.8598633 0.07580566
vt 0.6621094 0.1470947
vt 0.6621094 0.07580566
vt 0.5961914 0.1470947
vt 0.5961914 0.07580566
vt 0.6621094 0.2182617
vt 0.5961914 0.2183838
vt 0.9912109 0.2181396
vt 0.925293 0.2181396
vt 0.9916992 0.1469727
vt 0.9257813 0.1469727
vt 0.9916992 0.07580566
vt 0.9257813 0.07580566
vt 0.8598633 0.1469727
vt 0.859375 0.2181396
vt 0.5961914 0.2895508
vt 0.6621094 0.2895508
vt 0.6616211 0.3608398
vt 0.5961914 0.3608398
vt 0.5961914 0.4321289
vt 0.6616211 0.4321289
vt 0.5961914 0.503418
vt 0.6616211 0.503418
vt 0.5961914 0.574707
vt 0.6616211 0.574707
vt 0.7275391 0.5029297
vt 0.7275391 0.5742188
vt 0.7275391 0.4318848
vt 0.9243164 0.5029297
vt 0.9897461 0.5737305
vt 0.9902344 0.5024414
vt 0.9243164 0.5737305
vt 0.9248047 0.4316406
vt 0.9907227 0.4316406

g P_CE_FloorDecal_01_723_66
usemtl P_CE_FloorDecal_01_723_66
usemap P_CE_FloorDecal_01_723_66
f 1/1/1 3/3/3 2/2/2
f 2/2/2 4/4/4 1/1/1
f 5/5/5 1/1/1 4/4/4
f 4/4/4 6/6/6 5/5/5
f 7/7/7 5/5/5 6/6/6
f 6/6/6 8/8/8 7/7/7
f 9/9/9 7/7/7 8/8/8
f 8/8/8 10/10/10 9/9/9
f 3/3/3 1/1/1 11/11/11
f 11/11/11 12/12/12 3/3/3
f 13/13/13 3/3/3 12/12/12
f 12/12/12 14/14/14 13/13/13
f 15/15/15 13/13/13 14/14/14
f 14/14/14 16/16/16 15/15/15
f 17/17/17 15/15/15 16/16/16
f 16/16/16 18/18/18 17/17/17
f 12/12/12 11/11/11 19/19/19
f 19/19/19 20/20/20 12/12/12
f 14/14/14 12/12/12 20/20/20
f 20/20/20 19/19/19 21/21/21
f 21/21/21 22/22/22 20/20/20
f 7/7/7 9/9/9 23/23/23
f 10/10/10 8/8/8 24/24/24
f 24/24/24 25/25/25 10/10/10
f 25/25/25 24/24/24 26/26/26
f 26/26/26 27/27/27 25/25/25
f 26/26/26 24/24/24 28/28/28
f 28/28/28 24/24/24 8/8/8
f 28/28/28 29/29/29 26/26/26
f 8/8/8 6/6/6 28/28/28
f 30/30/30 21/21/21 19/19/19
f 19/19/19 31/31/31 30/30/30
f 32/32/32 30/30/30 31/31/31
f 31/31/31 33/33/33 32/32/32
f 34/34/34 32/32/32 33/33/33
f 33/33/33 35/35/35 34/34/34
f 35/35/35 33/33/33 36/36/36
f 36/36/36 23/23/23 35/35/35
f 23/23/23 36/36/36 7/7/7
f 33/33/33 31/31/31 37/37/37
f 37/37/37 36/36/36 33/33/33
f 36/36/36 37/37/37 5/5/5
f 5/5/5 7/7/7 36/36/36
f 11/11/11 37/37/37 31/31/31
f 31/31/31 19/19/19 11/11/11
f 37/37/37 11/11/11 1/1/1
f 1/1/1 5/5/5 37/37/37
f 38/38/38 29/29/29 28/28/28
f 28/28/28 39/39/39 38/38/38
f 38/38/38 39/39/39 40/40/40
f 40/40/40 41/41/41 38/38/38
f 40/40/40 39/39/39 4/4/4
f 4/4/4 2/2/2 40/40/40
f 39/39/39 28/28/28 6/6/6
f 6/6/6 4/4/4 39/39/39
f 42/42/42 41/41/41 40/40/40
f 40/40/40 43/43/43 42/42/42
f 43/43/43 40/40/40 2/2/2
f 44/44/44 42/42/42 43/43/43
f 43/43/43 45/45/45 44/44/44
f 46/46/46 44/44/44 45/45/45
f 45/45/45 47/47/47 46/46/46
f 47/47/47 45/45/45 48/48/48
f 48/48/48 49/49/49 47/47/47
f 49/49/49 48/48/48 15/15/15
f 15/15/15 17/17/17 49/49/49
f 45/45/45 43/43/43 50/50/50
f 50/50/50 48/48/48 45/45/45
f 2/2/2 50/50/50 43/43/43
f 48/48/48 50/50/50 13/13/13
f 13/13/13 15/15/15 48/48/48
f 50/50/50 2/2/2 3/3/3
f 3/3/3 13/13/13 50/50/50
f 51/51/51 53/53/53 52/52/52
f 52/52/52 54/54/54 51/51/51
f 51/51/51 54/54/54 18/18/18
f 18/18/18 16/16/16 51/51/51
f 53/53/53 51/51/51 55/55/55
f 55/55/55 51/51/51 16/16/16
f 55/55/55 56/56/56 53/53/53
f 16/16/16 14/14/14 55/55/55
f 56/56/56 55/55/55 20/20/20
f 20/20/20 55/55/55 14/14/14
f 20/20/20 22/22/22 56/56/56
