#P_CE_Floor_01_(42)_867_112.obj

v -5.000001 -5.000001 -7.548384E-07
v -2.500001 -2.500001 -8.542547E-07
v -2.500001 -5.000001 -1.097126E-06
v -5.000001 -2.500001 -5.119668E-07
v -4.241594E-07 -2.500001 -2.428688E-07
v -3.71482E-07 -5.000001 -4.857403E-07
v 2.5 -2.500001 -5.851567E-07
v 2.5 -5.000001 -8.280282E-07
v 5 -2.500001 2.622932E-08
v 5 -5.000001 -2.166422E-07
v -2.500001 -5.268835E-08 3.422907E-07
v -5.000001 -1.053773E-07 -2.690953E-07
v -4.768367E-07 -1.004767E-14 2.793766E-12
v 2.5 5.268832E-08 -3.422851E-07
v 5 1.053773E-07 2.691009E-07
v -2.500001 2.500001 5.851622E-07
v -5.000001 2.500001 -2.622373E-08
v -5.295141E-07 2.500001 2.428744E-07
v 2.5 2.500001 8.542603E-07
v 5 2.500001 5.119725E-07
v -2.500001 5.000001 8.280338E-07
v -5.000001 5.000001 2.166478E-07
v -5.821914E-07 5.000001 4.857459E-07
v 2.5 5.000001 1.097132E-06
v 5 5.000001 7.54844E-07

vn 5.841255E-06 -1 5.364418E-07
vn 5.841255E-06 -1 5.364418E-07
vn 5.841255E-06 -1 5.364418E-07
vn 5.841255E-06 -1 5.364418E-07
vn 5.841255E-06 -1 5.364418E-07
vn 5.841255E-06 -1 5.364418E-07
vn 5.841255E-06 -1 5.364418E-07
vn 5.841255E-06 -1 5.364418E-07
vn 5.841255E-06 -1 5.364418E-07
vn 5.841255E-06 -1 5.364418E-07
vn 5.841255E-06 -1 5.364418E-07
vn 5.841255E-06 -1 5.364418E-07
vn 5.841255E-06 -1 5.364418E-07
vn 5.841255E-06 -1 5.364418E-07
vn 5.841255E-06 -1 5.364418E-07
vn 5.841255E-06 -1 5.364418E-07
vn 5.841255E-06 -1 5.364418E-07
vn 5.841255E-06 -1 5.364418E-07
vn 5.841255E-06 -1 5.364418E-07
vn 5.841255E-06 -1 5.364418E-07
vn 5.841255E-06 -1 5.364418E-07
vn 5.841255E-06 -1 5.364418E-07
vn 5.841255E-06 -1 5.364418E-07
vn 5.841255E-06 -1 5.364418E-07
vn 5.841255E-06 -1 5.364418E-07

vt 1 1
vt 0.75 0.75
vt 0.75 1
vt 1 0.75
vt 0.5 0.75
vt 0.5 1
vt 0.25 0.75
vt 0.25 1
vt 0 0.75
vt 0 1
vt 0.7495117 0.4997559
vt 0.9995117 0.4997559
vt 0.4997559 0.5
vt 0.2498779 0.5
vt 0 0.5
vt 0.7495117 0.25
vt 0.9995117 0.2498779
vt 0.4997559 0.25
vt 0.2498779 0.25
vt -5.960464E-08 0.25
vt 0.7495117 0
vt 0.9995117 0
vt 0.4997559 5.960464E-08
vt 0.2498779 5.960464E-08
vt -1.192093E-07 5.960464E-08

g P_CE_Floor_01_(42)_867_112
usemtl P_CE_Floor_01_(42)_867_112
usemap P_CE_Floor_01_(42)_867_112
f 1/1/1 3/3/3 2/2/2
f 2/2/2 4/4/4 1/1/1
f 5/5/5 2/2/2 3/3/3
f 3/3/3 6/6/6 5/5/5
f 7/7/7 5/5/5 6/6/6
f 6/6/6 8/8/8 7/7/7
f 9/9/9 7/7/7 8/8/8
f 8/8/8 10/10/10 9/9/9
f 4/4/4 2/2/2 11/11/11
f 11/11/11 12/12/12 4/4/4
f 2/2/2 5/5/5 13/13/13
f 13/13/13 11/11/11 2/2/2
f 5/5/5 7/7/7 14/14/14
f 14/14/14 13/13/13 5/5/5
f 7/7/7 9/9/9 15/15/15
f 15/15/15 14/14/14 7/7/7
f 12/12/12 11/11/11 16/16/16
f 16/16/16 17/17/17 12/12/12
f 11/11/11 13/13/13 18/18/18
f 18/18/18 16/16/16 11/11/11
f 13/13/13 14/14/14 19/19/19
f 19/19/19 18/18/18 13/13/13
f 14/14/14 15/15/15 20/20/20
f 20/20/20 19/19/19 14/14/14
f 17/17/17 16/16/16 21/21/21
f 21/21/21 22/22/22 17/17/17
f 16/16/16 18/18/18 23/23/23
f 23/23/23 21/21/21 16/16/16
f 18/18/18 19/19/19 24/24/24
f 24/24/24 23/23/23 18/18/18
f 19/19/19 20/20/20 25/25/25
f 25/25/25 24/24/24 19/19/19
