#P_DF_Tree_05_(42)_695_88.obj

v 0.00650298 -1.065112 11.6055
v 0.37943 -0.9909312 11.6055
v 0.6955828 -0.7796847 11.6055
v -0.3664244 -0.9909309 11.6055
v -0.6825771 -0.7796854 11.6055
v -0.8938235 -0.4635333 11.6055
v -0.9680033 -0.09060623 11.6055
v -0.8938232 0.2823215 11.6055
v -0.6825771 0.5984734 11.6055
v -0.3664241 0.8097214 11.6055
v 0.006502662 0.8839005 11.6055
v 0.3794303 0.8097212 11.6055
v 0.6955825 0.5984724 11.6055
v 0.9068291 0.282322 11.6055
v 0.9810089 -0.09060515 11.6055
v 0.9068289 -0.4635328 11.6055
v -1.981162 -0.01880156 -0.08107173
v -1.670227 -0.2553014 -0.08107173
v -1.876546 -0.2881194 0.3437261
v -1.6787 -0.6021211 -0.08107173
v -1.903883 -0.9787485 -0.05623478
v -1.953788 -0.8312222 0.3136505
v -1.744102 -0.6308809 0.2835002
v -1.378799 -0.4697986 2.01489
v -1.32653 -0.7122319 2.01489
v -1.166952 -0.5043629 2.817643
v -1.14383 -0.6299721 2.697356
v -1.278153 -0.4400756 3.053559
v -1.252239 -0.7160218 2.936283
v -1.458659 -0.8416917 2.01489
v -2.079673 -1.166673 -9.667916E-07
v -1.320647 -1.367032 2.01489
v -1.714655 -1.722332 -9.667916E-07
v -0.9124482 -2.048619 -2.626683E-06
v -0.800289 -1.474105 2.01489
v -0.2324042 -1.535464 2.01489
v -0.1164006 -2.035871 -2.626683E-06
v 0.2743608 -1.380585 2.01489
v 0.6429581 -1.830577 -9.667916E-07
v 0.6664566 -1.103003 2.01489
v 1.251248 -1.463223 -9.667916E-07
v 1.187426 -0.763454 2.01489
v 1.637547 -0.7614062 -2.626683E-06
v 1.413521 -0.2056522 2.01489
v 2.045131 0.007242109 -2.626683E-06
v 0.003255069 1.067646 2.01489
v 0.6791808 1.171497 2.01489
v 0.2286293 1.744635 -9.667916E-07
v 1.192992 1.884701 -9.667916E-07
v 1.258224 0.9600533 2.01489
v 1.741788 1.476697 -9.667916E-07
v 2.095538 0.8686684 -9.667916E-07
v 1.464217 0.3789344 2.01489
v 0.04662719 0.9075085 4.169207
v 0.5804413 0.9334478 4.169207
v 1.061995 0.8694147 4.169207
v 1.132582 0.4010156 4.169207
v 1.11706 -0.0890743 4.169207
v 1.020166 -0.4716969 4.169207
v 0.6862676 -0.7226301 4.169207
v 0.36235 -1.070674 4.169207
v -0.02899108 -1.195787 4.169207
v -0.4799518 -1.089251 4.169207
v -0.8776198 -0.9307826 4.169207
v -1.047387 -0.5394817 4.169207
v -1.170515 -0.1194704 4.169207
v -1.555088 -0.3627242 2.01489
v -2.013121 -0.1828301 0.378119
v -2.132244 0.1539042 0.00709839
v -2.093842 0.4936787 -2.626683E-06
v -1.411207 0.07902594 2.01489
v -1.690274 0.9758244 -9.667916E-07
v -1.199862 0.5409842 2.01489
v -0.7313195 1.201286 -9.667916E-07
v 0.2286293 1.744635 -9.667916E-07
v 0.003255069 1.067646 2.01489
v -0.6741385 0.8219697 2.01489
v -1.049059 0.2202698 4.169207
v -0.7846112 0.6769673 4.169207
v -0.3785647 0.8112102 4.169207
v 0.04662719 0.9075085 4.169207
v 0.006502662 0.8839005 11.6055
v -0.3664241 0.8097214 11.6055
v -0.6825771 0.5984734 11.6055
v -0.8938232 0.2823215 11.6055
v -0.9680033 -0.09060623 11.6055
v -0.8938235 -0.4635333 11.6055
v -0.6825771 -0.7796854 11.6055
v -0.3664244 -0.9909309 11.6055
v 0.00650298 -1.065112 11.6055
v 0.37943 -0.9909312 11.6055
v 0.6955828 -0.7796847 11.6055
v 0.9068289 -0.4635328 11.6055
v 0.9810089 -0.09060515 11.6055
v 0.006502662 0.8839005 11.6055
v 0.3794303 0.8097212 11.6055
v 0.6955825 0.5984724 11.6055
v 0.9068291 0.282322 11.6055

vn 0 -1 -5.960464E-08
vn 0 -1 -5.960464E-08
vn 0 -1 -5.960464E-08
vn 0 -1 -5.960464E-08
vn 0 -1 -5.960464E-08
vn 0 -1 -5.960464E-08
vn 0 -1 -5.960464E-08
vn 0 -1 -5.960464E-08
vn 0 -1 -5.960464E-08
vn 0 -1 -5.960464E-08
vn 0 -1 -5.960464E-08
vn 0 -1 -5.960464E-08
vn 0 -1 -5.960464E-08
vn 0 -1 -5.960464E-08
vn 0 -1 -5.960464E-08
vn 0 -1 -5.960464E-08
vn 0.6010742 0.2873535 -0.7451172
vn 0.7724609 0.4211426 -0.4746094
vn 0.7128906 0.09729004 -0.6943359
vn 0.9511719 0.2971191 0.0803833
vn 0.847168 0.3127441 0.4284668
vn 0.9360352 -0.0725708 0.3442383
vn 0.9931641 -0.02975464 0.1118164
vn 0.7207031 -0.1785889 -0.6694336
vn 0.9609375 -0.2169189 0.1713867
vn 0.8413086 0.1835938 -0.5073242
vn 0.9936523 -0.05532837 0.09283447
vn 0.878418 -0.09906006 -0.4667969
vn 0.9833984 -0.05352783 -0.1717529
vn 0.9594727 -0.244873 0.1359863
vn 0.980957 -0.09246826 -0.1697998
vn 0.5561523 -0.2910156 -0.777832
vn 0.5151367 -0.2467041 -0.8203125
vn 0.0461731 -0.2419434 -0.96875
vn 0.02615356 -0.2282715 -0.9731445
vn -0.2209473 -0.203125 -0.9536133
vn -0.2661133 -0.2441406 -0.9321289
vn -0.5429688 -0.1942139 -0.8168945
vn -0.5024414 -0.269043 -0.8212891
vn -0.6518555 -0.2108154 -0.7280273
vn -0.7631836 -0.2507324 -0.5947266
vn -0.840332 -0.2009277 -0.5029297
vn -0.9194336 -0.201416 -0.3371582
vn -0.9736328 -0.1955566 -0.1137085
vn -0.9589844 -0.2578125 -0.1141968
vn 0.3847656 -0.1535645 0.909668
vn 0.04431152 -0.2271729 0.9726563
vn 0.4116211 -0.2683105 0.8706055
vn -0.1154785 -0.3356934 0.9345703
vn -0.5927734 -0.2595215 0.762207
vn -0.6123047 -0.3234863 0.7211914
vn -0.8823242 -0.3120117 0.3510742
vn -0.9453125 -0.2271729 0.2325439
vn 0.2702637 -0.04473877 0.9614258
vn 0.08087158 -0.04876709 0.9951172
vn -0.5878906 -0.08233643 0.8041992
vn -0.9765625 -0.09197998 0.1928711
vn -0.9970703 -0.07421875 -0.008659363
vn -0.8989258 -0.07159424 -0.4313965
vn -0.7558594 -0.05395508 -0.6518555
vn -0.6474609 -0.04824829 -0.7602539
vn -0.1834717 -0.08764648 -0.9790039
vn 0.1611328 -0.1199951 -0.9794922
vn 0.5966797 -0.1424561 -0.7890625
vn 0.8833008 -0.1062012 -0.456543
vn 0.9907227 -0.09259033 -0.09765625
vn 0.8422852 -0.1855469 -0.5053711
vn 0.7905273 -0.03833008 -0.6108398
vn 0.9516602 -0.1314697 -0.2766113
vn 0.8955078 -0.3586426 0.2624512
vn 0.9458008 -0.223877 0.2338867
vn 0.625 -0.3200684 0.7114258
vn 0.7958984 -0.177002 0.578125
vn 0.4799805 -0.2285156 0.8466797
vn 0.4116211 -0.2683105 0.8706055
vn 0.3847656 -0.1535645 0.909668
vn 0.5209961 -0.1099854 0.8461914
vn 0.9526367 -0.07531738 0.2932129
vn 0.7177734 -0.05215454 0.6938477
vn 0.3999023 -0.03329468 0.9155273
vn 0.2702637 -0.04473877 0.9614258
vn 0.1396484 -0.01132202 0.9897461
vn 0.5024414 -0.001533508 0.8642578
vn 0.7919922 -0.009376526 0.6103516
vn 0.9663086 -0.01789856 0.2561035
vn 0.9907227 -0.02314758 -0.1307373
vn 0.8632813 -0.02494812 -0.503418
vn 0.6079102 -0.02723694 -0.7929688
vn 0.2509766 -0.02331543 -0.9672852
vn -0.1334229 -0.01609802 -0.9907227
vn -0.5048828 -0.01178741 -0.862793
vn -0.7973633 -0.0009055138 -0.6030273
vn -0.9648438 -0.005149841 -0.2619629
vn -0.9907227 -0.01654053 0.1325684
vn 0.1396484 -0.01132202 0.9897461
vn -0.2445068 -0.03848267 0.96875
vn -0.6113281 -0.04626465 0.7895508
vn -0.8666992 -0.02619934 0.4978027

vt 0.8007813 0.01745605
vt 0.8735352 0.03161621
vt 0.9350586 0.07196045
vt 0.7280273 0.03161621
vt 0.6665039 0.07196045
vt 0.6254883 0.1323242
vt 0.6113281 0.2034912
vt 0.6254883 0.2746582
vt 0.6665039 0.3349609
vt 0.7280273 0.3754883
vt 0.8007813 0.3896484
vt 0.8735352 0.3754883
vt 0.9350586 0.3349609
vt 0.9760742 0.2746582
vt 0.9907227 0.2034912
vt 0.9760742 0.1323242
vt 0.1790771 0.03955078
vt 0.1905518 0.04180908
vt 0.1864014 0.06420898
vt 0.1968994 0.03857422
vt 0.2058105 0.03189087
vt 0.2053223 0.05749512
vt 0.1953125 0.06130981
vt 0.1906738 0.1063843
vt 0.2067871 0.1065674
vt 0.1981201 0.144043
vt 0.2064209 0.1436768
vt 0.1940918 0.1549072
vt 0.2114258 0.1496582
vt 0.2137451 0.1066284
vt 0.2139893 0.03292847
vt 0.2443848 0.1022339
vt 0.2435303 0.03430176
vt 0.2832031 0.04083252
vt 0.2727051 0.1113892
vt 0.3056641 0.1152954
vt 0.3183594 0.04553223
vt 0.3371582 0.1177979
vt 0.3522949 0.04550171
vt 0.3659668 0.1178589
vt 0.3820801 0.04342651
vt 0.4025879 0.1109619
vt 0.4152832 0.04623413
vt 0.4389648 0.1104736
vt 0.451416 0.03942871
vt 0.6030273 0.1379395
vt 0.5600586 0.1168823
vt 0.6108398 0.06097412
vt 0.5615234 0.03948975
vt 0.5180664 0.1073608
vt 0.5249023 0.03619385
vt 0.4902344 0.03427124
vt 0.4765625 0.1084595
vt 0.5893555 0.2075195
vt 0.5517578 0.1982422
vt 0.5146484 0.1918945
vt 0.4770508 0.1932373
vt 0.4396973 0.1940918
vt 0.4086914 0.1942139
vt 0.3779297 0.1967773
vt 0.3435059 0.1966553
vt 0.3122559 0.196167
vt 0.2775879 0.1955566
vt 0.2438965 0.192627
vt 0.2091064 0.1928711
vt 0.1745605 0.1915283
vt 0.1833496 0.1062622
vt 0.1807861 0.06512451
vt 0.1647949 0.03448486
vt 0.1514893 0.03137207
vt 0.1536865 0.1090698
vt 0.1199341 0.03488159
vt 0.125 0.1134033
vt 0.07080078 0.04669189
vt 0.01288605 0.04602051
vt 0.03970337 0.1147461
vt 0.08532715 0.1115112
vt 0.1446533 0.1922607
vt 0.1090698 0.1939697
vt 0.07769775 0.1934814
vt 0.04699707 0.1948242
vt 0.04394531 0.4594727
vt 0.07702637 0.4594727
vt 0.1100464 0.4594727
vt 0.1430664 0.4594727
vt 0.1761475 0.4594727
vt 0.2092285 0.4594727
vt 0.2423096 0.4594727
vt 0.2751465 0.4594727
vt 0.3083496 0.4594727
vt 0.3413086 0.4594727
vt 0.3745117 0.4594727
vt 0.4074707 0.4594727
vt 0.4406738 0.4594727
vt 0.5727539 0.4594727
vt 0.5395508 0.4594727
vt 0.5063477 0.4594727
vt 0.4736328 0.4594727

g P_DF_Tree_05_(42)_695_88
usemtl P_DF_Tree_05_(42)_695_88
usemap P_DF_Tree_05_(42)_695_88
f 1/1/1 3/3/3 2/2/2
f 4/4/4 5/5/5 1/1/1
f 6/6/6 7/7/7 5/5/5
f 5/5/5 7/7/7 1/1/1
f 8/8/8 9/9/9 7/7/7
f 10/10/10 11/11/11 9/9/9
f 9/9/9 11/11/11 7/7/7
f 12/12/12 13/13/13 11/11/11
f 14/14/14 15/15/15 13/13/13
f 13/13/13 15/15/15 11/11/11
f 11/11/11 15/15/15 7/7/7
f 7/7/7 15/15/15 1/1/1
f 15/15/15 3/3/3 1/1/1
f 16/16/16 3/3/3 15/15/15
f 17/17/17 19/19/19 18/18/18
f 18/18/18 19/19/19 20/20/20
f 21/21/21 20/20/20 22/22/22
f 23/23/23 22/22/22 20/20/20
f 23/23/23 20/20/20 19/19/19
f 24/24/24 25/25/25 19/19/19
f 23/23/23 19/19/19 25/25/25
f 24/24/24 26/26/26 25/25/25
f 27/27/27 25/25/25 26/26/26
f 26/26/26 28/28/28 27/27/27
f 29/29/29 27/27/27 28/28/28
f 29/29/29 30/30/30 27/27/27
f 25/25/25 27/27/27 30/30/30
f 25/25/25 30/30/30 23/23/23
f 22/22/22 23/23/23 30/30/30
f 31/31/31 21/21/21 22/22/22
f 30/30/30 31/31/31 22/22/22
f 30/30/30 32/32/32 31/31/31
f 33/33/33 31/31/31 32/32/32
f 33/33/33 32/32/32 34/34/34
f 35/35/35 34/34/34 32/32/32
f 35/35/35 36/36/36 34/34/34
f 37/37/37 34/34/34 36/36/36
f 36/36/36 38/38/38 37/37/37
f 39/39/39 37/37/37 38/38/38
f 38/38/38 40/40/40 39/39/39
f 41/41/41 39/39/39 40/40/40
f 40/40/40 42/42/42 41/41/41
f 43/43/43 41/41/41 42/42/42
f 42/42/42 44/44/44 43/43/43
f 45/45/45 43/43/43 44/44/44
f 46/46/46 48/48/48 47/47/47
f 49/49/49 47/47/47 48/48/48
f 47/47/47 49/49/49 50/50/50
f 51/51/51 50/50/50 49/49/49
f 51/51/51 52/52/52 50/50/50
f 53/53/53 50/50/50 52/52/52
f 52/52/52 45/45/45 53/53/53
f 44/44/44 53/53/53 45/45/45
f 46/46/46 47/47/47 54/54/54
f 55/55/55 54/54/54 47/47/47
f 47/47/47 50/50/50 55/55/55
f 56/56/56 55/55/55 50/50/50
f 50/50/50 53/53/53 56/56/56
f 57/57/57 56/56/56 53/53/53
f 53/53/53 44/44/44 57/57/57
f 58/58/58 57/57/57 44/44/44
f 44/44/44 42/42/42 58/58/58
f 59/59/59 58/58/58 42/42/42
f 42/42/42 40/40/40 59/59/59
f 60/60/60 59/59/59 40/40/40
f 40/40/40 38/38/38 60/60/60
f 61/61/61 60/60/60 38/38/38
f 38/38/38 36/36/36 61/61/61
f 62/62/62 61/61/61 36/36/36
f 36/36/36 35/35/35 62/62/62
f 63/63/63 62/62/62 35/35/35
f 35/35/35 32/32/32 63/63/63
f 64/64/64 63/63/63 32/32/32
f 30/30/30 64/64/64 32/32/32
f 29/29/29 64/64/64 30/30/30
f 65/65/65 64/64/64 29/29/29
f 29/29/29 28/28/28 65/65/65
f 66/66/66 65/65/65 28/28/28
f 67/67/67 66/66/66 28/28/28
f 28/28/28 26/26/26 67/67/67
f 24/24/24 67/67/67 26/26/26
f 67/67/67 24/24/24 68/68/68
f 19/19/19 68/68/68 24/24/24
f 17/17/17 68/68/68 19/19/19
f 17/17/17 69/69/69 68/68/68
f 68/68/68 69/69/69 67/67/67
f 70/70/70 71/71/71 69/69/69
f 67/67/67 69/69/69 71/71/71
f 70/70/70 72/72/72 71/71/71
f 73/73/73 71/71/71 72/72/72
f 72/72/72 74/74/74 73/73/73
f 75/75/75 76/76/76 74/74/74
f 77/77/77 73/73/73 74/74/74
f 77/77/77 74/74/74 76/76/76
f 67/67/67 71/71/71 66/66/66
f 78/78/78 66/66/66 71/71/71
f 71/71/71 73/73/73 78/78/78
f 79/79/79 78/78/78 73/73/73
f 73/73/73 77/77/77 79/79/79
f 80/80/80 79/79/79 77/77/77
f 77/77/77 76/76/76 80/80/80
f 81/81/81 80/80/80 76/76/76
f 82/82/82 83/83/83 81/81/81
f 80/80/80 81/81/81 83/83/83
f 83/83/83 84/84/84 80/80/80
f 79/79/79 80/80/80 84/84/84
f 84/84/84 85/85/85 79/79/79
f 78/78/78 79/79/79 85/85/85
f 85/85/85 86/86/86 78/78/78
f 66/66/66 78/78/78 86/86/86
f 86/86/86 87/87/87 66/66/66
f 65/65/65 66/66/66 87/87/87
f 87/87/87 88/88/88 65/65/65
f 64/64/64 65/65/65 88/88/88
f 88/88/88 89/89/89 64/64/64
f 63/63/63 64/64/64 89/89/89
f 89/89/89 90/90/90 63/63/63
f 62/62/62 63/63/63 90/90/90
f 90/90/90 91/91/91 62/62/62
f 61/61/61 62/62/62 91/91/91
f 91/91/91 92/92/92 61/61/61
f 60/60/60 61/61/61 92/92/92
f 92/92/92 93/93/93 60/60/60
f 59/59/59 60/60/60 93/93/93
f 93/93/93 94/94/94 59/59/59
f 58/58/58 59/59/59 94/94/94
f 54/54/54 55/55/55 95/95/95
f 96/96/96 95/95/95 55/55/55
f 55/55/55 56/56/56 96/96/96
f 97/97/97 96/96/96 56/56/56
f 56/56/56 57/57/57 97/97/97
f 98/98/98 97/97/97 57/57/57
f 57/57/57 58/58/58 98/98/98
f 94/94/94 98/98/98 58/58/58
