#P_DF_Grass_03_(4)_708_45.obj

v 0.2420953 -0.05498889 0.1692315
v -0.1936292 -2.059313E-06 2.032634E-06
v 0.2420949 -1.761042E-06 1.991665E-06
v -0.1936295 -0.0549873 0.1692309
v 0.2420949 -0.1691405 0.520557
v -0.1936293 -0.1691408 0.5205572
v -0.6293534 -2.387904E-06 2.096307E-06
v -0.6293535 -0.05498758 0.169231
v -0.9780664 -0.05498677 0.1692307
v 0.6778194 -0.0549886 0.1692314
v 0.6778189 -1.468413E-06 1.93508E-06
v 1.113544 -0.05498829 0.1692314
v 1.113544 -3.068773E-06 2.609591E-06
v 1.113543 -0.1323426 0.4073023
v 0.677819 -0.1691402 0.5205569
v -0.6293535 -0.1691411 0.5205573
v -1.059821 -0.1249303 0.3844916

vn -0.05319214 0.9394531 0.3374023
vn -0.05319214 0.9394531 0.3374023
vn -0.05319214 0.9394531 0.3374023
vn -0.05319214 0.9394531 0.3374023
vn -0.05319214 0.9394531 0.3374023
vn -0.05319214 0.9394531 0.3374023
vn -0.05319214 0.9394531 0.3374023
vn -0.05319214 0.9394531 0.3374023
vn -0.05319214 0.9394531 0.3374023
vn -0.05319214 0.9394531 0.3374023
vn -0.05319214 0.9394531 0.3374023
vn -0.05319214 0.9394531 0.3374023
vn -0.05319214 0.9394531 0.3374023
vn -0.05319214 0.9394531 0.3374023
vn -0.05319214 0.9394531 0.3374023
vn -0.05319214 0.9394531 0.3374023
vn -0.05319214 0.9394531 0.3374023

vt 0.1008301 0.2381592
vt 0.151123 0.2176514
vt 0.1008301 0.2176514
vt 0.151123 0.2381592
vt 0.1008301 0.2807617
vt 0.151123 0.2807617
vt 0.2015381 0.2176514
vt 0.2015381 0.2381592
vt 0.2418213 0.2381592
vt 0.05047607 0.2381592
vt 0.05047607 0.2176514
vt 0.0001407862 0.2381592
vt 0.0001407862 0.2176514
vt 0.0001407862 0.2670898
vt 0.05047607 0.2807617
vt 0.2015381 0.2807617
vt 0.2512207 0.2641602

g P_DF_Grass_03_(4)_708_45
usemtl P_DF_Grass_03_(4)_708_45
usemap P_DF_Grass_03_(4)_708_45
f 1/1/1 3/3/3 2/2/2
f 2/2/2 4/4/4 1/1/1
f 5/5/5 1/1/1 4/4/4
f 4/4/4 6/6/6 5/5/5
f 4/4/4 2/2/2 7/7/7
f 7/7/7 8/8/8 4/4/4
f 6/6/6 4/4/4 8/8/8
f 7/7/7 9/9/9 8/8/8
f 3/3/3 1/1/1 10/10/10
f 10/10/10 11/11/11 3/3/3
f 11/11/11 10/10/10 12/12/12
f 12/12/12 13/13/13 11/11/11
f 14/14/14 12/12/12 10/10/10
f 10/10/10 15/15/15 14/14/14
f 1/1/1 5/5/5 15/15/15
f 15/15/15 10/10/10 1/1/1
f 8/8/8 16/16/16 6/6/6
f 8/8/8 17/17/17 16/16/16
f 8/8/8 9/9/9 17/17/17
