#P_DF_Grass_03_(2)_709_47.obj

v 0.2420933 -0.05499001 0.1692303
v -0.1936314 -4.068944E-06 1.213569E-06
v 0.2420938 -4.758211E-06 1.30952E-06
v -0.1936316 -0.05498912 0.1692302
v 0.2420935 -0.1691429 0.520556
v -0.1936316 -0.1691422 0.520556
v -0.6293562 -3.177756E-06 1.117617E-06
v -0.6293564 -0.05498823 0.1692302
v -0.9780683 -0.0549886 0.1692301
v 0.6778165 -0.05498836 0.1692304
v 0.6778166 -3.308012E-06 1.405465E-06
v 1.113541 -0.05498925 0.1692304
v 1.113541 -4.199201E-06 1.501417E-06
v 1.113541 -0.1323431 0.4073012
v 0.6778167 -0.1691412 0.520556
v -0.6293558 -0.1691409 0.5205562
v -1.059823 -0.1249321 0.3844906

vn 0.000218153 1 -0.0003421307
vn 0.000218153 1 -0.0003421307
vn 0.000218153 1 -0.0003421307
vn 0.000218153 1 -0.0003421307
vn 0.000218153 1 -0.0003421307
vn 0.000218153 1 -0.0003421307
vn 0.000218153 1 -0.0003421307
vn 0.000218153 1 -0.0003421307
vn 0.000218153 1 -0.0003421307
vn 0.000218153 1 -0.0003421307
vn 0.000218153 1 -0.0003421307
vn 0.000218153 1 -0.0003421307
vn 0.000218153 1 -0.0003421307
vn 0.000218153 1 -0.0003421307
vn 0.000218153 1 -0.0003421307
vn 0.000218153 1 -0.0003421307
vn 0.000218153 1 -0.0003421307

vt 0.1008301 0.2381592
vt 0.151123 0.2176514
vt 0.1008301 0.2176514
vt 0.151123 0.2381592
vt 0.1008301 0.2807617
vt 0.151123 0.2807617
vt 0.2015381 0.2176514
vt 0.2015381 0.2381592
vt 0.2418213 0.2381592
vt 0.05047607 0.2381592
vt 0.05047607 0.2176514
vt 0.0001407862 0.2381592
vt 0.0001407862 0.2176514
vt 0.0001407862 0.2670898
vt 0.05047607 0.2807617
vt 0.2015381 0.2807617
vt 0.2512207 0.2641602

g P_DF_Grass_03_(2)_709_47
usemtl P_DF_Grass_03_(2)_709_47
usemap P_DF_Grass_03_(2)_709_47
f 1/1/1 3/3/3 2/2/2
f 2/2/2 4/4/4 1/1/1
f 5/5/5 1/1/1 4/4/4
f 4/4/4 6/6/6 5/5/5
f 4/4/4 2/2/2 7/7/7
f 7/7/7 8/8/8 4/4/4
f 6/6/6 4/4/4 8/8/8
f 7/7/7 9/9/9 8/8/8
f 3/3/3 1/1/1 10/10/10
f 10/10/10 11/11/11 3/3/3
f 11/11/11 10/10/10 12/12/12
f 12/12/12 13/13/13 11/11/11
f 14/14/14 12/12/12 10/10/10
f 10/10/10 15/15/15 14/14/14
f 1/1/1 5/5/5 15/15/15
f 15/15/15 10/10/10 1/1/1
f 8/8/8 16/16/16 6/6/6
f 8/8/8 17/17/17 16/16/16
f 8/8/8 9/9/9 17/17/17
