#P_DF_Bush_Small_01_(1)_547_53.obj

v -0.3334798 -0.03340194 0.09858447
v -0.1795215 -0.09534881 0.2808991
v -0.3826026 -0.09534881 0.280899
v -0.01247974 -0.09534881 0.2808992
v -0.01247974 -0.02803466 0.0827942
v 0.3349366 -0.09534881 0.2808992
v -0.003379304 -0.1721615 0.5069686
v 0.3549042 -0.1716351 0.5054155
v 0.3047958 -0.04002807 0.1180909
v -0.1019525 -0.1703496 0.5016364
v -0.1150775 -0.119534 0.352085
v 0.4873834 -0.1714368 0.5048413
v 0.0153871 -0.330563 0.9731627
v 0.3870306 -0.294373 0.8666438
v 0.5306582 -0.2891774 0.8513597
v -0.4193429 -0.3078808 0.9064036
v -0.3901233 -0.1388516 0.4089305
v -0.5434951 -0.1434674 0.4225177
v -0.7566985 -0.1826939 0.5379675
v -0.8735875 -0.08073089 0.2378769
v -0.726674 -0.08510253 0.25075
v -0.7147712 -0.3031926 0.8925985
v -1.117537 -0.2015309 0.5934035
v -1.161548 -0.2960972 0.8717209
v -1.009237 -0.4303746 1.266907
v -0.8843154 -0.4511838 1.32815
v -1.303943 -0.2938351 0.8650669
v 0.6992908 -0.2830815 0.8334146
v 0.5208206 -0.3134045 0.9226592
v 0.4376073 -0.4875989 1.435328
v 0.7607231 -0.4812741 1.416707
v 0.7928324 -0.3103718 0.91373
v 0.8915043 -0.4236608 1.247155
v 0.8998637 -0.3661046 1.077755
v 0.03267006 -0.4764447 1.402497
v -0.4462022 -0.4632535 1.363671
v -0.847187 -0.5764508 1.69682
v -0.4734706 -0.620995 1.827916
v -0.8714055 -0.6043553 1.778949
v -1.111706 -0.6979299 2.054348
v -0.5023441 -0.7880177 2.319476
v -0.2693328 -0.8176808 2.406781
v -0.2226557 -0.7487607 2.203942
v -0.09749933 -0.6997228 2.059618
v 0.05964044 -0.7040944 2.072485
v -0.07980199 -0.8418088 2.477795
v 0.07834152 -0.8619428 2.537049
v 0.3451567 -0.7120366 2.095865
v 0.1490231 -0.8423886 2.4795
v -1.13839 -0.6418386 1.889264
v 0.3469339 -0.7139249 2.101418
v 0.5047159 -0.7439885 2.189895
v 0.4866295 -0.6748853 1.986529
v 0.7493558 -0.6014676 1.770455
v 0.93543 -0.6784482 1.997005
v 0.8542972 -0.5843701 1.720132
v 0.9372926 -0.581532 1.711774
v 0.3723245 -0.7408872 2.180773
v 0.6780472 -0.5570226 1.63965
v 0.8578715 -0.537827 1.583156
v -1.053339 -0.5665822 1.667778
v 0.7332816 -0.1718831 0.5061495
v 0.8262897 -0.2493329 0.7340866
v 0.8935165 -0.2196164 0.6466302
v 0.8484969 -0.1461377 0.4303836

vn 0 1 -3.302097E-05
vn 0 1 -3.302097E-05
vn 0 1 -3.302097E-05
vn 0 1 -3.302097E-05
vn 0 1 -3.302097E-05
vn 0 1 -3.302097E-05
vn 0 1 -3.302097E-05
vn 0 1 -3.302097E-05
vn 0 1 -3.302097E-05
vn 0 1 -3.302097E-05
vn 0 1 -3.302097E-05
vn 0 1 -3.302097E-05
vn 0 1 -3.302097E-05
vn 0 1 -3.302097E-05
vn 0 1 -3.302097E-05
vn 0 1 -3.302097E-05
vn 0 1 -3.302097E-05
vn 0 1 -3.302097E-05
vn 0 1 -3.302097E-05
vn 0 1 -3.302097E-05
vn 0 1 -3.302097E-05
vn 0 1 -3.302097E-05
vn 0 1 -3.302097E-05
vn 0 1 -3.302097E-05
vn 0 1 -3.302097E-05
vn 0 1 -3.302097E-05
vn 0 1 -3.302097E-05
vn 0 1 -3.302097E-05
vn 0 1 -3.302097E-05
vn 0 1 -3.302097E-05
vn 0 1 -3.302097E-05
vn 0 1 -3.302097E-05
vn 0 1 -3.302097E-05
vn 0 1 -3.302097E-05
vn 0 1 -3.302097E-05
vn 0 1 -3.302097E-05
vn 0 1 -3.302097E-05
vn 0 1 -3.302097E-05
vn 0 1 -3.302097E-05
vn 0 1 -3.302097E-05
vn 0 1 -3.302097E-05
vn 0 1 -3.302097E-05
vn 0 1 -3.302097E-05
vn 0 1 -3.302097E-05
vn 0 1 -3.302097E-05
vn 0 1 -3.302097E-05
vn 0 1 -3.302097E-05
vn 0 1 3.8445E-05
vn 0 1 -3.302097E-05
vn 0 1 -3.302097E-05
vn 0 1 -3.302097E-05
vn 0 1 -3.302097E-05
vn 0 1 -3.302097E-05
vn 0 1 -3.302097E-05
vn 0 1 -3.302097E-05
vn 0 1 -3.302097E-05
vn 0 1 -3.302097E-05
vn 0 1 -3.302097E-05
vn 0 1 -3.302097E-05
vn 0 1 -3.302097E-05
vn 0 1 -3.302097E-05
vn 0 1 -3.302097E-05
vn 0 1 -3.302097E-05
vn 0 1 -3.302097E-05
vn 0 1 -3.302097E-05

vt 0.8999023 0.7612305
vt 0.8857422 0.777832
vt 0.9042969 0.777832
vt 0.8706055 0.777832
vt 0.8706055 0.7597656
vt 0.8383789 0.777832
vt 0.8696289 0.7988281
vt 0.8369141 0.7988281
vt 0.8413086 0.7626953
vt 0.878418 0.7983398
vt 0.8798828 0.784668
vt 0.824707 0.7988281
vt 0.8676758 0.8422852
vt 0.8339844 0.8320313
vt 0.8208008 0.8310547
vt 0.9077148 0.8359375
vt 0.9052734 0.7900391
vt 0.9189453 0.7910156
vt 0.9384766 0.8017578
vt 0.949707 0.7739258
vt 0.9360352 0.7753906
vt 0.9345703 0.8344727
vt 0.9716797 0.8071289
vt 0.9755859 0.8325195
vt 0.9614258 0.8691406
vt 0.949707 0.875
vt 0.9882813 0.8320313
vt 0.8051758 0.8291016
vt 0.8212891 0.8374023
vt 0.8291016 0.8847656
vt 0.7993164 0.8833008
vt 0.7963867 0.8364258
vt 0.7875977 0.8676758
vt 0.7866211 0.8515625
vt 0.8662109 0.8818359
vt 0.9101563 0.878418
vt 0.9467773 0.9091797
vt 0.9125977 0.9213867
vt 0.9487305 0.9165039
vt 0.9702148 0.9418945
vt 0.9155273 0.9667969
vt 0.894043 0.9750977
vt 0.8896484 0.9560547
vt 0.878418 0.9428711
vt 0.8637695 0.9438477
vt 0.8764648 0.9814453
vt 0.8623047 0.9873047
vt 0.8378906 0.9462891
vt 0.8554688 0.9819336
vt 0.9726563 0.9267578
vt 0.8374023 0.9467773
vt 0.8232422 0.9550781
vt 0.824707 0.9360352
vt 0.8007813 0.9160156
vt 0.7836914 0.9370117
vt 0.7910156 0.9111328
vt 0.7832031 0.9106445
vt 0.8349609 0.9541016
vt 0.8071289 0.9038086
vt 0.7905273 0.8984375
vt 0.965332 0.90625
vt 0.8022461 0.7988281
vt 0.793457 0.8198242
vt 0.7871094 0.8120117
vt 0.7915039 0.7919922

g P_DF_Bush_Small_01_(1)_547_53
usemtl P_DF_Bush_Small_01_(1)_547_53
usemap P_DF_Bush_Small_01_(1)_547_53
f 1/1/1 3/3/3 2/2/2
f 1/1/1 2/2/2 4/4/4
f 1/1/1 4/4/4 5/5/5
f 5/5/5 4/4/4 6/6/6
f 6/6/6 4/4/4 7/7/7
f 7/7/7 8/8/8 6/6/6
f 6/6/6 9/9/9 5/5/5
f 10/10/10 7/7/7 4/4/4
f 4/4/4 11/11/11 10/10/10
f 4/4/4 2/2/2 11/11/11
f 12/12/12 6/6/6 8/8/8
f 10/10/10 13/13/13 7/7/7
f 14/14/14 8/8/8 7/7/7
f 7/7/7 13/13/13 14/14/14
f 12/12/12 8/8/8 14/14/14
f 14/14/14 15/15/15 12/12/12
f 16/16/16 13/13/13 10/10/10
f 10/10/10 17/17/17 16/16/16
f 16/16/16 17/17/17 18/18/18
f 16/16/16 18/18/18 19/19/19
f 20/20/20 19/19/19 18/18/18
f 18/18/18 21/21/21 20/20/20
f 19/19/19 22/22/22 16/16/16
f 22/22/22 19/19/19 23/23/23
f 23/23/23 24/24/24 22/22/22
f 22/22/22 24/24/24 25/25/25
f 25/25/25 26/26/26 22/22/22
f 23/23/23 27/27/27 24/24/24
f 12/12/12 15/15/15 28/28/28
f 29/29/29 15/15/15 14/14/14
f 29/29/29 14/14/14 30/30/30
f 30/30/30 31/31/31 29/29/29
f 31/31/31 32/32/32 29/29/29
f 32/32/32 31/31/31 33/33/33
f 33/33/33 34/34/34 32/32/32
f 30/30/30 14/14/14 13/13/13
f 13/13/13 35/35/35 30/30/30
f 36/36/36 35/35/35 13/13/13
f 36/36/36 26/26/26 37/37/37
f 37/37/37 38/38/38 36/36/36
f 35/35/35 36/36/36 38/38/38
f 38/38/38 37/37/37 39/39/39
f 38/38/38 39/39/39 40/40/40
f 40/40/40 41/41/41 38/38/38
f 38/38/38 41/41/41 42/42/42
f 42/42/42 43/43/43 38/38/38
f 38/38/38 43/43/43 44/44/44
f 38/38/38 44/44/44 35/35/35
f 45/45/45 35/35/35 44/44/44
f 45/45/45 44/44/44 46/46/46
f 46/46/46 47/47/47 45/45/45
f 48/48/48 45/45/45 47/47/47
f 35/35/35 45/45/45 48/48/48
f 47/47/47 49/49/49 48/48/48
f 39/39/39 50/50/50 40/40/40
f 35/35/35 48/48/48 51/51/51
f 52/52/52 53/53/53 51/51/51
f 54/54/54 53/53/53 52/52/52
f 54/54/54 52/52/52 55/55/55
f 56/56/56 54/54/54 55/55/55
f 55/55/55 57/57/57 56/56/56
f 51/51/51 58/58/58 52/52/52
f 30/30/30 53/53/53 54/54/54
f 51/51/51 53/53/53 30/30/30
f 54/54/54 59/59/59 30/30/30
f 59/59/59 31/31/31 30/30/30
f 59/59/59 60/60/60 31/31/31
f 30/30/30 35/35/35 51/51/51
f 26/26/26 61/61/61 37/37/37
f 22/22/22 26/26/26 36/36/36
f 36/36/36 16/16/16 22/22/22
f 13/13/13 16/16/16 36/36/36
f 28/28/28 62/62/62 12/12/12
f 28/28/28 63/63/63 62/62/62
f 62/62/62 63/63/63 64/64/64
f 64/64/64 65/65/65 62/62/62
