#P_DF_Grass_03_(6)_661_43.obj

v 0.2420921 -0.05498762 0.1692307
v -0.193632 -1.734855E-06 1.565174E-06
v 0.242092 -8.507052E-07 1.660987E-06
v -0.1936319 -0.0549885 0.1692306
v 0.2420926 -0.1691414 0.5205564
v -0.1936325 -0.1691392 0.5205564
v -0.629356 -2.619005E-06 1.456648E-06
v -0.6293566 -0.05498622 0.1692305
v -0.9780687 -0.05498845 0.1692305
v 0.6778161 -0.05498673 0.1692307
v 0.6778167 -3.128872E-06 1.769517E-06
v 1.113541 -0.05498891 0.1692308
v 1.113541 -2.244723E-06 1.878042E-06
v 1.11354 -0.1323411 0.4073016
v 0.6778162 -0.1691406 0.5205564
v -0.6293561 -0.16914 0.5205565
v -1.059823 -0.12493 0.3844909

vn 9.679794E-05 1 -0.0003948212
vn 9.679794E-05 1 -0.0003948212
vn 9.679794E-05 1 -0.0003948212
vn 9.679794E-05 1 -0.0003948212
vn 9.679794E-05 1 -0.0003948212
vn 9.679794E-05 1 -0.0003948212
vn 9.679794E-05 1 -0.0003948212
vn 9.679794E-05 1 -0.0003948212
vn 9.679794E-05 1 -0.0003948212
vn 9.679794E-05 1 -0.0003948212
vn 9.679794E-05 1 -0.0003948212
vn 9.679794E-05 1 -0.0003948212
vn 9.679794E-05 1 -0.0003948212
vn 9.679794E-05 1 -0.0003948212
vn 9.679794E-05 1 -0.0003948212
vn 9.679794E-05 1 -0.0003948212
vn 9.679794E-05 1 -0.0003948212

vt 0.1008301 0.2381592
vt 0.151123 0.2176514
vt 0.1008301 0.2176514
vt 0.151123 0.2381592
vt 0.1008301 0.2807617
vt 0.151123 0.2807617
vt 0.2015381 0.2176514
vt 0.2015381 0.2381592
vt 0.2418213 0.2381592
vt 0.05047607 0.2381592
vt 0.05047607 0.2176514
vt 0.0001407862 0.2381592
vt 0.0001407862 0.2176514
vt 0.0001407862 0.2670898
vt 0.05047607 0.2807617
vt 0.2015381 0.2807617
vt 0.2512207 0.2641602

g P_DF_Grass_03_(6)_661_43
usemtl P_DF_Grass_03_(6)_661_43
usemap P_DF_Grass_03_(6)_661_43
f 1/1/1 3/3/3 2/2/2
f 2/2/2 4/4/4 1/1/1
f 5/5/5 1/1/1 4/4/4
f 4/4/4 6/6/6 5/5/5
f 4/4/4 2/2/2 7/7/7
f 7/7/7 8/8/8 4/4/4
f 6/6/6 4/4/4 8/8/8
f 7/7/7 9/9/9 8/8/8
f 3/3/3 1/1/1 10/10/10
f 10/10/10 11/11/11 3/3/3
f 11/11/11 10/10/10 12/12/12
f 12/12/12 13/13/13 11/11/11
f 14/14/14 12/12/12 10/10/10
f 10/10/10 15/15/15 14/14/14
f 1/1/1 5/5/5 15/15/15
f 15/15/15 10/10/10 1/1/1
f 8/8/8 16/16/16 6/6/6
f 8/8/8 17/17/17 16/16/16
f 8/8/8 9/9/9 17/17/17
