#P_DF_Grass_03_(2)_674_44.obj

v 0.2420934 -0.05498662 0.1692312
v -0.1936307 -7.892907E-07 2.077647E-06
v 0.2420948 -5.941206E-06 2.173468E-06
v -0.1936306 -0.05498779 0.1692311
v 0.2420939 -0.1691409 0.520557
v -0.19363 -0.169142 0.5205569
v -0.6293547 -1.962035E-06 1.96912E-06
v -0.6293545 -0.05498896 0.169231
v -0.9780663 -0.05499138 0.169231
v 0.6778188 -0.05499177 0.1692312
v 0.6778187 -4.768462E-06 2.281995E-06
v 1.113543 -0.0549905 0.1692313
v 1.113543 -3.595717E-06 2.390522E-06
v 1.113543 -0.1323462 0.4073021
v 0.6778178 -0.1691397 0.520557
v -0.6293539 -0.1691432 0.520557
v -1.059822 -0.1249301 0.3844915

vn 9.679794E-05 1 -0.0003948212
vn 9.679794E-05 1 -0.0003948212
vn 9.679794E-05 1 -0.0003948212
vn 9.679794E-05 1 -0.0003948212
vn 9.679794E-05 1 -0.0003948212
vn 9.679794E-05 1 -0.0003948212
vn 9.679794E-05 1 -0.0003948212
vn 9.679794E-05 1 -0.0003948212
vn 9.679794E-05 1 -0.0003948212
vn 9.679794E-05 1 -0.0003948212
vn 9.679794E-05 1 -0.0003948212
vn 9.679794E-05 1 -0.0003948212
vn 9.679794E-05 1 -0.0003948212
vn 9.679794E-05 1 -0.0003948212
vn 9.679794E-05 1 -0.0003948212
vn 9.679794E-05 1 -0.0003948212
vn 9.679794E-05 1 -0.0003948212

vt 0.1008301 0.2381592
vt 0.151123 0.2176514
vt 0.1008301 0.2176514
vt 0.151123 0.2381592
vt 0.1008301 0.2807617
vt 0.151123 0.2807617
vt 0.2015381 0.2176514
vt 0.2015381 0.2381592
vt 0.2418213 0.2381592
vt 0.05047607 0.2381592
vt 0.05047607 0.2176514
vt 0.0001407862 0.2381592
vt 0.0001407862 0.2176514
vt 0.0001407862 0.2670898
vt 0.05047607 0.2807617
vt 0.2015381 0.2807617
vt 0.2512207 0.2641602

g P_DF_Grass_03_(2)_674_44
usemtl P_DF_Grass_03_(2)_674_44
usemap P_DF_Grass_03_(2)_674_44
f 1/1/1 3/3/3 2/2/2
f 2/2/2 4/4/4 1/1/1
f 5/5/5 1/1/1 4/4/4
f 4/4/4 6/6/6 5/5/5
f 4/4/4 2/2/2 7/7/7
f 7/7/7 8/8/8 4/4/4
f 6/6/6 4/4/4 8/8/8
f 7/7/7 9/9/9 8/8/8
f 3/3/3 1/1/1 10/10/10
f 10/10/10 11/11/11 3/3/3
f 11/11/11 10/10/10 12/12/12
f 12/12/12 13/13/13 11/11/11
f 14/14/14 12/12/12 10/10/10
f 10/10/10 15/15/15 14/14/14
f 1/1/1 5/5/5 15/15/15
f 15/15/15 10/10/10 1/1/1
f 8/8/8 16/16/16 6/6/6
f 8/8/8 17/17/17 16/16/16
f 8/8/8 9/9/9 17/17/17
