#P_DF_Grass_03_(1)_646_42.obj

v 0.2420923 -0.05498214 0.1692332
v -0.1936316 2.444482E-06 4.114065E-06
v 0.2420925 2.992247E-06 4.216626E-06
v -0.1936319 -0.05498269 0.1692332
v 0.2420921 -0.1691346 0.5205591
v -0.1936321 -0.1691351 0.5205591
v -0.6293558 5.381809E-06 4.011497E-06
v -0.6293561 -0.05498324 0.1692331
v -0.9780686 -0.05498308 0.1692331
v 0.6778165 -0.0549816 0.1692333
v 0.6778167 3.540012E-06 4.3328E-06
v 1.113541 -0.05498105 0.1692334
v 1.113541 4.087777E-06 4.435362E-06
v 1.11354 -0.1323373 0.4073042
v 0.6778163 -0.169134 0.5205591
v -0.6293563 -0.1691357 0.5205591
v -1.059823 -0.124923 0.3844936

vn -1.013279E-06 1 -0.0004060268
vn -1.013279E-06 1 -0.0004060268
vn -1.013279E-06 1 -0.0004060268
vn -1.013279E-06 1 -0.0004060268
vn -1.013279E-06 1 -0.0004060268
vn -1.013279E-06 1 -0.0004060268
vn -1.013279E-06 1 -0.0004060268
vn -1.013279E-06 1 -0.0004060268
vn -1.013279E-06 1 -0.0004060268
vn -1.013279E-06 1 -0.0004060268
vn -1.013279E-06 1 -0.0004060268
vn -1.013279E-06 1 -0.0004060268
vn -1.013279E-06 1 -0.0004060268
vn -1.013279E-06 1 -0.0004060268
vn -1.013279E-06 1 -0.0004060268
vn -1.013279E-06 1 -0.0004060268
vn -1.013279E-06 1 -0.0004060268

vt 0.1008301 0.2381592
vt 0.151123 0.2176514
vt 0.1008301 0.2176514
vt 0.151123 0.2381592
vt 0.1008301 0.2807617
vt 0.151123 0.2807617
vt 0.2015381 0.2176514
vt 0.2015381 0.2381592
vt 0.2418213 0.2381592
vt 0.05047607 0.2381592
vt 0.05047607 0.2176514
vt 0.0001407862 0.2381592
vt 0.0001407862 0.2176514
vt 0.0001407862 0.2670898
vt 0.05047607 0.2807617
vt 0.2015381 0.2807617
vt 0.2512207 0.2641602

g P_DF_Grass_03_(1)_646_42
usemtl P_DF_Grass_03_(1)_646_42
usemap P_DF_Grass_03_(1)_646_42
f 1/1/1 3/3/3 2/2/2
f 2/2/2 4/4/4 1/1/1
f 5/5/5 1/1/1 4/4/4
f 4/4/4 6/6/6 5/5/5
f 4/4/4 2/2/2 7/7/7
f 7/7/7 8/8/8 4/4/4
f 6/6/6 4/4/4 8/8/8
f 7/7/7 9/9/9 8/8/8
f 3/3/3 1/1/1 10/10/10
f 10/10/10 11/11/11 3/3/3
f 11/11/11 10/10/10 12/12/12
f 12/12/12 13/13/13 11/11/11
f 14/14/14 12/12/12 10/10/10
f 10/10/10 15/15/15 14/14/14
f 1/1/1 5/5/5 15/15/15
f 15/15/15 10/10/10 1/1/1
f 8/8/8 16/16/16 6/6/6
f 8/8/8 17/17/17 16/16/16
f 8/8/8 9/9/9 17/17/17
