#P_Forrest_Sky_(5)_687_3.obj

v -4.999999 5.694784E-06 4.999999
v -4.999999 5.17466E-06 4
v -4 5.017699E-06 4
v -4 5.003065E-06 5
v -3 4.325961E-06 4
v -3 4.846185E-06 5
v -1.999999 4.169081E-06 4
v -1.999999 4.689305E-06 5
v -0.9999983 4.012201E-06 4
v -0.9999983 3.997567E-06 5
v 2.246358E-06 3.320463E-06 4
v 3.629901E-07 3.840706E-06 5
v 1.000001 3.163602E-06 4.000001
v 1.000001 3.683826E-06 5
v 2.000001 3.006722E-06 4.000001
v 2.000001 3.526947E-06 5.000001
v 3.000002 2.314984E-06 4.000001
v 3.000002 2.835208E-06 5.000001
v 4.000002 2.158104E-06 4.000001
v 4.000003 2.678328E-06 5.000001
v 5.000003 2.001224E-06 4.000001
v 5.000003 2.521449E-06 5.000001
v -0.9999984 3.491926E-06 3
v 2.208568E-06 3.335047E-06 3
v 1.000001 2.643327E-06 3
v 2.000001 2.486447E-06 3.000001
v 3.000002 2.329518E-06 3.000001
v 4.000002 1.637779E-06 3.000001
v 5.000003 1.480899E-06 3.000001
v 2.1529E-06 2.814722E-06 2
v -0.9999984 2.971602E-06 2
v -1.999999 3.648806E-06 3
v -3 3.805686E-06 3
v -3.999998 4.497455E-06 3
v -4.999999 4.654335E-06 3
v -3.999998 3.977131E-06 1.999999
v -4.999999 4.13401E-06 1.999999
v -2.999998 3.820251E-06 1.999999
v -1.999999 3.128531E-06 2
v 5.000003 9.605747E-07 2.000001
v -3.999998 3.456856E-06 0.999999
v -4.999999 3.613736E-06 0.9999989
v -2.999998 3.299976E-06 0.9999993
v -1.999999 2.608257E-06 0.9999996
v -0.9999985 2.451377E-06 0.9999998
v 2.12405E-06 2.294472E-06 0.9999998
v 1.000003 2.137592E-06 1
v 1.000003 2.122983E-06 2
v 2.000001 1.966123E-06 2
v 3.000002 1.809243E-06 2
v 4.000002 1.117505E-06 2.000001
v 2.000001 1.445848E-06 1
v 3.000002 1.288968E-06 1
v 4.000002 1.132089E-06 1.000001
v 5.000003 4.403501E-07 1.000001
v 2.000001 9.25611E-07 2.264638E-07
v 1.000003 1.617343E-06 -3.579834E-08
v 3.000002 7.687187E-07 3.497582E-07
v 4.000002 6.118389E-07 5.308437E-07
v 5.000003 -7.989955E-08 7.119293E-07
v 2.000003 9.401259E-07 -1
v 1.000003 1.097018E-06 -1
v 2.095199E-06 1.774223E-06 -2.168839E-07
v -0.9999985 1.931115E-06 -3.401783E-07
v -1.999997 2.622834E-06 -6.602316E-07
v -2.999998 2.779727E-06 -7.83526E-07
v -3.999998 2.936606E-06 -9.646116E-07
v -4.999999 3.628351E-06 -1.116802E-06
v -3.999998 2.416282E-06 -1.000001
v -4.999999 3.10802E-06 -1.000002
v -2.999998 2.259402E-06 -1.000001
v -1.999997 2.102522E-06 -1.000001
v -0.9999985 1.410778E-06 -1.000001
v 2.039531E-06 1.253898E-06 -1.000001
v -3.999998 2.430991E-06 -2.000001
v -4.999999 2.587871E-06 -2.000001
v -2.999998 1.739202E-06 -2.000001
v -1.999997 1.582323E-06 -2.000001
v -0.9999966 1.425443E-06 -2.000001
v 2.037498E-06 7.337234E-07 -2
v 1.000003 5.768436E-07 -2
v 2.000003 4.199388E-07 -2
v 3.000002 -2.717806E-07 -2
v 3.000002 2.48394E-07 -1
v 4.000004 9.149509E-08 -1
v 5.000003 -6.536558E-08 -0.9999997
v 4.000004 -4.286795E-07 -2
v 5.000003 -5.855401E-07 -1.999999
v -0.9999967 9.05118E-07 -3.000001
v 1.98183E-06 2.133987E-07 -3.000001
v 1.000003 5.65189E-08 -3
v 2.000003 -1.003609E-07 -3
v 3.000004 -2.572407E-07 -3
v 4.000004 -9.489791E-07 -3
v 5.000003 -1.10589E-06 -3
v 1.908285E-06 2.278826E-07 -4.000001
v -0.9999968 3.847433E-07 -4.000001
v -1.999997 1.061998E-06 -3.000001
v -2.999998 1.218878E-06 -3.000001
v -3.999998 1.910666E-06 -3.000001
v -4.999999 2.067546E-06 -3.000001
v -3.999997 1.390222E-06 -4.000002
v -4.999997 1.547102E-06 -4.000002
v -2.999998 1.233362E-06 -4.000002
v -1.999997 5.416231E-07 -4.000002
v 5.000003 -1.626265E-06 -4
v -3.999997 8.700977E-07 -5.000002
v -4.999997 1.026977E-06 -5.000002
v -2.999998 7.13237E-07 -5.000001
v -1.999997 2.149857E-08 -5.000001
v -0.9999967 -1.353812E-07 -5.000001
v 3.827408E-06 -2.92261E-07 -5.000001
v 1.000004 -4.491408E-07 -5.000001
v 1.000003 -4.638558E-07 -4.000001
v 2.000003 -6.207356E-07 -4.000001
v 3.000004 -7.776154E-07 -4.000001
v 4.000004 -1.469354E-06 -4
v 2.000003 -1.14086E-06 -5
v 3.000004 -1.29774E-06 -5
v 4.000004 -1.45462E-06 -5
v 5.000003 -2.146339E-06 -5

vn -2.861023E-06 1 -1.192093E-07
vn -2.861023E-06 1 -1.192093E-07
vn -2.861023E-06 1 -1.192093E-07
vn -2.861023E-06 1 -1.192093E-07
vn -2.861023E-06 1 -1.192093E-07
vn -2.861023E-06 1 -1.192093E-07
vn -2.861023E-06 1 -1.192093E-07
vn -2.861023E-06 1 -1.192093E-07
vn -2.861023E-06 1 -1.192093E-07
vn -2.861023E-06 1 -1.192093E-07
vn -2.861023E-06 1 -1.192093E-07
vn -2.861023E-06 1 -1.192093E-07
vn -2.861023E-06 1 -1.192093E-07
vn -2.861023E-06 1 -1.192093E-07
vn -2.861023E-06 1 -1.192093E-07
vn -2.861023E-06 1 -1.192093E-07
vn -2.861023E-06 1 -1.192093E-07
vn -2.861023E-06 1 -1.192093E-07
vn -2.861023E-06 1 -1.192093E-07
vn -2.861023E-06 1 -1.192093E-07
vn -2.861023E-06 1 -1.192093E-07
vn -2.861023E-06 1 -1.192093E-07
vn -2.861023E-06 1 -1.192093E-07
vn -2.861023E-06 1 -1.192093E-07
vn -2.861023E-06 1 -1.192093E-07
vn -2.861023E-06 1 -1.192093E-07
vn -2.861023E-06 1 -1.192093E-07
vn -2.861023E-06 1 -1.192093E-07
vn -2.861023E-06 1 -1.192093E-07
vn -2.861023E-06 1 -1.192093E-07
vn -2.861023E-06 1 -1.192093E-07
vn -2.861023E-06 1 -1.192093E-07
vn -2.861023E-06 1 -1.192093E-07
vn -2.861023E-06 1 -1.192093E-07
vn -2.861023E-06 1 -1.192093E-07
vn -2.861023E-06 1 -1.192093E-07
vn -2.861023E-06 1 -1.192093E-07
vn -2.861023E-06 1 -1.192093E-07
vn -2.861023E-06 1 -1.192093E-07
vn -2.861023E-06 1 -1.192093E-07
vn -2.861023E-06 1 -1.192093E-07
vn -2.861023E-06 1 -1.192093E-07
vn -2.861023E-06 1 -1.192093E-07
vn -2.861023E-06 1 -1.192093E-07
vn -2.861023E-06 1 -1.192093E-07
vn -2.861023E-06 1 -1.192093E-07
vn -2.861023E-06 1 -1.192093E-07
vn -2.861023E-06 1 -1.192093E-07
vn -2.861023E-06 1 -1.192093E-07
vn -2.861023E-06 1 -1.192093E-07
vn -2.861023E-06 1 -1.192093E-07
vn -2.861023E-06 1 -1.192093E-07
vn -2.861023E-06 1 -1.192093E-07
vn -2.861023E-06 1 -1.192093E-07
vn -2.861023E-06 1 -1.192093E-07
vn -2.861023E-06 1 -1.192093E-07
vn -2.861023E-06 1 -1.192093E-07
vn -2.861023E-06 1 -1.192093E-07
vn -2.861023E-06 1 -1.192093E-07
vn -2.861023E-06 1 -1.192093E-07
vn -2.861023E-06 1 -1.192093E-07
vn -2.861023E-06 1 -1.192093E-07
vn -2.861023E-06 1 -1.192093E-07
vn -2.861023E-06 1 -1.192093E-07
vn -2.861023E-06 1 -1.192093E-07
vn -2.861023E-06 1 -1.192093E-07
vn -2.861023E-06 1 -1.192093E-07
vn -2.861023E-06 1 -1.192093E-07
vn -2.861023E-06 1 -1.192093E-07
vn -2.861023E-06 1 -1.192093E-07
vn -2.861023E-06 1 -1.192093E-07
vn -2.861023E-06 1 -1.192093E-07
vn -2.861023E-06 1 -1.192093E-07
vn -2.861023E-06 1 -1.192093E-07
vn -2.861023E-06 1 -1.192093E-07
vn -2.861023E-06 1 -1.192093E-07
vn -2.861023E-06 1 -1.192093E-07
vn -2.861023E-06 1 -1.192093E-07
vn -2.861023E-06 1 -1.192093E-07
vn -2.861023E-06 1 -1.192093E-07
vn -2.861023E-06 1 -1.192093E-07
vn -2.861023E-06 1 -1.192093E-07
vn -2.861023E-06 1 -1.192093E-07
vn -2.861023E-06 1 -1.192093E-07
vn -2.861023E-06 1 -1.192093E-07
vn -2.861023E-06 1 -1.192093E-07
vn -2.861023E-06 1 -1.192093E-07
vn -2.861023E-06 1 -1.192093E-07
vn -2.861023E-06 1 -1.192093E-07
vn -2.861023E-06 1 -1.192093E-07
vn -2.861023E-06 1 -1.192093E-07
vn -2.861023E-06 1 -1.192093E-07
vn -2.861023E-06 1 -1.192093E-07
vn -2.861023E-06 1 -1.192093E-07
vn -2.861023E-06 1 -1.192093E-07
vn -2.861023E-06 1 -1.192093E-07
vn -2.861023E-06 1 -1.192093E-07
vn -2.861023E-06 1 -1.192093E-07
vn -2.861023E-06 1 -1.192093E-07
vn -2.861023E-06 1 -1.192093E-07
vn -2.861023E-06 1 -1.192093E-07
vn -2.861023E-06 1 -1.192093E-07
vn -2.861023E-06 1 -1.192093E-07
vn -2.861023E-06 1 -1.192093E-07
vn -2.861023E-06 1 -1.192093E-07
vn -2.861023E-06 1 -1.192093E-07
vn -2.861023E-06 1 -1.192093E-07
vn -2.861023E-06 1 -1.192093E-07
vn -2.861023E-06 1 -1.192093E-07
vn -2.861023E-06 1 -1.192093E-07
vn -2.861023E-06 1 -1.192093E-07
vn -2.861023E-06 1 -1.192093E-07
vn -2.861023E-06 1 -1.192093E-07
vn -2.861023E-06 1 -1.192093E-07
vn -2.861023E-06 1 -1.192093E-07
vn -2.861023E-06 1 -1.192093E-07
vn -2.861023E-06 1 -1.192093E-07
vn -2.861023E-06 1 -1.192093E-07
vn -2.861023E-06 1 -1.192093E-07
vn -2.861023E-06 1 -1.192093E-07
vn -2.861023E-06 1 -1.192093E-07

vt 0 0
vt 0 0.09997559
vt 0.09997559 0.09997559
vt 0.09997559 0
vt 0.1999512 0.09997559
vt 0.1999512 0
vt 0.2998047 0.09997559
vt 0.2998047 0
vt 0.3999023 0.09997559
vt 0.3999023 0
vt 0.5 0.09997559
vt 0.5 0
vt 0.5996094 0.09997559
vt 0.5996094 0
vt 0.699707 0.09997559
vt 0.699707 0
vt 0.7998047 0.09997559
vt 0.7998047 0
vt 0.8999023 0.09997559
vt 0.8999023 0
vt 1 0.09997559
vt 1 0
vt 0.3999023 0.1999512
vt 0.5 0.1999512
vt 0.5996094 0.1999512
vt 0.699707 0.1999512
vt 0.7998047 0.1999512
vt 0.8999023 0.1999512
vt 1 0.1999512
vt 0.5 0.2998047
vt 0.3999023 0.2998047
vt 0.2998047 0.1999512
vt 0.1999512 0.1999512
vt 0.09997559 0.1999512
vt 0 0.1999512
vt 0.09997559 0.2998047
vt 0 0.2998047
vt 0.1999512 0.2998047
vt 0.2998047 0.2998047
vt 1 0.2998047
vt 0.09997559 0.3999023
vt 0 0.3999023
vt 0.1999512 0.3999023
vt 0.2998047 0.3999023
vt 0.3999023 0.3999023
vt 0.5 0.3999023
vt 0.5996094 0.3999023
vt 0.5996094 0.2998047
vt 0.699707 0.2998047
vt 0.7998047 0.2998047
vt 0.8999023 0.2998047
vt 0.699707 0.3999023
vt 0.7998047 0.3999023
vt 0.8999023 0.3999023
vt 1 0.3999023
vt 0.699707 0.5
vt 0.5996094 0.5
vt 0.7998047 0.5
vt 0.8999023 0.5
vt 1 0.5
vt 0.699707 0.5996094
vt 0.5996094 0.5996094
vt 0.5 0.5
vt 0.3999023 0.5
vt 0.2998047 0.5
vt 0.1999512 0.5
vt 0.09997559 0.5
vt 0 0.5
vt 0.09997559 0.5996094
vt 0 0.5996094
vt 0.1999512 0.5996094
vt 0.2998047 0.5996094
vt 0.3999023 0.5996094
vt 0.5 0.5996094
vt 0.09997559 0.699707
vt 0 0.699707
vt 0.1999512 0.699707
vt 0.2998047 0.699707
vt 0.3999023 0.699707
vt 0.5 0.699707
vt 0.5996094 0.699707
vt 0.699707 0.699707
vt 0.7998047 0.699707
vt 0.7998047 0.5996094
vt 0.8999023 0.5996094
vt 1 0.5996094
vt 0.8999023 0.699707
vt 1 0.699707
vt 0.3999023 0.7998047
vt 0.5 0.7998047
vt 0.5996094 0.7998047
vt 0.699707 0.7998047
vt 0.7998047 0.7998047
vt 0.8999023 0.7998047
vt 1 0.7998047
vt 0.5 0.8999023
vt 0.3999023 0.8999023
vt 0.2998047 0.7998047
vt 0.1999512 0.7998047
vt 0.09997559 0.7998047
vt 0 0.7998047
vt 0.09997559 0.8999023
vt 0 0.8999023
vt 0.1999512 0.8999023
vt 0.2998047 0.8999023
vt 1 0.8999023
vt 0.09997559 1
vt 0 1
vt 0.1999512 1
vt 0.2998047 1
vt 0.3999023 1
vt 0.5 1
vt 0.5996094 1
vt 0.5996094 0.8999023
vt 0.699707 0.8999023
vt 0.7998047 0.8999023
vt 0.8999023 0.8999023
vt 0.699707 1
vt 0.7998047 1
vt 0.8999023 1
vt 1 1

g P_Forrest_Sky_(5)_687_3
usemtl P_Forrest_Sky_(5)_687_3
usemap P_Forrest_Sky_(5)_687_3
f 1/1/1 3/3/3 2/2/2
f 1/1/1 4/4/4 3/3/3
f 4/4/4 5/5/5 3/3/3
f 4/4/4 6/6/6 5/5/5
f 6/6/6 7/7/7 5/5/5
f 6/6/6 8/8/8 7/7/7
f 8/8/8 9/9/9 7/7/7
f 8/8/8 10/10/10 9/9/9
f 10/10/10 11/11/11 9/9/9
f 10/10/10 12/12/12 11/11/11
f 12/12/12 13/13/13 11/11/11
f 12/12/12 14/14/14 13/13/13
f 14/14/14 15/15/15 13/13/13
f 14/14/14 16/16/16 15/15/15
f 16/16/16 17/17/17 15/15/15
f 16/16/16 18/18/18 17/17/17
f 18/18/18 19/19/19 17/17/17
f 18/18/18 20/20/20 19/19/19
f 20/20/20 21/21/21 19/19/19
f 20/20/20 22/22/22 21/21/21
f 7/7/7 9/9/9 23/23/23
f 9/9/9 24/24/24 23/23/23
f 9/9/9 11/11/11 24/24/24
f 11/11/11 25/25/25 24/24/24
f 11/11/11 13/13/13 25/25/25
f 13/13/13 26/26/26 25/25/25
f 13/13/13 15/15/15 26/26/26
f 15/15/15 27/27/27 26/26/26
f 15/15/15 17/17/17 27/27/27
f 17/17/17 28/28/28 27/27/27
f 17/17/17 19/19/19 28/28/28
f 19/19/19 29/29/29 28/28/28
f 19/19/19 21/21/21 29/29/29
f 23/23/23 24/24/24 30/30/30
f 23/23/23 30/30/30 31/31/31
f 32/32/32 23/23/23 31/31/31
f 7/7/7 23/23/23 32/32/32
f 5/5/5 7/7/7 32/32/32
f 5/5/5 32/32/32 33/33/33
f 3/3/3 5/5/5 33/33/33
f 3/3/3 33/33/33 34/34/34
f 2/2/2 3/3/3 34/34/34
f 2/2/2 34/34/34 35/35/35
f 35/35/35 34/34/34 36/36/36
f 35/35/35 36/36/36 37/37/37
f 34/34/34 38/38/38 36/36/36
f 34/34/34 33/33/33 38/38/38
f 33/33/33 39/39/39 38/38/38
f 33/33/33 32/32/32 39/39/39
f 32/32/32 31/31/31 39/39/39
f 28/28/28 29/29/29 40/40/40
f 37/37/37 36/36/36 41/41/41
f 37/37/37 41/41/41 42/42/42
f 36/36/36 43/43/43 41/41/41
f 36/36/36 38/38/38 43/43/43
f 38/38/38 44/44/44 43/43/43
f 38/38/38 39/39/39 44/44/44
f 39/39/39 45/45/45 44/44/44
f 39/39/39 31/31/31 45/45/45
f 31/31/31 46/46/46 45/45/45
f 31/31/31 30/30/30 46/46/46
f 30/30/30 47/47/47 46/46/46
f 30/30/30 48/48/48 47/47/47
f 24/24/24 48/48/48 30/30/30
f 24/24/24 25/25/25 48/48/48
f 25/25/25 49/49/49 48/48/48
f 25/25/25 26/26/26 49/49/49
f 26/26/26 50/50/50 49/49/49
f 26/26/26 27/27/27 50/50/50
f 27/27/27 51/51/51 50/50/50
f 27/27/27 28/28/28 51/51/51
f 28/28/28 40/40/40 51/51/51
f 48/48/48 52/52/52 47/47/47
f 48/48/48 49/49/49 52/52/52
f 49/49/49 53/53/53 52/52/52
f 49/49/49 50/50/50 53/53/53
f 50/50/50 54/54/54 53/53/53
f 50/50/50 51/51/51 54/54/54
f 51/51/51 55/55/55 54/54/54
f 51/51/51 40/40/40 55/55/55
f 47/47/47 52/52/52 56/56/56
f 47/47/47 56/56/56 57/57/57
f 52/52/52 58/58/58 56/56/56
f 52/52/52 53/53/53 58/58/58
f 53/53/53 59/59/59 58/58/58
f 53/53/53 54/54/54 59/59/59
f 54/54/54 60/60/60 59/59/59
f 54/54/54 55/55/55 60/60/60
f 57/57/57 56/56/56 61/61/61
f 57/57/57 61/61/61 62/62/62
f 63/63/63 57/57/57 62/62/62
f 46/46/46 57/57/57 63/63/63
f 45/45/45 46/46/46 63/63/63
f 45/45/45 63/63/63 64/64/64
f 44/44/44 45/45/45 64/64/64
f 44/44/44 64/64/64 65/65/65
f 43/43/43 44/44/44 65/65/65
f 43/43/43 65/65/65 66/66/66
f 41/41/41 43/43/43 66/66/66
f 41/41/41 66/66/66 67/67/67
f 42/42/42 41/41/41 67/67/67
f 42/42/42 67/67/67 68/68/68
f 68/68/68 67/67/67 69/69/69
f 68/68/68 69/69/69 70/70/70
f 67/67/67 71/71/71 69/69/69
f 67/67/67 66/66/66 71/71/71
f 66/66/66 72/72/72 71/71/71
f 66/66/66 65/65/65 72/72/72
f 65/65/65 73/73/73 72/72/72
f 65/65/65 64/64/64 73/73/73
f 64/64/64 74/74/74 73/73/73
f 64/64/64 63/63/63 74/74/74
f 63/63/63 62/62/62 74/74/74
f 70/70/70 69/69/69 75/75/75
f 70/70/70 75/75/75 76/76/76
f 69/69/69 77/77/77 75/75/75
f 69/69/69 71/71/71 77/77/77
f 71/71/71 78/78/78 77/77/77
f 71/71/71 72/72/72 78/78/78
f 72/72/72 79/79/79 78/78/78
f 72/72/72 73/73/73 79/79/79
f 73/73/73 80/80/80 79/79/79
f 73/73/73 74/74/74 80/80/80
f 74/74/74 81/81/81 80/80/80
f 74/74/74 62/62/62 81/81/81
f 62/62/62 82/82/82 81/81/81
f 62/62/62 61/61/61 82/82/82
f 61/61/61 83/83/83 82/82/82
f 61/61/61 84/84/84 83/83/83
f 56/56/56 84/84/84 61/61/61
f 56/56/56 58/58/58 84/84/84
f 58/58/58 85/85/85 84/84/84
f 58/58/58 59/59/59 85/85/85
f 59/59/59 86/86/86 85/85/85
f 59/59/59 60/60/60 86/86/86
f 84/84/84 87/87/87 83/83/83
f 84/84/84 85/85/85 87/87/87
f 85/85/85 88/88/88 87/87/87
f 85/85/85 86/86/86 88/88/88
f 78/78/78 79/79/79 89/89/89
f 79/79/79 90/90/90 89/89/89
f 79/79/79 80/80/80 90/90/90
f 80/80/80 91/91/91 90/90/90
f 80/80/80 81/81/81 91/91/91
f 81/81/81 92/92/92 91/91/91
f 81/81/81 82/82/82 92/92/92
f 82/82/82 93/93/93 92/92/92
f 82/82/82 83/83/83 93/93/93
f 83/83/83 94/94/94 93/93/93
f 83/83/83 87/87/87 94/94/94
f 87/87/87 95/95/95 94/94/94
f 87/87/87 88/88/88 95/95/95
f 89/89/89 90/90/90 96/96/96
f 89/89/89 96/96/96 97/97/97
f 98/98/98 89/89/89 97/97/97
f 78/78/78 89/89/89 98/98/98
f 77/77/77 78/78/78 98/98/98
f 77/77/77 98/98/98 99/99/99
f 75/75/75 77/77/77 99/99/99
f 75/75/75 99/99/99 100/100/100
f 76/76/76 75/75/75 100/100/100
f 76/76/76 100/100/100 101/101/101
f 101/101/101 100/100/100 102/102/102
f 101/101/101 102/102/102 103/103/103
f 100/100/100 104/104/104 102/102/102
f 100/100/100 99/99/99 104/104/104
f 99/99/99 105/105/105 104/104/104
f 99/99/99 98/98/98 105/105/105
f 98/98/98 97/97/97 105/105/105
f 94/94/94 95/95/95 106/106/106
f 103/103/103 102/102/102 107/107/107
f 103/103/103 107/107/107 108/108/108
f 102/102/102 109/109/109 107/107/107
f 102/102/102 104/104/104 109/109/109
f 104/104/104 110/110/110 109/109/109
f 104/104/104 105/105/105 110/110/110
f 105/105/105 111/111/111 110/110/110
f 105/105/105 97/97/97 111/111/111
f 97/97/97 112/112/112 111/111/111
f 97/97/97 96/96/96 112/112/112
f 96/96/96 113/113/113 112/112/112
f 96/96/96 114/114/114 113/113/113
f 90/90/90 114/114/114 96/96/96
f 90/90/90 91/91/91 114/114/114
f 91/91/91 115/115/115 114/114/114
f 91/91/91 92/92/92 115/115/115
f 92/92/92 116/116/116 115/115/115
f 92/92/92 93/93/93 116/116/116
f 93/93/93 117/117/117 116/116/116
f 93/93/93 94/94/94 117/117/117
f 94/94/94 106/106/106 117/117/117
f 114/114/114 118/118/118 113/113/113
f 114/114/114 115/115/115 118/118/118
f 115/115/115 119/119/119 118/118/118
f 115/115/115 116/116/116 119/119/119
f 116/116/116 120/120/120 119/119/119
f 116/116/116 117/117/117 120/120/120
f 117/117/117 121/121/121 120/120/120
f 117/117/117 106/106/106 121/121/121
f 46/46/46 47/47/47 57/57/57
