#P_Forrest_Sky_(2)_672_1.obj

v -5 5.261867E-06 5.000002
v -5.000001 4.480081E-06 4.000002
v -4.000001 4.843494E-06 4.000002
v -4 5.62528E-06 5.000002
v -3 4.492956E-06 4.000002
v -3.000001 5.274725E-06 5.000002
v -2 4.856369E-06 4.000002
v -2 5.638022E-06 5.000001
v -0.9999996 4.505765E-06 4.000001
v -1 5.287468E-06 5.000002
v 1.286641E-07 4.869111E-06 4.000001
v -2.878289E-07 5.650747E-06 5.000001
v 0.9999998 4.51849E-06 4.000001
v 1.000001 5.300209E-06 5.000001
v 2 4.881903E-06 4.000001
v 2 5.663622E-06 5.000001
v 3 4.531299E-06 4.000001
v 3 5.313068E-06 5.000001
v 4 4.894711E-06 4.000001
v 4.000001 5.676497E-06 5.000001
v 5 5.258058E-06 4
v 5.000001 6.039777E-06 5
v -1 3.724046E-06 3.000001
v -7.166931E-07 4.087392E-06 3.000001
v 1 3.736788E-06 3.000001
v 2 4.1002E-06 3.000001
v 3 4.463547E-06 3.000001
v 4 4.113009E-06 3.000001
v 5 4.476355E-06 3
v -2.889479E-07 3.305689E-06 2.000001
v -1 2.942277E-06 2.000001
v -2 4.0746E-06 3.000001
v -3.000001 3.711237E-06 3.000002
v -4.000001 4.061792E-06 3.000002
v -5 3.698445E-06 3.000002
v -4 3.280089E-06 2.000002
v -5 2.916676E-06 2.000001
v -3.000001 2.929468E-06 2.000001
v -2.000001 3.292814E-06 2.000001
v 5 3.694644E-06 2
v -4.000001 2.49837E-06 1.000001
v -5.000001 2.134957E-06 1.000001
v -3 2.147766E-06 1.000001
v -2 2.511179E-06 1.000001
v -1.000001 2.160557E-06 1.000001
v -1.134305E-06 2.52397E-06 1.000001
v 0.9999998 2.887333E-06 1.000001
v 0.9999994 2.955068E-06 2.000001
v 1.999999 3.318414E-06 2
v 3 3.681844E-06 2
v 4 3.33129E-06 2
v 2 2.536779E-06 1.000001
v 3 2.900142E-06 1
v 4 2.549554E-06 1
v 5 2.912934E-06 1
v 1.999999 1.755059E-06 5.612512E-07
v 0.999999 2.105647E-06 6.945613E-07
v 3 2.118456E-06 4.716737E-07
v 4 1.767885E-06 3.820962E-07
v 5 2.131256E-06 2.269196E-07
v 1.999999 9.73307E-07 -0.9999998
v 0.9999994 1.323895E-06 -0.9999996
v -7.065599E-07 1.742268E-06 8.278715E-07
v -1 1.378888E-06 9.611817E-07
v -2 1.729476E-06 1.094492E-06
v -3.000001 1.36608E-06 1.184069E-06
v -4.000001 1.716667E-06 1.31738E-06
v -5.000002 1.353271E-06 1.406957E-06
v -4.000001 9.34898E-07 -0.999999
v -5.000001 5.715185E-07 -0.9999989
v -3.000002 5.843101E-07 -0.9999992
v -2.000001 9.477067E-07 -0.9999993
v -1.000001 5.971189E-07 -0.9999994
v -2.703756E-07 9.605155E-07 -0.9999995
v -4.000001 1.532793E-07 -1.999999
v -5.000001 -2.101001E-07 -1.999999
v -3.000001 -1.973086E-07 -1.999999
v -2 1.660881E-07 -1.999999
v -1.000001 5.294675E-07 -1.999999
v -1.129798E-06 1.788796E-07 -1.999999
v 0.9999998 5.422763E-07 -1.999999
v 2 1.916884E-07 -2
v 2.999999 5.550679E-07 -2
v 2.999999 1.336687E-06 -0.9999999
v 4 9.860991E-07 -1
v 5 1.349495E-06 -1
v 3.999999 2.044799E-07 -2
v 4.999999 5.678594E-07 -2
v -1.000002 -2.522519E-07 -2.999999
v -6.964268E-07 -6.02856E-07 -3
v 0.999999 -2.3951E-07 -3
v 1.999999 -5.900645E-07 -3
v 3 -2.267012E-07 -3
v 3.999999 -5.772557E-07 -3
v 4.999999 -2.139097E-07 -3
v -1.51928E-06 -1.384709E-06 -4
v -1.000001 -1.034088E-06 -4
v -2.000001 -6.156648E-07 -2.999999
v -3.000001 -9.790108E-07 -2.999999
v -4.000001 -6.284563E-07 -2.999999
v -5.000002 -9.918195E-07 -2.999999
v -4.000001 -1.410309E-06 -4
v -5.000001 -1.773656E-06 -4
v -3.000002 -1.046897E-06 -4
v -2.000001 -1.397501E-06 -4
v 5 -9.957456E-07 -4.000001
v -4.000002 -2.191895E-06 -5
v -5.000002 -2.555241E-06 -4.999999
v -3.000001 -1.828465E-06 -4.999999
v -2.000002 -2.179086E-06 -5
v -1.000001 -1.815656E-06 -5
v -1.114039E-06 -2.166278E-06 -5
v 0.9999986 -1.802932E-06 -5
v 0.9999995 -1.021346E-06 -4
v 1.999999 -1.3719E-06 -4
v 2.999999 -1.008554E-06 -4.000001
v 4 -1.359092E-06 -4
v 1.999998 -2.153486E-06 -5
v 2.999999 -1.790123E-06 -5
v 3.999999 -2.140677E-06 -5
v 4.999999 -1.777331E-06 -5

vn 2.861023E-06 1 -1.788139E-07
vn 2.861023E-06 1 -1.788139E-07
vn 2.861023E-06 1 -1.788139E-07
vn 2.861023E-06 1 -1.788139E-07
vn 2.861023E-06 1 -1.788139E-07
vn 2.861023E-06 1 -1.788139E-07
vn 2.861023E-06 1 -1.788139E-07
vn 2.861023E-06 1 -1.788139E-07
vn 2.861023E-06 1 -1.788139E-07
vn 2.861023E-06 1 -1.788139E-07
vn 2.861023E-06 1 -1.788139E-07
vn 2.861023E-06 1 -1.788139E-07
vn 2.861023E-06 1 -1.788139E-07
vn 2.861023E-06 1 -1.788139E-07
vn 2.861023E-06 1 -1.788139E-07
vn 2.861023E-06 1 -1.788139E-07
vn 2.861023E-06 1 -1.788139E-07
vn 2.861023E-06 1 -1.788139E-07
vn 2.861023E-06 1 -1.788139E-07
vn 2.861023E-06 1 -1.788139E-07
vn 2.861023E-06 1 -1.788139E-07
vn 2.861023E-06 1 -1.788139E-07
vn 2.861023E-06 1 -1.788139E-07
vn 2.861023E-06 1 -1.788139E-07
vn 2.861023E-06 1 -1.788139E-07
vn 2.861023E-06 1 -1.788139E-07
vn 2.861023E-06 1 -1.788139E-07
vn 2.861023E-06 1 -1.788139E-07
vn 2.861023E-06 1 -1.788139E-07
vn 2.861023E-06 1 -1.788139E-07
vn 2.861023E-06 1 -1.788139E-07
vn 2.861023E-06 1 -1.788139E-07
vn 2.861023E-06 1 -1.788139E-07
vn 2.861023E-06 1 -1.788139E-07
vn 2.861023E-06 1 -1.788139E-07
vn 2.861023E-06 1 -1.788139E-07
vn 2.861023E-06 1 -1.788139E-07
vn 2.861023E-06 1 -1.788139E-07
vn 2.861023E-06 1 -1.788139E-07
vn 2.861023E-06 1 -1.788139E-07
vn 2.861023E-06 1 -1.788139E-07
vn 2.861023E-06 1 -1.788139E-07
vn 2.861023E-06 1 -1.788139E-07
vn 2.861023E-06 1 -1.788139E-07
vn 2.861023E-06 1 -1.788139E-07
vn 2.861023E-06 1 -1.788139E-07
vn 2.861023E-06 1 -1.788139E-07
vn 2.861023E-06 1 -1.788139E-07
vn 2.861023E-06 1 -1.788139E-07
vn 2.861023E-06 1 -1.788139E-07
vn 2.861023E-06 1 -1.788139E-07
vn 2.861023E-06 1 -1.788139E-07
vn 2.861023E-06 1 -1.788139E-07
vn 2.861023E-06 1 -1.788139E-07
vn 2.861023E-06 1 -1.788139E-07
vn 2.861023E-06 1 -1.788139E-07
vn 2.861023E-06 1 -1.788139E-07
vn 2.861023E-06 1 -1.788139E-07
vn 2.861023E-06 1 -1.788139E-07
vn 2.861023E-06 1 -1.788139E-07
vn 2.861023E-06 1 -1.788139E-07
vn 2.861023E-06 1 -1.788139E-07
vn 2.861023E-06 1 -1.788139E-07
vn 2.861023E-06 1 -1.788139E-07
vn 2.861023E-06 1 -1.788139E-07
vn 2.861023E-06 1 -1.788139E-07
vn 2.861023E-06 1 -1.788139E-07
vn 2.861023E-06 1 -1.788139E-07
vn 2.861023E-06 1 -1.788139E-07
vn 2.861023E-06 1 -1.788139E-07
vn 2.861023E-06 1 -1.788139E-07
vn 2.861023E-06 1 -1.788139E-07
vn 2.861023E-06 1 -1.788139E-07
vn 2.861023E-06 1 -1.788139E-07
vn 2.861023E-06 1 -1.788139E-07
vn 2.861023E-06 1 -1.788139E-07
vn 2.861023E-06 1 -1.788139E-07
vn 2.861023E-06 1 -1.788139E-07
vn 2.861023E-06 1 -1.788139E-07
vn 2.861023E-06 1 -1.788139E-07
vn 2.861023E-06 1 -1.788139E-07
vn 2.861023E-06 1 -1.788139E-07
vn 2.861023E-06 1 -1.788139E-07
vn 2.861023E-06 1 -1.788139E-07
vn 2.861023E-06 1 -1.788139E-07
vn 2.861023E-06 1 -1.788139E-07
vn 2.861023E-06 1 -1.788139E-07
vn 2.861023E-06 1 -1.788139E-07
vn 2.861023E-06 1 -1.788139E-07
vn 2.861023E-06 1 -1.788139E-07
vn 2.861023E-06 1 -1.788139E-07
vn 2.861023E-06 1 -1.788139E-07
vn 2.861023E-06 1 -1.788139E-07
vn 2.861023E-06 1 -1.788139E-07
vn 2.861023E-06 1 -1.788139E-07
vn 2.861023E-06 1 -1.788139E-07
vn 2.861023E-06 1 -1.788139E-07
vn 2.861023E-06 1 -1.788139E-07
vn 2.861023E-06 1 -1.788139E-07
vn 2.861023E-06 1 -1.788139E-07
vn 2.861023E-06 1 -1.788139E-07
vn 2.861023E-06 1 -1.788139E-07
vn 2.861023E-06 1 -1.788139E-07
vn 2.861023E-06 1 -1.788139E-07
vn 2.861023E-06 1 -1.788139E-07
vn 2.861023E-06 1 -1.788139E-07
vn 2.861023E-06 1 -1.788139E-07
vn 2.861023E-06 1 -1.788139E-07
vn 2.861023E-06 1 -1.788139E-07
vn 2.861023E-06 1 -1.788139E-07
vn 2.861023E-06 1 -1.788139E-07
vn 2.861023E-06 1 -1.788139E-07
vn 2.861023E-06 1 -1.788139E-07
vn 2.861023E-06 1 -1.788139E-07
vn 2.861023E-06 1 -1.788139E-07
vn 2.861023E-06 1 -1.788139E-07
vn 2.861023E-06 1 -1.788139E-07
vn 2.861023E-06 1 -1.788139E-07
vn 2.861023E-06 1 -1.788139E-07
vn 2.861023E-06 1 -1.788139E-07
vn 2.861023E-06 1 -1.788139E-07

vt 0 0
vt 0 0.09997559
vt 0.09997559 0.09997559
vt 0.09997559 0
vt 0.1999512 0.09997559
vt 0.1999512 0
vt 0.2998047 0.09997559
vt 0.2998047 0
vt 0.3999023 0.09997559
vt 0.3999023 0
vt 0.5 0.09997559
vt 0.5 0
vt 0.5996094 0.09997559
vt 0.5996094 0
vt 0.699707 0.09997559
vt 0.699707 0
vt 0.7998047 0.09997559
vt 0.7998047 0
vt 0.8999023 0.09997559
vt 0.8999023 0
vt 1 0.09997559
vt 1 0
vt 0.3999023 0.1999512
vt 0.5 0.1999512
vt 0.5996094 0.1999512
vt 0.699707 0.1999512
vt 0.7998047 0.1999512
vt 0.8999023 0.1999512
vt 1 0.1999512
vt 0.5 0.2998047
vt 0.3999023 0.2998047
vt 0.2998047 0.1999512
vt 0.1999512 0.1999512
vt 0.09997559 0.1999512
vt 0 0.1999512
vt 0.09997559 0.2998047
vt 0 0.2998047
vt 0.1999512 0.2998047
vt 0.2998047 0.2998047
vt 1 0.2998047
vt 0.09997559 0.3999023
vt 0 0.3999023
vt 0.1999512 0.3999023
vt 0.2998047 0.3999023
vt 0.3999023 0.3999023
vt 0.5 0.3999023
vt 0.5996094 0.3999023
vt 0.5996094 0.2998047
vt 0.699707 0.2998047
vt 0.7998047 0.2998047
vt 0.8999023 0.2998047
vt 0.699707 0.3999023
vt 0.7998047 0.3999023
vt 0.8999023 0.3999023
vt 1 0.3999023
vt 0.699707 0.5
vt 0.5996094 0.5
vt 0.7998047 0.5
vt 0.8999023 0.5
vt 1 0.5
vt 0.699707 0.5996094
vt 0.5996094 0.5996094
vt 0.5 0.5
vt 0.3999023 0.5
vt 0.2998047 0.5
vt 0.1999512 0.5
vt 0.09997559 0.5
vt 0 0.5
vt 0.09997559 0.5996094
vt 0 0.5996094
vt 0.1999512 0.5996094
vt 0.2998047 0.5996094
vt 0.3999023 0.5996094
vt 0.5 0.5996094
vt 0.09997559 0.699707
vt 0 0.699707
vt 0.1999512 0.699707
vt 0.2998047 0.699707
vt 0.3999023 0.699707
vt 0.5 0.699707
vt 0.5996094 0.699707
vt 0.699707 0.699707
vt 0.7998047 0.699707
vt 0.7998047 0.5996094
vt 0.8999023 0.5996094
vt 1 0.5996094
vt 0.8999023 0.699707
vt 1 0.699707
vt 0.3999023 0.7998047
vt 0.5 0.7998047
vt 0.5996094 0.7998047
vt 0.699707 0.7998047
vt 0.7998047 0.7998047
vt 0.8999023 0.7998047
vt 1 0.7998047
vt 0.5 0.8999023
vt 0.3999023 0.8999023
vt 0.2998047 0.7998047
vt 0.1999512 0.7998047
vt 0.09997559 0.7998047
vt 0 0.7998047
vt 0.09997559 0.8999023
vt 0 0.8999023
vt 0.1999512 0.8999023
vt 0.2998047 0.8999023
vt 1 0.8999023
vt 0.09997559 1
vt 0 1
vt 0.1999512 1
vt 0.2998047 1
vt 0.3999023 1
vt 0.5 1
vt 0.5996094 1
vt 0.5996094 0.8999023
vt 0.699707 0.8999023
vt 0.7998047 0.8999023
vt 0.8999023 0.8999023
vt 0.699707 1
vt 0.7998047 1
vt 0.8999023 1
vt 1 1

g P_Forrest_Sky_(2)_672_1
usemtl P_Forrest_Sky_(2)_672_1
usemap P_Forrest_Sky_(2)_672_1
f 1/1/1 3/3/3 2/2/2
f 1/1/1 4/4/4 3/3/3
f 4/4/4 5/5/5 3/3/3
f 4/4/4 6/6/6 5/5/5
f 6/6/6 7/7/7 5/5/5
f 6/6/6 8/8/8 7/7/7
f 8/8/8 9/9/9 7/7/7
f 8/8/8 10/10/10 9/9/9
f 10/10/10 11/11/11 9/9/9
f 10/10/10 12/12/12 11/11/11
f 12/12/12 13/13/13 11/11/11
f 12/12/12 14/14/14 13/13/13
f 14/14/14 15/15/15 13/13/13
f 14/14/14 16/16/16 15/15/15
f 16/16/16 17/17/17 15/15/15
f 16/16/16 18/18/18 17/17/17
f 18/18/18 19/19/19 17/17/17
f 18/18/18 20/20/20 19/19/19
f 20/20/20 21/21/21 19/19/19
f 20/20/20 22/22/22 21/21/21
f 7/7/7 9/9/9 23/23/23
f 9/9/9 24/24/24 23/23/23
f 9/9/9 11/11/11 24/24/24
f 11/11/11 25/25/25 24/24/24
f 11/11/11 13/13/13 25/25/25
f 13/13/13 26/26/26 25/25/25
f 13/13/13 15/15/15 26/26/26
f 15/15/15 27/27/27 26/26/26
f 15/15/15 17/17/17 27/27/27
f 17/17/17 28/28/28 27/27/27
f 17/17/17 19/19/19 28/28/28
f 19/19/19 29/29/29 28/28/28
f 19/19/19 21/21/21 29/29/29
f 23/23/23 24/24/24 30/30/30
f 23/23/23 30/30/30 31/31/31
f 32/32/32 23/23/23 31/31/31
f 7/7/7 23/23/23 32/32/32
f 5/5/5 7/7/7 32/32/32
f 5/5/5 32/32/32 33/33/33
f 3/3/3 5/5/5 33/33/33
f 3/3/3 33/33/33 34/34/34
f 2/2/2 3/3/3 34/34/34
f 2/2/2 34/34/34 35/35/35
f 35/35/35 34/34/34 36/36/36
f 35/35/35 36/36/36 37/37/37
f 34/34/34 38/38/38 36/36/36
f 34/34/34 33/33/33 38/38/38
f 33/33/33 39/39/39 38/38/38
f 33/33/33 32/32/32 39/39/39
f 32/32/32 31/31/31 39/39/39
f 28/28/28 29/29/29 40/40/40
f 37/37/37 36/36/36 41/41/41
f 37/37/37 41/41/41 42/42/42
f 36/36/36 43/43/43 41/41/41
f 36/36/36 38/38/38 43/43/43
f 38/38/38 44/44/44 43/43/43
f 38/38/38 39/39/39 44/44/44
f 39/39/39 45/45/45 44/44/44
f 39/39/39 31/31/31 45/45/45
f 31/31/31 46/46/46 45/45/45
f 31/31/31 30/30/30 46/46/46
f 30/30/30 47/47/47 46/46/46
f 30/30/30 48/48/48 47/47/47
f 24/24/24 48/48/48 30/30/30
f 24/24/24 25/25/25 48/48/48
f 25/25/25 49/49/49 48/48/48
f 25/25/25 26/26/26 49/49/49
f 26/26/26 50/50/50 49/49/49
f 26/26/26 27/27/27 50/50/50
f 27/27/27 51/51/51 50/50/50
f 27/27/27 28/28/28 51/51/51
f 28/28/28 40/40/40 51/51/51
f 48/48/48 52/52/52 47/47/47
f 48/48/48 49/49/49 52/52/52
f 49/49/49 53/53/53 52/52/52
f 49/49/49 50/50/50 53/53/53
f 50/50/50 54/54/54 53/53/53
f 50/50/50 51/51/51 54/54/54
f 51/51/51 55/55/55 54/54/54
f 51/51/51 40/40/40 55/55/55
f 47/47/47 52/52/52 56/56/56
f 47/47/47 56/56/56 57/57/57
f 52/52/52 58/58/58 56/56/56
f 52/52/52 53/53/53 58/58/58
f 53/53/53 59/59/59 58/58/58
f 53/53/53 54/54/54 59/59/59
f 54/54/54 60/60/60 59/59/59
f 54/54/54 55/55/55 60/60/60
f 57/57/57 56/56/56 61/61/61
f 57/57/57 61/61/61 62/62/62
f 63/63/63 57/57/57 62/62/62
f 46/46/46 57/57/57 63/63/63
f 45/45/45 46/46/46 63/63/63
f 45/45/45 63/63/63 64/64/64
f 44/44/44 45/45/45 64/64/64
f 44/44/44 64/64/64 65/65/65
f 43/43/43 44/44/44 65/65/65
f 43/43/43 65/65/65 66/66/66
f 41/41/41 43/43/43 66/66/66
f 41/41/41 66/66/66 67/67/67
f 42/42/42 41/41/41 67/67/67
f 42/42/42 67/67/67 68/68/68
f 68/68/68 67/67/67 69/69/69
f 68/68/68 69/69/69 70/70/70
f 67/67/67 71/71/71 69/69/69
f 67/67/67 66/66/66 71/71/71
f 66/66/66 72/72/72 71/71/71
f 66/66/66 65/65/65 72/72/72
f 65/65/65 73/73/73 72/72/72
f 65/65/65 64/64/64 73/73/73
f 64/64/64 74/74/74 73/73/73
f 64/64/64 63/63/63 74/74/74
f 63/63/63 62/62/62 74/74/74
f 70/70/70 69/69/69 75/75/75
f 70/70/70 75/75/75 76/76/76
f 69/69/69 77/77/77 75/75/75
f 69/69/69 71/71/71 77/77/77
f 71/71/71 78/78/78 77/77/77
f 71/71/71 72/72/72 78/78/78
f 72/72/72 79/79/79 78/78/78
f 72/72/72 73/73/73 79/79/79
f 73/73/73 80/80/80 79/79/79
f 73/73/73 74/74/74 80/80/80
f 74/74/74 81/81/81 80/80/80
f 74/74/74 62/62/62 81/81/81
f 62/62/62 82/82/82 81/81/81
f 62/62/62 61/61/61 82/82/82
f 61/61/61 83/83/83 82/82/82
f 61/61/61 84/84/84 83/83/83
f 56/56/56 84/84/84 61/61/61
f 56/56/56 58/58/58 84/84/84
f 58/58/58 85/85/85 84/84/84
f 58/58/58 59/59/59 85/85/85
f 59/59/59 86/86/86 85/85/85
f 59/59/59 60/60/60 86/86/86
f 84/84/84 87/87/87 83/83/83
f 84/84/84 85/85/85 87/87/87
f 85/85/85 88/88/88 87/87/87
f 85/85/85 86/86/86 88/88/88
f 78/78/78 79/79/79 89/89/89
f 79/79/79 90/90/90 89/89/89
f 79/79/79 80/80/80 90/90/90
f 80/80/80 91/91/91 90/90/90
f 80/80/80 81/81/81 91/91/91
f 81/81/81 92/92/92 91/91/91
f 81/81/81 82/82/82 92/92/92
f 82/82/82 93/93/93 92/92/92
f 82/82/82 83/83/83 93/93/93
f 83/83/83 94/94/94 93/93/93
f 83/83/83 87/87/87 94/94/94
f 87/87/87 95/95/95 94/94/94
f 87/87/87 88/88/88 95/95/95
f 89/89/89 90/90/90 96/96/96
f 89/89/89 96/96/96 97/97/97
f 98/98/98 89/89/89 97/97/97
f 78/78/78 89/89/89 98/98/98
f 77/77/77 78/78/78 98/98/98
f 77/77/77 98/98/98 99/99/99
f 75/75/75 77/77/77 99/99/99
f 75/75/75 99/99/99 100/100/100
f 76/76/76 75/75/75 100/100/100
f 76/76/76 100/100/100 101/101/101
f 101/101/101 100/100/100 102/102/102
f 101/101/101 102/102/102 103/103/103
f 100/100/100 104/104/104 102/102/102
f 100/100/100 99/99/99 104/104/104
f 99/99/99 105/105/105 104/104/104
f 99/99/99 98/98/98 105/105/105
f 98/98/98 97/97/97 105/105/105
f 94/94/94 95/95/95 106/106/106
f 103/103/103 102/102/102 107/107/107
f 103/103/103 107/107/107 108/108/108
f 102/102/102 109/109/109 107/107/107
f 102/102/102 104/104/104 109/109/109
f 104/104/104 110/110/110 109/109/109
f 104/104/104 105/105/105 110/110/110
f 105/105/105 111/111/111 110/110/110
f 105/105/105 97/97/97 111/111/111
f 97/97/97 112/112/112 111/111/111
f 97/97/97 96/96/96 112/112/112
f 96/96/96 113/113/113 112/112/112
f 96/96/96 114/114/114 113/113/113
f 90/90/90 114/114/114 96/96/96
f 90/90/90 91/91/91 114/114/114
f 91/91/91 115/115/115 114/114/114
f 91/91/91 92/92/92 115/115/115
f 92/92/92 116/116/116 115/115/115
f 92/92/92 93/93/93 116/116/116
f 93/93/93 117/117/117 116/116/116
f 93/93/93 94/94/94 117/117/117
f 94/94/94 106/106/106 117/117/117
f 114/114/114 118/118/118 113/113/113
f 114/114/114 115/115/115 118/118/118
f 115/115/115 119/119/119 118/118/118
f 115/115/115 116/116/116 119/119/119
f 116/116/116 120/120/120 119/119/119
f 116/116/116 117/117/117 120/120/120
f 117/117/117 121/121/121 120/120/120
f 117/117/117 106/106/106 121/121/121
f 46/46/46 47/47/47 57/57/57
